<svg xmlns="http://www.w3.org/2000/svg" xml:space="preserve" width="266" height="123">
  <path fill="#0061b3" d="M76.127655 44.4480019h66.4725952v34.2989998H76.127655zM38.0819626.2662h66.4724884v34.446701H38.0819626zm0 88.053403h66.4724884v34.4469986H38.0819626z"/>
  <path fill="#e34648" d="M114.4482498.2334h13.8935013c6.6934052 0 10.5469055 2.9413998 10.5469055 9.2792997 0 3.4482002-1.4706879 5.8817997-3.9043121 7.2510004 3.9551086 1.0135994 6.2364044 3.7518997 6.2364044 8.3661995 0 6.0331993-3.9042969 9.5829983-10.9013977 9.5829983h-15.8711014V.2334zm8.7217102 13.3856996h3.5995865c2.3838043 0 3.3467102-1.2674999 3.3467102-3.2948999 0-2.0282993-.9629059-3.1444998-3.2452087-3.1444998h-3.701088v6.4393997zm0 14.1475001h5.577095c2.4346008 0 3.3974915-1.3183994 3.3974915-3.3974991 0-2.1806011-1.0644989-3.5498009-3.6503906-3.5498009H123.16996v6.9473zm31.8446884-7.6571999c0 4.8681011 1.5214996 7.1494007 5.222702 7.1494007 3.7528992 0 5.3242035-2.3828011 5.3242035-7.1991997V.2334h8.7216949v20.4345989c0 8.2646008-4.2597961 14.6025009-14.0458984 14.6025009-9.6846008 0-13.9433899-5.6786995-13.9433899-14.6025009V.2334h8.7206879v19.8759998zM181.2822418.2334h8.7217255v34.4794998h-8.7217255V.2334zm16.0742035 34.4794983V.2334h8.7217102v26.924799h13.8925934v7.5546989h-22.6143036zM224.3837433.2334h13.842804c8.6708984 0 15.1611023 6.1357002 15.1611023 17.289999 0 11.1044998-6.4902039 17.1894989-15.1611023 17.1894989h-13.842804V.2334zm12.6768036 26.9247993c4.8164215 0 7.5039062-3.4482002 7.5039062-9.6348 0-6.2870989-2.6874847-9.7353001-7.4531097-9.7353001h-4.0058899v19.3701h3.9550934zm-76.7235871 36.9511986c0 4.868103 1.5213928 7.1493988 5.2225952 7.1493988 3.7528992 0 5.3241882-2.3827972 5.3241882-7.1991959V44.2333984h8.7217102v20.4346008c0 8.2646027-4.2597046 14.6025009-14.0458984 14.6025009-9.6845856 0-13.9432983-5.6787033-13.9432983-14.6025009V44.2333984h8.7207031v19.8759995zm25.253891-19.8759995h15.3134003c5.881897 0 11.0029907 4.0566025 11.0029907 12.7773018 0 7.9101982-5.1210938 12.6260033-11.0029907 12.6260033h-6.5917969v9.0761948h-8.7216034V44.2333984zm8.7216034 7.5547028v10.2938995h4.6651001c2.281189 0 4.1064148-2.0283012 4.1064148-5.1211014 0-3.1953011-1.8252258-5.1727982-4.1064148-5.1727982h-4.6651001zm-71.1933059 51.0996017v19.8251953h-8.6708984V88.2333984h7.5048981l12.8788986 19.8759995V88.2333984h8.7714996v34.4794998h-7.6054993l-12.8788986-19.8251953zm27.8389053 19.8251954V88.2333984h24.0849152v7.6054993h-15.769516v5.7304001h12.6259918v7.1993027h-12.6259918v6.3896027h15.769516v7.5546951h-24.0849152zm30.0702972-34.4794999h15.3134003c5.881897 0 11.0029907 4.0566025 11.0029907 12.777298 0 7.910202-5.1210938 12.6260071-11.0029907 12.6260071h-6.5917816v9.0761948h-8.7216187V88.2333984zm8.7216187 7.5547028v10.2938995h4.6650848c2.281189 0 4.1063995-2.0282974 4.1063995-5.1211014 0-3.1952972-1.8252106-5.1727982-4.1063995-5.1727982h-4.6650848zm28.6513824-7.5547028h10.1406097l10.8007812 34.4794998h-8.6708984l-1.6737976-6.2362976H217.84375l-1.7246094 6.2362976h-8.6191711l10.9013824-34.4794998zm1.5712891 21.8037033h6.9473267l-3.4483185-13.1836014-3.4990082 13.1836014zm23.3769989 12.6757966V88.2333984h8.7216034v26.9248047h13.8925934v7.5546951h-22.6141968z"/>
  <path fill="#0061b3" d="M.0361534 44.4480019h66.4725952v34.2989998H.0361534z"/>
</svg>
