<svg viewBox="0 0 293.968 217.44" xmlns="http://www.w3.org/2000/svg"><defs><clipPath id="a"><path d="M0 .441h294v217H0Zm0 0"/></clipPath></defs><path d="m123.523 99.754.633.14 3.008 2.497.383.714.324.688.113.184.274.054.847.309.188.015.125.239.336.55.242.16.422.106.66.457.77.113.422-.421.296.046.543.223 1.008-1.32.219-.031.969-.141.336-.063.175.399.782.613 1.152.723.43.555.832.55.406.39.469.282.754.488.402-.03.484.35.278.594-.102.165.004.285-.219.394-.039.63.004.605.031.925.211.368.973.32.445.41.258.273.36.7.195.656.14.57.309.774.434.406.195.777-.106.121-.058.145.101.605.641 1.184.281.09.145-.028.742-.019.148-.047.47.16.253.047.59 1.004-.207.059-.39-.18-.192.168-.176.266-.082.433-.098.188.207.507-.234 1.133.164.551-.156.203-.543.106-.14.523-.079.09-.082 1.047 1.14.469.524.23.2.465.511.023.192 1-.184.196-.711.296-.035.258.23.606h-.027l-.356.207-.011.355-.02.617.461.606.266-.027.3.015.106.078.313.364.335.113.11 1.027-.106.422.215.176.344.555.086.57.195.266.457.316.86.984.007.332.407.774.16.27.402.265.488.344.149.039.203.12.39-.202.239.093.312.149 1.028.156.414-.016.879.098 1.14.856.399-.09.289.027.73.79-.082.202-.004.157.223.3.352-.035.617-.316.8.238.739.652.375-.074.926.649.011-.11.141-.297.273.184.504.156.332.133.66.363.72.395.062.2.387.374.496.137.254.105.316.309.512.332.144.351.008.32.203.102.434-.105.586-.293.297.46.136.388.242.07.645-.113.137.328.117-.14.023-.224.18-.175.246.082.293.172.02-.063.039-.437.297.007.117.141.261.691.079-.105.117-.203.511-.176-.054-.375.21-.277.255.043.21.359.122.637.32.027.723.098.242.254.394.5.11.152.078.547.156.347.188.34.23.063.07-.207.078-.23.04-.27.171-.285.254-.106.184.067.383.757.203.403.262.125.257-.356.243-.043.136.153.25.5.243.324.386.789.106-.027.187-.188.125.094.094.328-.008.004-.023.105-.157.188-.265.058-.133.043-.008.032.11.304.113.25.039.387-.266 1.172-.449.441-.297.028-.55.03-.395.392-.192.421.079.325.16.5.18.789-.102.3-.98.118-.801.402-.32.043-.16.336-.122.926-.02.328-.03.14.734 1.012.246.64.426.927.94.648.278 1.246.38.508.984.586.207-.227.546.07.41.31.235.241.32-.066.235.07.46.282.532.386.308.211.805.79.242.023.258-.055.445.234.477.887.36.817.886 1.414.18 1.347.312.86.172.922.176.378.16.508.422-.066.79-.313.218-.062.207.12.203.446-.027.274-.032.55.008.317.215.656.285.344.38.347.394.274.222.48-.246.133-.3.38-.731-.2-.492-.352-.656-.066.253 1.02.536.433.082.246-.145.258-.293.246-.16.05-.387-.151-.035.59.23.226.27.465.441-.094.41.68.227-.032.219-.3.074.093-.082.586-.32.48-.758.395-.547.094-.262.027-.148.082-1.191-.699-.813-.054-.152-.165-.25-.05-.133-.246-.156-.715-.301-.715-.281-.195-.176-.641-.375-.25-.098.008-.289-.07-.207.078-.855-.352-.168-.184-.559-.136-.539-.227-.48.422-.262-.101-.387-.391-.332-.27-.762-.273-.226.105-.25-.039-.285-.02-.387-.405-.113-.543-.055-.485-.492-.496-.114-.098-.023.059-.144.172-.274-.086-.332.3-.39-.16-.637-.445-.164-.05-.008.015-.336.211-.258-.187-.488-.106-.254-.043-.317.043-.12.223-.048-.047-.277-.332-.164-.043-1.21-1.281-.247.07-.187.082-.313.074-.215.172-.246-.129-.789-.387-1.105-.472-.286-.082-.527-.211-.617-.336-.219-.09-.273-.082-.211.25-.82-.246-.364-.188-.332.063-.234.191-.309-.015-.617.035-.008.332-1.023-.004-.11.203-.125.172-.238-.078-.32-.031-.149.027-.16-.191-.12-.024-.34-.355-.028-.371.016-.153-.395-.328-.355-.406-.211-.352-.368-.664-.296-.082-.325-.082-.386-.254-.446.074-.468.516-.036.211-.027-.004-.727-.234-.207-.028-.226.16-.32-.054-.258-.133-.215-.21-.25.081-.36.152-.257-.183-.57-.488-.235-.051-.43.703-.566-.047-.324-.101-.942-.25-.394-.239.004-.008.21-.726h-.003l-.957.027-.282-.156-.367-.649-.32-.082-.176-.07-.437-.2-.63-.097-.222-.25-.36-.422-.163-.218-.504-.38-.293-.312-.598-1.547-.27-.199-.245-.058-.676-.735-.63-.234-.437-.149-.14-.625-.301-.613-.305-.086-.21-.012-.177-.484-.097-.25-.488-1.207-.399-.441-1.426-.301-.257-.512-.524-.555-.105-.18-.688-.738-.445-.84-.16-.394-.235-1.226-.238-.407-.152-.191-.157-.453-.296-.168-.04-.176-.218-.227-.328-.14-.883-.219-.238.02-.461-.141-.243.586-.062-.074-.188-.254-.422.273-.734-.726-.855.515-.176.059-.102.16-.132.27-.403.097-.203.13-.242-.126-.195-.14-.114-.184h-.215l-.109.16-.562.152-.266.235.137.246.125.426-.09-.004-.442-.23-.312-.087-.336-.101-.93.234-.191-.238-.156-.106-.063-.293-.074-.25-.32-.613-.18-.293-.02.016-.125.086-.273-.094-.067.18-.05.086-.344.101-.09.184-.09.015-.355-.105-.356.027-.18.27-.05.55.008.087-.075-.024-.238.035-.308.13-.907-.669-.117-.398-.12-.203-.216.156-.414.52-.078-.094-.246-.223-.125-.047.004-.02.176-.374-.387-.352-.313.113.028.246-.07.34-.403.223v-.145l-.058-.195-.29-.07-.125.02-.085-.11-.07-.297-.493-.055-.125-.027-.254.246-.035-.035-.313-.043-.355.144-.047-.09-.516-.64-.097-.09-.176-.164-.258-.066-.355-.207-.399-.172-.468-.36-.29-.152-.144.008-.434.379-.324-.336-.25-.379-.125-.441-.258-.47-.25-.175-.215-.062-.171-.004-.395-.29-.504.192-.234-.063-.64-.98-.25-.398-.813-.086-.203.125-.293.011-.141.032-.184-.118-.207.004-.187-.093-.55-.047-.255.007-.277-.73.043-.035-.047-.07-1.317-1.133-.14-.031-.25-.383-.192.05-.605-.468-.465.086-.55-.375-.47.058-.57.067-.23.277-.235.121-.648-1.383-.777-.586-.47-.379-.167-.222-.152-.309-.5-.203-.43-.101-.363.226-.149.086-.5-.043v-.039l-.097-.086-.258-.059-.375-.285-.149.059-.406.086-.008.117-.07-.047-.348-.082-.215.098-.546-.024-.348.196-.203-.082-.281-.118-.297-.113-.317-.3-.547-.239-.199.2-.16-.235-.086-.04-.39-.07-.016-.207-.051.028-.684-.012-.293-.004.028.309-.09.246-.203.488.035.281-.086.215.094.38-.149-.024-1.816-.114h-.2l-1.585.118-.106.136-.437.102-.645.094-1.023-.055.004-.066-.2-1.38-.05-.214.031-.645.734-.34.313-.199.258-.035-.004-.035-.051-.258.098.067.082-.055.082-.258.086-.32-.145-.356.543-.222.086-.164-.266-.403-.23.051-.223.02-.05-.168.125-.149.277-.36v-.609l-.274-.34.223-.183.336-.215-.195-.172-.16-.21-.032-.415-.203-.316-.18-.285-.152-.274-.414-1.21-.344-.583-.754-.91-.585-.684-.594-1.726-.332-.73-.137-1.532.012-.281-.157-.957-.23-.274-.121-.335-.074-.122-.153-.296.09-.176-.015-.192.058.004.168-.129.137-.64.082-.524.367-.086.313.07 1.183.673.469-.442.496-.898.23-.668.278-.614.363-.449.16-.14.094-.266.02-.957-.079-.246-.058-.379-.203-.547.066-.09.149-.164-.079-.914-.12-.07-.337-.98-.25-.383-.203-.477-.21-.016-.196-.675-.02-.274-.277-.273-.262-.102-.386-.012-.188-.035-.039-.258-.082-.347-.258-.285-.406-.286-.281-.746.113-.414.047-.422.035-.171.137-.102.742.105.008-.125-.266-.246-.152-.207.222-.347.067-.25-.031-.266.09.012.101-.016.242-.12.313.1.199-.027.344.04.336.132.02.38-.2.358.148.344.133.082.149-.191.16-.121.215.015.199-.039.058-.093-.046-.227.097-.098-.054-.312.316.055.34.042.25-.164.168-.132h.176l.253-.485.055-.449-.14-.371-.063-.371-.086-.145.227.004.246-.012.168-.136.008-.153.304-.222.067-.336-.004-.926.425-.496.266-.45.02-.058.39.145.293.367.617 1.676.184.113.098-.297.386-.285.106-.102.144-.472.309-.106.895-1.086.023-.242L95 103l.207-.363.094.004.527.21.473.102 1.894.73 2.586 1.56.551.636.469.27.312-.36.016-.14.176-.087.586-1.894.187-.945.031-.41.254-.18.442-.399 1.113.594.344.102.496.765.691.215.29.02 1.34.047.316.035.875.398.613-.441-.113-.332.46-.184.207-.156.247.012.816-.637-.11-.809.196-.312.168-.082.172-.008.258.008.152-.114.203.02.004-.027.047-.508.469.12.46.126 1.028-.098.43-.11.453.25.398.274.524.133.168.246.683.34.293.23.102-.171.039-.266.14-.086-.007-.039-.114-.281.04-.004.316.14.11-.085-.122-.399.172.2.332.312.121.55.223 1.024.215.227.55-1.055.282-.36.09-.003.335.265.2.235.043.218.261.075.242-.137.141-.379-.055-.46.032-.145-.067-.192.012-.012.5-.156.137-.191.058-.258.266-.246.215.082.207.246.418-.04.363-.757.23.05" style="fill-rule:nonzero;fill:#1a1523;fill-opacity:1;stroke-width:.25;stroke-linecap:butt;stroke-linejoin:miter;stroke:#fff;stroke-opacity:1;stroke-miterlimit:10"/><g clip-path="url(#a)"><path d="m265.648 168.379 2.899 1.7.465-.024.195-.172.621-.555-.004-.328.184-.336.91-.492.016-.2.191-.238-.063-.472.11-.239.195.008.25.13.149-.24.199-.304.098.063.07.113.199.937.422.165.574.19.406.274.536.524h.128l.36-.07.492.277.309.305.52.593.46.063 1.004.238.46.535 1.185.196.375.085.55.11.516-.13 1.05.411.512 1.465-.062.906.137.383.214.273.313.637.332.235.758.167.508-.109.328.129.945.816.426.407.453-.082.227-.137.34.055.292.293.305.523.828 1.121.402.164-.074.035-.074.137-.066.2-.227.257.137.309-.09-.02-.098.04v.042l-.015.297-.067.164.028.176-.094.215-.082.824-.152.05-.086.552.136.41-.054.703.39.293-.078.14h-.305l-.082.493-.007.476-.075-.027-.328-.164h-.16l-.258.37-.136-.12-.282-.356-1.468-.36-.278-.358-.117.32v.777l-.184.227-.05.11.156.265.113.02-.012.062-.003.125.058.097-.066.028-.246-.094.015.094.149.285.004.344.156.047-.047.05-.098.114.035.035.2.02.004.187-.047-.012-.121-.02-.02.063-.152 1.461-.063.098-.058.3-.243.551-.023-.008-.219-.03-.125-.06-.254.044-1.238.105-.035.207.879.84.48.047.664.316.286.168.32-.219.152.016.453.012.746-.918.41.097.333-.054.566.25.445.238.184.453.234.078.176-.09.258.086-.008.043-.414.774.29.41-.032.266.254.972-.188.516.125.547.086.043-.12.047-.056.058-.058-.039-.07.106-.024.132.016.012.007.113-.046.016.011.398-.07-.035-.234-.129-.09.055-.031.258.007.14.094.239.234.226.16-.164.094-.176.02.008.027.164.364.664 1.574 1.239.203.601.234.75.067.293.699.719.332.035 1.316.629.102.2-.024.155-.066-.027-.277-.168-.008.02-.04.699-.23.488.239.348-.02.133-.027.011-.074.133-.047.254.027.32.27.547-.067.149.324.48-.047.63-.48.472.328.664.16 1.32.082 1.14-.492 1.302-.11.55-.179.301-.594.113-.457-.101-.187-.028-.516.09-.48-.12-.621.1-.625.055-.293.055-.473.02-.617.488-.406.633-1.137.828-.66.113-.157.149-.05.375.195 1.382-.207.489-.457.254-.3.168-.49.488-.183.559.031.378.082.25-.148-.097-.254-.34-.21-.77.023-.218-1.149-1.07-.492-.262-.262-.157-.152-.14-.277-.106-.977-1.316-.2-.2-.136.008-.547.18-.34-.289-.152-.21-.117-.005-.227-.324-.14-.027-.13.14-.034-.039-.512-.887-.242-.152-.145-.226-.863-.61-.375-.156-.39-.273-.348-.098-.7-.598-.203-.191-.16-.375-.07-.043-.399.18-.066-.153.031-.336-.207-.265h-.258l-.468-.286-.313-.042-.406-.301-.266-.09-.504-.266-.328-.039-.527-.387-1.246-.398-.801-.43-.305-.109-1.347-.758-.72-.351-.831-.414-1.805-.93-.492-.176-2.137-.469-.734.035-.371.004-.633-.03-.484.023-.45.035-.972.015-.469-.191-.11-.215-.167.078-.184.149-1.45-.125-.698.035-.672.125-.606.008-.195.082-.012-.024-.11-.187-.073-.016-.036.04-.136-.036-.457-.234-.45.12-1.054-.488-.438-.304-.367-.39-.41-.661-.355-.336-.114-.203-1.996-2.477-.047-.476-.218-.446-.133-.316-.543-.805-.047-.199-.281-.722-.07.074-.145.02-.606-1.114-.77-.512-.16.086-.347-.242-.113-.441-.317-.094-.043-.09-.054.008-.11-.133-.086-.098-.27-.23-1.671-3.024-.14-1.3-1.325-.645-.914-.383-.285-.132-.434-.051-.117-.121-.348-.286-.66-.207-.808-.484-.203-.062-1.465-1.137-.176-.078-.176-.016-.2-.078-.015.023-.25.586-.312.274-.742 1.594-.2.37-.32-.308-.309-.434-.164-.152-.332-.187-.023-.157-.5-.507-1.29-.727-.304-.125-.18-.09-.187-.156-.188-.25-.152-.172.016-.133.164-.097.148-.247.121-.113.067-.883.047-.144-1.368-.832-.335-.227-.727-.164-.188.235-.253.476-.243.297-.16.066-1.035-.39-.246-.121-1.68-.883-.289-.324-.336-.258-1.308-.496-.121-.137-.27-.008-.297-.222-.562-.333-.407-.019-1.203-.516-.554-.101-.403-.242-.175.125-.27-.082-.582-.372-.453-.03-.813-.446-.437-.227-.121.125-.125.63-.227.343-1.59.398-.402-.132-.352.527.004.27-.144.207-.293.41-.184.203-.047.285-.32.742-.25.16-.691.106-.36.597-.031.215-.086.45-.207.308-.285.02-.29.148.036.113.121.141-.082.105-.023-.007-.227-.075-.105.153-.059.172-.117.117-.149.789-.55.312-.188-.043-.07.094-.598.203-.07.43-.301.07-.871-.418-.027.067-.122.14-.3-.199-.137-.082-.375-.105h-.203l-.649.273-.214-.168-.086-.148-.516-.203-.21.07-.161.3-1.129-.43-.418-.023-.355.036-.438.808-.168.133-.152-.285-.371-.64-1.368-.302-.421-.214-.38.164.083.5.336.265-.012.008-.547-.21-.105-.18-.317-.235-.258-.023-.07-.23-.887-.255-.086.457.043.368-.113.234-.418.086-.91-.211-.438-.098-.421.004-.45-.191-.968-.086-.258-.2-.18-.05-.473-.617-.503-.645-.106-.016.055-.914.18-.335.19-.016.845-.047-.164-.36-.508-.378.23-.38-.047-.398-.406-.28-.207.226-.422.144-.351.23-.207-.34-.36-.362-.457-.024-.191-.46-.207-.266.14-.442.614.094.238-.258.101-.293-.242-.328-.57-.492-.043-.192.031-.683.07.015.415.098.382.215.586.289.508.023.223-.382.223-.157-.211-.328-.29-.289-.25-.113-.64-.774-.145-.832.059-.625-.016-.253-.293-.477-.168-.047-.394.297-.086.059-.988-.028-1.22-4.597-.448-.524-.489-1.066-.402-.735-.336-.3-.316-.043-.25.093-.325-.203-.718-.754-1.473-.785-.312.004-.754-.574-.426.02-.246.23-.352-.153-.918-.984-.222-.437-.203-1.102-.61-.191-.32-.371-.754-1.793-.527-.602.238-1.535.215-.223.699-.117.476-.39.352-.032.566-.086-.078-.722-.347-1 .113-.368.36-.437.37-.137.672-.043.317-.324.129-.285.156-1.356-.192-.632.036-.016.277.004.234-.293-.12-.43-.153-.02-.328.13-.145-.27-.222-.633-.754-.773-.211.226-.215.149-.238-.27-.582-1.09-.329.114-.293.757-.066.235-.203-.043-.168-.234-.281-.825-.11-.347-.906-.836-.855-.059-.082-.234-.028-.535-.32-.27-.246.16-.016.43-.039.16-.48.121-.211.274-.02-.012-.129-.375-.117-.387-.234-.101-.211.191-.004.363-.113-.078-.243-.168-.27.043-.253.461-.04-.031-.03-.23-.118-.114-.503.164-.18.008-.191-.211-.25-.602-.274-.18-.535.477-.488-.078-.059-.254.016-.195-.196-.32-1.273-.72-.324-.163-.688-.75-.566-.242-.723-.391-.598-.164-.355-.117-.09.336-.113-.059-.5-.433-.496-.157-.399.117-.312-.48-.281-.277-.48-.149-.563.102-.57.238-.204-.11-.097-.343.074-.277-.52-.618-.547-.113-.484.031-.477-.32-.78-.66-.395-.02-.22.078-.483.012-.563-.023-.945-.371-.32.144-.133.043-1.344-1.07-.067-.309-.394-.566-.067-.45-.367-.374-.234-.2-.598-.46-.195-.266-.336-1.016-.313-.367.083-.887-.122-.496-.503-.254-.235-.304-.277.004-.196.046-.12-.066-.508-.84.289-.82.254-.176-.196-.8.203-.176.578-.172.079-.196-.16-.707-.075-.265-.27.023-.179.008-.172-.074-.215-.57-.312-.036h-.363l-.165-.05-.765-.696.105-.37.426-1.15.531-.078.075-.398-.188-.316.063-.364.03-.441.106-.438-.125-.464.11-.254.117-.434.328-.27.453.212.117-.11-.87-1.004-.376-.11-.21-.062-.009.028-.09.062-1.101-.074-.582-.879-.078-.363-.067-.637.176-.351-.008-.25-.168-.239-.261-.36-.43-.425-.207-1.008-.867-1.707-.36-.281-.171-.176-.98-.367-.227-.797.113-.898.008-.645.136-.281.18-.906-.973-.743-.476.079-.8-.649-1.263-1.008-.246-.195-.484-.543-.313-.121-1.07-.79-.348-.288-.328-.363-.93.136-.578.153-.82 1.164-.21.09-.735-.278-.621.38-.211-.063-.367-.047-.274-.114-.543-.418-.363-.082-.316-.457-.336-.457-.278-.015-1.07-.586-.922-1.66-2.156-1.817-.227-.113-.77-.367-.585.074-.09.102-.184.535-.515-.043-.121-.207-.27.043-.52.75-.359.023.067.192-.032.144.004.25.078.406-.53.317-.208-.176v-.23l-.652-.368-.117.176-.665 1.227-.414-.578-.023-.672-.121-.551-.192-.176-.328-.324.098.203v.254l-.25-.016-.195-.086.011.059.082.312-.14.098-.02.309-.175.02-1.332-.915-.45-.078-.465-.402-.398-.016-.79.246-.448-.074h-.067l-.976-.16-.004.484-.047-.015-.156-.02-.184.137-.324-.043-.008.023-.16.059-.09.101-.137.477.016.726-.2.125-.085.141-.156.02-.313.187-.262-.02-.379.294-.234.09.063.425-.27.14-.348.212-.332-.106-.617-.418-.84.086-.37-.113-.243.016-.637-.153-.59-.398-.335-.5-.125-.059-.418-.07-.946-.535-.144.086-.133.195-.23.2-.145.171-.195 1.297-.192.227-.215.988-.18.68-.644.554-.543-.433-.222-.29-.532-.527-.656-.37-.332-.153-1.18-.66-3.074-.989-.254.434-.117.164-.031.223-.285.406-.114.172-.308.164-.25.289-.313.176-.133.449-.214.11-.094.144-.078.031-.086.133-.012.164-.062-.02-.262-.308-.336-.848-.219-.73-.605-.395-.02.059-.367.508-.168.125-.156 1.332-.149.343-.226.274-.168.136-.156.047-.325-.027.094.133.066.226.067.395.027.262-.05.066-.008.316-.153.336-.16.102-.191-.008-.168.121-.399.145-.386-.086-.047.07.004.34-.016.113.074.172-.07.035-.453.028-.371.273-.043-.066-.11-.395.235-.422-.14-.32-.306-.059-.316-.039-.254.047-.18-.066-.175-.059-.246.14-.122.016.016.063.027.36-.222.546.386.38-.085.073-.77-.078-.082.238-.004.336-.121.356-.035.347.281.543.207.204.371.222.172.399.063.379.343-.024.258.07.442.27.074.297.011.348.383.398.192.125.004.184.058.425.258.399.398.777.16.102-.097.89-.168.32.336 1.106-.067.926-.156.34-.148.078-.543.906-.324.918-.332.578-.43.5-.363.055-.43-.207-.402-.274-.282-.195-.39-.062-.227.433-.074.508-.219.488-.074.008v.067l-.027.242-.012.18.21.374.22.426.203.3.101 1.11.176.52-.05 1.047.222.437.387.969.136.578.52.785 1.324 1.75.156.258.203.465.122.68.332.523.18.438.07.296.261.286-.324.152-.176.105-.039.196.172.16.215.254-.035.18-.363.597-.133.2.058.117.223-.02.266-.035.125.148.109.27-.316.32-.332.121.062.633-.152.27-.075-.063-.046.047.007.047.028.27h-.02l-.308.003-.282.305-.691.242.004.695.242 1.336-.035.23-.016-.007-.203-.121-.094-.25-.21-.102-.551.086-.457.344-.422.074-.188-.351-.156-.41-.441-.79-.2-.503-.433-.168-.133.058-.387-.12-.851-.755-.121-.156-.043.031-.5.125-.164-.187-.04-.137-.039.117-.8-.035-.813-.395-.101-.035-.438.262-.094.2-.097-.067-.516-.414-.23.023-.235.156-.265-.066-.922-.418-.008.024.027.289-.453.015-.3-.094-.204-.156-.094-.226-.101-.2-.438-.191-.355-.187-.293-.262-.48.21-.137.427.137.414.097.304-.023.602.156.39.023.434.004.543-.25.809.086.582-.02.379-.046.484.23.71.106.438h-.074l-.145-.043-.348-.023-.261-.129-.258.172-.219.48-.293.082.082.106.344.21.562.153.364.149.285.086.25.523.086.23-.235.125-.55-.042-.348.035-.094.129.047.48.465 1.188.59.898-.39.113-.321.149-.133.375-.738-.332-.989-.036-.304.145-.121.066-.106.215-.703.004-.035.309.023.304-.277-.023-.504.098-.262.53-.183.09-.125.114.004.363-.235.38.235.566.277.554-.043-.023-.746-.356-.512-.164-.004.008-.043.336-.05.438-.035.25-.16.02-.372-.153-.488-.543-.387-.028-.222-.101-.114-.117-.222-.125-1.102-.18-.34-.242-.527-.734-.14-.02-.544.098-1.508-.293-.433.265-.543-.082-.168.23-.195-.015-.653-.176-.754-.039-.195.04-.34.273-.183-.137-.567-.527-.597-.211-.676-.2-.488.024-1.497.242-.543-.015-2.023-.567-.273.043-.274-.16-.289-.242-.46-.055-.278-.082-.25-.098-.23-.039-.286-.16-.582-.422-1.61-.543-.19.188-.016.273-.227.281-.527-.363-1.254-1.46-.45.171-.148-.05-.148-1.118-.05-.617-.212-.383-.113-.738-.195-.262-.766-1.113-.133-.387-.105-.316-1.293-.918-.133-.043-.59-.73-.281-.977-.52-.438-.172-.363-.507-.156-.415.035-.273-.195-.25.218-.156.094-.66-.308-.387-.204-.004.016-.129.457-.297.332-.168.094-.113.652.102.602-.141.16-.453-.168-.473-.016-.383-.25-.273-.64-.156-.89-.082-.259-.043-.168-.418-.316-.114-.211.172-.41.086-.469-.246-.305-.226-.261-1.442-.407-.14.489-.079-.106-.3-.32-1.036-.356-.085-.004-.016.055-.164.043-.34-.101-.262-.145-.172-.078-.257-.488-.348-.078-.184-.356-.87-.34-.274.086-.57-.27-.243-.03-.164-.012-.422-.774-.226-.265-.063-.426-.187-.184.02-.031.417-.566-.226-.309.011-.242-.054-.215.023-.082-.11-.39.165-.114-.117-.082-.098-.328-.055-.531-.125-.012-.222-.027-.446-.168-.078.148-.062-.031-.235-.07-.359.148-.117.14-.113.172-.051-.043-.102.075-.445.406-.715-.078-.582-.266-.11-.46-.163-.317-.399-.031-.105-.067-.043.043-.098.035-.187-.14-.188-.196-.242.094-.117.066-.328.422-.297.22.203.335.148.29.149 1.026-.012.004-.106-.02.02.079.262.578.02.203.034.48-.09 1.122-.304.043.082.343-.055-.027-.12.063-.673.41-.437-.149-.121.098-.106.098-.129.16-.082.137-.199.02-.145-.173-.039.086-.035.363.051.57.008.344.023.368-.02.12-.288.212-.094.203.047.418-.098.281-.125.012-.004.07.196.41.37.375-.066.207-.222.145.02.316-.126.156-.144.18.007.332-.07.54.024.085-.11-.012-1.52.122-.163.16-.438-.102-.004.027.04.352-.024.008-.457-.04-.067.184.329.645-.594.039-.29-.297-.187-.086-.02.031-.1.16-.169-.05-.594-.578-.261.152-.024-.031-.254-.371-.191.113.031-.117-.066-.211-.094-.02-.02.035-.066.09-.031-.031-.156-.094-.024.075.016.199-.055-.024-.34-.246.043.133-.035.094-.086-.16-.289-.645-.242-.008-.352.278-.281.07h-.254l-.215-.016-.207.258-.297.414-.093-.07-.036-.395-.335-.07-.266.098-.426-.38-.57-.21-.195.344-.27-.02-.188.148-1.12.262-.247-.035-.277-.289-.027-.195.023-.223-.27-.21-.527-.15-.203.067-.45-.125-.097-.098.012-.015.488-.387.223-.734.105-.633.024-.606-.403-1.144-1.136-2.203-.051-.594.129-.219 2.144-1.547.305-.59-.05-.75-.188-.554-.696-.914-1.011-.54-.45-.1-.175.066-.059.23-.101.805-.106.265-.668.586-.91.196-.559-.25-.644-.696-.387-.992-.086-.121-.39-1.086-.067-1.129.492-.48.715-.008 1.336.637.59.101.375-.25.223-.328.12-.64.84-.227.485-.094.629.215.55.383.516.312.63.137.78-.125.344-.164.29.035.952.34 1.098.66.844.203.273.004.785-.172.223-.195.195-.55.133-1.606.363-.325.297-.035.645.239.695.46.348.06.152-.118.379-.996.246-.094.934.281.87.442 1.415.187.594.25.308-.058.621-.305.246-.434.016-.707.297-.625-.125-1.008.27-1.066.39-.887.867-1.507.242-.383.582-.575.672-.964.985-1.77.605-.644.39-.473.45-.316.422-.516.547-.711.46-.246.587-.43 1.332-.504.375-.406 1.457-.648.968.402.313-.906.312-.356.372-.472.542-.106 1.754-.793.864-.82 1.652-1.785.027-1.137 1.973-1.273.398.035 1.313.71.516.747.25.507 1.48 1.126.457.097.293-.16 3.324-2.625.508-.234.664-.563-.004-.367-.148-.512-1.727-3.52-.312-.574-.106-.367.2-.133.425.024.528.156.254-.086.3-.336.465-1.781.227-.46.37-.063.5.066 1.47 1.082.285-.113-.078-.414-.512-1.047-.54-.809-1.57-1.25-1.347-.277-.469-.004-.234-.133-1.11-1.238-.363-1.207-.324-2.824.293-.137.23-.067.121-.195.082-.566.149-.239.23-.023 1.953.574.243-.062.027-.063-.227-.633.055-.015.785.097.696.2.359.144 1.21.266.247-.016.285-.168 1.363.59.575.207.488-.125.082-.222.008-.762-.301-1.27.215-.191.433-.117 1.559.058.406.207.442-.09.593-.496.07-.39-.253-1.465-.317-.93.102-.515.738-.086.453-.246.168-.11.278-.347.082-.243-.215-1.09 1.035-1.082.211.047.426.348.343.137.606.07.191.172.22.363.257.07.379-.101.285-.16.04-.649.124-.136.14-.262.372.012.664.464.066.489.067.144.476.41.457.25.332 1.055.403.227h.492l.574-.082.367.27-.094.226-.082.43.254.187.47.055.456.09.344.183.308.422.356.648.285.633.04 1.113.046.36.2.18.753.726.102.379.113.258.266.176.964.355.868.633.367.101.168.02.742.156.48.13 1.09.296.39.754.384.113.203-.133.14-.187.204-.176.906.508.316.176.367.496.188-.012.418-.617-.082-.36.176-.265.363-.02.258-.07.129-.129.73-.121.164-.55-.086-.712.688-.523.644.535.133.59.711.351.168-.257.168-.364.29-.18-.122-.269-1.066-.996-.317-.676-.113-.691.066-.453-.054-.172-.368-.297-.39-.32-.156-.407-.36-.32-.07-.488-.406-.723-.157-.219-.074-.492-.297-.308-.715-.043-.375-.461-.218-.438-.157-.719-.507-.691-.77-.582-.05-.219.16-.699-.274-.144-1.512-.934.02-.379.031-.195-.867-1.711-.067-.606-.664-1.824-.136-.184.047-.164.324-.23-.121-.285-.332-.313.027-.11.441-.41-.074-.44-.152-.598.082-.914.183-.883-.21-.684.289-.113.808-.328.094-.29.148-.269.57-.031.419-.02.414-.71-.133-.231-.442-.328.024-.207.57-.063.024-.53.515-.349-.02-.542.212-.262-.145-1.215.106-.102.683.016.051-.184-.16-.441.062.016.73.27.333-.177.398-.195-.082-1.027-.636-.914-.016-.41.16-.536-.414-1.34-.57-.789.023-.46.262-.82.285-.325v-.05l-.238-.981.16-.395-.14-.453-.11-.406.207-.918.098-2.18.004-.265-.114-.649.25-.422.11-.355-.371-1.332.105-.528.195-.574-.152-.457.152-.242.504-.27.485-.57.52.328.034-.097.332-.11.91.305.293.34.235.172 1.031.605.621.887.11.14.574.352.347.395.028-.126.293-.55.34-.313.289.184.605.11.293.089.688.195.433-.57-.46-1.39.097-.22.09-.5.105-.093.192-.715.59.031.234-.054.906.562.152-.203.598-.027.195-.047.078-.121.344-.203-.054-.258-.153-.524.02-.445-.438-.773-.34-.477.121-.348.141-.195-.094-.203-.136-.457-.102-.766.148-.515-.132-.493-.078-.632.023-.496.07-.25.078-.23-.078-.185-.234-.32.121-.75.02-.336.273-.34.18-.398-1.653-2.563-.547-.761.211-.836.121-.137.032-.297.219-.39.523-.403.297-1.152.219-.285.23-.953.227-.274.23.113.547.52.031-.086.04-.098-.04-.543.207-.398-.367-.695.426-.422.543-.074.222-.2.512-.226.254-.192.64-.308-.077-.281.023-1.27-.172-1.082.078-.41-.02-1.613-.402-.57-.488-.657-.012-.242.121-.094-.03-.184.5-1.093-.122-.594-.039-.09.035-.434.13-.359.015-.406.535-.07.121-.098.793-1.262.848-.992.777-.543.394.023.333-.085.582.25 1.085-.13.497-.156.101.176 1.754 1.426.461-.14.227-.208.246.106.37.265.462.477.156-.016.512.297.199-.125 1.32.031.328-.128 1.133.117.598.449.219.035.378.2.657.3.715-1.137.195-.144.066-.543.38-.527.234-.032.605.364.875.68.473.28.527.301 1.598 1.086.691.336.473.324 1.054 1.739.192.457.96.875.34.386.055-.078.356-.07.945-.363.566.511.157.418.066.563.824-.012 1.473-.058.125-.211.645-.094.312.035.184-.2.27-.01 1.136-.5.016-.06.257-.222.121-.344.645-.16.684-.496.222-.016.555.192.308.086.067.203.156.613.113.594.036.316.18.242.62.266.45.023.527.102.258.027.437-.066.328.082.817.687.265.317.692-.98.031-.165.496-.496.09-.398.14-.367.036-.575.16-.105.121-.203.336-.375.2-.266.269-.914-.13-.848-.331-1.308.183-.164.215-.028.32-.304.512-.133.367.02.309-.38.234-.253.352-.114 1.484-.09.496-.152.883.219.547.187 1.824.375.282.063.554-.094.406-.258.266.043.672-.101 1.21.422.231.039 2.184 1.136.691.555.348.05 1.203.72 1.281.66.5-.043.422.082.75-.05.27.21.254.313.105-.02.621-.29.555-.01 1.008.671-.235.723.497 1.265.25.633.308 1.024 1.824 3.32.282-.121.492-.438.453-.418.539-.55.121-.41.477-.575.066-.02.156-.523.239-.762.043-1.062.312-.414.887-1.531-.051-.43-1.273-1.563-.036-.558.239-.805.285-.21-.043-1.688-.324-1.492 1.18-.235.445.082.609.473.02-.07-1.063-3.243-.586-2.043 1.34-.406.422.13L165.609 0l.075.063.16.398.484.652.41.469.418.293.414.066-.343.957.957 1.977.308.14.32.567.524.941.473.407.086.441-.235.582.047.527.094.122 1.047.652.765 2.098-.05.484.136.387.063.414.113.195-.008.11-.172.703 1.23 1.996.227.632.668.957.133.782.785 1.566.563.914.277 1.074.258.43.625.363.394.676.375.36.606.082.96.949.532.422.348.504.02.539.574.425.41-.003.476.488.621.16.715.602.422.222.164.266.406-.266.36-.086v-.039l.363-.617.332-.02.149.149.101.426.39.82.958.848.855.515.305-.031 1.453.188.203-.075.176.407.691 1.91.543.718.801.63.168.449.059.28.539.61.937.524.387.566.184 1.605.078.204-.016.351.621 1.028 1 .617.688-.028.386.18.254.371.906.555.375.601.137.317.153.84.835 1.441-.132.461.273.918-.047.297-.238.285-.043.105.406 1.184.594.691.394 1.211 1 .43.43.04.399.308.757.824.973 1.227.488.496.215.16.735.847.078.02.254-.074.906.586 2.402 2.222.414.504.5.23.645-.07.07.188.45.66.273.457.176.52-.082.445-.301.598-.114.09-.296.8-.145.367-.285 1.246.176 1.313-.133.137-.223 1.695-.09.234.082.133.457.258.34.074.813.567.82.359 1.266 1.043.414.293.86.625.21.074.152.164 1.293.684.418.285.168-.031.434-.332.305.054.246-.277.144.063.508.457.754.586.531-.04 1.434.555.293-.234.172-.121.359.027.379.328.758.13.238.144.195.023.649.305-.043-.407.094-.226.152-.195-.234-.301-.333-.45.118-.085.918.02.097-.27.97-.575.226-.468.304-.047 1.012-.664.867-.063.192-.168 1.047-.18-.11-.601.117-.297-.73-1.246-.137-.008-.715-.437-.172-.2-1.23-1.359-.016-.148.11-.262-.063-.125-.14-.566-.114-.329-.363-.476-.445-1.176-1.403-2.488-.285-.258-.254-.504-.074-.098-.348-.296-.425-.641-.227-.09-.535-.68-.14-.183-.208-.086-.441-.625-.371-.797.293-.398.394-.598.016-.863-.504-1.141-.059-.328-.175-.477-.16-.328-.051-.554.136-.887.215-.309-1.219-1.71-.246-.395-.468-.973-.094-.262-.238-.55-.133-.368-.098-.109.438-.387.132-.11.266-.452 1.223.496.304.219.36-.059.347.254.422-.059.403.047.312-.39.27-.29.113-.43.078-.077.23-.114-.042-.71.086-.106-.075-.039-.12-.21-.18-.958-.11-.36.235-.202.394-.04.207.106.02-.031-.008-1.453.539-.313.297-.168.554-1.059.352-.078.293.063 1.129-.961-.094-.387-.18-.504-.527-.953-.117-.605-.313-.524-.261-.625.437-.34.461-.218.352-.196.285.184.05.375.262.367.266.27.156.578.586.683.23.16.075.579-.063.164.348.765.2.57.155.594.75.649.391.117.203.324.313.375.242.211.621 1.047.238.352.828.859-.035.293.082.297.285.5.606 1.262-.422.082-.863-.024-.2.051-.128.242.097.313.114.34-.086.242.023.687.813 1.32.214.34.73 1.844.61.79.278.374.035.473-.02.238.383.434.156.52.782.765.214.14.27.754-.125 1.352.172.621.176.902.554 1.102.594 1.617.914 1.684.649.59.167.21.512.133 1.106-.46.07.175.648-.5.746-.097.52-.168 1.242.289.324.175.704-.16.214.028.786.609.257.32.133.192.39.484.36 1.008.281.207.258.433.078.06.368-.044.37.496.235.223.285.219.59.238.05.016.493-1.102.484-1.078.172-.367.055.07.297.875.543.988.078.41.184.16 1.39 1.563.871-.559.574.04.25.07.692-.031 1.531.742.344.355.758.883.289.23h.12l.911.692.598.484.343.344.743 1.18.253.125.247-.14.57-.118.3-.07.633-.059.305.027 1.399.524.003-.114.086-.757.207-.258.391-.203.406-.117.047-.801.45-.79.453-.69-.262-.758-.547-.782.172-.742.691-.277.656-.184.196-.254.258-.097.332-.11.25.024-.047-.13.031-.269.383-.273.46.011.919-.062.539.102.285.328.238.355.293.797.446.8.136.177.192.027.66-.293.449.02 1.316 1.277.426.25.254.219.262.562.52 1.328.824 1.36.156.878-.098.579.832 1.855-.07.926.047.465 1.031 2.468.04.715.062 1.707.058.602-.012.426-.003.46-.012.794.137.574.015.511-.133.516.207.492.282.36.523-.012.637.316.531.223 1.313.531-.02.352.078.363.477.563.133.984-.086.32.066.438.336 1.578.004.367.367.785.363.535.551.473.234.715-.367.39-.418.235.184.793-.262.82.16 1.227.082.234-.101.676.086.66-.153.445.125.942-.132.144-.004.18-.567.762-.015.422.058.504.332.652-.015.656.207.688-.059.738.363.473-.023.855-.082.129-.094.86-.422.156-.09.195.204.316.183.473-.176.715-.336.097-.566.364-.336-.172-.027.125.07.543-.156.265-.305.235.098.765-.133.29.129.55-.07.356-.13.332.106.644-.195.227h-.235l-.097.558-.031.2-.094-.047-1.121-.469-.79.152-.421-.136-.336.03-.305.15-.398.05-2.856.856-.27.832-.077-.024-.407.344-.386.602.039 1.062-.157.316-.207.286-.363.078-.156.238-.406.012-.63.297-.566 1.043-.035.226-.07.223-.781.187-.317.461-.11.582-.175.512-.016.789.258.395.043.238-.164.422-.266.234-.414 1.274.25 1.71-.066.204-.117.097-.387.055-.215.125-.215.02-.464.19-.528 1.075-.066.629-.11.07-.312.907.031.605-.152.063-.32.015-.125.16-.211.89-.188.102.008.223-.172.13-.047.257-.223.262-.199.484-.101-.035-.305.281-.344.176-.097.125-.043.219-.09.097.086.957-.106.094-.289.297-.254.164-.238.074-.078.23-.25-.062-.496.41-.121.028-.157.254-.238.117-.14.3-.184.204-.121.675-.024.34-.156.617.016.399-.07.305.164.093.144.5-.07.172-.293.29v.245l.203.485-.188.738.086.363-.105.207-.535.032-.04.406-.1.238-.099.29.008.546-.164.176.317.57-.137.106-.25.242-.074.375-.203.133.062.273-.02.274.036.261.199.426-.067.246-.12.125.078.664-.192.13.016.038.703 1.524.031.246-.25 1.289.313.367-.145.969.176.285.098.773.128.582.102.098-.027.254.187.351-.11.477.16.234.231.5.254-.007.282.097.02.16-.192.512.37.305.915.316.242.598.215.137.133.316.25.328.23.375.297.106.133.28.086.509-.043.539.168.351.722 1.004-.054.04-.574.507-.551 1.078-.242.027.003.024.063.406-.18.125-.207.117.047.227-.008.117-.261.352-.028-.02-.168-.129-.004.102.047.308-.129.356-.054.574-.16.156-.176.77.164.285.058.21-.074.013-.094.007.114.09.093.059" style="fill-rule:nonzero;fill:#908e96;fill-opacity:1;stroke-width:.25;stroke-linecap:butt;stroke-linejoin:miter;stroke:#fff;stroke-opacity:1;stroke-miterlimit:10"/></g></svg>