<svg viewBox="0 0 293.968 217.44" xmlns="http://www.w3.org/2000/svg"><defs><clipPath id="a"><path d="M0 .441h294v217H0Zm0 0"/></clipPath></defs><path d="m172.84 93.227.117.304.813.766.87.105.622.48.18-.038.09.035.21-.305.04-.281.054-.04.332-.007.305-.11.359.122.246.078.512.16.305.254.558.215.246-.153.293-.359.153-.164.027.02.992.859.254.621.305.707.414.32.523.18.531.133.371.226 1.118.82.242.212.266.031.726.36.867-.31.258.18.445.735.371.156.793.344.387.308.137.286.234.359.496.367.282.137.277.113.156.356.168.578.25.425-.027.297.37.657.204.015.246-.101.203.226.164.399-.074.394.574.531.266.067.305 1 .066.262.684.75.379.449.261.25.348.23.351.543.024.328.336.907v.144l-.074-.918-.438-1.18-.148-.078.398.207.14.02.052-.172.125-.605v-.32l.039.007.16.094.015-.082.395-.606.25.188.082.183-.176.364.16-.016.282-.148-.02-.25-.078-.23.094-.395.386-.188.059-.176-.172-.632h.016l.125-.094.293-.113.242.152.328-.192.43-.144.058-.047.035.027.243.266.058-.07.156.004.106.222.043.16.223.059.039-.215.488.11.371.242.07.133.45.015.367.063.468.507.633-.062.153-.117.93.383.234.101.953-.09.531-.035.305.028.594-.391.296-.024 1.11 1.168.453.82-.047.16-.16.145-.09.555-.066.352.168.316.37.348.11-.031.563.261 2.683 2.223.438-.078.34-.117.269-.368.328-.347.184.226.246.157h.191l.399.285.035-.121.137.015.902 1.242.379.2.039.289.14.14.168-.015.23-.078.13.125.105.207-.086.011-.218.14-.09.036-.098.086-.184.02-.015.25-.203.515-.215 1.598-.219.402-.2.063-.124.101-.14-.031-.126.246-.21-.047-.11.031-.008.051-.082.301.024.203.046.102-.14.152-.258.234.008.293.11.34.109.168-.075.008-.359.195-.098.078-.214-.027-.012.04-.219.183-.594-.114-.117.325-.129-.063-.21-.242-.06.082.04.207.093.184-.164.445.086.734.453.942.864 2.242-.227 1.82-.09.532.106.382-.203.121-.11.043-.004.075.391.289.184.59-.875 1.195-.399-.215-.008.04.067.53-.137.114-.219.03-.004.282.043.383-.156.25.766.832.3.652.36.328.445.621.02.301-.008.332.52.582.46.254.106.364.078.55.254.653-.125.039-.242-.035-.125.156.195.894.164.246.79.38.202-.063.442.219-.078.039-.395.59-.691.535-.082.246-.102.113-.219.305-.347-.024-.332-.101-.871-.567-.086.637-.223.129.328 2.633-.379.64.106.375.101.149-.14.328.132 1.809-.136-.094-1.18-.266-.23.059-.567-.301-.383-.277-1.375-.637-.238-.05-.266-.052-.257.168-.22-.047-.636-.457-.207-.097-.156.148-.371.11-.114.027-.562.543-.094.375.094.52-.024.55-.328.52-.238.687-.047.11-.027.234-.02.289v.293l.028.348-.078.226.093.278.09.433-.047.418.149.754-.024.238.246.254 1.067.852.367 1.758-.05.082-.266.12-.067.407-.879.453-.113.102-.473-.403-.394-.379-.258-.12-.242-.301-.285.21-.2.032-.23-.125-.031.039-.012.18.121.261-.352.207-.132.18-.188-.016-.129.106-.117.09-.21.363-.403.004-.582.148-.239-.36-.503-.57-.438-.3-.144-.11.125-.379-.196-.082-.277.008-.129-.265.043-.075.02.004.19.102.02-.035-.023-.25-.148-.125-.028.047-.012.171-.035.012-.097-.082-.391-.582-.234-.062-.145.156.164.476-.164.141-.078.149-.379.128-.59.223-.527-.012-.281.137-.145.176-.242-.074-.54-.082-.624.12-.293-.218-.477.133-.324-.098-.262-.05-.129-.036.004.047-.113.176-.766-.149-.09.004-.023.063-.027.375-.067-.004-.265-.004-.305.156-.652-.18.117-.257-.266-.188-.113.125.008.238.07.286-.207.14-.21-.008-.516-.515-.172-.461-.239.023-.12.387-.07-.035-.677-.649-.761-.328.05-.039.016-.078-.176-.375-.222-.12-.227-.032-.523-.281-.684.886-.164.075-.547-.02-.477-.121-.484-.324-.738-.52-.067-.207.418-.871-.054-.254-.172-.023-.23.191-.02-.023-.61-.942-.257-.285-.075.066-.172.043-.156.016-.558-.66-.067.05-.12.223-.247-.148-.289-.125-.348.266-.535.511-.383.024-.132.097-.055-.074.012-.324.277.004.234-.293-.12-.43-.153-.02-.328.13-.145-.27-.222-.633-.754-.773-.211.226-.215.149-.238-.27-.582-1.09-.329.114-.293.757-.066.235-.203-.043-.168-.234-.281-.825-.11-.347-.906-.836-.855-.059-.082-.234-.028-.535-.32-.27-.246.16-.016.43-.039.16-.48.121-.211.274-.02-.012-.129-.375-.117-.387-.121-.262-.574-.687-.078-.012-.328-.023-.309-.653.086-.843.07-.094-.101-.195-.184-.239-.121-.215-.281-.55.168-.192.285-.152-.012-.027-.168-.22-.246-.01-.14-.126.046-.156.02-.004.222-.223.11-.21.148-.044.012-.187-.137-.195-.914.12-.324-.406-.047-.144.164-.32.184-.137.058-.137.051-.472.285-.168.055-.415.106-.007.289.136.003-.062.141-.559.395-.218.152-.11.504-1.11.062-.32.293-.421.024-.317.035-.176-.223-.199-.136-.105-.532-1.282-.293-1.097-.078-.254.024-.184-.286-1.523-.035-.758-.175-.246-.079-.352-.59-1.218.07-.399-.48-.914-.207-.328-.093-.203-.059.066-.238.336-.207.008-.485-.332-.312.07-.277-.203-.372-.437-.59-.407-.07-.093-.437.02-.043.214.02.242-.063.004-.75-.055-.39-.593-.497-.762-.226-.148-.192-.192-.37-.195-.407-.352-.356-.242-.082-.133.051-.027.328-.387.309-.207.344-.531.207-.39-.13-.415-.038-.23.058-.274-.09-.386.118-.309-.172-.562-.063-.075-.078-.593-.242-.344.05-.156-.316-.766-.129-.137.364-.054.601-.106.133-.316-.117-.274.176.137.152-.012.184.043.039.457.086.711.117.14.285.165.426.48.195-.02.242-.073.219-.598-.223-.281-.27-.262.063-.281.446.215.16.043.195.125-.07-.141-.055-.461.105-.086-.05-.52-.106-.097-.219-.235-.308-.253-.422-.434-.04.035-.085.024-.918-.524-.02-.23.04.007.52-.347.16-.34.702.27.305-.176.07-.407.09-.277.793-.25.387-.988.059.101.335.54.532.605.093.191.336.313.215-.137.094-.293.168-.586.039-.238.043-.145.234-.21.047-.25.098-.239.062-.426-.015-.09-.055-.347.035-.004.106.027.152.285.254.122.07-.29.242-.527.454-.43.16-.398-.38-.598.005-.449.129-.281-.004-.191-.106-.368.098-.703-.043-.543.105-.836.004-1.808.184-.082.82.113.242-.113.34.004-.008-.11.059-.238-.062-.223-.141-.367-.004-.273-.25-.79.055.032-.078-.176-.122-.27-.144-.28.016-.376-.34-.613-.051-.113.05-.024.083-.261.152-.504.063-.266-.098-.266-.277-.445.004-.394-.051-.579.699-2.214-.024-.157.165-.304.367.011.144-.195.227.059.11.011.253-.148-.004.09.016.05" style="fill-rule:nonzero;fill:#1a1523;fill-opacity:1;stroke-width:.25;stroke-linecap:butt;stroke-linejoin:miter;stroke:#fff;stroke-opacity:1;stroke-miterlimit:10"/><g clip-path="url(#a)"><path d="m265.648 168.379 2.899 1.7.465-.024.195-.172.621-.555-.004-.328.184-.336.91-.492.016-.2.191-.238-.063-.472.11-.239.195.008.25.13.149-.24.199-.304.098.063.07.113.199.937.422.165.574.19.406.274.536.524h.128l.36-.07.492.277.309.305.52.593.46.063 1.004.238.46.535 1.185.196.375.085.55.11.516-.13 1.05.411.512 1.465-.062.906.137.383.214.273.313.637.332.235.758.167.508-.109.328.129.945.816.426.407.453-.082.227-.137.34.055.292.293.305.523.828 1.121.402.164-.074.035-.074.137-.066.2-.227.257.137.309-.09-.02-.098.04v.042l-.015.297-.067.164.028.176-.094.215-.082.824-.152.05-.086.552.136.41-.054.703.39.293-.078.14h-.305l-.082.493-.007.476-.075-.027-.328-.164h-.16l-.258.37-.136-.12-.282-.356-1.468-.36-.278-.358-.117.32v.777l-.184.227-.05.11.156.265.113.02-.012.062-.003.125.058.097-.066.028-.246-.094.015.094.149.285.004.344.156.047-.047.05-.098.114.035.035.2.02.004.187-.047-.012-.121-.02-.02.063-.152 1.461-.063.098-.058.3-.243.551-.023-.008-.219-.03-.125-.06-.254.044-1.238.105-.035.207.879.84.48.047.664.316.286.168.32-.219.152.016.453.012.746-.918.41.097.333-.054.566.25.445.238.184.453.234.078.176-.09.258.086-.008.043-.414.774.29.41-.032.266.254.972-.188.516.125.547.086.043-.12.047-.056.058-.058-.039-.07.106-.024.132.016.012.007.113-.046.016.011.398-.07-.035-.234-.129-.09.055-.031.258.007.14.094.239.234.226.16-.164.094-.176.02.008.027.164.364.664 1.574 1.239.203.601.234.75.067.293.699.719.332.035 1.316.629.102.2-.024.155-.066-.027-.277-.168-.008.02-.04.699-.23.488.239.348-.02.133-.027.011-.074.133-.047.254.027.32.27.547-.067.149.324.48-.047.63-.48.472.328.664.16 1.32.082 1.14-.492 1.302-.11.55-.179.301-.594.113-.457-.101-.187-.028-.516.09-.48-.12-.621.1-.625.055-.293.055-.473.02-.617.488-.406.633-1.137.828-.66.113-.157.149-.05.375.195 1.382-.207.489-.457.254-.3.168-.49.488-.183.559.031.378.082.25-.148-.097-.254-.34-.21-.77.023-.218-1.149-1.07-.492-.262-.262-.157-.152-.14-.277-.106-.977-1.316-.2-.2-.136.008-.547.18-.34-.289-.152-.21-.117-.005-.227-.324-.14-.027-.13.14-.034-.039-.512-.887-.242-.152-.145-.226-.863-.61-.375-.156-.39-.273-.348-.098-.7-.598-.203-.191-.16-.375-.07-.043-.399.18-.066-.153.031-.336-.207-.265h-.258l-.468-.286-.313-.042-.406-.301-.266-.09-.504-.266-.328-.039-.527-.387-1.246-.398-.801-.43-.305-.109-1.347-.758-.72-.351-.831-.414-1.805-.93-.492-.176-2.137-.469-.734.035-.371.004-.633-.03-.484.023-.45.035-.972.015-.469-.191-.11-.215-.167.078-.184.149-1.45-.125-.698.035-.672.125-.606.008-.195.082-.012-.024-.11-.187-.073-.016-.036.04-.136-.036-.457-.234-.45.12-1.054-.488-.438-.304-.367-.39-.41-.661-.355-.336-.114-.203-1.996-2.477-.047-.476-.218-.446-.133-.316-.543-.805-.047-.199-.281-.722-.07.074-.145.02-.606-1.114-.77-.512-.16.086-.347-.242-.113-.441-.317-.094-.043-.09-.054.008-.11-.133-.086-.098-.27-.23-1.671-3.024-.14-1.3-1.325-.645-.914-.383-.285-.132-.434-.051-.117-.121-.348-.286-.66-.207-.808-.484-.203-.062-1.465-1.137-.176-.078-.176-.016-.2-.078-.015.023-.25.586-.312.274-.742 1.594-.2.37-.32-.308-.309-.434-.164-.152-.332-.187-.023-.157-.5-.507-1.29-.727-.304-.125-.18-.09-.187-.156-.188-.25-.152-.172.016-.133.164-.097.148-.247.121-.113.067-.883.047-.144-1.368-.832-.335-.227-.727-.164-.188.235-.253.476-.243.297-.16.066-1.035-.39-.246-.121-1.68-.883-.289-.324-.336-.258-1.308-.496-.121-.137-.27-.008-.297-.222-.562-.333-.407-.019-1.203-.516-.554-.101-.403-.242-.175.125-.27-.082-.582-.372-.453-.03-.813-.446-.437-.227-.121.125-.125.63-.227.343-1.59.398-.402-.132-.352.527.004.27-.144.207-.293.41-.184.203-.047.285-.32.742-.25.16-.691.106-.36.597-.031.215-.086.45-.207.308-.285.02-.29.148.036.113.121.141-.082.105-.023-.007-.227-.075-.105.153-.059.172-.117.117-.149.789-.55.312-.188-.043-.07.094-.598.203-.07.43-.301.07-.871-.418-.027.067-.122.14-.3-.199-.137-.082-.375-.105h-.203l-.649.273-.214-.168-.086-.148-.516-.203-.21.07-.161.3-1.129-.43-.418-.023-.355.036-.438.808-.168.133-.152-.285-.371-.64-1.368-.302-.421-.214-.38.164.083.5.336.265-.012.008-.547-.21-.105-.18-.317-.235-.258-.023-.07-.23-.887-.255-.086.457.043.368-.113.234-.418.086-.91-.211-.438-.098-.421.004-.45-.191-.968-.086-.258-.2-.18-.05-.473-.617-.503-.645-.106-.016.055-.914.18-.335.19-.016.845-.047-.164-.36-.508-.378.23-.38-.047-.398-.406-.28-.207.226-.273.07.035.469-.13.261-.753.692-.695.2-.407.026-.148.082-1.191-.699-.813-.054-.152-.165-.25-.05-.133-.246-.156-.715-.301-.715-.281-.195-.176-.641-.375-.25-.098.008-.289-.07-.207.078-.855-.352-.168-.184-.559-.136-.539-.227-.48.422-.262-.101-.387-.391-.332-.27-.762-.273-.226.105-.25-.039-.285-.02-.387-.405-.113-.543-.055-.485-.492-.496-.114-.098-.023.059-.144.172-.274-.086-.332.3-.39-.16-.637-.445-.164-.05-.008.015-.336.211-.258-.187-.488-.106-.254-.043-.317.043-.12.223-.048-.047-.277-.332-.164-.043-1.21-1.281-.247.07-.187.082-.313.074-.215.172-.246-.129-.789-.387-1.105-.472-.286-.082-.527-.211-.617-.336-.219-.09-.273-.082-.211.25-.82-.246-.364-.188-.332.063-.234.191-.309-.015-.617.035-.008.332-1.023-.004-.11.203-.125.172-.238-.078-.32-.031-.149.027-.16-.191-.12-.024-.34-.355-.028-.371.016-.153-.395-.328-.355-.406-.211-.352-.368-.664-.296-.082-.325-.082-.386-.254-.446.074-.468.516-.036.211-.027-.004-.727-.234-.207-.028-.226.16-.32-.054-.258-.133-.215-.21-.25.081-.36.152-.257-.183-.57-.488-.235-.051-.43.703-.566-.047-.324-.101-.942-.25-.394-.239.004-.008.21-.726h-.003l-.957.027-.282-.156-.367-.649-.32-.082-.176-.07-.437-.2-.63-.097-.222-.25-.36-.422-.163-.218-.504-.38-.293-.312-.598-1.547-.27-.199-.245-.058-.676-.735-.63-.234-.437-.149-.14-.625-.301-.613-.305-.086-.21-.012-.177-.484-.097-.25-.488-1.207-.399-.441-1.426-.301-.257-.512-.524-.555-.105-.18-.688-.738-.445-.84-.16-.394-.235-1.226-.238-.407-.152-.191-.157-.453-.296-.168-.04-.176-.218-.227-.328-.14-.883-.219-.238.02-.461-.141-.243.586-.062-.074-.188-.254-.422.273-.734-.726-.855.515-.176.059-.102.16-.132.27-.403.097-.203.13-.242-.126-.195-.14-.114-.184h-.215l-.109.16-.562.152-.266.235.137.246.125.426-.09-.004-.442-.23-.312-.087-.336-.101-.93.234-.191-.238-.156-.106-.063-.293-.074-.25-.32-.613-.18-.293-.02.016-.125.086-.273-.094-.067.18-.05.086-.344.101-.09.184-.09.015-.355-.105-.356.027-.18.27-.05.55.008.087-.075-.024-.238.035-.308.13-.907-.669-.117-.398-.12-.203-.216.156-.414.52-.078-.094-.246-.223-.125-.047.004-.02.176-.374-.387-.352-.313.113.028.246-.07.34-.403.223v-.145l-.058-.195-.29-.07-.125.02-.085-.11-.07-.297-.493-.055-.125-.027-.254.246-.035-.035-.313-.043-.355.144-.047-.09-.516-.64-.097-.09-.176-.164-.258-.066-.355-.207-.399-.172-.468-.36-.29-.152-.144.008-.434.379-.324-.336-.25-.379-.125-.441-.258-.47-.25-.175-.215-.062-.171-.004-.395-.29-.504.192-.234-.063-.64-.98-.25-.398-.813-.086-.203.125-.293.011-.141.032-.184-.118-.207.004-.187-.093-.55-.047-.255.007-.277-.73.043-.035-.047-.07-1.317-1.133-.14-.031-.25-.383-.192.05-.605-.468-.465.086-.55-.375-.47.058-.57.067-.23.277-.235.121-.648-1.383-.777-.586-.47-.379-.167-.222-.152-.309-.5-.203-.43-.101-.363.226-.149.086-.5-.043v-.039l-.097-.086-.258-.059-.375-.285-.149.059-.406.086-.008.117-.07-.047-.348-.082-.215.098-.546-.024-.348.196-.203-.082-.281-.118-.297-.113-.317-.3-.547-.239-.199.2-.16-.235-.086-.04-.39-.07-.016-.207-.051.028-.684-.012-.293-.004.028.309-.09.246-.203.488.035.281-.086.215.094.38-.149-.024-1.816-.114h-.2l-1.585.118-.106.136-.437.102-.645.094-1.27-.11-.198-.468-.204.101-.171.035-.27-.05-.219.238-.539.258-.191-.102-.156-.355-.196-.387-.351-.61-.2-.593-.285-.13-.09-.054-.082-.035-.035.059-.113.015-.387-.12-.851-.755-.121-.156-.043.031-.5.125-.164-.187-.04-.137-.039.117-.8-.035-.813-.395-.101-.035-.438.262-.094.2-.097-.067-.516-.414-.23.023-.235.156-.265-.066-.922-.418-.008.024.027.289-.453.015-.3-.094-.204-.156-.094-.226-.101-.2-.438-.191-.355-.187-.293-.262-.48.21-.137.427.137.414.097.304-.023.602.156.39.023.434.004.543-.25.809.086.582-.02.379-.046.484.23.71.106.438h-.074l-.145-.043-.348-.023-.261-.129-.258.172-.219.48-.293.082.082.106.344.21.562.153.364.149.285.086.25.523.086.23-.235.125-.55-.042-.348.035-.094.129.047.48.465 1.188.59.898-.39.113-.321.149-.133.375-.738-.332-.989-.036-.304.145-.121.066-.106.215-.703.004-.035.309.023.304-.277-.023-.504.098-.262.53-.183.09-.125.114.004.363-.235.38.235.566.277.554-.043-.023-.746-.356-.512-.164-.004.008-.043.336-.05.438-.035.25-.16.02-.372-.153-.488-.543-.387-.028-.222-.101-.114-.117-.222-.125-1.102-.18-.34-.242-.527-.734-.14-.02-.544.098-1.508-.293-.433.265-.543-.082-.168.23-.195-.015-.653-.176-.754-.039-.195.04-.34.273-.183-.137-.567-.527-.597-.211-.676-.2-.488.024-1.497.242-.543-.015-2.023-.567-.273.043-.274-.16-.289-.242-.46-.055-.278-.082-.25-.098-.23-.039-.286-.16-.582-.422-1.61-.543-.19.188-.016.273-.227.281-.527-.363-1.254-1.46-.45.171-.148-.05-.148-1.118-.05-.617-.212-.383-.113-.738-.195-.262-.766-1.113-.133-.387-.105-.316-1.293-.918-.133-.043-.59-.73-.281-.977-.52-.438-.172-.363-.507-.156-.415.035-.273-.195-.25.218-.156.094-.66-.308-.387-.204-.004.016-.129.457-.297.332-.168.094-.113.652.102.602-.141.16-.453-.168-.473-.016-.383-.25-.273-.64-.156-.89-.082-.259-.043-.168-.418-.316-.114-.211.172-.41.086-.469-.246-.305-.226-.261-1.442-.407-.14.489-.079-.106-.3-.32-1.036-.356-.085-.004-.016.055-.164.043-.34-.101-.262-.145-.172-.078-.257-.488-.348-.078-.184-.356-.87-.34-.274.086-.57-.27-.243-.03-.164-.012-.422-.774-.226-.265-.063-.426-.187-.184.02-.031.417-.566-.226-.309.011-.242-.054-.215.023-.082-.11-.39.165-.114-.117-.082-.098-.328-.055-.531-.125-.012-.222-.027-.446-.168-.078.148-.062-.031-.235-.07-.359.148-.117.14-.113.172-.051-.043-.102.075-.445.406-.715-.078-.582-.266-.11-.46-.163-.317-.399-.031-.105-.067-.043.043-.098.035-.187-.14-.188-.196-.242.094-.117.066-.328.422-.297.22.203.335.148.29.149 1.026-.012.004-.106-.02.02.079.262.578.02.203.034.48-.09 1.122-.304.043.082.343-.055-.027-.12.063-.673.41-.437-.149-.121.098-.106.098-.129.16-.082.137-.199.02-.145-.173-.039.086-.035.363.051.57.008.344.023.368-.02.12-.288.212-.094.203.047.418-.098.281-.125.012-.004.07.196.41.37.375-.066.207-.222.145.02.316-.126.156-.144.18.007.332-.07.54.024.085-.11-.012-1.52.122-.163.16-.438-.102-.004.027.04.352-.024.008-.457-.04-.067.184.329.645-.594.039-.29-.297-.187-.086-.02.031-.1.16-.169-.05-.594-.578-.261.152-.024-.031-.254-.371-.191.113.031-.117-.066-.211-.094-.02-.02.035-.066.09-.031-.031-.156-.094-.024.075.016.199-.055-.024-.34-.246.043.133-.035.094-.086-.16-.289-.645-.242-.008-.352.278-.281.07h-.254l-.215-.016-.207.258-.297.414-.093-.07-.036-.395-.335-.07-.266.098-.426-.38-.57-.21-.195.344-.27-.02-.188.148-1.12.262-.247-.035-.277-.289-.027-.195.023-.223-.27-.21-.527-.15-.203.067-.45-.125-.097-.098.012-.015.488-.387.223-.734.105-.633.024-.606-.403-1.144-1.136-2.203-.051-.594.129-.219 2.144-1.547.305-.59-.05-.75-.188-.554-.696-.914-1.011-.54-.45-.1-.175.066-.059.23-.101.805-.106.265-.668.586-.91.196-.559-.25-.644-.696-.387-.992-.086-.121-.39-1.086-.067-1.129.492-.48.715-.008 1.336.637.59.101.375-.25.223-.328.12-.64.84-.227.485-.094.629.215.55.383.516.312.63.137.78-.125.344-.164.29.035.952.34 1.098.66.844.203.273.004.785-.172.223-.195.195-.55.133-1.606.363-.325.297-.035.645.239.695.46.348.06.152-.118.379-.996.246-.094.934.281.87.442 1.415.187.594.25.308-.058.621-.305.246-.434.016-.707.297-.625-.125-1.008.27-1.066.39-.887.867-1.507.242-.383.582-.575.672-.964.985-1.77.605-.644.39-.473.45-.316.422-.516.547-.711.46-.246.587-.43 1.332-.504.375-.406 1.457-.648.968.402.313-.906.312-.356.372-.472.542-.106 1.754-.793.864-.82 1.652-1.785.027-1.137 1.973-1.273.398.035 1.313.71.516.747.25.507 1.48 1.126.457.097.293-.16 3.324-2.625.508-.234.664-.563-.004-.367-.148-.512-1.727-3.52-.312-.574-.106-.367.2-.133.425.024.528.156.254-.086.3-.336.465-1.781.227-.46.37-.063.5.066 1.47 1.082.285-.113-.078-.414-.512-1.047-.54-.809-1.57-1.25-1.347-.277-.469-.004-.234-.133-1.11-1.238-.363-1.207-.324-2.824.293-.137.23-.067.121-.195.082-.566.149-.239.23-.023 1.953.574.243-.062.027-.063-.227-.633.055-.015.785.097.696.2.359.144 1.21.266.247-.016.285-.168 1.363.59.575.207.488-.125.082-.222.008-.762-.301-1.27.215-.191.433-.117 1.559.058.406.207.442-.09.593-.496.07-.39-.253-1.465-.317-.93.102-.515.738-.086.453-.246.168-.11.278-.347.082-.243-.215-1.09 1.035-1.082.211.047.426.348.343.137.606.07.191.172.22.363.257.07.379-.101.285-.16.04-.649.124-.136.14-.262.372.012.664.464.066.489.067.144.476.41.457.25.332 1.055.403.227h.492l.574-.082.367.27-.094.226-.082.43.254.187.47.055.456.09.344.183.308.422.356.648.285.633.04 1.113.046.36.2.18.753.726.102.379.113.258.266.176.964.355.868.633.367.101.168.02.742.156.48.13 1.09.296.39.754.384.113.203-.133.14-.187.204-.176.906.508.316.176.367.496.188-.012.418-.617-.082-.36.176-.265.363-.02.258-.07.129-.129.73-.121.164-.55-.086-.712.688-.523.644.535.133.59.711.351.168-.257.168-.364.29-.18-.122-.269-1.066-.996-.317-.676-.113-.691.066-.453-.054-.172-.368-.297-.39-.32-.156-.407-.36-.32-.07-.488-.406-.723-.157-.219-.074-.492-.297-.308-.715-.043-.375-.461-.218-.438-.157-.719-.507-.691-.77-.582-.05-.219.16-.699-.274-.144-1.512-.934.02-.379.031-.195-.867-1.711-.067-.606-.664-1.824-.136-.184.047-.164.324-.23-.121-.285-.332-.313.027-.11.441-.41-.074-.44-.152-.598.082-.914.183-.883-.21-.684.289-.113.808-.328.094-.29.148-.269.57-.031.419-.02.414-.71-.133-.231-.442-.328.024-.207.57-.063.024-.53.515-.349-.02-.542.212-.262-.145-1.215.106-.102.683.016.051-.184-.16-.441.062.016.73.27.333-.177.398-.195-.082-1.027-.636-.914-.016-.41.16-.536-.414-1.34-.57-.789.023-.46.262-.82.285-.325v-.05l-.238-.981.16-.395-.14-.453-.11-.406.207-.918.098-2.18.004-.265-.114-.649.25-.422.11-.355-.371-1.332.105-.528.195-.574-.152-.457.152-.242.504-.27.485-.57.52.328.034-.097.332-.11.91.305.293.34.235.172 1.031.605.621.887.11.14.574.352.347.395.028-.126.293-.55.34-.313.289.184.605.11.293.089.688.195.433-.57-.46-1.39.097-.22.09-.5.105-.093.192-.715.59.031.234-.054.906.562.152-.203.598-.027.195-.047.078-.121.344-.203-.054-.258-.153-.524.02-.445-.438-.773-.34-.477.121-.348.141-.195-.094-.203-.136-.457-.102-.766.148-.515-.132-.493-.078-.632.023-.496.07-.25.078-.23-.078-.185-.234-.32.121-.75.02-.336.273-.34.18-.398-1.653-2.563-.547-.761.211-.836.121-.137.032-.297.219-.39.523-.403.297-1.152.219-.285.23-.953.227-.274.23.113.547.52.031-.086.04-.098-.04-.543.207-.398-.367-.695.426-.422.543-.074.222-.2.512-.226.254-.192.64-.308-.077-.281.023-1.27-.172-1.082.078-.41-.02-1.613-.402-.57-.488-.657-.012-.242.121-.094-.03-.184.5-1.093-.122-.594-.039-.09.035-.434.13-.359.015-.406.535-.07.121-.098.793-1.262.848-.992.777-.543.394.023.333-.085.582.25 1.085-.13.497-.156.101.176 1.754 1.426.461-.14.227-.208.246.106.37.265.462.477.156-.016.512.297.199-.125 1.32.031.328-.128 1.133.117.598.449.219.035.378.2.657.3.715-1.137.195-.144.066-.543.38-.527.234-.032.605.364.875.68.473.28.527.301 1.598 1.086.691.336.473.324 1.054 1.739.192.457.96.875.34.386.055-.078.356-.07.945-.363.566.511.157.418.066.563.824-.012 1.473-.058.125-.211.645-.094.312.035.184-.2.27-.01 1.136-.5.016-.06.257-.222.121-.344.645-.16.684-.496.222-.016.555.192.308.086.067.203.156.613.113.594.036.316.18.242.62.266.45.023.527.102.258.027.437-.066.328.082.817.687.265.317.692-.98.031-.165.496-.496.09-.398.14-.367.036-.575.16-.105.121-.203.336-.375.2-.266.269-.914-.13-.848-.331-1.308.183-.164.215-.028.32-.304.512-.133.367.02.309-.38.234-.253.352-.114 1.484-.09.496-.152.883.219.547.187 1.824.375.282.063.554-.094.406-.258.266.043.672-.101 1.21.422.231.039 2.184 1.136.691.555.348.05 1.203.72 1.281.66.5-.043.422.082.75-.05.27.21.254.313.105-.02.621-.29.555-.01 1.008.671-.235.723.497 1.265.25.633.308 1.024 1.824 3.32.282-.121.492-.438.453-.418.539-.55.121-.41.477-.575.066-.02.156-.523.239-.762.043-1.062.312-.414.887-1.531-.051-.43-1.273-1.563-.036-.558.239-.805.285-.21-.043-1.688-.324-1.492 1.18-.235.445.082.609.473.02-.07-1.063-3.243-.586-2.043 1.34-.406.422.13L165.609 0l.075.063.16.398.484.652.41.469.418.293.414.066-.343.957.957 1.977.308.14.32.567.524.941.473.407.086.441-.235.582.047.527.094.122 1.047.652.765 2.098-.05.484.136.387.063.414.113.195-.008.11-.172.703 1.23 1.996.227.632.668.957.133.782.785 1.566.563.914.277 1.074.258.43.625.363.394.676.375.36.606.082.96.949.532.422.348.504.02.539.574.425.41-.003.476.488.621.16.715.602.422.222.164.266.406-.266.36-.086v-.039l.363-.617.332-.02.149.149.101.426.39.82.958.848.855.515.305-.031 1.453.188.203-.075.176.407.691 1.91.543.718.801.63.168.449.059.28.539.61.937.524.387.566.184 1.605.078.204-.016.351.621 1.028 1 .617.688-.028.386.18.254.371.906.555.375.601.137.317.153.84.835 1.441-.132.461.273.918-.047.297-.238.285-.043.105.406 1.184.594.691.394 1.211 1 .43.43.04.399.308.757.824.973 1.227.488.496.215.16.735.847.078.02.254-.074.906.586 2.402 2.222.414.504.5.23.645-.07.07.188.45.66.273.457.176.52-.082.445-.301.598-.114.09-.296.8-.145.367-.285 1.246.176 1.313-.133.137-.223 1.695-.09.234.082.133.457.258.34.074.813.567.82.359 1.266 1.043.414.293.86.625.21.074.152.164 1.293.684.418.285.168-.031.434-.332.305.054.246-.277.144.063.508.457.754.586.531-.04 1.434.555.293-.234.172-.121.359.027.379.328.758.13.238.144.195.023.649.305-.043-.407.094-.226.152-.195-.234-.301-.333-.45.118-.085.918.02.097-.27.97-.575.226-.468.304-.047 1.012-.664.867-.063.192-.168 1.047-.18-.11-.601.117-.297-.73-1.246-.137-.008-.715-.437-.172-.2-1.23-1.359-.016-.148.11-.262-.063-.125-.14-.566-.114-.329-.363-.476-.445-1.176-1.403-2.488-.285-.258-.254-.504-.074-.098-.348-.296-.425-.641-.227-.09-.535-.68-.14-.183-.208-.086-.441-.625-.371-.797.293-.398.394-.598.016-.863-.504-1.141-.059-.328-.175-.477-.16-.328-.051-.554.136-.887.215-.309-1.219-1.71-.246-.395-.468-.973-.094-.262-.238-.55-.133-.368-.098-.109.438-.387.132-.11.266-.452 1.223.496.304.219.36-.059.347.254.422-.059.403.047.312-.39.27-.29.113-.43.078-.077.23-.114-.042-.71.086-.106-.075-.039-.12-.21-.18-.958-.11-.36.235-.202.394-.04.207.106.02-.031-.008-1.453.539-.313.297-.168.554-1.059.352-.078.293.063 1.129-.961-.094-.387-.18-.504-.527-.953-.117-.605-.313-.524-.261-.625.437-.34.461-.218.352-.196.285.184.05.375.262.367.266.27.156.578.586.683.23.16.075.579-.063.164.348.765.2.57.155.594.75.649.391.117.203.324.313.375.242.211.621 1.047.238.352.828.859-.035.293.082.297.285.5.606 1.262-.422.082-.863-.024-.2.051-.128.242.097.313.114.34-.086.242.023.687.813 1.32.214.34.73 1.844.61.79.278.374.035.473-.02.238.383.434.156.52.782.765.214.14.27.754-.125 1.352.172.621.176.902.554 1.102.594 1.617.914 1.684.649.59.167.21.512.133 1.106-.46.07.175.648-.5.746-.097.52-.168 1.242.289.324.175.704-.16.214.028.786.609.257.32.133.192.39.484.36 1.008.281.207.258.433.078.06.368-.044.37.496.235.223.285.219.59.238.05.016.493-1.102.484-1.078.172-.367.055.07.297.875.543.988.078.41.184.16 1.39 1.563.871-.559.574.04.25.07.692-.031 1.531.742.344.355.758.883.289.23h.12l.911.692.598.484.343.344.743 1.18.253.125.247-.14.57-.118.3-.07.633-.059.305.027 1.399.524.003-.114.086-.757.207-.258.391-.203.406-.117.047-.801.45-.79.453-.69-.262-.758-.547-.782.172-.742.691-.277.656-.184.196-.254.258-.097.332-.11.25.024-.047-.13.031-.269.383-.273.46.011.919-.062.539.102.285.328.238.355.293.797.446.8.136.177.192.027.66-.293.449.02 1.316 1.277.426.25.254.219.262.562.52 1.328.824 1.36.156.878-.098.579.832 1.855-.07.926.047.465 1.031 2.468.04.715.062 1.707.058.602-.012.426-.003.46-.012.794.137.574.015.511-.133.516.207.492.282.36.523-.012.637.316.531.223 1.313.531-.02.352.078.363.477.563.133.984-.086.32.066.438.336 1.578.004.367.367.785.363.535.551.473.234.715-.367.39-.418.235.184.793-.262.82.16 1.227.082.234-.101.676.086.66-.153.445.125.942-.132.144-.004.18-.567.762-.015.422.058.504.332.652-.015.656.207.688-.059.738.363.473-.023.855-.082.129-.094.86-.422.156-.09.195.204.316.183.473-.176.715-.336.097-.566.364-.336-.172-.027.125.07.543-.156.265-.305.235.098.765-.133.29.129.55-.07.356-.13.332.106.644-.195.227h-.235l-.097.558-.031.2-.094-.047-1.121-.469-.79.152-.421-.136-.336.03-.305.15-.398.05-2.856.856-.27.832-.077-.024-.407.344-.386.602.039 1.062-.157.316-.207.286-.363.078-.156.238-.406.012-.63.297-.566 1.043-.035.226-.07.223-.781.187-.317.461-.11.582-.175.512-.016.789.258.395.043.238-.164.422-.266.234-.414 1.274.25 1.71-.066.204-.117.097-.387.055-.215.125-.215.02-.464.19-.528 1.075-.066.629-.11.07-.312.907.031.605-.152.063-.32.015-.125.16-.211.89-.188.102.008.223-.172.13-.047.257-.223.262-.199.484-.101-.035-.305.281-.344.176-.097.125-.043.219-.09.097.086.957-.106.094-.289.297-.254.164-.238.074-.078.23-.25-.062-.496.41-.121.028-.157.254-.238.117-.14.3-.184.204-.121.675-.024.34-.156.617.016.399-.07.305.164.093.144.5-.07.172-.293.29v.245l.203.485-.188.738.086.363-.105.207-.535.032-.04.406-.1.238-.099.29.008.546-.164.176.317.57-.137.106-.25.242-.074.375-.203.133.062.273-.02.274.036.261.199.426-.067.246-.12.125.078.664-.192.13.016.038.703 1.524.031.246-.25 1.289.313.367-.145.969.176.285.098.773.128.582.102.098-.027.254.187.351-.11.477.16.234.231.5.254-.007.282.097.02.16-.192.512.37.305.915.316.242.598.215.137.133.316.25.328.23.375.297.106.133.28.086.509-.043.539.168.351.722 1.004-.054.04-.574.507-.551 1.078-.242.027.003.024.063.406-.18.125-.207.117.047.227-.008.117-.261.352-.028-.02-.168-.129-.004.102.047.308-.129.356-.054.574-.16.156-.176.77.164.285.058.21-.074.013-.094.007.114.09.093.059m-92.84-75.274-.285.141-.285-.082-.023.055-.293.222-.266-.07-.066.125-.13.902-.175.407-.004.183-.168.532-.234.765.223 1.07.21.274-.136.719-.098.234.05.54.224.366v.309l.03.234.22.383.152.441.144.637.098.461.086.293-.07.332-.192-.02-.27.04-.343.129-.762-.09-.066.761.062.606v.27l.012.445-.11.465-.062.175-.027.059.105.754.028.723-.028.253-.136.282.039.472.136.266.27.355-.156.235-.235.195-.449.621-.183.5-.043-.02-.254-.277-.184-.148-.023.148.078.215-.114.711-.082.176-.105.266-.164.14-.137.36-.187.855-.196.09-.23-.106-.2-.398-.077-.113-.543-.614-.305-.52-.043.079-.457 1.008-.566.113-.208.266-.066.457-.172.144-.324-.004-.602-.132-.09.375-.546.367.246.336.262.078.488.176.238-.04.336.477.594.57.015.391-.109.168-.055.113.18.489-.137-.047-.218-.121-.083-.02-.195-.082-.168-.113-.039.07-.023.211.144.18.309.285.055.215-.356.527-.316.027-.965-1.007-.02-1-.02-.02-.308.031-.152-.125.097.196-.03.218-.126.18-.144.012-.223.074-.555.07.024.059.324.469.047.53.027.157.363.438-.007.418.168.128-.008.551-.098.383.074.367-.046.223.152.625-.293.324-.145.133-.058.273-.223.278-.238.035-.145.21-.039.333.102.097.594.41.32.247.195.062.336.301.125.125.91 1.25.157-.102.515.106.016-.43.437-.02.422.348.54.489.214.238.316.07.258-.074.516.352.226-.204.118-.226.043.062.359.633.352 1.051-.036.21.215.427.621 1.277.118.274-.036.87.055.438.035.297.168.516-.027.222.176.656.433 1.184.172.285.149.406.324.297-.156.739-.247.195-.277.816-.156.36-.164.277-.473.242-.125.403-.047.242-.086-.059-.254-.117-.066.172-.258.418-.11.094.009.27-.082.335-.317.383.047.144.027-.003.075.027.347.453.86-.14.097.253-.09.117-.195.11-.14.3-.16.094.062.188.18-.004.175.082.16.363-.113.035-.21-.02-.106.302.367.668.246.488-.117.023-.004.145.094 1.137.343.273.34.024.743 1.128.105.48.105.063.024-.02.469-.359.214-.105-.054-.375.21-.277.255.043.21.359.122.637.32.027.723.098.242.254.394.5.11.152.078.547.156.347.188.34.23.063.07-.207.078-.23.04-.27.171-.285.254-.106.184.067.383.757.203.403.262.125.257-.356.243-.043.136.153.25.5.243.324.386.789.106-.027.187-.188.125.094.094.328-.008.004-.023.105-.157.188-.265.058-.133.043-.008.032.11.304.03.036.052-.09.27-.106.316-.023.351-.418.39-.305.302.176.292.086.043-.09.102-.164.219.094.156.304.203.313.031-.004v-.035l.438-.051.144.2.29.23.132.164.207.57.149.066.12-.273.157.063.016.285-.395.945.203.195 1.578.852.688-.059.05-.144.122-.23.512-.512.199-.008.441.324.285.055.223.437.066.266 1.09.48.352.383.043-.164.011-.223.153-.043.187.118.274.64.543.246.199-.172-.082-.254-.008-.238.172-.113.227.234-.075.309.137-.031.766-.055.105-.027.3-.008-.007-.418.125.031.473.102h.328l.043-.207.101.054.782.145.238-.11.2-.003.312.191.863-.078.465.039.152-.18.582-.062.41.015.758-.488-.02-.137.083.004.16-.078-.031-.25-.176-.23.023-.024.211-.047.274.164.218.41.16.13.012-.172.051-.047.031.015.14.246-.081.16-.028-.007-.167-.09-.02.055.148.277.184.008.223-.008.07.2-.113.308.496.297.746.875.137.14.398-.144.332-.07.324-.02.078-.36.286-.128.199-.032.355-.554-.074-.223.11-.082.367.105.285-.21.195.082.164.32.438.219.308.382.34.196.59-.446.387-.21.035-.368.297-.285-.11-.93-.258-.578-.113-.289-.281-.203-.203-.113-.75-.754.113-.406-.101-.239-.118-.273.02-.29.023-.151-.144-1.106.004-.394-.02-.121.719-2.247v-.894l.426-.445.32-.125.3-.11.247-.129 1.043.555.36-.14.48.097.246.164.707.348.273.129.383.277.457.266.238.035.215-.055.313.043.543.125.347.188-.023-.106.027-.45.016-.394-.152-.86.039-.476-.106-.375.055-.39.324-.25.102-.29-.258-.78.05-.2-.222-1.363.031-.047.223-.117.07-.61.524.247.39.359.406.105.282-.05.34-.493.074-.378.914-.649.012-.363-.875-.242-.563-.446-.07-1.05.39-.137-.363-1.137-.14-.355-.419-.196-.308-.304-.238-.391v-.566l-.43-.575-.484-.5-.176-.48-.18-.45-.586-.382.063-.066.09-.317.046-.594.211.036.098-.274-.07-.441.082.043.472.082.23-.325.165-.437.3-.336-.23-.664-.222-.137-.118-.133.02-.027.305-.191-.098-.715.195-.473.04-.594-.06-.34.102-.265-.023-.805-1.086-2.347-.278-.598.094-1.379.125.055.215.25.043-.04.246-.347.508.176.102-.14.14-.118.195.043.122-.14.347-.157-.234-.473-.008-.293.027-.125.168-.066.211-.234-.09-.223.211-.426.211.047.5-.39.09.011.219-.402.101-.336.122-1.332.023-.156.184-.461.078-.13.207-.054.191-.039.203-.148-.351-.34-.282.101-.14-.14-.254-.442-.234-.117-.305-.476-.27-.207-.328-.532-.332.028-.293-.204-.191-.003-.485-.301-.605.781-.77.035-3.066-2.43-.133.028-.465-.504-.054-.246.27-1.285-.43-.739-.528-.578-.625-.515-.347.144-.157.125-.457.156-.469-.043-.828.133-.539-.097-.418-.196-.386-.148-.211-.004-.137.11-.856-.15-.28-.394-.575-.035-.203-.035-.047-.144-.348-.176-.507-.063-.13.192-.038-.028-.098-.207-.211-.254-.11.098-.324-.289-.035.074-.3.086-.364.145-.172.03-.398-.023-.184.227.121.703-.257.172-.215.121.011.418.079.352-.282.148-.16.016.035-.11.098-.394-.32-.215-.098.25-.172.219-.281.101-.063.035-.004.04.024.593-.266.45-.035-.04-.316-.171-.082-.036.37.32.122.505.168 1.351-.18-.566-.18-.813-.09-.261-.87-.762-.38-.45-.5-.382-.25-.563-.12-.664-.157-.289-.113-.187-.414-.078-.36-.536.016-.59-.383-.332-.355.079-.2-.239-.117-.304-.074-.266.016-.387-.277-.254-.13-.332-.015-.34-.266-.285-.539-.28-.605-.602-.137-.286-.86-.5-.12-.015-.868-.754-.34-.418-.261-.02-.234.04-.266.14-.27.145-1.25-.758-.601-.508-.403-.188-.48-.296-.348-.059-.468-.129-.426-.262-.14-.16-.247-.539-.289-.742-.453-.434-.672-.367-.047.086-.539.512-.254-.047-.61-.422-.269-.137-.488-.101-.27-.117-.273.027-.355.105-.153.02-.008.05-.03.231.019.176-.02.004-.3.09-.126-.004-.093.035-.008-.043-.153-.14-.605-.403-.266.031-.238.032-.516-.278-.351-.386-.258-.497v-.105l-.02.02" style="fill-rule:nonzero;fill:#908e96;fill-opacity:1;stroke-width:.25;stroke-linecap:butt;stroke-linejoin:miter;stroke:#fff;stroke-opacity:1;stroke-miterlimit:10"/></g></svg>