<svg viewBox="0 0 293.968 217.44" xmlns="http://www.w3.org/2000/svg"><defs><clipPath id="a"><path d="M0 .441h294v217H0Zm0 0"/></clipPath></defs><path d="m113.8 44.652.188-.07.36-.21 1.648-.302.399.192.511.14.918.547-.101.332-.153.41-.308.192-.34.445-.07.156-.114.192-.172.203-.453 1.242-.234.852-.125.433-.258.45-.016 1.718 1.516 1.446.344.007.484.059 1.121.32.246.11.512.043.567.398.43.086.25-.027.195-.02 1.054.336-.113.73.066.614.434 1.472.32.344-.035.211-.21.512.144.46-.157.317.2.649.125.351.215.356.468.75.442-.489.996.137.73.02.813.23.215.125.359-.2.309-.206.625.164h.425l.645.144.164-.152 1.637.399.39.042.024-.214.07-.243.02.012.386.469.063-.074h.222l.133.105.149.125.242.14.39.24.286.089.175-.02.383.22.309.038.144-.629.075-.64.175-.598.188-.414.187-.34.336.117.778-.226.148-.117.766-.457 1.285-.153.445.235.457-.235.125-.387.274-2.57.234-.324.262-.09.68.024.636-.239.559-.523.246-.14.21-.43.048-.243.222-.035.301-.015 1.203-1.36.035-.242-.066-.367.293-.328.473.172.136-.11.133-.183.121-.043.012-.184-.336-.723-.09-.75-.05-.73.581-1.024.325.055.449.281.383-.058.328-.344.027-.445-.148-.453-.34-.567.066-.125.051-.367.46-.742.2-.031.309-.223.297.004.226.594.29.28.913.403 1.715.926.762.578.879.89.453.36.555.934.418.687.605.367.816.63.516.921.469 1.633-.012.68.074 1.336.328.632-.199.403-.027 1.406.59 1.215.52 1.004.042.347-.012.207-.28.032-.415.004-.164.304-.012.813-.035.355-.008.324.457.567.168.316.067.203.234.86.102.18.058.57.168.465.258.629.719 1.09.25.769.055.223-.047.125-.086.316-.031.414.054.54-.043 1.397.055.665-.086.37.215 1.337-.188.336-.265.011-.164.172.14.3.239.434.277 1.079-.121.144-.285-.004.02.172-.028.215-.367.297.082.273.015.461-.343.48-.239.813.485.516.136 1.699-.16.559.203 1.136.22.399-.071.851-.649.184-.183.07-.29.258-.538-.293-.266.238-.805.297-.984-.054-.559-.274-.433-.113-.324-.156-.88-.32-.277-.216-.363.594-.16.153-.387.023-1.008.434-.86-.43-.433-.297-1.168.684-.554.086-1.547-.934-.567.059-1.254.18h-.496l-.234.112-.215.336-.523-.191-.25-.144-.453.246-.125.18-.188.136.086.668-.601.508-.762 2.136-.207.481-.196.36-.578.331-.172.008-.367-.242-.195.457-.043.227-.273.086-.102.203-.117.082-.024.09-.074-.028-.058-.18-.09-.132-.434-.04-.129.266-.043-.031-.21-.168-.192.066-.348-.058-.043.09.035.379-.093-.2-.157-.187-.007.098-.036.085-.03-.015-.071-.18-.059-.344-.07.07-.098.497-.355-.051-.336-.34-.133-.02-.187.122-.204.011-.18-.16.055.176-.03.082-.032-.008-.195-.015-.024.164-.101.18-.082-.028-.016-.031-.04-.113-.046.023-.176.266-.027-.114-.125-.195-.133-.121-.02.07.02.633h-.016l-.078-.156-.18-.301-.21-.18.027.184.086.426-.18-.168-.093.023-.004.02-.082.18-.036-.047-.125-.211-.039.015-.277.207-.016-.05-.105-.325-.215-.21.028.144.03.297-.218.101-.2-.117-.28-.215-.485.04-.355-.083-.016.063.02.422-.067.195h-.015l-.13-.145-.1-.011-.024.027-.164.2-.489-.052-.25-.003-.215.175-.515.036-.274-.122-.304-.015-.242.187-.122.243-.375-.04-.3-.054-.602-.055-.105.238-.121.133-.106.094-.035-.027-.215-.086-.14-.223-.106.004-.11.316-.054.157-.043-.02-.2-.043-.109.066-.035-.039-.246-.261-.113-.051-.528-.645-.105.141-.047-.113-.144-.188-.168-.16-.13-.418-.09-.3-.07.015-.101.258-.04-.016-.456-.406-.012.039-.12.168-.716-.344-.5-.289-.23-.21-.317-.345-1.058-.847-.172.02-.23-.098-.137-.059-.207-.16-.168-.004-.563-.309-.172.016-.21-.04-1.008-.14-.743-.32-.09-.074-.113-.192-.425-.078-.227-.254-.121-.058-.29-.266-.171-.035-.25-.625.113-.25-.07-.438-.137-.14-.05-.235-.04.008-.203.153-.258-.004-.129-.14-.203-.642-.312.368-.192-.09-.808-.043-.172-.086-.156.344-.063.066-.043-.02-.191-.148-.34.363-.086.07.059.22-.137.058-.504-.063-.039-.488.164-.41-.133-1.352-.11-.289.427-.832-.332-.195-.336.113-.192.184-.23-.125-.184-.328-.058-.238-.918-.747-.012-.113.074-.394-.238-.246-.125-.141.023-.375-.617-.258-.098-.125V78.7l-.375-.25-.464.09-.184.016-.313-.434-.19-.074.015-.031.207-.157-.219-.546.012-.243-.059-.125-.004-.195.008-.32.113-.196-.222-.273.129-.395-.985-1.629.172-.261-.062-.434-.196-.844.18-.156.266-.305-.032-.23-.023-.305.086-.601.16-1.403.117-.617.035-.68-.105-.511-.457-1.086.035-.274.09-.421.402-.41-.105-.212-.114-.347.051-.117-.039-.032-.16-.168-.074-.242-.371-.066-.141.277-.105.207-.036-.008-.093-.207.004-.421.148-.56.031-.093.137-.11.133-.859.156-.27v-.394l.129.028.3-.117.188-.075.149-.113.078-.25-.16-1.04-.442-2.081-.344-.375-.378-.043-.407-.121-1.156-.242-.133-.075-.972-.246-.829-1.293-.273-.332-.969-.832-.234-.843-.3-.59v-.223l-.02-.062.105.035.742.515.531-.097.79-.153.753.016.86-.516.336.02.234-.188.469-.343.043-.246.644-.325.153-.34.754-1.73.136-1.332.028-.973.058.02.32.09.66-.09.352-.125.868-.004.402-.422.336-.293.836-.133.562-.488 1.102-.074.015-.5.211-1.574.332.296 1.36.754" style="fill-rule:nonzero;fill:#1a1523;fill-opacity:1;stroke-width:.25;stroke-linecap:butt;stroke-linejoin:miter;stroke:#fff;stroke-opacity:1;stroke-miterlimit:10"/><g clip-path="url(#a)"><path d="m265.648 168.379 2.899 1.7.465-.024.195-.172.621-.555-.004-.328.184-.336.91-.492.016-.2.191-.238-.063-.472.11-.239.195.008.25.13.149-.24.199-.304.098.063.07.113.199.937.422.165.574.19.406.274.536.524h.128l.36-.07.492.277.309.305.52.593.46.063 1.004.238.46.535 1.185.196.375.085.55.11.516-.13 1.05.411.512 1.465-.062.906.137.383.214.273.313.637.332.235.758.167.508-.109.328.129.945.816.426.407.453-.082.227-.137.34.055.292.293.305.523.828 1.121.402.164-.074.035-.074.137-.066.2-.227.257.137.309-.09-.02-.098.04v.042l-.015.297-.067.164.028.176-.094.215-.082.824-.152.05-.086.552.136.41-.054.703.39.293-.078.14h-.305l-.082.493-.007.476-.075-.027-.328-.164h-.16l-.258.37-.136-.12-.282-.356-1.468-.36-.278-.358-.117.32v.777l-.184.227-.05.11.156.265.113.02-.012.062-.003.125.058.097-.066.028-.246-.094.015.094.149.285.004.344.156.047-.047.05-.098.114.035.035.2.02.004.187-.047-.012-.121-.02-.02.063-.152 1.461-.063.098-.058.3-.243.551-.023-.008-.219-.03-.125-.06-.254.044-1.238.105-.035.207.879.84.48.047.664.316.286.168.32-.219.152.016.453.012.746-.918.41.097.333-.054.566.25.445.238.184.453.234.078.176-.09.258.086-.008.043-.414.774.29.41-.032.266.254.972-.188.516.125.547.086.043-.12.047-.056.058-.058-.039-.07.106-.024.132.016.012.007.113-.046.016.011.398-.07-.035-.234-.129-.09.055-.031.258.007.14.094.239.234.226.16-.164.094-.176.02.008.027.164.364.664 1.574 1.239.203.601.234.75.067.293.699.719.332.035 1.316.629.102.2-.024.155-.066-.027-.277-.168-.008.02-.04.699-.23.488.239.348-.02.133-.027.011-.074.133-.047.254.027.32.27.547-.067.149.324.48-.047.63-.48.472.328.664.16 1.32.082 1.14-.492 1.302-.11.55-.179.301-.594.113-.457-.101-.187-.028-.516.09-.48-.12-.621.1-.625.055-.293.055-.473.02-.617.488-.406.633-1.137.828-.66.113-.157.149-.05.375.195 1.382-.207.489-.457.254-.3.168-.49.488-.183.559.031.378.082.25-.148-.097-.254-.34-.21-.77.023-.218-1.149-1.07-.492-.262-.262-.157-.152-.14-.277-.106-.977-1.316-.2-.2-.136.008-.547.18-.34-.289-.152-.21-.117-.005-.227-.324-.14-.027-.13.14-.034-.039-.512-.887-.242-.152-.145-.226-.863-.61-.375-.156-.39-.273-.348-.098-.7-.598-.203-.191-.16-.375-.07-.043-.399.18-.066-.153.031-.336-.207-.265h-.258l-.468-.286-.313-.042-.406-.301-.266-.09-.504-.266-.328-.039-.527-.387-1.246-.398-.801-.43-.305-.109-1.347-.758-.72-.351-.831-.414-1.805-.93-.492-.176-2.137-.469-.734.035-.371.004-.633-.03-.484.023-.45.035-.972.015-.469-.191-.11-.215-.167.078-.184.149-1.45-.125-.698.035-.672.125-.606.008-.195.082-.012-.024-.11-.187-.073-.016-.036.04-.136-.036-.457-.234-.45.12-1.054-.488-.438-.304-.367-.39-.41-.661-.355-.336-.114-.203-1.996-2.477-.047-.476-.218-.446-.133-.316-.543-.805-.047-.199-.281-.722-.07.074-.145.02-.606-1.114-.77-.512-.16.086-.347-.242-.113-.441-.317-.094-.043-.09-.054.008-.11-.133-.086-.098-.27-.23-1.671-3.024-.14-1.3-1.325-.645-.914-.383-.285-.132-.434-.051-.117-.121-.348-.286-.66-.207-.808-.484-.203-.062-1.465-1.137-.176-.078-.176-.016-.2-.078-.015.023-.25.586-.312.274-.742 1.594-.2.37-.32-.308-.309-.434-.164-.152-.332-.187-.023-.157-.5-.507-1.29-.727-.304-.125-.18-.09-.187-.156-.188-.25-.152-.172.016-.133.164-.097.148-.247.121-.113.067-.883.047-.144-1.368-.832-.335-.227-.727-.164-.188.235-.253.476-.243.297-.16.066-1.035-.39-.246-.121-1.68-.883-.289-.324-.336-.258-1.308-.496-.121-.137-.27-.008-.297-.222-.562-.333-.407-.019-1.203-.516-.554-.101-.403-.242-.175.125-.27-.082-.582-.372-.453-.03-.813-.446-.437-.227-.121.125-.125.63-.227.343-1.59.398-.402-.132-.352.527.004.27-.144.207-.293.41-.184.203-.047.285-.32.742-.25.16-.691.106-.36.597-.031.215-.086.45-.207.308-.285.02-.29.148.036.113.121.141-.082.105-.023-.007-.227-.075-.105.153-.059.172-.117.117-.149.789-.55.312-.188-.043-.07.094-.598.203-.07.43-.301.07-.871-.418-.027.067-.122.14-.3-.199-.137-.082-.375-.105h-.203l-.649.273-.214-.168-.086-.148-.516-.203-.21.07-.161.3-1.129-.43-.418-.023-.355.036-.438.808-.168.133-.152-.285-.371-.64-1.368-.302-.421-.214-.38.164.083.5.336.265-.012.008-.547-.21-.105-.18-.317-.235-.258-.023-.07-.23-.887-.255-.086.457.043.368-.113.234-.418.086-.91-.211-.438-.098-.421.004-.45-.191-.968-.086-.258-.2-.18-.05-.473-.617-.503-.645-.106-.016.055-.914.18-.335.19-.016.845-.047-.164-.36-.508-.378.23-.38-.047-.398-.406-.28-.207.226-.273.07.035.469-.13.261-.753.692-.695.2-.407.026-.148.082-1.191-.699-.813-.054-.152-.165-.25-.05-.133-.246-.156-.715-.301-.715-.281-.195-.176-.641-.375-.25-.098.008-.289-.07-.207.078-.855-.352-.168-.184-.559-.136-.539-.227-.48.422-.262-.101-.387-.391-.332-.27-.762-.273-.226.105-.25-.039-.285-.02-.387-.405-.113-.543-.055-.485-.492-.496-.114-.098-.023.059-.144.172-.274-.086-.332.3-.39-.16-.637-.445-.164-.05-.008.015-.336.211-.258-.187-.488-.106-.254-.043-.317.043-.12.223-.048-.047-.277-.332-.164-.043-1.21-1.281-.247.07-.187.082-.313.074-.215.172-.246-.129-.789-.387-1.105-.472-.286-.082-.527-.211-.617-.336-.219-.09-.273-.082-.211.25-.82-.246-.364-.188-.332.063-.234.191-.309-.015-.617.035-.008.332-1.023-.004-.11.203-.125.172-.238-.078-.32-.031-.149.027-.16-.191-.12-.024-.34-.355-.028-.371.016-.153-.395-.328-.355-.406-.211-.352-.368-.664-.296-.082-.325-.082-.386-.254-.446.074-.468.516-.036.211-.027-.004-.727-.234-.207-.028-.226.16-.32-.054-.258-.133-.215-.21-.25.081-.36.152-.257-.183-.57-.488-.235-.051-.43.703-.566-.047-.324-.101-.942-.25-.394-.239.004-.008.21-.726h-.003l-.957.027-.282-.156-.367-.649-.32-.082-.176-.07-.437-.2-.63-.097-.222-.25-.36-.422-.163-.218-.504-.38-.293-.312-.598-1.547-.27-.199-.245-.058-.676-.735-.63-.234-.437-.149-.14-.625-.301-.613-.305-.086-.21-.012-.177-.484-.097-.25-.488-1.207-.399-.441-1.426-.301-.257-.512-.524-.555-.105-.18-.688-.738-.445-.84-.16-.394-.235-1.226-.238-.407-.152-.191-.157-.453-.296-.168-.04-.176-.218-.227-.328-.14-.883-.219-.238.02-.461-.141-.243.586-.062-.074-.188-.254-.422.273-.734-.726-.855.515-.176.059-.102.16-.132.27-.403.097-.203.13-.242-.126-.195-.14-.114-.184h-.215l-.109.16-.562.152-.266.235.137.246.125.426-.09-.004-.442-.23-.312-.087-.336-.101-.93.234-.191-.238-.156-.106-.063-.293-.074-.25-.32-.613-.18-.293-.02.016-.125.086-.273-.094-.067.18-.05.086-.344.101-.09.184-.09.015-.355-.105-.356.027-.18.27-.05.55.008.087-.075-.024-.238.035-.308.13-.907-.669-.117-.398-.12-.203-.216.156-.414.52-.078-.094-.246-.223-.125-.047.004-.02.176-.374-.387-.352-.313.113.028.246-.07.34-.403.223v-.145l-.058-.195-.29-.07-.125.02-.085-.11-.07-.297-.493-.055-.125-.027-.254.246-.035-.035-.313-.043-.355.144-.047-.09-.516-.64-.097-.09-.176-.164-.258-.066-.355-.207-.399-.172-.468-.36-.29-.152-.144.008-.434.379-.324-.336-.25-.379-.125-.441-.258-.47-.25-.175-.215-.062-.171-.004-.395-.29-.504.192-.234-.063-.64-.98-.25-.398-.813-.086-.203.125-.293.011-.141.032-.184-.118-.207.004-.187-.093-.55-.047-.255.007-.277-.73.043-.035-.047-.07-1.317-1.133-.14-.031-.25-.383-.192.05-.605-.468-.465.086-.55-.375-.47.058-.57.067-.23.277-.235.121-.648-1.383-.777-.586-.47-.379-.167-.222-.152-.309-.5-.203-.43-.101-.363.226-.149.086-.5-.043v-.039l-.097-.086-.258-.059-.375-.285-.149.059-.406.086-.008.117-.07-.047-.348-.082-.215.098-.546-.024-.348.196-.203-.082-.281-.118-.297-.113-.317-.3-.547-.239-.199.2-.16-.235-.086-.04-.39-.07-.016-.207-.051.028-.684-.012-.293-.004.028.309-.09.246-.203.488.035.281-.086.215.094.38-.149-.024-1.816-.114h-.2l-1.585.118-.106.136-.437.102-.645.094-1.27-.11-.198-.468-.204.101-.171.035-.27-.05-.219.238-.539.258-.191-.102-.156-.355-.196-.387-.351-.61-.2-.593-.285-.13-.09-.054-.082-.035-.035.059-.113.015-.387-.12-.851-.755-.121-.156-.043.031-.5.125-.164-.187-.04-.137-.039.117-.8-.035-.813-.395-.101-.035-.438.262-.094.2-.097-.067-.516-.414-.23.023-.235.156-.265-.066-.922-.418-.008.024.027.289-.453.015-.3-.094-.204-.156-.094-.226-.101-.2-.438-.191-.355-.187-.293-.262-.48.21-.137.427.137.414.097.304-.023.602.156.39.023.434.004.543-.25.809.086.582-.02.379-.046.484.23.71.106.438h-.074l-.145-.043-.348-.023-.261-.129-.258.172-.219.48-.293.082.082.106.344.21.562.153.364.149.285.086.25.523.086.23-.235.125-.55-.042-.348.035-.094.129.047.48.465 1.188.59.898-.39.113-.321.149-.133.375-.738-.332-.989-.036-.304.145-.121.066-.106.215-.703.004-.035.309.023.304-.277-.023-.504.098-.262.53-.183.09-.125.114.004.363-.235.38.235.566.277.554-.043-.023-.746-.356-.512-.164-.004.008-.043.336-.05.438-.035.25-.16.02-.372-.153-.488-.543-.387-.028-.222-.101-.114-.117-.222-.125-1.102-.18-.34-.242-.527-.734-.14-.02-.544.098-1.508-.293-.433.265-.543-.082-.168.23-.195-.015-.653-.176-.754-.039-.195.04-.34.273-.183-.137-.567-.527-.597-.211-.676-.2-.488.024-1.497.242-.543-.015-2.023-.567-.273.043-.274-.16-.289-.242-.46-.055-.278-.082-.25-.098-.23-.039-.286-.16-.582-.422-1.61-.543-.19.188-.016.273-.227.281-.527-.363-1.254-1.46-.45.171-.148-.05-.148-1.118-.05-.617-.212-.383-.113-.738-.195-.262-.766-1.113-.133-.387-.105-.316-1.293-.918-.133-.043-.59-.73-.281-.977-.52-.438-.172-.363-.507-.156-.415.035-.273-.195-.25.218-.156.094-.66-.308-.387-.204-.004.016-.129.457-.297.332-.168.094-.113.652.102.602-.141.16-.453-.168-.473-.016-.383-.25-.273-.64-.156-.89-.082-.259-.043-.168-.418-.316-.114-.211.172-.41.086-.469-.246-.305-.226-.261-1.442-.407-.14.489-.079-.106-.3-.32-1.036-.356-.085-.004-.016.055-.164.043-.34-.101-.262-.145-.172-.078-.257-.488-.348-.078-.184-.356-.87-.34-.274.086-.57-.27-.243-.03-.164-.012-.422-.774-.226-.265-.063-.426-.187-.184.02-.031.417-.566-.226-.309.011-.242-.054-.215.023-.082-.11-.39.165-.114-.117-.082-.098-.328-.055-.531-.125-.012-.222-.027-.446-.168-.078.148-.062-.031-.235-.07-.359.148-.117.14-.113.172-.051-.043-.102.075-.445.406-.715-.078-.582-.266-.11-.46-.163-.317-.399-.031-.105-.067-.043.043-.098.035-.187-.14-.188-.196-.242.094-.117.066-.328.422-.297.22.203.335.148.29.149 1.026-.012.004-.106-.02.02.079.262.578.02.203.034.48-.09 1.122-.304.043.082.343-.055-.027-.12.063-.673.41-.437-.149-.121.098-.106.098-.129.16-.082.137-.199.02-.145-.173-.039.086-.035.363.051.57.008.344.023.368-.02.12-.288.212-.094.203.047.418-.098.281-.125.012-.004.07.196.41.37.375-.066.207-.222.145.02.316-.126.156-.144.18.007.332-.07.54.024.085-.11-.012-1.52.122-.163.16-.438-.102-.004.027.04.352-.024.008-.457-.04-.067.184.329.645-.594.039-.29-.297-.187-.086-.02.031-.1.16-.169-.05-.594-.578-.261.152-.024-.031-.254-.371-.191.113.031-.117-.066-.211-.094-.02-.02.035-.066.09-.031-.031-.156-.094-.024.075.016.199-.055-.024-.34-.246.043.133-.035.094-.086-.16-.289-.645-.242-.008-.352.278-.281.07h-.254l-.215-.016-.207.258-.297.414-.093-.07-.036-.395-.335-.07-.266.098-.426-.38-.57-.21-.195.344-.27-.02-.188.148-1.12.262-.247-.035-.277-.289-.027-.195.023-.223-.27-.21-.527-.15-.203.067-.45-.125-.097-.098.012-.015.488-.387.223-.734.105-.633.024-.606-.403-1.144-1.136-2.203-.051-.594.129-.219 2.144-1.547.305-.59-.05-.75-.188-.554-.696-.914-1.011-.54-.45-.1-.175.066-.059.23-.101.805-.106.265-.668.586-.91.196-.559-.25-.644-.696-.387-.992-.086-.121-.39-1.086-.067-1.129.492-.48.715-.008 1.336.637.59.101.375-.25.223-.328.12-.64.84-.227.485-.094.629.215.55.383.516.312.63.137.78-.125.344-.164.29.035.952.34 1.098.66.844.203.273.004.785-.172.223-.195.195-.55.133-1.606.363-.325.297-.035.645.239.695.46.348.06.152-.118.379-.996.246-.094.934.281.87.442 1.415.187.594.25.308-.058.621-.305.246-.434.016-.707.297-.625-.125-1.008.27-1.066.39-.887.867-1.507.242-.383.582-.575.672-.964.985-1.77.605-.644.39-.473.45-.316.422-.516.547-.711.46-.246.587-.43 1.332-.504.375-.406 1.457-.648.968.402.313-.906.312-.356.372-.472.542-.106 1.754-.793.864-.82 1.652-1.785.027-1.137 1.973-1.273.398.035 1.313.71.516.747.25.507 1.48 1.126.457.097.293-.16 3.324-2.625.508-.234.664-.563-.004-.367-.148-.512-1.727-3.52-.312-.574-.106-.367.2-.133.425.024.528.156.254-.086.3-.336.465-1.781.227-.46.37-.063.5.066 1.47 1.082.285-.113-.078-.414-.512-1.047-.54-.809-1.57-1.25-1.347-.277-.469-.004-.234-.133-1.11-1.238-.363-1.207-.324-2.824.293-.137.23-.067.121-.195.082-.566.149-.239.23-.023 1.953.574.243-.062.027-.063-.227-.633.055-.015.785.097.696.2.359.144 1.21.266.247-.016.285-.168 1.363.59.575.207.488-.125.082-.222.008-.762-.301-1.27.215-.191.433-.117 1.559.058.406.207.442-.09.593-.496.07-.39-.253-1.465-.317-.93.102-.515.738-.086.453-.246.168-.11.278-.347.082-.243-.215-1.09 1.035-1.082.211.047.426.348.343.137.606.07.191.172.22.363.257.07.379-.101.285-.16.04-.649.124-.136.14-.262.372.012.664.464.066.489.067.144.476.41.457.25.332 1.055.403.227h.492l.574-.082.367.27-.094.226-.082.43.254.187.47.055.456.09.344.183.308.422.356.648.285.633.04 1.113.046.36.2.18.753.726.102.379.113.258.266.176.964.355.868.633.367.101.168.02.742.156.48.13 1.09.296.39.754.384.113.203-.133.14-.187.204-.176.906.508.316.176.367.496.188-.012.418-.617-.082-.36.176-.265.363-.02.258-.07.129-.129.73-.121.164-.55-.086-.712.688-.523.644.535.133.59.711.351.168-.257.168-.364.29-.18-.122-.269-1.066-.996-.317-.676-.113-.691.066-.453-.054-.172-.368-.297-.39-.32-.156-.407-.36-.32-.07-.488-.406-.723-.157-.219-.074-.492-.297-.308-.715-.043-.375-.461-.218-.438-.157-.719-.507-.691-.77-.582-.05-.219.16-.699-.274-.144-1.512-.934.02-.379.031-.195-.867-1.711-.067-.606-.664-1.824-.136-.184.047-.164.324-.23-.121-.285-.332-.313.027-.11.441-.41-.074-.44-.152-.598.082-.914.183-.883-.21-.684.289-.113.808-.328.094-.29.148-.269.57-.031.419-.02.414-.71-.133-.231-.442-.328.024-.207.57-.063.024-.53.515-.349-.02-.542.212-.262-.145-1.215.106-.102.683.016.051-.184-.16-.441.062.016.73.27.333-.177.398-.195-.082-1.027-.636-.914-.016-.41.16-.536-.414-1.34-.57-.789.023-.46.262-.82.285-.325v-.05l-.238-.981.16-.395-.14-.453-.11-.406.207-.918.098-2.18.004-.265-.114-.649.25-.422.11-.355-.371-1.332.105-.528.195-.574-.152-.457.152-.242.504-.27.485-.57.52.328.034-.097.332-.11.91.305.293.34.235.172 1.031.605.621.887.11.14.574.352.347.395.028-.126.293-.55.34-.313.289.184.605.11.293.089.688.195.433-.57-.46-1.39.097-.22.09-.5.105-.093.192-.715.59.031.234-.054.906.562.152-.203.598-.027.195-.047.078-.121.344-.203-.054-.258-.153-.524.02-.445-.438-.773-.34-.477.121-.348.141-.195-.094-.203-.136-.457-.102-.766.148-.515-.132-.493-.078-.632.023-.496.07-.25.078-.23-.078-.185-.234-.32.121-.75.02-.336.273-.34.18-.398-1.653-2.563-.547-.761.211-.836.121-.137.032-.297.219-.39.523-.403.297-1.152.219-.285.23-.953.227-.274.23.113.547.52.031-.086.04-.098-.04-.543.207-.398-.367-.695.426-.422.543-.074.222-.2.512-.226.254-.192.64-.308-.077-.281.023-1.27-.172-1.082.078-.41-.02-1.613-.402-.57-.488-.657-.012-.242.121-.094-.03-.184.5-1.093-.122-.594-.039-.09.035-.434.13-.359.015-.406.535-.07.121-.098.793-1.262.848-.992.777-.543.394.023.333-.085.582.25 1.085-.13.497-.156.101.176 1.754 1.426.461-.14.227-.208.246.106.37.265.462.477.156-.016.512.297.199-.125 1.32.031.328-.128 1.133.117.598.449.219.035.378.2.657.3.715-1.137.195-.144.066-.543.38-.527.234-.032.605.364.875.68.473.28.527.301 1.598 1.086.691.336.473.324 1.054 1.739.192.457.96.875.34.386.055-.078.356-.07.945-.363.566.511.157.418.066.563.824-.012 1.473-.058.125-.211.645-.094.312.035.184-.2.27-.01 1.136-.5.016-.06.257-.222.121-.344.645-.16.684-.496.222-.016.555.192.308.086.067.203.156.613.113.594.036.316.18.242.62.266.45.023.527.102.258.027.437-.066.328.082.817.687.265.317.692-.98.031-.165.496-.496.09-.398.14-.367.036-.575.16-.105.121-.203.336-.375.2-.266.269-.914-.13-.848-.331-1.308.183-.164.215-.028.32-.304.512-.133.367.02.309-.38.234-.253.352-.114 1.484-.09.496-.152.883.219.547.187 1.824.375.282.063.554-.094.406-.258.266.043.672-.101 1.21.422.231.039 2.184 1.136.691.555.348.05 1.203.72 1.281.66.5-.043.422.082.75-.05.27.21.254.313.105-.02.621-.29.555-.01 1.008.671-.235.723.497 1.265.25.633.308 1.024 1.824 3.32.282-.121.492-.438.453-.418.539-.55.121-.41.477-.575.066-.02.156-.523.239-.762.043-1.062.312-.414.887-1.531-.051-.43-1.273-1.563-.036-.558.239-.805.285-.21-.043-1.688-.324-1.492 1.18-.235.445.082.609.473.02-.07-1.063-3.243-.586-2.043 1.34-.406.422.13L165.609 0l.075.063.16.398.484.652.41.469.418.293.414.066-.343.957.957 1.977.308.14.32.567.524.941.473.407.086.441-.235.582.047.527.094.122 1.047.652.765 2.098-.05.484.136.387.063.414.113.195-.008.11-.172.703 1.23 1.996.227.632.668.957.133.782.785 1.566.563.914.277 1.074.258.43.625.363.394.676.375.36.606.082.96.949.532.422.348.504.02.539.574.425.41-.003.476.488.621.16.715.602.422.222.164.266.406-.266.36-.086v-.039l.363-.617.332-.02.149.149.101.426.39.82.958.848.855.515.305-.031 1.453.188.203-.075.176.407.691 1.91.543.718.801.63.168.449.059.28.539.61.937.524.387.566.184 1.605.078.204-.016.351.621 1.028 1 .617.688-.028.386.18.254.371.906.555.375.601.137.317.153.84.835 1.441-.132.461.273.918-.047.297-.238.285-.043.105.406 1.184.594.691.394 1.211 1 .43.43.04.399.308.757.824.973 1.227.488.496.215.16.735.847.078.02.254-.074.906.586 2.402 2.222.414.504.5.23.645-.07.07.188.45.66.273.457.176.52-.082.445-.301.598-.114.09-.296.8-.145.367-.285 1.246.176 1.313-.133.137-.223 1.695-.09.234.082.133.457.258.34.074.813.567.82.359 1.266 1.043.414.293.86.625.21.074.152.164 1.293.684.418.285.168-.031.434-.332.305.054.246-.277.144.063.508.457.754.586.531-.04 1.434.555.293-.234.172-.121.359.027.379.328.758.13.238.144.195.023.649.305-.043-.407.094-.226.152-.195-.234-.301-.333-.45.118-.085.918.02.097-.27.97-.575.226-.468.304-.047 1.012-.664.867-.063.192-.168 1.047-.18-.11-.601.117-.297-.73-1.246-.137-.008-.715-.437-.172-.2-1.23-1.359-.016-.148.11-.262-.063-.125-.14-.566-.114-.329-.363-.476-.445-1.176-1.403-2.488-.285-.258-.254-.504-.074-.098-.348-.296-.425-.641-.227-.09-.535-.68-.14-.183-.208-.086-.441-.625-.371-.797.293-.398.394-.598.016-.863-.504-1.141-.059-.328-.175-.477-.16-.328-.051-.554.136-.887.215-.309-1.219-1.71-.246-.395-.468-.973-.094-.262-.238-.55-.133-.368-.098-.109.438-.387.132-.11.266-.452 1.223.496.304.219.36-.059.347.254.422-.059.403.047.312-.39.27-.29.113-.43.078-.077.23-.114-.042-.71.086-.106-.075-.039-.12-.21-.18-.958-.11-.36.235-.202.394-.04.207.106.02-.031-.008-1.453.539-.313.297-.168.554-1.059.352-.078.293.063 1.129-.961-.094-.387-.18-.504-.527-.953-.117-.605-.313-.524-.261-.625.437-.34.461-.218.352-.196.285.184.05.375.262.367.266.27.156.578.586.683.23.16.075.579-.063.164.348.765.2.57.155.594.75.649.391.117.203.324.313.375.242.211.621 1.047.238.352.828.859-.035.293.082.297.285.5.606 1.262-.422.082-.863-.024-.2.051-.128.242.097.313.114.34-.086.242.023.687.813 1.32.214.34.73 1.844.61.79.278.374.035.473-.02.238.383.434.156.52.782.765.214.14.27.754-.125 1.352.172.621.176.902.554 1.102.594 1.617.914 1.684.649.59.167.21.512.133 1.106-.46.07.175.648-.5.746-.097.52-.168 1.242.289.324.175.704-.16.214.028.786.609.257.32.133.192.39.484.36 1.008.281.207.258.433.078.06.368-.044.37.496.235.223.285.219.59.238.05.016.493-1.102.484-1.078.172-.367.055.07.297.875.543.988.078.41.184.16 1.39 1.563.871-.559.574.04.25.07.692-.031 1.531.742.344.355.758.883.289.23h.12l.911.692.598.484.343.344.743 1.18.253.125.247-.14.57-.118.3-.07.633-.059.305.027 1.399.524.003-.114.086-.757.207-.258.391-.203.406-.117.047-.801.45-.79.453-.69-.262-.758-.547-.782.172-.742.691-.277.656-.184.196-.254.258-.097.332-.11.25.024-.047-.13.031-.269.383-.273.46.011.919-.062.539.102.285.328.238.355.293.797.446.8.136.177.192.027.66-.293.449.02 1.316 1.277.426.25.254.219.262.562.52 1.328.824 1.36.156.878-.098.579.832 1.855-.07.926.047.465 1.031 2.468.04.715.062 1.707.058.602-.012.426-.003.46-.012.794.137.574.015.511-.133.516.207.492.282.36.523-.012.637.316.531.223 1.313.531-.02.352.078.363.477.563.133.984-.086.32.066.438.336 1.578.004.367.367.785.363.535.551.473.234.715-.367.39-.418.235.184.793-.262.82.16 1.227.082.234-.101.676.086.66-.153.445.125.942-.132.144-.004.18-.567.762-.015.422.058.504.332.652-.015.656.207.688-.059.738.363.473-.023.855-.082.129-.094.86-.422.156-.09.195.204.316.183.473-.176.715-.336.097-.566.364-.336-.172-.027.125.07.543-.156.265-.305.235.098.765-.133.29.129.55-.07.356-.13.332.106.644-.195.227h-.235l-.097.558-.031.2-.094-.047-1.121-.469-.79.152-.421-.136-.336.03-.305.15-.398.05-2.856.856-.27.832-.077-.024-.407.344-.386.602.039 1.062-.157.316-.207.286-.363.078-.156.238-.406.012-.63.297-.566 1.043-.035.226-.07.223-.781.187-.317.461-.11.582-.175.512-.016.789.258.395.043.238-.164.422-.266.234-.414 1.274.25 1.71-.066.204-.117.097-.387.055-.215.125-.215.02-.464.19-.528 1.075-.066.629-.11.07-.312.907.031.605-.152.063-.32.015-.125.16-.211.89-.188.102.008.223-.172.13-.047.257-.223.262-.199.484-.101-.035-.305.281-.344.176-.097.125-.043.219-.09.097.086.957-.106.094-.289.297-.254.164-.238.074-.078.23-.25-.062-.496.41-.121.028-.157.254-.238.117-.14.3-.184.204-.121.675-.024.34-.156.617.016.399-.07.305.164.093.144.5-.07.172-.293.29v.245l.203.485-.188.738.086.363-.105.207-.535.032-.04.406-.1.238-.099.29.008.546-.164.176.317.57-.137.106-.25.242-.074.375-.203.133.062.273-.02.274.036.261.199.426-.067.246-.12.125.078.664-.192.13.016.038.703 1.524.031.246-.25 1.289.313.367-.145.969.176.285.098.773.128.582.102.098-.027.254.187.351-.11.477.16.234.231.5.254-.007.282.097.02.16-.192.512.37.305.915.316.242.598.215.137.133.316.25.328.23.375.297.106.133.28.086.509-.043.539.168.351.722 1.004-.054.04-.574.507-.551 1.078-.242.027.003.024.063.406-.18.125-.207.117.047.227-.008.117-.261.352-.028-.02-.168-.129-.004.102.047.308-.129.356-.054.574-.16.156-.176.77.164.285.058.21-.074.013-.094.007.114.09.093.059m-126.59-78.082.223-.672.25.117.117.125.297-.062.61-.493.343-.867.407-.875.144-.515.164-.547.594-.656-.086-.524.29-.293.433-.222.308.183.32.125.173.012.304-.414 1.375-.14.426-.044.633-.074.91.371.746.582.832-.215.781-.574 1.43.727.508-.247.597-.226.286-.074.39-.657.95.48.53.212.184.148.25-.035.801.242 1.027.032.98-.368.532.137.285-.285.61-.168.105-.09.043-.36-.433-2.14.14-.672-.328-1.633-.367-.48.07-.05.11-.192.492-1.082.02-.672.265-.25.02-.29.374-.175-.093-.137-.184-.453-.258-.863-.125-.223.04-.207.527-.242.03-.547-.206-1.074.094-.563-.172-.902.207-.937.008-.176-.141-.488.164-.793-.14-.399-.122-.36-.23-.41-.684-1.093-.644-2.426-.18-.258-.516-.758-.035-.074.285-1.738.707-.125-.457-1.23-.535-1.07-.324-.88.137-.515-.004-.45.215-.421-.41-1.02.007-1.152.024-.387-.738-2.219-.512-.574-1.45-1.156-.804-1.371-.734-.57-.56-.602-1.42-.985-1.587-.68-.586-.452-.226-.594-.418.035-.387.215-.137.05-.324.692-.098.543.47.969-.083.558-.273.23-.446.044-.597-.336-.164.039-.211.21-.207.587-.149.375.207 1.476.293.739-.629.308-.234-.144-.3.367-.009.742-.507.457-.465.438-.266.34-.219-.032-.222.035-.059.106-.05.308-.196.301-.508.34-.719.504-1.109.082-.258.379-.172 1.469-.203 1.433-.586.246-.601-.316-.387.058-.39.13-.65.175-.901.594-.13-.027-.34.078-.308-.016-.465 1.117-.078.297-.015.195-.047.641-.258.305-1.734-.79-.16-.167-.462-.032-.257-.37-.032.05-.058.414h-.008l-.36-.054-.66-.165-1.023-.207-.418.137-.57-.195-.676-.008-.18-.121-.21.105-.192.176-.398.067-.204-.11-2.484-.336-.117.117-.266.36-.117-.11-.64-1.246-.176-.668-.051-.246.176-.328-.121-.48.218-.52-.191-.246-.215-.18.074-.148-.113-.293.004-.148-.215-.461-.164-.953-.02-.836-2.136-.485-.434-.258-.57-.086-.469-.253-1.617-.22-.531-.335-.922-1.137-.035-.273.402-1.774.2-.718.19-.676.778-1.684.2-.129.237-.386.266-.258.152-.692-.3-.199-.95-.394-.363-.118-.488-.113-.254.023-.73.208-.891.382-.824-.355-.868-.695v.074l-.168 1.238-.039.375-.062.445-.309.043-.972.145-.23.23-.4.188-.675.074-.871.777-.7-.078-.523.18-.62-.023-.153-.075-.016.055-.039.434-.059.98-.035.45-.183.765-.996 1.906-.43.192-.07.347-.274.094-.523.289-.352-.027-.957.539-.574-.063-1.524.13-.25-.212-.19-.187-.106-.035.02.062.14.594.312.61.082.452.367.489.875.675.297.399.192.406.261.348.254.242 3.051.738.438.957-.051.547.207 1.149.058 1.058-.144.027-.156.083-.301.117-.148-.012-.004.07.023.309-.254.668.043.344-.117.187-.18.45-.074.19-.047.31.09.347.074.031.031-.054.32-.473.188.082.16.164.024.164.094.277.09.27.12.305-.44.574.054.945.27.52.163.5-.09 1.285-.101.363-.094.719-.054 1.597-.07.196-.34.414.222 1.043-.074.25-.176.219.121.23.387.344.21.328.106.18.004.175.153.125.074.207-.121.313.054.144.168.254-.16.223.262 1.203.008.16-.184.102.059.066.328.18.187.289.578-.133.391.274.14.242.313.094.078.109.055-.016.145.168-.043.188.082.21.21.165.098.246-.101.351.515.528.32.164.145.172.063.289.347.285.168-.145.16-.117.344.024.195.18-.214.495-.2.465.157.348-.051 1.45-.078.312.148.37.582-.195-.039-.195.047-.008.14-.097.098-.149.293.031.09.004.016-.05.043-.145h.047l.183-.183.055.07.215.058.132.02.31-.027.296.035.144.039.008-.016.118-.12.148-.22-.004.168.09.266.187.344.352-.047.172-.094.035.09.066.25.168.148-.125.746.196.38.16.109.152.027.797.625.23.027.422.387.778.242.273.012.238.117.266-.023 1.148.332.211.176h.133l.16.12.22-.027 1.241 1.133.254.254.5.29.778.335.28-.203.313.41.059-.14.059-.126.043.024.074.285.015.223.5.675.043-.046v-.059l.13-.059.257.278.613.722.032-.023.148-.055.191.012.067-.332.113-.105.5.335.434-.582.484.176.082-.008.461.13.16-.098.16-.313.414-.012.383.149.535-.11.336-.124.262.09.34-.118.16-.152.016.015.175.133.036-.183.004-.5.167.03.247.071.242-.05.457.222.199.117.219-.101-.02-.262-.02-.191.044.02.257.526.024.06.055-.013.289-.203.172.215.03-.121.09-.078.012.004.207.144-.086-.187-.062-.38.082-.038.031.031.38.625.03-.07-.023-.426-.008-.207.055.027.281.399.063-.121.109-.164.027.027.09.156.02-.012.101-.18.063-.187.195-.101-.023-.035-.008-.075.152.13.137.073.414-.156.578.38.215-.04.016-.207.027-.313.062.446.141.094.016-.082.007-.098.106.11.144.277-.027-.258.055-.215H137l.488-.004.153.04.101.16.067-.055.187-.254.402.238.075.168.078-.02v-.054l.117-.082.102-.114.093-.18.196-.007" style="fill-rule:nonzero;fill:#908e96;fill-opacity:1;stroke-width:.25;stroke-linecap:butt;stroke-linejoin:miter;stroke:#fff;stroke-opacity:1;stroke-miterlimit:10"/></g></svg>