<svg viewBox="0 0 198.353 217.44" xmlns="http://www.w3.org/2000/svg"><defs><clipPath id="a"><path d="M15 .441h183v217H15Zm0 0"/></clipPath><clipPath id="b"><path d="M12 .441h186v217H12Zm0 0"/></clipPath></defs><path d="m15.5 79.785.723.332.18 1.035.1.34.138 1.203.132.266.125.55.168.282.024.266.312.382-.043.012.016.184.605 1.703-.035.629-.191.238-.035.598.187.53v.333l.121.324.34.43.153.683v.364l.34.191.554.25 1.598 1.113.234.622.2.613.62 1.039.043.594.22.546.23.16.68-.066.417.04.196.019.203.047.644.105.246-.004.223.02.621.21.68-.374.293-.031.386-.141.36-.067.875-.484 1.242-1.215.21.114.177.14.238.078.008-.11.094.032.273.098.195.254.227.039.613.219.828.562.059-.016.726.13-.16.382-.035.113.031.016.305.117.215-.004.125.063.207.133.258.093.367-.074.2-.09.1.059.598.746.391.582.234.606.606.351.793.375.144.434.176.21.344.626-.172.449-.09.21-.082.41-.242.388-.148.07-.172-.031-.282.074-.254.18-.43.187.708 1.406.023-.058.035-.356.079.012.085.094.16.25.786.664.183.21.051.204.113.308.7.415-.106.082-.148.207-.024.62.168 1.184-.133-.031-.14.035-.16.504.554 1.192.176.199-.097.547.011.207-.215.66.09-.047.489-.078 1.812 1.445.383-.008.383.16.125-.09-.008-.035.012-.132.183-.13.305-.034.082-.172.12-.438.435-.242.332-.004.078-.371-.028-.215.13.04.25.155.288-.207.946.106.238-.074.27-.008.355.062.469.563.273.21.57.626.36.316.035-.031.168-.203.133-.102.238.094.215.078.207.11.281.027.164-.082.348-.14.426-.055.507.066.114.043.218.195.567.344.258.473.09.109.421.582.075.125.847.047.297.004.16.16.254.414.469.79 1.012.163.156.172.32.05.387.106.227-.066.707.242.351.012.32.082.489.156.613-.39.133.03.058-.054.047.074.309.176.125.008.258.226.218.125.676.356.344.004.293.05.297-.019.172.066.144.075.528.629.101.308.348.356.023-.024.34-.617.18-.422.277-.183.426-.067.41-.238.219-.031.187.05.54.223 1.64.664.93.938.226.043.57.421v.621l.227.434.313.145.3.14.02.367-.07.34.39 1.14.508.411.137.715.203.031.36.121.566.692.511.16.348.012v.007l.176.426.222.008.27.035 1.328.98.32.004.106-.007.406.086.258.511.195.239.297-.098.215.008.219.3.199.297.3.293.43 1.012-.109.281-.2.32.141.215.196.227-.051.242-.234.278-.36.218-.219.04-.003.011.015.574-.23.102-.016.16-.023.332-.133.254-.082-.043-.11.008-.007.031.043.508-.016.367-.125.215-.25.312.578.832-.098.239-.316.558.117.274.18.418-.168.164-.086.219.246.18.223.3.027.098.113.695.278.309-.04.097-.062-.004-.055.102-.175.605.066.297-.094.239-.093.363-.606.183-.164.258-.527.524-.211.218-.211.164.039.403-.047.672.113.382-.086.372-.21.34-.387 1.308-.457-.117-.11-.028-.007.075.07.375-.106-.106-.25-.215-.296-.484-.13-.363-.406-.211-.257-.02-.305-.136-.317-.313-.003-.465v-.398l-.504-.406-.254-.125-.344-.387-.215-.54-.168-.433-.289-.12-.476-.227-.293-.016-.395.078-.441.344-.004-.008-.496-.332-.266-.094-.344.043-.957-.715-.054-.05-.04.078-.132-.04-.188.079-.008.164-.066.219-.203.449-.04.172-.488.257-.226.168-.328.016-.492-.484-.68-.172.016-.031.078-.672-.043-.473-.137-.145-.387-.183-1.082.113-.32-.11-.242.384-.102.289-.547.093-.183-.226-.489-.395-.261.145-.32.09-.286.328-.355-.024-.348-.53-.18-.376-.375-.36-.261-.113-.266-.37-.297-.419-.246-.203-.238-.215-.438-.207-.222-.246-.762-1.02-.461-.679-.262.332-.093.082-1.387-1.394-.168-.055-.137-.258-.203-.555-.574-.554-.04-.094-.195-.258-.117-.191-.648-.426-.114-.09-.19-.012-.005.055-.12.316-.052-.015-.097.035.007.04-.117.065-.183-.011-.43.387-.79.105-.202-.059-.207-.097h-.383l-.535-.239-.258-.117-.234-.215-.309-.28-.184.089-.566.477-.852.085-.238.204-.363.004-.113-.067-.016.086-.164.266-.074.035-.024-.067-.285-.351-.07-.176-.098-.273-.375-.36-.36-.152-.445-.102-.316-.511-.285-.27-.566-.883-.274-.183-.187-.055-.188-.047-.316-.285-.22-.035-.237-.098-.258-.117-.238-.547-.645-.598-.137-.164-.05-.218-.497-.391-.464-.457-.2-.188-.3-.507-.145.011-3.05-2.53-.06.089-.3.469-.09.164-.187.172-.11.226-.289.352-.02-.016-.363-.449-.34-.387-.222-.261-.309-.258-.207-.102-.012.05-.925 1.571-.227.594-.621.066-.492-.789-.219.121-.195.024-.102.086-.203.27-.723.136-.765-.437-.414-.192-.028-.406-.16-.715-.12-1.082-.184-.117-.266-.004-.633-.836-.363-.484-.664-.45-.39-.527-.505-.324-.25-.309-.336-.957-.375-.324-.465-.36-.503-.066-.497-.226-.253-.285-.391-.215-.402.27-.461.038-1.09-.406-.262-.035-.676-.813-.394-.02-.301.052-.188-.125-.828-1.332-.386-.559-.282-.215-.605-.332-.887-.539-1.097.113-.54-.11-.261-.062-.07-.003.03-.086.008-.407-.382-.879-.84-.859.043-.324-.024-.254-.32-.344-.172-.387-.238-.152-.246-.285-.153-.473-.386-.066-.172-.305-.168.059-.203.027-.512-.05-.34.054-.582-.281.028-.043.101-.438-.152-.394-.653-1.274-.203-.296-.199-.7-.246-.5-.402-.36-1.09-1.066-.617-.12-.676-.602-.043-.278-.5-.636-.258-.606-.137-.125-.23-.457-.11-.336.102-.187.527-.27.27.047.316.067.637.312.563-.023.328-.38-.153-.234-.367-.207-.289-.183-.914-.844-.582-.629-.59-1.055-.437-.336-.711-.722.129.058 1.043.04.191-.032.164-.094 1.211-1.308-.313-.426.004-.25-.343-1.332-.278-2.242.02.008.133.011.004-.039.117-.257.207-.04.195-.015.332.078 1.23.758.254.238.418.156.165.075.43.222.48.309.164-.031.25.18.234.12.293.239.7.546.011-.105.285-.969-.086-.828-.031-1.262-.106-.152-.218-.016-.551-.457-.074.067-.418-.098-.489-.39-.527-.329-.586-.867-.48-.582-.258-.617.066-.938-.078-.394.762-.54.258-.788.199-.7.164-.042.406-.055.367.254.25.226.313-.039.137.082.11.024.245.207.48.07.282-.078.203.004.543.18.457-.125.172-.395 1.074-.05.375-.352.828.476.82.63.762-.38.531-.015.56-.352.128-.515 1.02-.415.105.055" style="fill-rule:nonzero;fill:#1a1523;fill-opacity:1;stroke-width:.25;stroke-linecap:butt;stroke-linejoin:miter;stroke:#fff;stroke-opacity:1;stroke-miterlimit:10"/><g clip-path="url(#a)"><path d="m156.89 182.648.356.66.328.657.414.879.645 1.613-.106.242-.422.313-.527.234-.738.48-.262.262-.883.723-.093.129-.262.156-.442.367-.445-.117-.648-.465-.578-.66-.247-.5-.511-.379-.692-.36-.414.005-.46.32-.4.266-.358.183-.32.422v.84l-.298.328-.71.668-1.43 1.145-.762.3-.684.38-.46.714-.223.406-.25-.125-.403-.242-1.39.82-.203.192-.473.137-.531.132-.922.747-.234.378-.446.438-.379.363-.558.621-.317.371-.73 1.442-.39.476-.489.59-.422.887-.398.5-.332 1.05-.137 1.47-.098.3.047.39-.297.321-.594.18-1.277-.3-.808-.29-.364-.164-.61-.145-.3.336-.25.598-.23-.043-1.043-.543-.297.07-.242.29-.098.296-.02.993-.285.457-.824.132-1.133-.382-.808-.504-.762.02-.273.124-.641-.035-.477-.195-.879-.54-.39-.023-.871.29-.297.765-.399.117-.652-.21-.828-.4-.613.188-.164.238-.051.235.187.95.352.667.18.227.148.664.605.504.426.058.457-.113.305-.184.363-.504.196-.84.293.016.476.254.508.281.465.645.156.492.031.52-.172.37-.605.598-1.266.961.2.59.761 1.488.309 1.192-.38 1.422-.28.125-.184.175-1.84 1.055-.746.117-.91-.972-.328-1.285-.035-.5-.52-.29-.008-.695-.093-.512-.407-.793-.226-.085-.227-.208-.328-.25-.227-.39.536-.563.03-.152.313.031.551-.414.274.078-.29-.41-1-.722-.656-.043-.312-.192-.086-.586.05-.57.255-.2-.063-.34-.559-.839-1.445-1.246-.578-.223-.148-.074-.766-1.059-.309-.43-.398-.054-.012.04-.222.573.14.645-.023.004-.114.226-.062.164h-.11l-.035-.586-.257-.488-.442-.738-.008-.074-.246-.54.262-.39.352-.406-.95-1.567-.285-.117-.136.008-.348-.3-.774-.18-.152.171-.418.149-.336-.09-.043-.656-.336-.176-.469.023-.351-.23-.398-.399-.458-.48.047-.117.188-.168.043-.106.074.012.266-.078.062-.29-.219-.358-.246-.458.114-.125.558.012v-.02l-.168-.37-.219-.336-.156-.176-.062-.246.09-.18h.015l.38-.238.07-.192-.368-.765-.027-.281-.043-.102-.145-.031.024-.067-.07-.086.097-.007.184-.102-.031-.031-.02-.133.094-.285-.02-.192-.226-.359-.067-.582h-.015l-.317-.008-.699-.3-.297-.083-1.793-.074-.723-.016-.074.09-.168.258-.125.27-.36-.25-.19-.403-.067-.054-.41.035-.555.027-.39-.14-.266-.2h-.637l-.355-.191-.242.004-.114-.13-.066.063-.305.368-.094.277-.046.156-.125.305-.368.152-.183.242-.145-.093-.312-.246-.024.027-.129-.035-.335-.024-.114.075.008-.106.012-.539.027-.332-.035-1.02.05-.113-.085-.207.07.012.113-.156-.382-.457-.102-.172-.387-.348-.945-1.066-.176-.723-.344-.484-.855-.871h-.262l.086-.168.438-.07 1.441.503.137-.043.027.035.207.055.461.004.195.07.098.008.309-.012.851.606.309.004.242.05.211-.562.504-.082.27-.27.046.012.012-.031.11-.203.472-.172.543-.106.129-.07.016.012.64.008 1.18-.313.3.035.176.086.297.184 1.145.258.328.293.586.386.465.133.574.121.14-.242.872.098.394.273.602.121.12-.004.016-.027.083-.234-.489-.477-.48-1.402-.192-.27.055-.398.117-.094 1.11.082.316.031.461.012.2-.078.593.164v-.008l.004-.297.055.028.359.25.234-.172.016.09.21.187.52.211.293.004.254.043.016-.047.172-.125.008.004.226.168.137-.153-.098-.464h.016l.363.168-.07.132-.04.13.235.097.504.086.262.195.261-.031.34.25.114-.125-.016-.023.004-.38.129-.218.043-.152.152-.16.168-.188.125-.106.719-.62.129-.051.152-.188.113-.152.086.07.258-.016.191-.035.2.043.043-.105-.02-.078.102.043.574.03.203-.241.426.254.234-.098.215-.11.523.13.313-.16.23-.173-.027-.097-.039-.012-.207-.71-.02-1.747.024-.371-.188-.742-.12-.407.574-1.566.074-.203.101-1.418.075-.324.03-.168.11-.055.266.082.004-.07.015-.176.063-.004-.059-.113-.097-.156-.188-.743.023-.004-.015-.125-.223-.445-.12-.207-.263-.219-.23-.332.055-.214.015-.25-.047-.305v-.246l.086-.153.094-.484.04-.14-.099-.028-.796-.605-.22.07-.073.367.195.16.453.239.125.351-.191.082-.418-.101-1.168-.391-.293.012-.235-.297-.418-.899-.265-.093-.39-.036-.337.098-.406-.027-.637-.485-.203-.27-.098-.003-.164.262-.379-.13-.289-.113-.406.07-.437.286-.48-.227-.247-.328-.34-.39-.347-.024-.73 1.086-.18-.086-.622-.27-.324.005-.308-.325.148-.445-.57-.332-1.707-.57-.352.34-.223.058-.18-.074-.261-.574-.203-.004-.59.43-.508.152-.105.273.039.14.183.349-.07.289-.36.046-.386-.18-.086-.257-.012-.29-.293-.233-.277-.004-.144.175.171.317.383.57-.043.473-.02.004-.55-.043-1.676-.942-.222-.054v.004l-.274.39-.71.098-.345-.23-.789-.837-.316-.093-.367-.13-.344-.304-.832-1.148-.54-.582-.64-.45-1.097-.422-.223.07v.009l.234.394.075.25-.102.02-.313-.192-.304-.254-.61-.007-.023.289.23.117.239.148.054.215-.16.082-.511-.238-.61-.59-.168-.215-.625-.289-.476-.402-.364-.524-.175-.101-.133.113-.508.324-.352-.097-.464-.125-.18.16-.403-.328-.562-.47-.117.145.039.325-.145.386-.222-.043-.176-.203-.129-.27.145-.269-.07-.129-.49-.324-.272.043-.204.234-.16.305-.695 2.293-.442.094-.12.234-.032.102-.07-.035-.43-.383-.535.238-.207-.476-.125-.336-.14-.457-.008-.407-.325-.011-.254-.012-.546-.36.02-.152.214-.754-.23-.05-.313-.02-.492-.465-.11.156-.105.352-.164.14-.836.141-.926-.898-1.27.093-.304-.16.117-.5-.234-.363-.485-.387-.097.07-.055.399.023.422-.168.098-.375-.067-.832.762-.261-.113-.594.132-.246-.433-.223-.688-.312-.148-.203.105.129.293.082.309-.024.226-.094.317-.101.383-.196.062-.132-.199-.028-.441-.425-.407-.72-.687-.5-.145-.175.13-.098.362.336.282.215.05.14.07-.058.259-.191.27-.547.155-.29-.078-.44-.18-.13.153-.277.601-.601-.242-1.2-.668-.57-.437-.394.133-.278.156-.222.375-.868-.754.301-.535-.176-.192-.16-.312.137-.195.23-.157.301-.18.297-.148.395-.683.128-1.063.59-1.125.04-.191.117-.485.136-.109.41.11.457.304.997.387 1.085.883.598.203.371.168.336-.27.403.121v-.008l.199-.375.254-.078.379-.215.226-.02.234-.62.415.101.12.192.383.039.801-.238.469.129.195.05.055-.261-.074-.309h.226l.313.05-.149-.413-.132-.344-.012-.274.043-.007.41-.086.348-.188.453-.668.035-.23-.059-.301-.09-.348.012-.46-.36-.712-.452-.183-.508-.711-.36-.07-.214-.438-.332.024-.223-.09-.414-.477-.293-.367-.457.164-.906-.266-.121-.207.07-.476-.25-.125-.172-.067-.078-.277-.106-1.668-.351-.574.016-.012.308.008.207-.055.063-.238.035-.41.133-.406.55-.438-.066-.394.168.078.484.023.055-.148-.023-.352.293-.898.253-.477-.05-.347-.11-.454.098-.582.055-.277.328-.277.246-.336.453-.45.14-.125.372-.058.144-.043.153-.656-.012-.575.215-.492-.32-.422-.153-.777-.242-.187-.137-.211.203-.528-.219-.625.22-.293.156-.226-.012-.23-.59-.794.11-.14.292-.235v-.699l.016-.3.277-.044.114-.793.222-.113-.012-.027-.007-.442h.183l.172.032.488-.7-.129-.238-.222-.273.086-.2.195-.242-.012-.289-.675-1.168-.188-.219-.223-.367-.195-.05-.418.09-.375-.72-.207-.081-.75-.082-1.344-.957-.441-.102-.238-.375h-.465l-.606-.406-.336-.48-.476-.134-.102-.402-.07-.492-.55-.387-.188-1.496-.121-.219-.668-.418-.11-.543-.07-.504-.023.028-.184-.055-.488-.226-.29-.137-.593-.746-.297-.2-1.93-.742-.187-.05-.219.03-.34.18-.265.122-.457.132-.208.329-.183.468-.203.32-.008-.011-.465-.742-.262-.395-.613-.32-.09-.012-.293.063-.496-.051-.426-.113-.25-.243-.402-.226-.2-.133-.273-.145-.14-.05-.54.187-.3.23-.258-.038-.176-.176-.226-.074-.196.054-.21-.074-1.559-.348-.168-.043-.21-.171-.27.046-.813-.363-.18-.332-.492-.82-.52.012-.69-.086-.278-.559-.496-.594-.024-.14-.765-.512-.157-.04-.804-.046-.88.227-.222-.118-.246-.109-.191-.055-.133.102-.066.164-.028.004-.195.027-.606-.597-.683-.555-.078-.063-.282-.515h-.336l-.988.082-.238-.043-.387-.035-.14.187-.336-.207v.016l.02.402-.2.219-.363-.067-.356.383-.11.485-.534.23.007.2-.023-.005-.2-.027-.515-.16-.238-.031-1.902-1.403-.368.145-.011-.07.058-.258.168-.332-.039-.914-.246-.309-.328-1.18.27-.281.167-.016v-.007l.004-.282-.172-.703.016-.351.164-.637.055-.117-.172-.176-.262-.043-.367-.367-.074-.317-1.293-1.195-.035.102-.028.308h-.027l-.137-.07-.355-.879-.168-.5.168-.023.207-.098.148-.125.18-.102.297-.07.394-.11.211-.546.223-.957-.117-.285-.422-.649-.164-.254-1.2-.562-.32-.625-.152-.227-.8-1.05-.15-.215-.015.011-.152.094-.414.07-.258-.093-.895-.368.047-.082.106-.46-.73-.024-.165-.02-.554-.457-.442-.222-.539-.156-.363-.325-.559-.054-.191-.184-.317.066-.05.137-.274.383-.996.86-.559.304-.207.086-.257-.043-.918.234-.54.274-.39-.207-.258-.02-.473-.031-.78-.137-.458-.043-.488.012-.25.117-.352-.765-.168-1.063-.648-.902-.172-.692-.336-.445-1.047-.719-1.136-.515-.118-.203-.043-.579-.164-.507-.37-.598-.087-.648-.136-.598.125-.281.148-.313-.227-1.414-.5-1.309-.14-.046-.594-2.48-.039-.325-.203-.535-.016-.676.692.148.008-.246-.102-.476-.262-.856.238-.847.11-.227-.059-.441-.004-.184-.082-.484-.101-.145-.2-.156-.359-.313-.152-.484.16-.352.098-.023.004.004.453.281.707-.086.113-.031.004.004.164-.102v-.004l.32-.789-.511-.953.171-.347.282-.223-.008-.406-.027-.313-.348-.875-.035-.265-1.008-1.715-.203-.575-.168-.203-.172-.64-.07-.367.12-.497.462-.062 1.023.14.473.16.203.016.36.086 1.245.176 1.778 1.113.472.114.645-.532.265-.515.157-.117.066-.043.38.05.597.344.437.535 1.793.926.262.004.676.105.851.227.453-.379 1.032-.601.91-.153.418-.328.617-.117.277-.102.813.082 1.554.278.34.144.465-.097.293-.594.488-.899.067-.808.273-.215.317-.746 1.257.23.81-.035 2.3-.96.418.03.367-.269.328-.324.11-.34.058-.293.602-.14.34-.048.863-.308.031-.496.031-.274-.136-.699-.047-.344-.16-.465-.383-.695-.192-.336-.582-.797-.101-.68.02-.761-.184-.223-.239-.316-.109-.82.582-.207.453.125.434.32.168-.64-.094-.333.105-.355.079-.121-.032-.356-.777-1.597-.3-.356-.095-.207.032-.016.16-.425.21-.512.74-.996.425-1.274-.04-.379.423-.21.402-.7.105-.34.235-.453.164-.609.285-.887-.121-.43-.086-.242.16-.324.399.098.289.086.183-.332.117-.703.118-.211.27-.184.062-.55-.117-.305-.063-.223.246-.594-.066-.375-.117-.367.07-.277.09-.157.164-.382.52-.118.741.621.247-.117.03-.343.114-.875-.078-.352-.207-.813-.059-.554-.535-.719-.074-.281.203-.309-.074-.191-.262-.446-.2-.753-.327-.594.035-.192.144-.625-.042-.722-.235-1.336.371-.176.246-.05.25-.055-.312-.75-.164-.434-.219-.926-.398-.422-.395-.359-.828-.574-.14-.371-.012-.215.058-.008.403.043-.008-.023.351-.704.2-.293.585-.011.977.363.184-.066.093-.317-.086-.336-.273-.52-.031-.581.293-.282.238-.21.152-.075.41.137.598.023.2-.05.429.043-.133-.114-.113-.32-.05-.406-.485-.582-.13-.192-.136-.683-.348-.832-.503-.332-.676-.39-.203-1.208.066-.27-.441-.417-.485-.278.102-.12.18-.79-.625-.555-.387-1.148-.184-.211-.078-.375.059-.012.367-.015.555-.336.453-.016.965-1.125.664-2.207.293-.234.23-.672 1.063.273.464-.324 1.235.105.285.016.293.008 1.39.375.16-.125.087-.426-.004-.18.066.032.215-.032.176-.093.133.05.34.332.69-.351.204-.211.285-.18-.062-.355.07-.008.223-.21-.086-.192-.235-.297-.8-1.38-.153-.323.004-.364.063-.277-.016-.133.445-.097.16-.22.164-.292.059-.3-.035-.24-.195-.402.144-.484-.059-.277h.032l.883-.059.804.45.016-.028.23-.215.059.063.496.191.43.031.258.059.343-.387v-.39l-.066-.555.527-.242.52-.082.148-.094.25-.188.61-.39.347-.238.512.085.41-.02.098-.487.242-.211 1.324.289.172.078.719.46.71-.007.653.262.477-.168.218-.586.18-.438.16-.238.176-.289.473.105 1.074.403 2.18 1.465.27.523-.048.332-.234.25-.36.121-.18.082.055.32.309.188.578.238.348.094.445-.02.52.22.683.476.399.008.257.187.157.23.023-.148.063-.738.504-.473.57-.328.812.598.149.222.222.223.243.164.703.192.547.336.488-.204.312-.367.192-.5.379.051 1.129.61.246.277 1.676.797-.11.097-.058.172.203.242.36.438-.048.312-.222.496-.192.278.09.16.172.281-.082.531.2.23.01.368.481.414.332-.07 2.18.89.762-.5 1.215.047 1.132.305.02-.09.168-.305.906-.234.684.48.203.297.023.184-.125.762.106.472.086.317.09.215.23.515.059.203-.329.223-.218.453-.192.242-.386-.129-.332-.07-.188.149-.078.289-.305.394-.183.035-.145.739.305.457-.102.687.883 1.559.094.883.488.773.48.629.235.77.05.374.243.551.133.363.226.243 1.145.425.66.122.496.105-.012.047.118.543.464 1.969-.168.28-.05.063.066.352.117.289-.265 1.117-.106.38.168.343.016.426 1.058 2.738.164.273.555-.058.906-.7 1.508.247 1.246.757.207.008.41.399.368.449.75 2.855-.235.621.29 1.575-.005.312-.047.375.512 1.012.13.316-.071.395.066.246-.004.148-.195.024-.098.027.008.031.024.633-.09.313.14 2.031h-.047l-.035.02.016.035.11.386.183.914.101.54.008.468.032.29-.067.359.192.48.71 1.254.141.59.309.309.351.019.281.004.497.137.312.062.567.012.374-.016.235-.613.379-.191.207.07 1.34 1.316.504.278.41.367.199.355 1.14.57.481.094.516.223.32-.04.27.044.593.46.254.29.363-.09.188-.094.23-.136v-.188l.012-.226.465-.454.2.102.48.508.875.77.25.156.297-.063.347-.156.293.023.457-.336 2.145.778.695.406.344.121.136 1.188-.128.152-.282.258-.093.246.246.496.187.285.336.105.207.04.367-.114.457-.226.262.14.2.207.699.637.355.11.262.269-.168.527.02.352.546 1.277.66.524.559.3.14.153.051.531.137.285.184.371-.192.426-.156.387-.035.64 1.476.54.618.726.128.242.282.457.222.114.246-.094.442.172.308.168.973.5.242.398.371.258.371.437.208.028.164-.215.187-.625.25-.242.797-.352.094-.129 1.015.633.082.094.407-.219.277-.144.46.128.165-.027.52-.48.3-.235.184-.043.113-.12.024.093.16.504.68.433.363.192.773.738 1.266-.05.406-.11 1.211.3.3-.16.56-.066.859.059.367.355.441.196.477.27 1.394 1.76.204.876.257.414.989.379.37.426.278.195.227.43-.016.3.195.383.7.438.39.101.953.094.313.324.465.363.672.059v.16l-.11.637.059.906-.032.375.38.426.171.215-.086.594.04.746.597.168.398.035.645.215.441.273.391.371.207.41.309.282.562.152.39.21.376.067.281-.125.23-.066.106.047.934.5.293.07.187.023.258.11.312.148.918.074.52.223 5.43 3.106.304.171 1.735 1-.004-.039.023-.312.305-.512.054-.18.157-.234.203-.039.23.074.457-.008.192-.117.515-.093.258-.692.34-.02.3-.054v-.207l.044-.164.058.055.414.414.25.113.372-.149.332-.39.011-.172.106-.102.316.086.856.075.937-.13.203.153.399.902.386.602.309-.219.3-.234.509-.254.363.008.664-.387.3-.106.395-.437.16-.727-.445-.234-.258-.258-.039-.305.258-.855.078-.144.13-.329.245-.687.496-1.324.485-.48.164-.825.09-.129.171-.184.16-.39.188-.258.586-.281-.172-.914-.058-.153.046-.02.446-.046.379-.09-.028-.226.024-.532-.09-.265-.027-.215.296-.184.27.184.473.12.289.056.445.296.48.399.84.207.157-.074-.004-.024.168-.578.515-.433.371-.172.477-.153.277-.3.012.011.578.407 1.266.89.617 1.051.363.102.594.617.062.316.176.184.297.234 1.274 1.156.546-.09.262.036.274-.043.437-.114.367.192.23.113.36.133v.2l.059.917.312.094.367.082.57.508-.054 1.59-.078.117-.024.328.016.351-.426.313-.168.23-.27.223-.152.188.34.566.57.43.243.562.039.414.531.586.695.668-.054.043-.067.234-.101.391-.121.219.222.336.305.574.207.531.11.418.078.84v.457l-1.637.113.226 1.403-.054.18.007.421-.187.434-.066.215.351 1.34-.305.972-.375.371-1.332-.082-.09-.136-.456.003-.082.149-.32.129-.079.515-.144.106.097.601.106.348-.29.867-.152.512-.238.285.23.602.485.531.351.223.664.27.348 1.612.84 1.766-.008.512.477.765.52.465.288.324.184.497-.211.449.039.347.043.309.16.555.149.441-.11.195-.258.207-.015.563.101.816-.105 1.22-.383.116-1.016.063-.382-.145-.57.055-.919.75-.238.43-.71 1.054-.45.223-.004.316-.105.227.066.348.059.406-.07.308-.317.543-.07.211.007.192.782 1.449-.07.504.058 2.492-.004.23-.637.29-.101.09-.97.332-.21.238-.043.183.195.621-.105.329.008.336-.536-.473-.128-.016-.215.551-.117.512-.176.27-.149.613-.18.28-.406.352-.28 1.164 1.085 1.461.106.149.14.488.352.469-.149.277-.293.88-.011.265.23.433-.117.278.02.609.066.867-.059.543.11.356.136.316-.02.172-.124.133.012.304.578 1.051.03.305.071.316-.05.23-.516.141-.18.047-.246.098-.11.11-.023-.02-.355-.344-.989.113-.19.653-.134.488.227.5.047.617-.387.27-1.36-.442-.433.668-.02.098-.027-.027-.36-.368-.331-.187-.16-.285-.336-.426-.332-.242-.258-.149-1.067-.699-.882-.11-.223-.09-.02.06-.386.488-.399.297.031.191.106.313-.238.484.011.383.239.797-.02.28-.242.622.07.555-.05.347.054.703-.11 1.102-.109.223.223 1.847-.312.34-.122.613.055.371.274.286.187.23.145.399.09.476.035.316-.133.247.062.355.399.55.113.247-.031.691-.531.22-.32-.056-.34-.132.027.132.144.262-.097.055-.594.156.008.309.132.578-.18.27-.007.437-.422.379-.023.265-.215-.011-.188.011.028.157.433.48-.12.14-.106.204-.14.176-.727.007-.114.211-.074.223-.824.535.12.703-.183.508-.008.527.055.989-.246.183.11.278.21.093-.02.266-.234.176.051.14.031-.011.11.148.273.824.133.352.3 1.223.36.523.067.313.047.437.234.195.52.223.597.336.008.809.59.398.398.773-.004.094.07.297.477.59.281.016.344.05.149.395.043.242.332.379.203.805.258.18.238.417.234.11.215.297-.07.546.105.344.254.54.438.5.418.304.039.219-.246.148-.243.426-.187-.047-.453-.406-.059-.367-.465-.34-.257.097-.297.418-.008.88-.285.14-.336-.016-.25.125-.39.098.026.383-.011.148-.453.36-.184-.184-.262-.332-.203-.07-.695-.286-.317.34-.437-.195-.09-.223-.133-.316-.629-.137-1.754-.5-.644-.437-.734-.29-.13-.304-.105-.277-.734-.926-.055-1.031-.773-1.211-.512-.16-.547-.106-.082-.227.11-.457-.395-.156-.863.04-.243-.34-.27-.723-.48-.235-.168-.265.016-.153-.148-.336-.438-.25-.328.012-.242.402-.137.5-.504.063-.18-.234-.171-.204-1.07-.433-.192-.02-.82.953.039.258.148.586-.254.332-.926.344-.199.11-.004.449.164.421.172.458.082 1.007-.191.262-.543.328-.371-.129-.266-.086-.273.047-.426-.008-.242-.05-.563.246.028.277.207 1.254-.133.262-.488.039-1.438-.598-.383.117-.508-.144-1.847-.348.02.05.171.438-.11.106-.542-.098-.453-.097-.446-.184-.394-.043-.14.336-.18.457-.325.11-.113.28.137.946.492 1.863.242.328.488.531.399.27 1.414.238.55.356 1.208 1.496.219.902-.282.008-.422-.273-.691-.582-.59.035-.14.234-.633 1.77-.305.058-.715-.094-.094.133.075.16" style="stroke:none;fill-rule:nonzero;fill:#908e96;fill-opacity:1"/></g><g clip-path="url(#b)"><path d="m156.89 182.648.356.66.328.657.414.879.645 1.613-.106.242-.422.313-.527.234-.738.48-.262.262-.883.723-.093.129-.262.156-.442.367-.445-.117-.648-.465-.578-.66-.247-.5-.511-.379-.692-.36-.414.005-.46.32-.4.266-.358.183-.32.422v.84l-.298.328-.71.668-1.43 1.145-.762.3-.684.38-.46.714-.223.406-.25-.125-.403-.242-1.39.82-.203.192-.473.137-.531.132-.922.747-.234.378-.446.438-.379.363-.558.621-.317.371-.73 1.442-.39.476-.489.59-.422.887-.398.5-.332 1.05-.137 1.47-.098.3.047.39-.297.321-.594.18-1.277-.3-.808-.29-.364-.164-.61-.145-.3.336-.25.598-.23-.043-1.043-.543-.297.07-.242.29-.098.296-.02.993-.285.457-.824.132-1.133-.382-.808-.504-.762.02-.273.124-.641-.035-.477-.195-.879-.54-.39-.023-.871.29-.297.765-.399.117-.652-.21-.828-.4-.613.188-.164.238-.051.235.187.95.352.667.18.227.148.664.605.504.426.058.457-.113.305-.184.363-.504.196-.84.293.016.476.254.508.281.465.645.156.492.031.52-.172.37-.605.598-1.266.961.2.59.761 1.488.309 1.192-.38 1.422-.28.125-.184.175-1.84 1.055-.746.117-.91-.972-.328-1.285-.035-.5-.52-.29-.008-.695-.093-.512-.407-.793-.226-.085-.227-.208-.328-.25-.227-.39.536-.563.03-.152.313.031.551-.414.274.078-.29-.41-1-.722-.656-.043-.312-.192-.086-.586.05-.57.255-.2-.063-.34-.559-.839-1.445-1.246-.578-.223-.148-.074-.766-1.059-.309-.43-.398-.054-.012.04-.222.573.14.645-.023.004-.114.226-.062.164h-.11l-.035-.586-.257-.488-.442-.738-.008-.074-.246-.54.262-.39.352-.406-.95-1.567-.285-.117-.136.008-.348-.3-.774-.18-.152.171-.418.149-.336-.09-.043-.656-.336-.176-.469.023-.351-.23-.398-.399-.458-.48.047-.117.188-.168.043-.106.074.012.266-.078.062-.29-.219-.358-.246-.458.114-.125.558.012v-.02l-.168-.37-.219-.336-.156-.176-.062-.246.09-.18h.015l.38-.238.07-.192-.368-.765-.027-.281-.043-.102-.145-.031.024-.067-.07-.086.097-.007.184-.102-.031-.031-.02-.133.094-.285-.02-.192-.226-.359-.067-.582h-.015l-.317-.008-.699-.3-.297-.083-1.793-.074-.723-.016-.074.09-.168.258-.125.27-.36-.25-.19-.403-.067-.054-.41.035-.555.027-.39-.14-.266-.2h-.637l-.355-.191-.242.004-.114-.13-.066.063-.305.368-.094.277-.046.156-.125.305-.368.152-.183.242-.145-.093-.312-.246-.024.027-.129-.035-.335-.024-.114.075.008-.106.012-.539.027-.332-.035-1.02.05-.113-.085-.207.07.012.113-.156-.382-.457-.102-.172-.387-.348-.945-1.066-.176-.723-.344-.484-.855-.871h-.262l.086-.168.438-.07 1.441.503.137-.043.027.035.207.055.461.004.195.07.098.008.309-.012.851.606.309.004.242.05.211-.562.504-.082.27-.27.046.012.012-.031.11-.203.472-.172.543-.106.129-.07.016.012.64.008 1.18-.313.3.035.176.086.297.184 1.145.258.328.293.586.386.465.133.574.121.14-.242.872.098.394.273.602.121.12-.004.016-.027.083-.234-.489-.477-.48-1.402-.192-.27.055-.398.117-.094 1.11.082.316.031.461.012.2-.078.593.164v-.008l.004-.297.055.028.359.25.234-.172.016.09.21.187.52.211.293.004.254.043.016-.047.172-.125.008.004.226.168.137-.153-.098-.464h.016l.363.168-.07.132-.04.13.235.097.504.086.262.195.261-.031.34.25.114-.125-.016-.023.004-.38.129-.218.043-.152.152-.16.168-.188.125-.106.719-.62.129-.051.152-.188.113-.152.086.07.258-.016.191-.035.2.043.043-.105-.02-.078.102.043.574.03.203-.241.426.254.234-.098.215-.11.523.13.313-.16.23-.173-.027-.097-.039-.012-.207-.71-.02-1.747.024-.371-.188-.742-.12-.407.574-1.566.074-.203.101-1.418.075-.324.03-.168.11-.055.266.082.004-.07.015-.176.063-.004-.059-.113-.097-.156-.188-.743.023-.004-.015-.125-.223-.445-.12-.207-.263-.219-.23-.332.055-.214.015-.25-.047-.305v-.246l.086-.153.094-.484.04-.14-.099-.028-.796-.605-.22.07-.073.367.195.16.453.239.125.351-.191.082-.418-.101-1.168-.391-.293.012-.235-.297-.418-.899-.265-.093-.39-.036-.337.098-.406-.027-.637-.485-.203-.27-.098-.003-.164.262-.379-.13-.289-.113-.406.07-.437.286-.48-.227-.247-.328-.34-.39-.347-.024-.73 1.086-.18-.086-.622-.27-.324.005-.308-.325.148-.445-.57-.332-1.707-.57-.352.34-.223.058-.18-.074-.261-.574-.203-.004-.59.43-.508.152-.105.273.039.14.183.349-.07.289-.36.046-.386-.18-.086-.257-.012-.29-.293-.233-.277-.004-.144.175.171.317.383.57-.043.473-.02.004-.55-.043-1.676-.942-.222-.054v.004l-.274.39-.71.098-.345-.23-.789-.837-.316-.093-.367-.13-.344-.304-.832-1.148-.54-.582-.64-.45-1.097-.422-.223.07v.009l.234.394.075.25-.102.02-.313-.192-.304-.254-.61-.007-.023.289.23.117.239.148.054.215-.16.082-.511-.238-.61-.59-.168-.215-.625-.289-.476-.402-.364-.524-.175-.101-.133.113-.508.324-.352-.097-.464-.125-.18.16-.403-.328-.562-.47-.117.145.039.325-.145.386-.222-.043-.176-.203-.129-.27.145-.269-.07-.129-.49-.324-.272.043-.204.234-.16.305-.695 2.293-.442.094-.12.234-.032.102-.07-.035-.43-.383-.535.238-.207-.476-.125-.336-.14-.457-.008-.407-.325-.011-.254-.012-.546-.36.02-.152.214-.754-.23-.05-.313-.02-.492-.465-.11.156-.105.352-.164.14-.836.141-.926-.898-1.27.093-.304-.16.117-.5-.234-.363-.485-.387-.097.07-.055.399.023.422-.168.098-.375-.067-.832.762-.261-.113-.594.132-.246-.433-.223-.688-.312-.148-.203.105.129.293.082.309-.024.226-.094.317-.101.383-.196.062-.132-.199-.028-.441-.425-.407-.72-.687-.5-.145-.175.13-.098.362.336.282.215.05.14.07-.058.259-.191.27-.547.155-.29-.078-.44-.18-.13.153-.277.601-.601-.242-1.2-.668-.57-.437-.394.133-.278.156-.222.375-.868-.754.301-.535-.176-.192-.16-.312.137-.195.23-.157.301-.18.297-.148.395-.683.128-1.063.59-1.125.04-.191.117-.485.136-.109.41.11.457.304.997.387 1.085.883.598.203.371.168.336-.27.403.121v-.008l.199-.375.254-.078.379-.215.226-.02.234-.62.415.101.12.192.383.039.801-.238.469.129.195.05.055-.261-.074-.309h.226l.313.05-.149-.413-.132-.344-.012-.274.043-.007.41-.086.348-.188.453-.668.035-.23-.059-.301-.09-.348.012-.46-.36-.712-.452-.183-.508-.711-.36-.07-.214-.438-.332.024-.223-.09-.414-.477-.293-.367-.457.164-.906-.266-.121-.207.07-.476-.25-.125-.172-.067-.078-.277-.106-1.668-.351-.574.016-.012.308.008.207-.055.063-.238.035-.41.133-.406.55-.438-.066-.394.168.078.484.023.055-.148-.023-.352.293-.898.253-.477-.05-.347-.11-.454.098-.582.055-.277.328-.277.246-.336.453-.45.14-.125.372-.058.144-.043.153-.656-.012-.575.215-.492-.32-.422-.153-.777-.242-.187-.137-.211.203-.528-.219-.625.22-.293.156-.226-.012-.23-.59-.794.11-.14.292-.235v-.699l.016-.3.277-.044.114-.793.222-.113-.012-.027-.007-.442h.183l.172.032.488-.7-.129-.238-.222-.273.086-.2.195-.242-.012-.289-.675-1.168-.188-.219-.223-.367-.195-.05-.418.09-.375-.72-.207-.081-.75-.082-1.344-.957-.441-.102-.238-.375h-.465l-.606-.406-.336-.48-.476-.134-.102-.402-.07-.492-.55-.387-.188-1.496-.121-.219-.668-.418-.11-.543-.07-.504-.023.028-.184-.055-.488-.226-.29-.137-.593-.746-.297-.2-1.93-.742-.187-.05-.219.03-.34.18-.265.122-.457.132-.208.329-.183.468-.203.32-.008-.011-.465-.742-.262-.395-.613-.32-.09-.012-.293.063-.496-.051-.426-.113-.25-.243-.402-.226-.2-.133-.273-.145-.14-.05-.54.187-.3.23-.258-.038-.176-.176-.226-.074-.196.054-.21-.074-1.559-.348-.168-.043-.21-.171-.27.046-.813-.363-.18-.332-.492-.82-.52.012-.69-.086-.278-.559-.496-.594-.024-.14-.765-.512-.157-.04-.804-.046-.88.227-.222-.118-.246-.109-.191-.055-.133.102-.066.164-.028.004-.195.027-.606-.597-.683-.555-.078-.063-.282-.515h-.336l-.988.082-.238-.043-.387-.035-.14.187-.336-.207v.016l.02.402-.2.219-.363-.067-.356.383-.11.485-.534.23.007.2-.023-.005-.2-.027-.515-.16-.238-.031-1.902-1.403-.368.145-.011-.07.058-.258.168-.332-.039-.914-.246-.309-.328-1.18.27-.281.167-.016v-.007l.004-.282-.172-.703.016-.351.164-.637.055-.117-.172-.176-.262-.043-.367-.367-.074-.317-1.293-1.195-.035.102-.028.308h-.027l-.137-.07-.355-.879-.168-.5.168-.023.207-.098.148-.125.18-.102.297-.07.394-.11.211-.546.223-.957-.117-.285-.422-.649-.164-.254-1.2-.562-.32-.625-.152-.227-.8-1.05-.15-.215-.015.011-.152.094-.414.07-.258-.093-.895-.368.047-.082.106-.46-.73-.024-.165-.02-.554-.457-.442-.222-.539-.156-.363-.325-.559-.054-.191-.184-.317.066-.05.137-.274.383-.996.86-.559.304-.207.086-.257-.043-.918.234-.54.274-.39-.207-.258-.02-.473-.031-.78-.137-.458-.043-.488.012-.25.117-.352-.765-.168-1.063-.648-.902-.172-.692-.336-.445-1.047-.719-1.136-.515-.118-.203-.043-.579-.164-.507-.37-.598-.087-.648-.136-.598.125-.281.148-.313-.227-1.414-.5-1.309-.14-.046-.594-2.48-.039-.325-.203-.535-.016-.676.692.148.008-.246-.102-.476-.262-.856.238-.847.11-.227-.059-.441-.004-.184-.082-.484-.101-.145-.2-.156-.359-.313-.152-.484.16-.352.098-.023.004.004.453.281.707-.086.113-.031.004.004.164-.102v-.004l.32-.789-.511-.953.171-.347.282-.223-.008-.406-.027-.313-.348-.875-.035-.265-1.008-1.715-.203-.575-.168-.203-.172-.64-.07-.367.12-.497.462-.062 1.023.14.473.16.203.016.36.086 1.245.176 1.778 1.113.472.114.645-.532.265-.515.157-.117.066-.043.38.05.597.344.437.535 1.793.926.262.004.676.105.851.227.453-.379 1.032-.601.91-.153.418-.328.617-.117.277-.102.813.082 1.554.278.34.144.465-.097.293-.594.488-.899.067-.808.273-.215.317-.746 1.257.23.81-.035 2.3-.96.418.03.367-.269.328-.324.11-.34.058-.293.602-.14.34-.048.863-.308.031-.496.031-.274-.136-.699-.047-.344-.16-.465-.383-.695-.192-.336-.582-.797-.101-.68.02-.761-.184-.223-.239-.316-.109-.82.582-.207.453.125.434.32.168-.64-.094-.333.105-.355.079-.121-.032-.356-.777-1.597-.3-.356-.095-.207.032-.016.16-.425.21-.512.74-.996.425-1.274-.04-.379.423-.21.402-.7.105-.34.235-.453.164-.609.285-.887-.121-.43-.086-.242.16-.324.399.098.289.086.183-.332.117-.703.118-.211.27-.184.062-.55-.117-.305-.063-.223.246-.594-.066-.375-.117-.367.07-.277.09-.157.164-.382.52-.118.741.621.247-.117.03-.343.114-.875-.078-.352-.207-.813-.059-.554-.535-.719-.074-.281.203-.309-.074-.191-.262-.446-.2-.753-.327-.594.035-.192.144-.625-.042-.722-.235-1.336.371-.176.246-.05.25-.055-.312-.75-.164-.434-.219-.926-.398-.422-.395-.359-.828-.574-.14-.371-.012-.215.058-.008.403.043-.008-.023.351-.704.2-.293.585-.011.977.363.184-.066.093-.317-.086-.336-.273-.52-.031-.581.293-.282.238-.21.152-.075.41.137.598.023.2-.05.429.043-.133-.114-.113-.32-.05-.406-.485-.582-.13-.192-.136-.683-.348-.832-.503-.332-.676-.39-.203-1.208.066-.27-.441-.417-.485-.278.102-.12.18-.79-.625-.555-.387-1.148-.184-.211-.078-.375.059-.012.367-.015.555-.336.453-.016.965-1.125.664-2.207.293-.234.23-.672 1.063.273.464-.324 1.235.105.285.016.293.008 1.39.375.16-.125.087-.426-.004-.18.066.032.215-.032.176-.093.133.05.34.332.69-.351.204-.211.285-.18-.062-.355.07-.008.223-.21-.086-.192-.235-.297-.8-1.38-.153-.323.004-.364.063-.277-.016-.133.445-.097.16-.22.164-.292.059-.3-.035-.24-.195-.402.144-.484-.059-.277h.032l.883-.059.804.45.016-.028.23-.215.059.063.496.191.43.031.258.059.343-.387v-.39l-.066-.555.527-.242.52-.082.148-.094.25-.188.61-.39.347-.238.512.085.41-.02.098-.487.242-.211 1.324.289.172.078.719.46.71-.007.653.262.477-.168.218-.586.18-.438.16-.238.176-.289.473.105 1.074.403 2.18 1.465.27.523-.048.332-.234.25-.36.121-.18.082.055.32.309.188.578.238.348.094.445-.02.52.22.683.476.399.008.257.187.157.23.023-.148.063-.738.504-.473.57-.328.812.598.149.222.222.223.243.164.703.192.547.336.488-.204.312-.367.192-.5.379.051 1.129.61.246.277 1.676.797-.11.097-.058.172.203.242.36.438-.048.312-.222.496-.192.278.09.16.172.281-.082.531.2.23.01.368.481.414.332-.07 2.18.89.762-.5 1.215.047 1.132.305.02-.09.168-.305.906-.234.684.48.203.297.023.184-.125.762.106.472.086.317.09.215.23.515.059.203-.329.223-.218.453-.192.242-.386-.129-.332-.07-.188.149-.078.289-.305.394-.183.035-.145.739.305.457-.102.687.883 1.559.094.883.488.773.48.629.235.77.05.374.243.551.133.363.226.243 1.145.425.66.122.496.105-.012.047.118.543.464 1.969-.168.28-.05.063.066.352.117.289-.265 1.117-.106.38.168.343.016.426 1.058 2.738.164.273.555-.058.906-.7 1.508.247 1.246.757.207.008.41.399.368.449.75 2.855-.235.621.29 1.575-.005.312-.047.375.512 1.012.13.316-.071.395.066.246-.004.148-.195.024-.098.027.008.031.024.633-.09.313.14 2.031h-.047l-.035.02.016.035.11.386.183.914.101.54.008.468.032.29-.067.359.192.48.71 1.254.141.59.309.309.351.019.281.004.497.137.312.062.567.012.374-.016.235-.613.379-.191.207.07 1.34 1.316.504.278.41.367.199.355 1.14.57.481.094.516.223.32-.04.27.044.593.46.254.29.363-.09.188-.094.23-.136v-.188l.012-.226.465-.454.2.102.48.508.875.77.25.156.297-.063.347-.156.293.023.457-.336 2.145.778.695.406.344.121.136 1.188-.128.152-.282.258-.093.246.246.496.187.285.336.105.207.04.367-.114.457-.226.262.14.2.207.699.637.355.11.262.269-.168.527.02.352.546 1.277.66.524.559.3.14.153.051.531.137.285.184.371-.192.426-.156.387-.035.64 1.476.54.618.726.128.242.282.457.222.114.246-.094.442.172.308.168.973.5.242.398.371.258.371.437.208.028.164-.215.187-.625.25-.242.797-.352.094-.129 1.015.633.082.094.407-.219.277-.144.46.128.165-.027.52-.48.3-.235.184-.043.113-.12.024.093.16.504.68.433.363.192.773.738 1.266-.05.406-.11 1.211.3.3-.16.56-.066.859.059.367.355.441.196.477.27 1.394 1.76.204.876.257.414.989.379.37.426.278.195.227.43-.016.3.195.383.7.438.39.101.953.094.313.324.465.363.672.059v.16l-.11.637.059.906-.032.375.38.426.171.215-.086.594.04.746.597.168.398.035.645.215.441.273.391.371.207.41.309.282.562.152.39.21.376.067.281-.125.23-.066.106.047.934.5.293.07.187.023.258.11.312.148.918.074.52.223 5.43 3.106.304.171 1.735 1-.004-.039.023-.312.305-.512.054-.18.157-.234.203-.039.23.074.457-.008.192-.117.515-.093.258-.692.34-.02.3-.054v-.207l.044-.164.058.055.414.414.25.113.372-.149.332-.39.011-.172.106-.102.316.086.856.075.937-.13.203.153.399.902.386.602.309-.219.3-.234.509-.254.363.008.664-.387.3-.106.395-.437.16-.727-.445-.234-.258-.258-.039-.305.258-.855.078-.144.13-.329.245-.687.496-1.324.485-.48.164-.825.09-.129.171-.184.16-.39.188-.258.586-.281-.172-.914-.058-.153.046-.02.446-.046.379-.09-.028-.226.024-.532-.09-.265-.027-.215.296-.184.27.184.473.12.289.056.445.296.48.399.84.207.157-.074-.004-.024.168-.578.515-.433.371-.172.477-.153.277-.3.012.011.578.407 1.266.89.617 1.051.363.102.594.617.062.316.176.184.297.234 1.274 1.156.546-.09.262.036.274-.043.437-.114.367.192.23.113.36.133v.2l.059.917.312.094.367.082.57.508-.054 1.59-.078.117-.024.328.016.351-.426.313-.168.23-.27.223-.152.188.34.566.57.43.243.562.039.414.531.586.695.668-.054.043-.067.234-.101.391-.121.219.222.336.305.574.207.531.11.418.078.84v.457l-1.637.113.226 1.403-.054.18.007.421-.187.434-.066.215.351 1.34-.305.972-.375.371-1.332-.082-.09-.136-.456.003-.082.149-.32.129-.079.515-.144.106.097.601.106.348-.29.867-.152.512-.238.285.23.602.485.531.351.223.664.27.348 1.612.84 1.766-.008.512.477.765.52.465.288.324.184.497-.211.449.039.347.043.309.16.555.149.441-.11.195-.258.207-.015.563.101.816-.105 1.22-.383.116-1.016.063-.382-.145-.57.055-.919.75-.238.43-.71 1.054-.45.223-.004.316-.105.227.066.348.059.406-.07.308-.317.543-.07.211.007.192.782 1.449-.07.504.058 2.492-.004.23-.637.29-.101.09-.97.332-.21.238-.043.183.195.621-.105.329.008.336-.536-.473-.128-.016-.215.551-.117.512-.176.27-.149.613-.18.28-.406.352-.28 1.164 1.085 1.461.106.149.14.488.352.469-.149.277-.293.88-.011.265.23.433-.117.278.02.609.066.867-.059.543.11.356.136.316-.02.172-.124.133.012.304.578 1.051.03.305.071.316-.05.23-.516.141-.18.047-.246.098-.11.11-.023-.02-.355-.344-.989.113-.19.653-.134.488.227.5.047.617-.387.27-1.36-.442-.433.668-.02.098-.027-.027-.36-.368-.331-.187-.16-.285-.336-.426-.332-.242-.258-.149-1.067-.699-.882-.11-.223-.09-.02.06-.386.488-.399.297.031.191.106.313-.238.484.011.383.239.797-.02.28-.242.622.07.555-.05.347.054.703-.11 1.102-.109.223.223 1.847-.312.34-.122.613.055.371.274.286.187.23.145.399.09.476.035.316-.133.247.062.355.399.55.113.247-.031.691-.531.22-.32-.056-.34-.132.027.132.144.262-.097.055-.594.156.008.309.132.578-.18.27-.007.437-.422.379-.023.265-.215-.011-.188.011.028.157.433.48-.12.14-.106.204-.14.176-.727.007-.114.211-.074.223-.824.535.12.703-.183.508-.008.527.055.989-.246.183.11.278.21.093-.02.266-.234.176.051.14.031-.011.11.148.273.824.133.352.3 1.223.36.523.067.313.047.437.234.195.52.223.597.336.008.809.59.398.398.773-.004.094.07.297.477.59.281.016.344.05.149.395.043.242.332.379.203.805.258.18.238.417.234.11.215.297-.07.546.105.344.254.54.438.5.418.304.039.219-.246.148-.243.426-.187-.047-.453-.406-.059-.367-.465-.34-.257.097-.297.418-.008.88-.285.14-.336-.016-.25.125-.39.098.026.383-.011.148-.453.36-.184-.184-.262-.332-.203-.07-.695-.286-.317.34-.437-.195-.09-.223-.133-.316-.629-.137-1.754-.5-.644-.437-.734-.29-.13-.304-.105-.277-.734-.926-.055-1.031-.773-1.211-.512-.16-.547-.106-.082-.227.11-.457-.395-.156-.863.04-.243-.34-.27-.723-.48-.235-.168-.265.016-.153-.148-.336-.438-.25-.328.012-.242.402-.137.5-.504.063-.18-.234-.171-.204-1.07-.433-.192-.02-.82.953.039.258.148.586-.254.332-.926.344-.199.11-.004.449.164.421.172.458.082 1.007-.191.262-.543.328-.371-.129-.266-.086-.273.047-.426-.008-.242-.05-.563.246.028.277.207 1.254-.133.262-.488.039-1.438-.598-.383.117-.508-.144-1.847-.348.02.05.171.438-.11.106-.542-.098-.453-.097-.446-.184-.394-.043-.14.336-.18.457-.325.11-.113.28.137.946.492 1.863.242.328.488.531.399.27 1.414.238.55.356 1.208 1.496.219.902-.282.008-.422-.273-.691-.582-.59.035-.14.234-.633 1.77-.305.058-.715-.094-.094.133.075.16" style="fill:none;stroke-width:.25;stroke-linecap:butt;stroke-linejoin:miter;stroke:#fff;stroke-opacity:1;stroke-miterlimit:10"/></g></svg>