<svg viewBox="0 0 198.353 217.44" xmlns="http://www.w3.org/2000/svg"><defs><clipPath id="a"><path d="M131 66h67v111h-67Zm0 0"/></clipPath><clipPath id="b"><path d="M128 62h70v118h-70Zm0 0"/></clipPath><clipPath id="c"><path d="M0 .441h166v217H0Zm0 0"/></clipPath><clipPath id="d"><path d="M0 .441h169v217H0Zm0 0"/></clipPath></defs><g clip-path="url(#a)"><path d="m137.309 66.379.16.504.68.433.363.192.773.738 1.266-.05.406-.11 1.211.3.3-.16.56-.066.859.059.367.355.441.196.477.27 1.394 1.76.204.876.257.414.989.379.37.426.278.195.227.43-.016.3.195.383.7.438.39.101.953.094.313.324.465.363.672.059v.16l-.11.637.059.906-.032.375.38.426.171.215-.086.594.04.746.597.168.398.035.645.215.441.273.391.371.207.41.309.282.562.152.39.21.376.067.281-.125.23-.066.106.047.934.5.293.07.187.023.258.11.312.148.918.074.52.223 5.43 3.106.304.171 1.735 1-.004-.039.023-.312.305-.512.054-.18.157-.234.203-.039.23.074.457-.008.192-.117.515-.093.258-.692.34-.02.3-.054v-.207l.044-.164.058.055.414.414.25.113.372-.149.332-.39.011-.172.106-.102.316.086.856.075.937-.13.203.153.399.902.386.602.309-.219.3-.234.509-.254.363.008.664-.387.3-.106.395-.437.16-.727-.445-.234-.258-.258-.039-.305.258-.855.078-.144.13-.329.245-.687.496-1.324.485-.48.164-.825.09-.129.171-.184.16-.39.188-.258.586-.281-.172-.914-.058-.153.046-.02.446-.046.379-.09-.028-.226.024-.532-.09-.265-.027-.215.296-.184.27.184.473.12.289.056.445.296.48.399.84.207.157-.074-.004-.024.168-.578.515-.433.371-.172.477-.153.277-.3.012.011.578.407 1.266.89.617 1.051.363.102.594.617.062.316.176.184.297.234 1.274 1.156.546-.09.262.036.274-.043.437-.114.367.192.23.113.36.133v.2l.059.917.312.094.367.082.57.508-.054 1.59-.078.117-.024.328.016.351-.426.313-.168.23-.27.223-.152.188.34.566.57.43.243.562.039.414.531.586.695.668-.054.043-.067.234-.101.391-.121.219.222.336.305.574.207.531.11.418.078.84v.457l-1.637.113.226 1.403-.054.18.007.421-.187.434-.066.215.351 1.34-.305.972-.375.371-1.332-.082-.09-.136-.456.003-.082.149-.32.129-.079.515-.144.106.097.601.106.348-.29.867-.152.512-.238.285.23.602.485.531.351.223.664.27.348 1.612.84 1.766-.008.512.477.765.52.465.288.324.184.497-.211.449.039.347.043.309.16.555.149.441-.11.195-.258.207-.015.563.101.816-.105 1.22-.383.116-1.016.063-.382-.145-.57.055-.919.75-.238.43-.71 1.054-.45.223-.004.316-.105.227.066.348.059.406-.07.308-.317.543-.07.211.007.192.782 1.449-.07.504.058 2.492-.004.23-.637.29-.101.09-.97.332-.21.238-.043.183.195.621-.105.329.008.336-.536-.473-.128-.016-.215.551-.117.512-.176.27-.149.613-.18.28-.406.352-.28 1.164 1.085 1.461.106.149.14.488.352.469-.149.277-.293.88-.011.265.23.433-.117.278.02.609.066.867-.059.543.11.356.136.316-.02.172-.124.133.012.304.578 1.051.03.305.071.316-.05.23-.516.141-.18.047-.246.098-.11.11-.023-.02-.355-.344-.989.113-.19.653-.134.488.227.5.047.617-.387.27-1.36-.442-.433.668-.02.098-.027-.027-.36-.368-.331-.187-.16-.285-.336-.426-.332-.242-.258-.149-1.067-.699-.882-.11-.223-.09-.02.06-.386.488-.399.297.031.191.106.313-.238.484.011.383.239.797-.02.28-.242.622.07.555-.05.347.054.703-.11 1.102-.109.223.223 1.847-.312.34-.122.613.055.371.274.286.187.23.145.399.09.476.035.316-.133.247.062.355.399.55.113.247-.031.691-.531.22-.32-.056-.34-.132.027.132.144.262-.097.055-.594.156.008.309.132.578-.18.27-.007.437-.422.379-.023.265-.215-.011-.188.011.028.157.433.48-.12.14-.106.204-.14.176-.727.007-.114.211-.074.223-.824.535.12.703-.183.508-.008.527.055.989-.246.183.11.278.21.093-.02.266-.234.176.051.14.031-.011.11.148.273.824.133.352.3 1.223.36.523.067.313.047.437.234.195.52.223.597.336.008.809.59.398.398.773-.004.094.07.297.477.59.281.016.344.05.149.395.043.242.332.379.203.805.258.18.238.417.234.11.215.297-.07.546.105.344.254.54.438.5.418.304.039.219-.246.148-.243.426-.187-.047-.453-.406-.059-.367-.465-.34-.257.097-.297.418-.008.88-.285.14-.336-.016-.25.125-.39.098.026.383-.011.148-.453.36-.184-.184-.262-.332-.203-.07-.695-.286-.317.34-.437-.195-.09-.223-.133-.316-.629-.137-1.754-.5-.644-.437-.734-.29-.13-.304-.105-.277-.734-.926-.055-1.031-.773-1.211-.512-.16-.547-.106-.082-.227.11-.457-.395-.156-.863.04-.243-.34-.27-.723-.48-.235-.168-.265.016-.153-.148-.336-.438-.25-.328.012-.242.402-.137.5-.504.063-.18-.234-.171-.204-1.07-.433-.192-.02-.82.953.039.258.148.586-.254.332-.926.344-.238-.102-.277-.078-.219-.101-.59-.29-.039-.152.145-.257.09-.125-.004-.301-.235-.09-.422.129-.55-.883.156-.18.125-.164-.13-.18-.312-.25-.164-.382-.199-.805-.105-.39.023-.555.18-.133-.113-.18-.336-.125-.325-.238-.058-.148.113-.387-.215-.414-.164-.082-.101.129-.036.168-.05.234-.2-.008-.859-.219-.418.235-.016-.028-.367-.5-.113.016-.016.055-.007.133-.04.253-.167-.02-.79-.413.047-.047.547-.309-.23-.289-.754-.367-1.055-.082-.422-.215-.11-.234-.144-.219-.824-.496-.082-.348-.394-.12-.137-.028-.461-.277-.367.175-.207-.265-.223-.434-.402-.195-.242-.004-.083.289-.09.137-.273-.09-.363-.195-.672-.164-.617-.258-.574-.825.035-.34-.281-.464-.254-.344.02-1.098.265-.445-.016-.351.274-.075.226-.113.27-.07.21-.032.005-.054-.18-.215-.117-.277.132.023.301.05.555-.987-.05-.153.105-.11.27-.089-.013-.05-.164-.391.075-.793-.16-.504.058-.239-.184-.375.165-.492-.043-.012-.184-.242-.133-.664-.097-.207.113-.023.148-.117-.117-.278-.047-.226.215-.227-.266-.601.336.03.149-.093.36-.703.054.023.297.286.047-.11.171-.722-.195-.243.074-.035.078-.168-.398-.715-.238-.359.02-.184.21.09.074.02-.062-.117-.277-.286-.368.016-.203-.258-.285-.804h.152l1.16.414.184-.106.39.121.302-.152.629-.125h.16l.117-.008.18-.2.066-.202.059-.344.668-.43.265-.16.82-.11.434-1.179-.187-.23.082-.239.14-.007.07-.208-.144-.32-.133-.097.035-.02.246-.117-.043-.059.004-.308.168-.157.102-.152.289-.012h.125l.16-.09.258-.035-.063-.12-.011-.079.066-.008.246-.004.004-.035.086-.926.313-.187.097-.082.192-.328-.184-.266.027-.02.723-.304.063-.258.37-.14.032-.34.25-.118.137-.468-.106-.27.016-1.027-.047-.059.043-.05.21-.239.095-.3.144-.243.203-.117.074-.453.536-.715.035-.684.097-.68.008-.218-.156-.258-.25-.37-.367-.892-.332-.503-.028-.18-.277-.902.07-.262.008-.555.11-.668.09-.183.273-.614-.125-1.91-.66-1.437-.184-.09-.328-1.39.129-.724-.028-.367.114-1.164.23-.199-.332-1.039.074.027.34.223v-.055l.086-.52.074-.187-.168-.523.06-.496-.153-.578.25-.063.687-.02.074-.535.457-1.191.118-.363-.383-.371-.63-.524-.534-.476-.473-.32-.332-.563-.082-.426-.004-.293-.875-1.031-1.293-1.621-1.453-1.235-.875-1.539-.715-.8-.601-.442-.54-.215-.413-.273-.262.117-.301.086-1.441-.672-.95-1.488-.554-.531-.567-.707-1.53-.723-.317-.434-.102-1.011-.3-.606.007-.418-.008-.215.2-.351-.356-.496-.226-.516-.215-.629-.82-.969-.383-1.175-.235-.832-.277-.27-.57-.008-.29-.273.223-.473-.492-.445.043-.852-1.168-2.512-.496-.683-.23-.942-.274-.652-.02-.277-.265-1.23v-.216l-.781-.726-.532-1.074-.668-.555-.34-.094-.382-.254-.2-.28.153-.212-.106-.832-.156-.21-.816-.829-.25-.36-.082-.78-.051-.54.332-.527-.207-.473-.336-.148-.309-.07-.554-.082-.707-.344-1.907-1.98-.195-.079.148-.246.047-1.023.801-1.707.797-.352.094-.129 1.015.633.082.094.407-.219.277-.144.46.128.165-.027.52-.48.3-.235.184-.043.113-.12.024.093" style="stroke:none;fill-rule:nonzero;fill:#1a1523;fill-opacity:1"/></g><g clip-path="url(#b)"><path d="m137.309 66.379.16.504.68.433.363.192.773.738 1.266-.05.406-.11 1.211.3.3-.16.56-.066.859.059.367.355.441.196.477.27 1.394 1.76.204.876.257.414.989.379.37.426.278.195.227.43-.016.3.195.383.7.438.39.101.953.094.313.324.465.363.672.059v.16l-.11.637.059.906-.032.375.38.426.171.215-.086.594.04.746.597.168.398.035.645.215.441.273.391.371.207.41.309.282.562.152.39.21.376.067.281-.125.23-.066.106.047.934.5.293.07.187.023.258.11.312.148.918.074.52.223 5.43 3.106.304.171 1.735 1-.004-.039.023-.312.305-.512.054-.18.157-.234.203-.039.23.074.457-.008.192-.117.515-.093.258-.692.34-.02.3-.054v-.207l.044-.164.058.055.414.414.25.113.372-.149.332-.39.011-.172.106-.102.316.086.856.075.937-.13.203.153.399.902.386.602.309-.219.3-.234.509-.254.363.008.664-.387.3-.106.395-.437.16-.727-.445-.234-.258-.258-.039-.305.258-.855.078-.144.13-.329.245-.687.496-1.324.485-.48.164-.825.09-.129.171-.184.16-.39.188-.258.586-.281-.172-.914-.058-.153.046-.02.446-.046.379-.09-.028-.226.024-.532-.09-.265-.027-.215.296-.184.27.184.473.12.289.056.445.296.48.399.84.207.157-.074-.004-.024.168-.578.515-.433.371-.172.477-.153.277-.3.012.011.578.407 1.266.89.617 1.051.363.102.594.617.062.316.176.184.297.234 1.274 1.156.546-.09.262.036.274-.043.437-.114.367.192.23.113.36.133v.2l.059.917.312.094.367.082.57.508-.054 1.59-.078.117-.024.328.016.351-.426.313-.168.23-.27.223-.152.188.34.566.57.43.243.562.039.414.531.586.695.668-.054.043-.067.234-.101.391-.121.219.222.336.305.574.207.531.11.418.078.84v.457l-1.637.113.226 1.403-.054.18.007.421-.187.434-.066.215.351 1.34-.305.972-.375.371-1.332-.082-.09-.136-.456.003-.082.149-.32.129-.079.515-.144.106.097.601.106.348-.29.867-.152.512-.238.285.23.602.485.531.351.223.664.27.348 1.612.84 1.766-.008.512.477.765.52.465.288.324.184.497-.211.449.039.347.043.309.16.555.149.441-.11.195-.258.207-.015.563.101.816-.105 1.22-.383.116-1.016.063-.382-.145-.57.055-.919.75-.238.43-.71 1.054-.45.223-.004.316-.105.227.066.348.059.406-.07.308-.317.543-.07.211.007.192.782 1.449-.07.504.058 2.492-.004.23-.637.29-.101.09-.97.332-.21.238-.043.183.195.621-.105.329.008.336-.536-.473-.128-.016-.215.551-.117.512-.176.27-.149.613-.18.28-.406.352-.28 1.164 1.085 1.461.106.149.14.488.352.469-.149.277-.293.88-.011.265.23.433-.117.278.02.609.066.867-.059.543.11.356.136.316-.02.172-.124.133.012.304.578 1.051.03.305.071.316-.05.23-.516.141-.18.047-.246.098-.11.11-.023-.02-.355-.344-.989.113-.19.653-.134.488.227.5.047.617-.387.27-1.36-.442-.433.668-.02.098-.027-.027-.36-.368-.331-.187-.16-.285-.336-.426-.332-.242-.258-.149-1.067-.699-.882-.11-.223-.09-.02.06-.386.488-.399.297.031.191.106.313-.238.484.011.383.239.797-.02.28-.242.622.07.555-.05.347.054.703-.11 1.102-.109.223.223 1.847-.312.34-.122.613.055.371.274.286.187.23.145.399.09.476.035.316-.133.247.062.355.399.55.113.247-.031.691-.531.22-.32-.056-.34-.132.027.132.144.262-.097.055-.594.156.008.309.132.578-.18.27-.007.437-.422.379-.023.265-.215-.011-.188.011.028.157.433.48-.12.14-.106.204-.14.176-.727.007-.114.211-.074.223-.824.535.12.703-.183.508-.008.527.055.989-.246.183.11.278.21.093-.02.266-.234.176.051.14.031-.011.11.148.273.824.133.352.3 1.223.36.523.067.313.047.437.234.195.52.223.597.336.008.809.59.398.398.773-.004.094.07.297.477.59.281.016.344.05.149.395.043.242.332.379.203.805.258.18.238.417.234.11.215.297-.07.546.105.344.254.54.438.5.418.304.039.219-.246.148-.243.426-.187-.047-.453-.406-.059-.367-.465-.34-.257.097-.297.418-.008.88-.285.14-.336-.016-.25.125-.39.098.026.383-.011.148-.453.36-.184-.184-.262-.332-.203-.07-.695-.286-.317.34-.437-.195-.09-.223-.133-.316-.629-.137-1.754-.5-.644-.437-.734-.29-.13-.304-.105-.277-.734-.926-.055-1.031-.773-1.211-.512-.16-.547-.106-.082-.227.11-.457-.395-.156-.863.04-.243-.34-.27-.723-.48-.235-.168-.265.016-.153-.148-.336-.438-.25-.328.012-.242.402-.137.5-.504.063-.18-.234-.171-.204-1.07-.433-.192-.02-.82.953.039.258.148.586-.254.332-.926.344-.238-.102-.277-.078-.219-.101-.59-.29-.039-.152.145-.257.09-.125-.004-.301-.235-.09-.422.129-.55-.883.156-.18.125-.164-.13-.18-.312-.25-.164-.382-.199-.805-.105-.39.023-.555.18-.133-.113-.18-.336-.125-.325-.238-.058-.148.113-.387-.215-.414-.164-.082-.101.129-.036.168-.05.234-.2-.008-.859-.219-.418.235-.016-.028-.367-.5-.113.016-.016.055-.007.133-.04.253-.167-.02-.79-.413.047-.047.547-.309-.23-.289-.754-.367-1.055-.082-.422-.215-.11-.234-.144-.219-.824-.496-.082-.348-.394-.12-.137-.028-.461-.277-.367.175-.207-.265-.223-.434-.402-.195-.242-.004-.083.289-.09.137-.273-.09-.363-.195-.672-.164-.617-.258-.574-.825.035-.34-.281-.464-.254-.344.02-1.098.265-.445-.016-.351.274-.075.226-.113.27-.07.21-.032.005-.054-.18-.215-.117-.277.132.023.301.05.555-.987-.05-.153.105-.11.27-.089-.013-.05-.164-.391.075-.793-.16-.504.058-.239-.184-.375.165-.492-.043-.012-.184-.242-.133-.664-.097-.207.113-.023.148-.117-.117-.278-.047-.226.215-.227-.266-.601.336.03.149-.093.36-.703.054.023.297.286.047-.11.171-.722-.195-.243.074-.035.078-.168-.398-.715-.238-.359.02-.184.21.09.074.02-.062-.117-.277-.286-.368.016-.203-.258-.285-.804h.152l1.16.414.184-.106.39.121.302-.152.629-.125h.16l.117-.008.18-.2.066-.202.059-.344.668-.43.265-.16.82-.11.434-1.179-.187-.23.082-.239.14-.007.07-.208-.144-.32-.133-.097.035-.02.246-.117-.043-.059.004-.308.168-.157.102-.152.289-.012h.125l.16-.09.258-.035-.063-.12-.011-.079.066-.008.246-.004.004-.035.086-.926.313-.187.097-.082.192-.328-.184-.266.027-.02.723-.304.063-.258.37-.14.032-.34.25-.118.137-.468-.106-.27.016-1.027-.047-.059.043-.05.21-.239.095-.3.144-.243.203-.117.074-.453.536-.715.035-.684.097-.68.008-.218-.156-.258-.25-.37-.367-.892-.332-.503-.028-.18-.277-.902.07-.262.008-.555.11-.668.09-.183.273-.614-.125-1.91-.66-1.437-.184-.09-.328-1.39.129-.724-.028-.367.114-1.164.23-.199-.332-1.039.074.027.34.223v-.055l.086-.52.074-.187-.168-.523.06-.496-.153-.578.25-.063.687-.02.074-.535.457-1.191.118-.363-.383-.371-.63-.524-.534-.476-.473-.32-.332-.563-.082-.426-.004-.293-.875-1.031-1.293-1.621-1.453-1.235-.875-1.539-.715-.8-.601-.442-.54-.215-.413-.273-.262.117-.301.086-1.441-.672-.95-1.488-.554-.531-.567-.707-1.53-.723-.317-.434-.102-1.011-.3-.606.007-.418-.008-.215.2-.351-.356-.496-.226-.516-.215-.629-.82-.969-.383-1.175-.235-.832-.277-.27-.57-.008-.29-.273.223-.473-.492-.445.043-.852-1.168-2.512-.496-.683-.23-.942-.274-.652-.02-.277-.265-1.23v-.216l-.781-.726-.532-1.074-.668-.555-.34-.094-.382-.254-.2-.28.153-.212-.106-.832-.156-.21-.816-.829-.25-.36-.082-.78-.051-.54.332-.527-.207-.473-.336-.148-.309-.07-.554-.082-.707-.344-1.907-1.98-.195-.079.148-.246.047-1.023.801-1.707.797-.352.094-.129 1.015.633.082.094.407-.219.277-.144.46.128.165-.027.52-.48.3-.235.184-.043.113-.12.024.093" style="fill:none;stroke-width:.25;stroke-linecap:butt;stroke-linejoin:miter;stroke:#fff;stroke-opacity:1;stroke-miterlimit:10"/></g><g clip-path="url(#c)"><path d="m156.89 182.648.356.66.328.657.414.879.645 1.613-.106.242-.422.313-.527.234-.738.48-.262.262-.883.723-.093.129-.262.156-.442.367-.445-.117-.648-.465-.578-.66-.247-.5-.511-.379-.692-.36-.414.005-.46.32-.4.266-.358.183-.32.422v.84l-.298.328-.71.668-1.43 1.145-.762.3-.684.38-.46.714-.223.406-.25-.125-.403-.242-1.39.82-.203.192-.473.137-.531.132-.922.747-.234.378-.446.438-.379.363-.558.621-.317.371-.73 1.442-.39.476-.489.59-.422.887-.398.5-.332 1.05-.137 1.47-.098.3.047.39-.297.321-.594.18-1.277-.3-.808-.29-.364-.164-.61-.145-.3.336-.25.598-.23-.043-1.043-.543-.297.07-.242.29-.098.296-.02.993-.285.457-.824.132-1.133-.382-.808-.504-.762.02-.273.124-.641-.035-.477-.195-.879-.54-.39-.023-.871.29-.297.765-.399.117-.652-.21-.828-.4-.613.188-.164.238-.051.235.187.95.352.667.18.227.148.664.605.504.426.058.457-.113.305-.184.363-.504.196-.84.293.016.476.254.508.281.465.645.156.492.031.52-.172.37-.605.598-1.266.961.2.59.761 1.488.309 1.192-.38 1.422-.28.125-.184.175-1.84 1.055-.746.117-.91-.972-.328-1.285-.035-.5-.52-.29-.008-.695-.093-.512-.407-.793-.226-.085-.227-.208-.328-.25-.227-.39.536-.563.03-.152.313.031.551-.414.274.078-.29-.41-1-.722-.656-.043-.312-.192-.086-.586.05-.57.255-.2-.063-.34-.559-.839-1.445-1.246-.578-.223-.148-.074-.766-1.059-.309-.43-.398-.054-.012.04-.222.573.14.645-.023.004-.114.226-.062.164h-.11l-.035-.586-.257-.488-.442-.738-.008-.074-.246-.54.262-.39.352-.406-.95-1.567-.285-.117-.136.008-.348-.3-.774-.18-.152.171-.418.149-.336-.09-.043-.656-.336-.176-.469.023-.351-.23-.398-.399-.458-.48.047-.117.188-.168.043-.106.074.012.266-.078.062-.29-.219-.358-.246-.458.114-.125.558.012v-.02l-.168-.37-.219-.336-.156-.176-.062-.246.09-.18h.015l.38-.238.07-.192-.368-.765-.027-.281-.043-.102-.145-.031.024-.067-.07-.086.097-.007.184-.102-.031-.031-.02-.133.094-.285-.02-.192-.226-.359-.067-.582h-.015l-.317-.008-.699-.3-.297-.083-1.793-.074-.723-.016-.074.09-.168.258-.125.27-.36-.25-.19-.403-.067-.054-.41.035-.555.027-.39-.14-.266-.2h-.637l-.355-.191-.242.004-.114-.13-.066.063-.305.368-.094.277-.046.156-.125.305-.368.152-.183.242-.145-.093-.312-.246-.024.027-.129-.035-.335-.024-.114.075.008-.106.012-.539.027-.332-.035-1.02.05-.113-.085-.207.07.012.113-.156-.382-.457-.102-.172-.387-.348-.945-1.066-.176-.723-.344-.484-.855-.871h-.262l.086-.168.438-.07 1.441.503.137-.043.027.035.207.055.461.004.195.07.098.008.309-.012.851.606.309.004.242.05.211-.562.504-.082.27-.27.046.012.012-.031.11-.203.472-.172.543-.106.129-.07.016.012.64.008 1.18-.313.3.035.176.086.297.184 1.145.258.328.293.586.386.465.133.574.121.14-.242.872.098.394.273.602.121.12-.004.016-.027.083-.234-.489-.477-.48-1.402-.192-.27.055-.398.117-.094 1.11.082.316.031.461.012.2-.078.593.164v-.008l.004-.297.055.028.359.25.234-.172.016.09.21.187.52.211.293.004.254.043.016-.047.172-.125.008.004.226.168.137-.153-.098-.464h.016l.363.168-.07.132-.04.13.235.097.504.086.262.195.261-.031.34.25.114-.125-.016-.023.004-.38.129-.218.043-.152.152-.16.168-.188.125-.106.719-.62.129-.051.152-.188.113-.152.086.07.258-.016.191-.035.2.043.043-.105-.02-.078.102.043.574.03.203-.241.426.254.234-.098.215-.11.523.13.313-.16.23-.173-.027-.097-.039-.012-.207-.71-.02-1.747.024-.371-.188-.742-.12-.407.574-1.566.074-.203.101-1.418.075-.324.03-.168.11-.055.266.082.004-.07.015-.176.063-.004-.059-.113-.097-.156-.188-.743.023-.004-.015-.125-.223-.445-.12-.207-.263-.219-.23-.332.055-.214.015-.25-.047-.305v-.246l.086-.153.094-.484.04-.14-.099-.028-.796-.605-.22.07-.073.367.195.16.453.239.125.351-.191.082-.418-.101-1.168-.391-.293.012-.235-.297-.418-.899-.265-.093-.39-.036-.337.098-.406-.027-.637-.485-.203-.27-.098-.003-.164.262-.379-.13-.289-.113-.406.07-.437.286-.48-.227-.247-.328-.34-.39-.347-.024-.73 1.086-.18-.086-.622-.27-.324.005-.308-.325.148-.445-.57-.332-1.707-.57-.352.34-.223.058-.18-.074-.261-.574-.203-.004-.59.43-.508.152-.105.273.039.14.183.349-.07.289-.36.046-.386-.18-.086-.257-.012-.29-.293-.233-.277-.004-.144.175.171.317.383.57-.043.473-.02.004-.55-.043-1.676-.942-.222-.054v.004l-.274.39-.71.098-.345-.23-.789-.837-.316-.093-.367-.13-.344-.304-.832-1.148-.54-.582-.64-.45-1.097-.422-.223.07v.009l.234.394.075.25-.102.02-.313-.192-.304-.254-.61-.007-.023.289.23.117.239.148.054.215-.16.082-.511-.238-.61-.59-.168-.215-.625-.289-.476-.402-.364-.524-.175-.101-.133.113-.508.324-.352-.097-.464-.125-.18.16-.403-.328-.562-.47-.117.145.039.325-.145.386-.222-.043-.176-.203-.129-.27.145-.269-.07-.129-.49-.324-.272.043-.204.234-.16.305-.695 2.293-.442.094-.12.234-.032.102-.07-.035-.43-.383-.535.238-.207-.476-.125-.336-.14-.457-.008-.407-.325-.011-.254-.012-.546-.36.02-.152.214-.754-.23-.05-.313-.02-.492-.465-.11.156-.105.352-.164.14-.836.141-.926-.898-1.27.093-.304-.16.117-.5-.234-.363-.485-.387-.097.07-.055.399.023.422-.168.098-.375-.067-.832.762-.261-.113-.594.132-.246-.433-.223-.688-.312-.148-.203.105.129.293.082.309-.024.226-.094.317-.101.383-.196.062-.132-.199-.028-.441-.425-.407-.72-.687-.5-.145-.175.13-.098.362.336.282.215.05.14.07-.058.259-.191.27-.547.155-.29-.078-.44-.18-.13.153-.277.601-.601-.242-1.2-.668-.57-.437-.394.133-.278.156-.222.375-.868-.754.301-.535-.176-.192-.16-.312.137-.195.23-.157.301-.18.297-.148.395-.683.128-1.063.59-1.125.04-.191.117-.485.136-.109.41.11.457.304.997.387 1.085.883.598.203.371.168.336-.27.403.121v-.008l.199-.375.254-.078.379-.215.226-.02.234-.62.415.101.12.192.383.039.801-.238.469.129.195.05.055-.261-.074-.309h.226l.313.05-.149-.413-.132-.344-.012-.274.043-.007.41-.086.348-.188.453-.668.035-.23-.059-.301-.09-.348.012-.46-.36-.712-.452-.183-.508-.711-.36-.07-.214-.438-.332.024-.223-.09-.414-.477-.293-.367-.457.164-.906-.266-.121-.207.07-.476-.25-.125-.172-.067-.078-.277-.106-1.668-.351-.574.016-.012.308.008.207-.055.063-.238.035-.41.133-.406.53-.391-.046-.035-.625-.89-.188-.27-.585-.192-.305-.136-.317-.313-.003-.465v-.398l-.504-.406-.254-.125-.344-.387-.215-.54-.168-.433-.289-.12-.476-.227-.293-.016-.395.078-.441.344-.004-.008-.496-.332-.266-.094-.344.043-.957-.715-.054-.05-.04.078-.132-.04-.188.079-.008.164-.066.219-.203.449-.04.172-.488.257-.226.168-.328.016-.492-.484-.68-.172.016-.031.078-.672-.043-.473-.137-.145-.387-.183-1.082.113-.32-.11-.242.384-.102.289-.547.093-.183-.226-.489-.395-.261.145-.32.09-.286.328-.355-.024-.348-.53-.18-.376-.375-.36-.261-.113-.266-.37-.297-.419-.246-.203-.238-.215-.438-.207-.222-.246-.762-1.02-.461-.679-.262.332-.093.082-1.387-1.394-.168-.055-.137-.258-.203-.555-.574-.554-.04-.094-.195-.258-.117-.191-.648-.426-.114-.09-.19-.012-.005.055-.12.316-.052-.015-.097.035.007.04-.117.065-.183-.011-.43.387-.79.105-.202-.059-.207-.097h-.383l-.535-.239-.258-.117-.234-.215-.309-.28-.184.089-.566.477-.852.085-.238.204-.363.004-.113-.067-.016.086-.164.266-.074.035-.024-.067-.285-.351-.07-.176-.098-.273-.375-.36-.36-.152-.445-.102-.316-.511-.285-.27-.566-.883-.274-.183-.187-.055-.188-.047-.316-.285-.22-.035-.237-.098-.258-.117-.238-.547-.645-.598-.137-.164-.05-.218-.497-.391-.464-.457-.2-.188-.3-.507-.145.011-3.05-2.53-.06.089-.3.469-.09.164-.187.172-.11.226-.289.352-.02-.016-.363-.449-.34-.387-.222-.261-.309-.258-.207-.102-.012.05-.925 1.571-.227.594-.621.066-.492-.789-.219.121-.195.024-.102.086-.203.27-.723.136-.765-.437-.414-.192-.028-.406-.16-.715-.12-1.082-.184-.117-.266-.004-.633-.836-.363-.484-.664-.45-.39-.527-.505-.324-.25-.309-.336-.957-.375-.324-.465-.36-.503-.066-.497-.226-.253-.285-.391-.215-.402.27-.461.038-1.09-.406-.262-.035-.676-.813-.394-.02-.301.052-.188-.125-.828-1.332-.386-.559-.282-.215-.605-.332-.887-.539-1.097.113-.54-.11-.261-.062-.07-.003.03-.086.008-.407-.382-.879-.84-.859.043-.324-.024-.254-.32-.344-.172-.387-.238-.152-.246-.285-.153-.473-.386-.066-.172-.305-.168.059-.203.027-.512-.05-.34.054-.582-.281.028-.043.101-.438-.152-.394-.653-1.274-.203-.296-.199-.7-.246-.5-.402-.36-1.09-1.066-.617-.12-.676-.602-.043-.278-.5-.636-.258-.606-.137-.125-.23-.457-.11-.336.102-.187.527-.27.27.047.316.067.637.312.563-.023.328-.38-.153-.234-.367-.207-.289-.183-.914-.844-.582-.629-.59-1.055-.437-.336-.711-.722.129.058 1.043.04.191-.032.164-.094 1.211-1.308-.313-.426.004-.25-.343-1.332-.278-2.242.02.008.133.011.004-.039.117-.257.207-.04.195-.015.332.078 1.23.758.254.238.418.156.165.075.43.222.48.309.164-.031.25.18.234.12.293.239.7.546.011-.105.285-.969-.086-.828-.031-1.262-.106-.152-.218-.016-.551-.457-.074.067-.418-.098-.489-.39-.527-.329-.586-.867-.48-.582-.258-.617.066-.938-.078-.394.762-.54.258-.788.199-.7.164-.042.406-.055.367.254.25.226.313-.039.137.082.11.024.245.207.48.07.282-.078.203.004.543.18.457-.125.172-.395 1.074-.05.375-.352.828.476.82.63.762-.38.531-.015.56-.352.128-.515 1.02-.415.843.313.692.148.008-.246-.102-.476-.262-.856.238-.847.11-.227-.059-.441-.004-.184-.082-.484-.101-.145-.2-.156-.359-.313-.152-.484.16-.352.098-.023.004.004.453.281.707-.086.113-.031.004.004.164-.102v-.004l.32-.789-.511-.953.171-.347.282-.223-.008-.406-.027-.313-.348-.875-.035-.265-1.008-1.715-.203-.575-.168-.203-.172-.64-.07-.367.12-.497.462-.062 1.023.14.473.16.203.016.36.086 1.245.176 1.778 1.113.472.114.645-.532.265-.515.157-.117.066-.043.38.05.597.344.437.535 1.793.926.262.004.676.105.851.227.453-.379 1.032-.601.91-.153.418-.328.617-.117.277-.102.813.082 1.554.278.34.144.465-.097.293-.594.488-.899.067-.808.273-.215.317-.746 1.257.23.81-.035 2.3-.96.418.03.367-.269.328-.324.11-.34.058-.293.602-.14.34-.048.863-.308.031-.496.031-.274-.136-.699-.047-.344-.16-.465-.383-.695-.192-.336-.582-.797-.101-.68.02-.761-.184-.223-.239-.316-.109-.82.582-.207.453.125.434.32.168-.64-.094-.333.105-.355.079-.121-.032-.356-.777-1.597-.3-.356-.095-.207.032-.016.16-.425.21-.512.74-.996.425-1.274-.04-.379.423-.21.402-.7.105-.34.235-.453.164-.609.285-.887-.121-.43-.086-.242.16-.324.399.098.289.086.183-.332.117-.703.118-.211.27-.184.062-.55-.117-.305-.063-.223.246-.594-.066-.375-.117-.367.07-.277.09-.157.164-.382.52-.118.741.621.247-.117.03-.343.114-.875-.078-.352-.207-.813-.059-.554-.535-.719-.074-.281.203-.309-.074-.191-.262-.446-.2-.753-.327-.594.035-.192.144-.625-.042-.722-.235-1.336.371-.176.246-.05.25-.055-.312-.75-.164-.434-.219-.926-.398-.422-.395-.359-.828-.574-.14-.371-.012-.215.058-.008.403.043-.008-.023.351-.704.2-.293.585-.011.977.363.184-.066.093-.317-.086-.336-.273-.52-.031-.581.293-.282.238-.21.152-.075.41.137.598.023.2-.05.429.043-.133-.114-.113-.32-.05-.406-.485-.582-.13-.192-.136-.683-.348-.832-.503-.332-.676-.39-.203-1.208.066-.27-.441-.417-.485-.278.102-.12.18-.79-.625-.555-.387-1.148-.184-.211-.078-.375.059-.012.367-.015.555-.336.453-.016.965-1.125.664-2.207.293-.234.23-.672 1.063.273.464-.324 1.235.105.285.016.293.008 1.39.375.16-.125.087-.426-.004-.18.066.032.215-.032.176-.093.133.05.34.332.69-.351.204-.211.285-.18-.062-.355.07-.008.223-.21-.086-.192-.235-.297-.8-1.38-.153-.323.004-.364.063-.277-.016-.133.445-.097.16-.22.164-.292.059-.3-.035-.24-.195-.402.144-.484-.059-.277h.032l.883-.059.804.45.016-.028.23-.215.059.063.496.191.43.031.258.059.343-.387v-.39l-.066-.555.527-.242.52-.082.148-.094.25-.188.61-.39.347-.238.512.085.41-.02.098-.487.242-.211 1.324.289.172.078.719.46.71-.007.653.262.477-.168.218-.586.18-.438.16-.238.176-.289.473.105 1.074.403 2.18 1.465.27.523-.048.332-.234.25-.36.121-.18.082.055.32.309.188.578.238.348.094.445-.02.52.22.683.476.399.008.257.187.157.23.023-.148.063-.738.504-.473.57-.328.812.598.149.222.222.223.243.164.703.192.547.336.488-.204.312-.367.192-.5.379.051 1.129.61.246.277 1.676.797-.11.097-.058.172.203.242.36.438-.048.312-.222.496-.192.278.09.16.172.281-.082.531.2.23.01.368.481.414.332-.07 2.18.89.762-.5 1.215.047 1.132.305.02-.09.168-.305.906-.234.684.48.203.297.023.184-.125.762.106.472.086.317.09.215.23.515.059.203-.329.223-.218.453-.192.242-.386-.129-.332-.07-.188.149-.078.289-.305.394-.183.035-.145.739.305.457-.102.687.883 1.559.094.883.488.773.48.629.235.77.05.374.243.551.133.363.226.243 1.145.425.66.122.496.105-.012.047.118.543.464 1.969-.168.28-.05.063.066.352.117.289-.265 1.117-.106.38.168.343.016.426 1.058 2.738.164.273.555-.058.906-.7 1.508.247 1.246.757.207.008.41.399.368.449.75 2.855-.235.621.29 1.575-.005.312-.047.375.512 1.012.13.316-.071.395.066.246-.004.148-.195.024-.098.027.008.031.024.633-.09.313.14 2.031h-.047l-.035.02.016.035.11.386.183.914.101.54.008.468.032.29-.067.359.192.48.71 1.254.141.59.309.309.351.019.281.004.497.137.312.062.567.012.374-.016.235-.613.379-.191.207.07 1.34 1.316.504.278.41.367.199.355 1.14.57.481.094.516.223.32-.04.27.044.593.46.254.29.363-.09.188-.094.23-.136v-.188l.012-.226.465-.454.2.102.48.508.875.77.25.156.297-.063.347-.156.293.023.457-.336 2.145.778.695.406.344.121.136 1.188-.128.152-.282.258-.093.246.246.496.187.285.336.105.207.04.367-.114.457-.226.262.14.2.207.699.637.355.11.262.269-.168.527.02.352.546 1.277.66.524.559.3.14.153.051.531.137.285.184.371-.192.426-.156.387-.035.64 1.476.54.618.726.128.242.282.457.222.114.246-.094.442.172.308.168.973.5.242.398.371.258.371.437.16.168-.347 1.754.527.313.41.414.286.457 1.187 1.129 1.3.254.325.18.176.542-.219.297-.148.223.144.66.028.43.125.347.464.493.598.593.14.922-.081.38.726.44.57.239 1.145 1.91.418.355-.039.446.227.699.859 2.457.883 1.676.203.535.32.633.043.96.403.348-.16.508.402.215.441.055.258.28.566 1.9.93 1.117.106.48.265.566.254.317.043.215-.137.593.063.614.273.609.106.856.394.39 1.488.715.934 1.078.203.242.309.516.508.785.148.207 1.02.371.523.043.344-.152.215.09.375.308.66.336.414.324.39.418.512.895.852 1.3.656.387.727.68.304.414.649.82.722.922.317.43-.067.195.094.356.43.64 1.937 1.653-.902 2.133-.715.066.188 1.773-.07.52-.126-.086-.316-.133-.012.059.074.305.301.687-.066.14-.051-.042-.152.09-.086.05.004.004.011.36-.058.296.05.262-.101 1.25-.02.14.164.497.239.805.21.171.313.735.363 1.187-.039 1.524-.273.683-.07.364-.11.609.004.234-.035.16.133.543.328.817.402.68.305.718.25.418-.047.332-.058.66-.227.915-.211.21-.258.352-.058.3-.227.184-.191.446-.18.254.18.402-.075.18-.082.144.02.02.039.133-.012.011-.031.125.008.2.117.285-.137.222-.113.188-.234.137.02.289-.212.066-.176.027-.226.332-.324.055.007.035-.011.156-.055-.027-.184.035.008.028.114.414-.309.21-.16.122-.133.285.027.137-.09.175.028.024.094.137h-.063v.183l-.09.094-.238.008.004.03.012.212-.864.23.012.149-.094-.004-.113.043.008.039-.047.379-.18.082.024.043.226.226-.039.328-.222.247.078.164.175.226-.16.246-.125.098-.03.305-.524.457-.301-.051-.594.45-.21.128-.349.113-.023.196-.242.523-.117.008-.403.07-.707.215-.148-.012-.324-.125-.196.137-1.226-.375.015.086.297.656.246.278.262-.016.168.02.184.273.05.09-.148-.067-.16-.03-.02.065.082.239.356.312.094.13-.016.195.098.445-.082.18.011.011.153.25-.141.504-.102.2-.023-.016-.41-.285-.05.273-.345.508-.355-.004.023.168.266.57-.211.227.137.383-.188.273.043.031.203.375-.035.43.227.305-.04.03-.171.434.136.45.036.265.175.59-.043.75.079.238-.184-.011-.172.09.086.214-.02.145-.269.309-.434.52-.32-.075-.008.027.067.14.238.376-.012.012-.488.093-.195.082-.282.106-.074.566-.258.524.13.382-.048.418.536.88.105.577.617.614.88.328.23-.028.71.211v-.066l.13-.316.195.03.484.282.11.258.238.355.156.032.246-.203.316.18.247.12.394.121.094.118.047.382.87.442.306.46.511.157.406-.035.868.277.488.38.004.21-.246.113-.32.102.019.129.344.12.656.118-.027-.242.101-.164.242.183.313.418.031-.02.524-.265.843.13.133-.442.172.097.23.524.032.508.664.445-.063.078-.215.223.442 1.828.3.305.239.304-.121.121-.153.223.106.254.668.558.238-.105.227.145-.031.25-.172.554.785.371.324.164.223 1.141.113.379.012 1.09-.543.414-.375-.031-.492-.118-.512.02-.59-.035-.309.226.215 1.672-.11.106-.487.039-1.438-.598-.383.117-.508-.144-1.847-.348.02.05.171.438-.11.106-.542-.098-.453-.097-.446-.184-.394-.043-.14.336-.18.457-.325.11-.113.28.137.946.492 1.863.242.328.488.531.399.27 1.414.238.55.356 1.208 1.496.219.902-.282.008-.422-.273-.691-.582-.59.035-.14.234-.633 1.77-.305.058-.715-.094-.094.133.075.16" style="stroke:none;fill-rule:nonzero;fill:#908e96;fill-opacity:1"/></g><g clip-path="url(#d)"><path d="m156.89 182.648.356.66.328.657.414.879.645 1.613-.106.242-.422.313-.527.234-.738.48-.262.262-.883.723-.093.129-.262.156-.442.367-.445-.117-.648-.465-.578-.66-.247-.5-.511-.379-.692-.36-.414.005-.46.32-.4.266-.358.183-.32.422v.84l-.298.328-.71.668-1.43 1.145-.762.3-.684.38-.46.714-.223.406-.25-.125-.403-.242-1.39.82-.203.192-.473.137-.531.132-.922.747-.234.378-.446.438-.379.363-.558.621-.317.371-.73 1.442-.39.476-.489.59-.422.887-.398.5-.332 1.05-.137 1.47-.098.3.047.39-.297.321-.594.18-1.277-.3-.808-.29-.364-.164-.61-.145-.3.336-.25.598-.23-.043-1.043-.543-.297.07-.242.29-.098.296-.02.993-.285.457-.824.132-1.133-.382-.808-.504-.762.02-.273.124-.641-.035-.477-.195-.879-.54-.39-.023-.871.29-.297.765-.399.117-.652-.21-.828-.4-.613.188-.164.238-.051.235.187.95.352.667.18.227.148.664.605.504.426.058.457-.113.305-.184.363-.504.196-.84.293.016.476.254.508.281.465.645.156.492.031.52-.172.37-.605.598-1.266.961.2.59.761 1.488.309 1.192-.38 1.422-.28.125-.184.175-1.84 1.055-.746.117-.91-.972-.328-1.285-.035-.5-.52-.29-.008-.695-.093-.512-.407-.793-.226-.085-.227-.208-.328-.25-.227-.39.536-.563.03-.152.313.031.551-.414.274.078-.29-.41-1-.722-.656-.043-.312-.192-.086-.586.05-.57.255-.2-.063-.34-.559-.839-1.445-1.246-.578-.223-.148-.074-.766-1.059-.309-.43-.398-.054-.012.04-.222.573.14.645-.023.004-.114.226-.062.164h-.11l-.035-.586-.257-.488-.442-.738-.008-.074-.246-.54.262-.39.352-.406-.95-1.567-.285-.117-.136.008-.348-.3-.774-.18-.152.171-.418.149-.336-.09-.043-.656-.336-.176-.469.023-.351-.23-.398-.399-.458-.48.047-.117.188-.168.043-.106.074.012.266-.078.062-.29-.219-.358-.246-.458.114-.125.558.012v-.02l-.168-.37-.219-.336-.156-.176-.062-.246.09-.18h.015l.38-.238.07-.192-.368-.765-.027-.281-.043-.102-.145-.031.024-.067-.07-.086.097-.007.184-.102-.031-.031-.02-.133.094-.285-.02-.192-.226-.359-.067-.582h-.015l-.317-.008-.699-.3-.297-.083-1.793-.074-.723-.016-.074.09-.168.258-.125.27-.36-.25-.19-.403-.067-.054-.41.035-.555.027-.39-.14-.266-.2h-.637l-.355-.191-.242.004-.114-.13-.066.063-.305.368-.094.277-.046.156-.125.305-.368.152-.183.242-.145-.093-.312-.246-.024.027-.129-.035-.335-.024-.114.075.008-.106.012-.539.027-.332-.035-1.02.05-.113-.085-.207.07.012.113-.156-.382-.457-.102-.172-.387-.348-.945-1.066-.176-.723-.344-.484-.855-.871h-.262l.086-.168.438-.07 1.441.503.137-.043.027.035.207.055.461.004.195.07.098.008.309-.012.851.606.309.004.242.05.211-.562.504-.082.27-.27.046.012.012-.031.11-.203.472-.172.543-.106.129-.07.016.012.64.008 1.18-.313.3.035.176.086.297.184 1.145.258.328.293.586.386.465.133.574.121.14-.242.872.098.394.273.602.121.12-.004.016-.027.083-.234-.489-.477-.48-1.402-.192-.27.055-.398.117-.094 1.11.082.316.031.461.012.2-.078.593.164v-.008l.004-.297.055.028.359.25.234-.172.016.09.21.187.52.211.293.004.254.043.016-.047.172-.125.008.004.226.168.137-.153-.098-.464h.016l.363.168-.07.132-.04.13.235.097.504.086.262.195.261-.031.34.25.114-.125-.016-.023.004-.38.129-.218.043-.152.152-.16.168-.188.125-.106.719-.62.129-.051.152-.188.113-.152.086.07.258-.016.191-.035.2.043.043-.105-.02-.078.102.043.574.03.203-.241.426.254.234-.098.215-.11.523.13.313-.16.23-.173-.027-.097-.039-.012-.207-.71-.02-1.747.024-.371-.188-.742-.12-.407.574-1.566.074-.203.101-1.418.075-.324.03-.168.11-.055.266.082.004-.07.015-.176.063-.004-.059-.113-.097-.156-.188-.743.023-.004-.015-.125-.223-.445-.12-.207-.263-.219-.23-.332.055-.214.015-.25-.047-.305v-.246l.086-.153.094-.484.04-.14-.099-.028-.796-.605-.22.07-.073.367.195.16.453.239.125.351-.191.082-.418-.101-1.168-.391-.293.012-.235-.297-.418-.899-.265-.093-.39-.036-.337.098-.406-.027-.637-.485-.203-.27-.098-.003-.164.262-.379-.13-.289-.113-.406.07-.437.286-.48-.227-.247-.328-.34-.39-.347-.024-.73 1.086-.18-.086-.622-.27-.324.005-.308-.325.148-.445-.57-.332-1.707-.57-.352.34-.223.058-.18-.074-.261-.574-.203-.004-.59.43-.508.152-.105.273.039.14.183.349-.07.289-.36.046-.386-.18-.086-.257-.012-.29-.293-.233-.277-.004-.144.175.171.317.383.57-.043.473-.02.004-.55-.043-1.676-.942-.222-.054v.004l-.274.39-.71.098-.345-.23-.789-.837-.316-.093-.367-.13-.344-.304-.832-1.148-.54-.582-.64-.45-1.097-.422-.223.07v.009l.234.394.075.25-.102.02-.313-.192-.304-.254-.61-.007-.023.289.23.117.239.148.054.215-.16.082-.511-.238-.61-.59-.168-.215-.625-.289-.476-.402-.364-.524-.175-.101-.133.113-.508.324-.352-.097-.464-.125-.18.16-.403-.328-.562-.47-.117.145.039.325-.145.386-.222-.043-.176-.203-.129-.27.145-.269-.07-.129-.49-.324-.272.043-.204.234-.16.305-.695 2.293-.442.094-.12.234-.032.102-.07-.035-.43-.383-.535.238-.207-.476-.125-.336-.14-.457-.008-.407-.325-.011-.254-.012-.546-.36.02-.152.214-.754-.23-.05-.313-.02-.492-.465-.11.156-.105.352-.164.14-.836.141-.926-.898-1.27.093-.304-.16.117-.5-.234-.363-.485-.387-.097.07-.055.399.023.422-.168.098-.375-.067-.832.762-.261-.113-.594.132-.246-.433-.223-.688-.312-.148-.203.105.129.293.082.309-.024.226-.094.317-.101.383-.196.062-.132-.199-.028-.441-.425-.407-.72-.687-.5-.145-.175.13-.098.362.336.282.215.05.14.07-.058.259-.191.27-.547.155-.29-.078-.44-.18-.13.153-.277.601-.601-.242-1.2-.668-.57-.437-.394.133-.278.156-.222.375-.868-.754.301-.535-.176-.192-.16-.312.137-.195.23-.157.301-.18.297-.148.395-.683.128-1.063.59-1.125.04-.191.117-.485.136-.109.41.11.457.304.997.387 1.085.883.598.203.371.168.336-.27.403.121v-.008l.199-.375.254-.078.379-.215.226-.02.234-.62.415.101.12.192.383.039.801-.238.469.129.195.05.055-.261-.074-.309h.226l.313.05-.149-.413-.132-.344-.012-.274.043-.007.41-.086.348-.188.453-.668.035-.23-.059-.301-.09-.348.012-.46-.36-.712-.452-.183-.508-.711-.36-.07-.214-.438-.332.024-.223-.09-.414-.477-.293-.367-.457.164-.906-.266-.121-.207.07-.476-.25-.125-.172-.067-.078-.277-.106-1.668-.351-.574.016-.012.308.008.207-.055.063-.238.035-.41.133-.406.53-.391-.046-.035-.625-.89-.188-.27-.585-.192-.305-.136-.317-.313-.003-.465v-.398l-.504-.406-.254-.125-.344-.387-.215-.54-.168-.433-.289-.12-.476-.227-.293-.016-.395.078-.441.344-.004-.008-.496-.332-.266-.094-.344.043-.957-.715-.054-.05-.04.078-.132-.04-.188.079-.008.164-.066.219-.203.449-.04.172-.488.257-.226.168-.328.016-.492-.484-.68-.172.016-.031.078-.672-.043-.473-.137-.145-.387-.183-1.082.113-.32-.11-.242.384-.102.289-.547.093-.183-.226-.489-.395-.261.145-.32.09-.286.328-.355-.024-.348-.53-.18-.376-.375-.36-.261-.113-.266-.37-.297-.419-.246-.203-.238-.215-.438-.207-.222-.246-.762-1.02-.461-.679-.262.332-.093.082-1.387-1.394-.168-.055-.137-.258-.203-.555-.574-.554-.04-.094-.195-.258-.117-.191-.648-.426-.114-.09-.19-.012-.005.055-.12.316-.052-.015-.097.035.007.04-.117.065-.183-.011-.43.387-.79.105-.202-.059-.207-.097h-.383l-.535-.239-.258-.117-.234-.215-.309-.28-.184.089-.566.477-.852.085-.238.204-.363.004-.113-.067-.016.086-.164.266-.074.035-.024-.067-.285-.351-.07-.176-.098-.273-.375-.36-.36-.152-.445-.102-.316-.511-.285-.27-.566-.883-.274-.183-.187-.055-.188-.047-.316-.285-.22-.035-.237-.098-.258-.117-.238-.547-.645-.598-.137-.164-.05-.218-.497-.391-.464-.457-.2-.188-.3-.507-.145.011-3.05-2.53-.06.089-.3.469-.09.164-.187.172-.11.226-.289.352-.02-.016-.363-.449-.34-.387-.222-.261-.309-.258-.207-.102-.012.05-.925 1.571-.227.594-.621.066-.492-.789-.219.121-.195.024-.102.086-.203.27-.723.136-.765-.437-.414-.192-.028-.406-.16-.715-.12-1.082-.184-.117-.266-.004-.633-.836-.363-.484-.664-.45-.39-.527-.505-.324-.25-.309-.336-.957-.375-.324-.465-.36-.503-.066-.497-.226-.253-.285-.391-.215-.402.27-.461.038-1.09-.406-.262-.035-.676-.813-.394-.02-.301.052-.188-.125-.828-1.332-.386-.559-.282-.215-.605-.332-.887-.539-1.097.113-.54-.11-.261-.062-.07-.003.03-.086.008-.407-.382-.879-.84-.859.043-.324-.024-.254-.32-.344-.172-.387-.238-.152-.246-.285-.153-.473-.386-.066-.172-.305-.168.059-.203.027-.512-.05-.34.054-.582-.281.028-.043.101-.438-.152-.394-.653-1.274-.203-.296-.199-.7-.246-.5-.402-.36-1.09-1.066-.617-.12-.676-.602-.043-.278-.5-.636-.258-.606-.137-.125-.23-.457-.11-.336.102-.187.527-.27.27.047.316.067.637.312.563-.023.328-.38-.153-.234-.367-.207-.289-.183-.914-.844-.582-.629-.59-1.055-.437-.336-.711-.722.129.058 1.043.04.191-.032.164-.094 1.211-1.308-.313-.426.004-.25-.343-1.332-.278-2.242.02.008.133.011.004-.039.117-.257.207-.04.195-.015.332.078 1.23.758.254.238.418.156.165.075.43.222.48.309.164-.031.25.18.234.12.293.239.7.546.011-.105.285-.969-.086-.828-.031-1.262-.106-.152-.218-.016-.551-.457-.074.067-.418-.098-.489-.39-.527-.329-.586-.867-.48-.582-.258-.617.066-.938-.078-.394.762-.54.258-.788.199-.7.164-.042.406-.055.367.254.25.226.313-.039.137.082.11.024.245.207.48.07.282-.078.203.004.543.18.457-.125.172-.395 1.074-.05.375-.352.828.476.82.63.762-.38.531-.015.56-.352.128-.515 1.02-.415.843.313.692.148.008-.246-.102-.476-.262-.856.238-.847.11-.227-.059-.441-.004-.184-.082-.484-.101-.145-.2-.156-.359-.313-.152-.484.16-.352.098-.023.004.004.453.281.707-.086.113-.031.004.004.164-.102v-.004l.32-.789-.511-.953.171-.347.282-.223-.008-.406-.027-.313-.348-.875-.035-.265-1.008-1.715-.203-.575-.168-.203-.172-.64-.07-.367.12-.497.462-.062 1.023.14.473.16.203.016.36.086 1.245.176 1.778 1.113.472.114.645-.532.265-.515.157-.117.066-.043.38.05.597.344.437.535 1.793.926.262.004.676.105.851.227.453-.379 1.032-.601.91-.153.418-.328.617-.117.277-.102.813.082 1.554.278.34.144.465-.097.293-.594.488-.899.067-.808.273-.215.317-.746 1.257.23.81-.035 2.3-.96.418.03.367-.269.328-.324.11-.34.058-.293.602-.14.34-.048.863-.308.031-.496.031-.274-.136-.699-.047-.344-.16-.465-.383-.695-.192-.336-.582-.797-.101-.68.02-.761-.184-.223-.239-.316-.109-.82.582-.207.453.125.434.32.168-.64-.094-.333.105-.355.079-.121-.032-.356-.777-1.597-.3-.356-.095-.207.032-.016.16-.425.21-.512.74-.996.425-1.274-.04-.379.423-.21.402-.7.105-.34.235-.453.164-.609.285-.887-.121-.43-.086-.242.16-.324.399.098.289.086.183-.332.117-.703.118-.211.27-.184.062-.55-.117-.305-.063-.223.246-.594-.066-.375-.117-.367.07-.277.09-.157.164-.382.52-.118.741.621.247-.117.03-.343.114-.875-.078-.352-.207-.813-.059-.554-.535-.719-.074-.281.203-.309-.074-.191-.262-.446-.2-.753-.327-.594.035-.192.144-.625-.042-.722-.235-1.336.371-.176.246-.05.25-.055-.312-.75-.164-.434-.219-.926-.398-.422-.395-.359-.828-.574-.14-.371-.012-.215.058-.008.403.043-.008-.023.351-.704.2-.293.585-.011.977.363.184-.066.093-.317-.086-.336-.273-.52-.031-.581.293-.282.238-.21.152-.075.41.137.598.023.2-.05.429.043-.133-.114-.113-.32-.05-.406-.485-.582-.13-.192-.136-.683-.348-.832-.503-.332-.676-.39-.203-1.208.066-.27-.441-.417-.485-.278.102-.12.18-.79-.625-.555-.387-1.148-.184-.211-.078-.375.059-.012.367-.015.555-.336.453-.016.965-1.125.664-2.207.293-.234.23-.672 1.063.273.464-.324 1.235.105.285.016.293.008 1.39.375.16-.125.087-.426-.004-.18.066.032.215-.032.176-.093.133.05.34.332.69-.351.204-.211.285-.18-.062-.355.07-.008.223-.21-.086-.192-.235-.297-.8-1.38-.153-.323.004-.364.063-.277-.016-.133.445-.097.16-.22.164-.292.059-.3-.035-.24-.195-.402.144-.484-.059-.277h.032l.883-.059.804.45.016-.028.23-.215.059.063.496.191.43.031.258.059.343-.387v-.39l-.066-.555.527-.242.52-.082.148-.094.25-.188.61-.39.347-.238.512.085.41-.02.098-.487.242-.211 1.324.289.172.078.719.46.71-.007.653.262.477-.168.218-.586.18-.438.16-.238.176-.289.473.105 1.074.403 2.18 1.465.27.523-.048.332-.234.25-.36.121-.18.082.055.32.309.188.578.238.348.094.445-.02.52.22.683.476.399.008.257.187.157.23.023-.148.063-.738.504-.473.57-.328.812.598.149.222.222.223.243.164.703.192.547.336.488-.204.312-.367.192-.5.379.051 1.129.61.246.277 1.676.797-.11.097-.058.172.203.242.36.438-.048.312-.222.496-.192.278.09.16.172.281-.082.531.2.23.01.368.481.414.332-.07 2.18.89.762-.5 1.215.047 1.132.305.02-.09.168-.305.906-.234.684.48.203.297.023.184-.125.762.106.472.086.317.09.215.23.515.059.203-.329.223-.218.453-.192.242-.386-.129-.332-.07-.188.149-.078.289-.305.394-.183.035-.145.739.305.457-.102.687.883 1.559.094.883.488.773.48.629.235.77.05.374.243.551.133.363.226.243 1.145.425.66.122.496.105-.012.047.118.543.464 1.969-.168.28-.05.063.066.352.117.289-.265 1.117-.106.38.168.343.016.426 1.058 2.738.164.273.555-.058.906-.7 1.508.247 1.246.757.207.008.41.399.368.449.75 2.855-.235.621.29 1.575-.005.312-.047.375.512 1.012.13.316-.071.395.066.246-.004.148-.195.024-.098.027.008.031.024.633-.09.313.14 2.031h-.047l-.035.02.016.035.11.386.183.914.101.54.008.468.032.29-.067.359.192.48.71 1.254.141.59.309.309.351.019.281.004.497.137.312.062.567.012.374-.016.235-.613.379-.191.207.07 1.34 1.316.504.278.41.367.199.355 1.14.57.481.094.516.223.32-.04.27.044.593.46.254.29.363-.09.188-.094.23-.136v-.188l.012-.226.465-.454.2.102.48.508.875.77.25.156.297-.063.347-.156.293.023.457-.336 2.145.778.695.406.344.121.136 1.188-.128.152-.282.258-.093.246.246.496.187.285.336.105.207.04.367-.114.457-.226.262.14.2.207.699.637.355.11.262.269-.168.527.02.352.546 1.277.66.524.559.3.14.153.051.531.137.285.184.371-.192.426-.156.387-.035.64 1.476.54.618.726.128.242.282.457.222.114.246-.094.442.172.308.168.973.5.242.398.371.258.371.437.16.168-.347 1.754.527.313.41.414.286.457 1.187 1.129 1.3.254.325.18.176.542-.219.297-.148.223.144.66.028.43.125.347.464.493.598.593.14.922-.081.38.726.44.57.239 1.145 1.91.418.355-.039.446.227.699.859 2.457.883 1.676.203.535.32.633.043.96.403.348-.16.508.402.215.441.055.258.28.566 1.9.93 1.117.106.48.265.566.254.317.043.215-.137.593.063.614.273.609.106.856.394.39 1.488.715.934 1.078.203.242.309.516.508.785.148.207 1.02.371.523.043.344-.152.215.09.375.308.66.336.414.324.39.418.512.895.852 1.3.656.387.727.68.304.414.649.82.722.922.317.43-.067.195.094.356.43.64 1.937 1.653-.902 2.133-.715.066.188 1.773-.07.52-.126-.086-.316-.133-.012.059.074.305.301.687-.066.14-.051-.042-.152.09-.086.05.004.004.011.36-.058.296.05.262-.101 1.25-.02.14.164.497.239.805.21.171.313.735.363 1.187-.039 1.524-.273.683-.07.364-.11.609.004.234-.035.16.133.543.328.817.402.68.305.718.25.418-.047.332-.058.66-.227.915-.211.21-.258.352-.058.3-.227.184-.191.446-.18.254.18.402-.075.18-.082.144.02.02.039.133-.012.011-.031.125.008.2.117.285-.137.222-.113.188-.234.137.02.289-.212.066-.176.027-.226.332-.324.055.007.035-.011.156-.055-.027-.184.035.008.028.114.414-.309.21-.16.122-.133.285.027.137-.09.175.028.024.094.137h-.063v.183l-.09.094-.238.008.004.03.012.212-.864.23.012.149-.094-.004-.113.043.008.039-.047.379-.18.082.024.043.226.226-.039.328-.222.247.078.164.175.226-.16.246-.125.098-.03.305-.524.457-.301-.051-.594.45-.21.128-.349.113-.023.196-.242.523-.117.008-.403.07-.707.215-.148-.012-.324-.125-.196.137-1.226-.375.015.086.297.656.246.278.262-.016.168.02.184.273.05.09-.148-.067-.16-.03-.02.065.082.239.356.312.094.13-.016.195.098.445-.082.18.011.011.153.25-.141.504-.102.2-.023-.016-.41-.285-.05.273-.345.508-.355-.004.023.168.266.57-.211.227.137.383-.188.273.043.031.203.375-.035.43.227.305-.04.03-.171.434.136.45.036.265.175.59-.043.75.079.238-.184-.011-.172.09.086.214-.02.145-.269.309-.434.52-.32-.075-.008.027.067.14.238.376-.012.012-.488.093-.195.082-.282.106-.074.566-.258.524.13.382-.048.418.536.88.105.577.617.614.88.328.23-.028.71.211v-.066l.13-.316.195.03.484.282.11.258.238.355.156.032.246-.203.316.18.247.12.394.121.094.118.047.382.87.442.306.46.511.157.406-.035.868.277.488.38.004.21-.246.113-.32.102.019.129.344.12.656.118-.027-.242.101-.164.242.183.313.418.031-.02.524-.265.843.13.133-.442.172.097.23.524.032.508.664.445-.063.078-.215.223.442 1.828.3.305.239.304-.121.121-.153.223.106.254.668.558.238-.105.227.145-.031.25-.172.554.785.371.324.164.223 1.141.113.379.012 1.09-.543.414-.375-.031-.492-.118-.512.02-.59-.035-.309.226.215 1.672-.11.106-.487.039-1.438-.598-.383.117-.508-.144-1.847-.348.02.05.171.438-.11.106-.542-.098-.453-.097-.446-.184-.394-.043-.14.336-.18.457-.325.11-.113.28.137.946.492 1.863.242.328.488.531.399.27 1.414.238.55.356 1.208 1.496.219.902-.282.008-.422-.273-.691-.582-.59.035-.14.234-.633 1.77-.305.058-.715-.094-.094.133.075.16" style="fill:none;stroke-width:.25;stroke-linecap:butt;stroke-linejoin:miter;stroke:#fff;stroke-opacity:1;stroke-miterlimit:10"/></g></svg>