<svg viewBox="0 0 198.882 217.44" xmlns="http://www.w3.org/2000/svg"><defs><clipPath id="a"><path d="M0 .441h199v217H0Zm0 0"/></clipPath></defs><path d="m92.754 88.645.23.285.461.066.262.094.648.879.836.16.977.031.137-.355.238-.22.219-.151.304-.153.746.977.356.605.176.223.668.887.207.261.496.579.504 1.273.832.172.238.055.445.382.176.02.59-.414.18-.16.082-.137.031-.41.031-.957.727-.707.156-.137.117-.195.207-.262.133-.164.023-.254-.03-.176.062-.008.308-.097.168-.485.418-.05.102.09.469 1.148.214.508.395.324-.016.308-.07.383.063.504.02.113.495 1.153.246.394.203.227.508.687.383.965.281.078.012-.043.074-.117.25-.047 1.512.18.719.457.449.2.16.187.043 1.242.031.434.059.668.144.902.274.144.41.317.477.469.488.23.332.629.101.195.059.418.754 1.371.531.243.285.359.508.531.254.723.082.566.176.64.047.24-.469.608-.496.36-.211.05-.648.243-.165.375-.218.496.168.43.152.336.031.226.078.418-.418.723-.125.113-.175.3-.254.403.195.074.133.032.406.324.012.324-.192.508.34.347.45.376.386.808.137.535.512.559 1.48.828.438.242.347.133.461.445-.02.465.008.39-.05.274-.336.61-.223-.165-.348.231-.097.07-.434.516-1.75.281-.422.242-.406.27-.25-.137-.637-.226-1.023-.125-.453.039-.38-.106-.687.028-.218.367-.16.117-1.02.039-.129.266-.164.3-.277.418.207.418.058.235-.062.004-.137-.008-.168.094-.195.082-.29-.008-.304.148.063.453.164.438-.114.191-.023.102.004.015.222.137.204.34.062.457.133.379-.055.414.067.687-.055.207-.074-.039-.891-.445-.496-.152-.094-.012-.547-.352-3.168-.988-.34.176-.273.008-.203.137-.441.222-.36.059-.512-.36-1.082-.546-.394.12-.188.051-.488.145-.191-.488-.493-.504-.097-.059-.043.102-.625.441-.149.031.024.075.32.64.219-.008-.098.11-.351.484-.645-.113-.48.492-.688.117-.297-.25-.25.004-.117.063.043.074.102.945-.39.383-.517.125-.546-.074.003.082.262.605.086.196-.242.632-.176.055-.512.617-.066.133-.14.266-.368-.34-.375-.137-.168-.23-.222.054.03.45-.401.796-.016.196-.195.082-.165-.02.02.09-.098.375.278.625-.102.356.07.535-.449.023-.074.102-.074.18-.25.187-.313 1.07-.043-.015-.257.023v.184l.043.386.101.305.648 1.098-.136.105-.23-.027-.415.293-.242.187-.453.809.02.547-.731.105-.52.34-.43-.277-.331-.18-.324-.023-1.438-1.043-.348-.637-.066-.32-.238-.274.015-.16.024-.305-.328-.37-.157-.184-.3-.383-.266-.235-.25-.183-1.344-.777-.242-.262-.148-.215-.047-.652.015-.145-.05-.504.015-.148-.281-.715-.152-.227.074-.52-.41-.5-.078-.323-.047-.121-.032-.16.102-.055.14-.012.012-.047.059-.172-.086-.554-.094-.286-.738-.996-.871-.437-.32-.2-.008.083.004.027-.067-.04-.699-.452-.355-.035-.48-.262-.22-.145-.449-.586-.668-.52-.558-.476-.793-.277-.215-1.18-.66-.554-.473-.223-.152-.215-.989-.305-.117.004-.32-.035-.235.05-.375-.023-.265-.011-.457-.73-.375-.278-.196-.82.223-.563-.113-.266.187.036.266-.356-.059-.625-.113-.582-.234-.414-.07.043-.133-.086-.57-.71-.032.027-.266.02-.308-.177-.739-.59-.44-.246-.536-.332-.164.14-.11.017-.808-.98-.078-.227-.39-.29-.462-.195-.16-.422-.144-.238-.254-.5-.13-.355-.046-.668.277-.004.102-.106-.051-.25.691-.23.13.058.59.063.234-.047.105-.2-.11-1.198.364-.32.215-.5.117-.579-.356-.57.141-.067.078-.222.082-.09.156-.778.079-.214.425-.035.336-.407.368-.238.093-.48-.156-.532-.125-.36-.04-.179-.577-1.035-.559-2.227-.207-.355-.008-.207.125-.824-.46-.992-.06-.922-.241-.575-.118-.683-.203-.563.098-.39.117-.38.242-.136.618.102.53-.075.348-.035.274-.316.008-.192.246-.785-.051-.355.14-.121.15-.188-.005-.265-.164-.184-.062-.086.132-.25.579-.031.406.101.445.032.176-.145.27.059.351.351.047.102.433.605.016-.074.348-.64.312.058.153-.094.53-1.265.458-.125.738.386.028.075.359-.176.355-.266.446.055.23-.016.48.168.356.305.586.934.375.546.54.399.32-.188.175-.437.149.02.296-.141.094-.137.246.02.14.062.009-.02.156-.288.785.769.512.422.121.348.246.472.121.356-.105.78.683.864.278.012.328.227.289.41.258.23.246.188.523.125.004-.036.219-.043.613.461.281.426.375-.015.485-.38.656.169.125-.145.352.031.394.235-.031-.254.023-.262.192-.703-.184-.785.14-.168.321-.07.277-.457.2-.227.66.523.175-.101.34-.336.243-.14.32-.512.12.027.462.258.27-.082.46-.012.211.168.239-.023.25-.11.023-.234-.059-.754-.152-.317.2-.632-.188-.422-.184-.301.285-.777-.562-.688-.043-.492-.184-.266.305-.117.195-.871 1.14-.312" style="fill-rule:nonzero;fill:#1a1523;fill-opacity:1;stroke-width:.25;stroke-linecap:butt;stroke-linejoin:miter;stroke:#fff;stroke-opacity:1;stroke-miterlimit:10"/><g clip-path="url(#a)"><path d="m135.297 149.691-.184.086-.34.125-.328.625-.582.227-.437-.238-.738-.735-.317-.426-.473-.164-.472.84-.024.516-.379.113-.14.473-.043.258.137.277.136.246-.133.547-.363.937.496.715.297.64-.012.188-.484.286-.86 1.316-.269.078-.023.14.027.43-.047.286-.472.414-.22.132-.382.61.027.183-.035.043-.312-.09.105.133.211.258.047.492.36.45.183.953.098-.082.332.25.293.152.59-.04.601.056.18-.262.015-.066.02.003.449.157.211.672.055.187.175.36.372.98.312.46.555.255.152.355.047.367.02.325.054.312.078.215.278.328-.02.246-.41.098-.453.199-.04.313.208.66.078.406-.008.203-.207.149-.293.09-.238.253-.602-.008v.028l-.21.617-.77 1.11-.332.035-.485-.098-.597-.094-.512-.316-1.457-.938-.195.082-.692-.332-.332-.453.012.172-.023.363-.172.028-.188-.063-.234.305.117.445.152.266-.066.547.047.55.383.203 1.34.77.148.219.418.152.426.145.406-.02.644.117.356.149.191.101.149-.308-.02-.227.266-.05.289.195-.055.043-.195.308.097.309 1.38.77.8-.231.196-.176.023.012.176.289.511 2.5-.062.164-.094.375-.21.074-.423-.012-.945-.187-.203.258-.149.308-.09.18-.308.117-.234.086-.028.367-.132.192.03.215.012.386-.07-.015-.258.172-.078.152-.097.117-.286-.078-.07.098-.21.156-.325.02-.309-.133-.746.015-.043.149.36 1.113-.254.254-.274.238-.18.399-.523.27-.136.105-.157.128-.23.38-.508-.094-.625-.098-.395-.098-.449-.156-.219-.008-.175.114-.68-.254-.23-.141.023.07.059.735.046.605-.066.063-.031-.012-.086.039v.055l-.086.523.043.375.535 1.121-.121.305-.145.129.125.449.079.352-.262.828-.176.12.18.708-.153.156-.703.438-.398.629.262.628.265.512-.008.652-.511.293-.192.016-.758.176-.074.004.02.09.035.218.598 1.082.246.07.308.18.153.192.203.203.05 1 .274.41.246.2.281.316.621.57.567.36.086.82-.102.082.016.05-.125.297-.051.106.02.02.363.511-.074.18-.313.242-.176.285-.254.223-.007.387.437.84.086.007.008.055.097.453-.054.203-.086.176.097.156.692.164.238.203.227.485.27.797.292.32.239.426.183.238.184.098.672.64.156.149.242.644.805 1.16.105.121.434.309.254.238.3.274.36-.02.433.106.184.07.324.254.254.055.164.156-.05.031-.29.414-.21.242.081.282.157.347.035.262-.242.168-.028-.027-.3-.133-.13.148-.074.297-.12.164-.344.375.027.317.27 2.37.253.77-.039.461.16.254-.054.406-.028.2-.062.035-.035-.067-.297-.754-.012-.125-.246-.675-.101-.18-.157-.102-.941.371-1.223-.96-.16-.22-.305-.195-.246-.332-.402-.351-.305-.125-.195-.27-.242-.61-1.074-.66-1.48-.042.038-.047-.266-.508-.183-.07-.3-.051-.266-.293-.418-1.055-.122.082-.289-.086h-.332l-.172.02-.484-.23-.676.25-.875.386-.07.188-.707.078-.09.078-.035-.012-.988-.34-1.2-.734-.34.262-.359.176-.43.167-1.085-.578-.5-.047-.32-.011-.364-.18-.152.094-.387.89-.387.051.016.055.043.195-.094-.027-.254-.07-.297.175-.12-.207-.087-.254-1.476-1.168-.336.118-.281.09-1.27-.653-.164.13-.293.55.02.246-.192.035-.258.031-.332.078-.058.141-.641.82-.723-.363-.351-.023-.13.293-.362 1.32-.028.477-.058.097-.047.172.105.191-.101.004-.254.02-.125.39-.031.387-.036.375-.082.184.262.25.352.398.152.63-.117.214-.422.168-.102.137-.093 1.125.273.742-.164.148.156.66-.168.254-.074-.078-.262-.32-.468-.54-1.723-1.585-.125-.07-.645-.633-.027.035-.14.203-.294-.137-.132-.144-.45-.879-.132-.031-.012.05-.125.032-.602-.125-.257-.29-.18-.109-.32-.078-.25-.324-.125-.242-.368-.145h-.215l-.296-.265-.082-.371-.336-.372-.282-.304-.039-.36-.148-.168-.215-.004-.469-.285-.37-.195-1.423-.422-.105-.152-.281-.305-.274-.164-.476.344-.965.058v-.007l.066-.926-.285-.434-.32-.297-.219-.183-.535-.59-.875-.746-.543-.125-.485-.196-.261-.117-.461-.066-1.082-.422-.348.824-.371-.11-.191-.433-.051-.293-.383-.636-.344-.594-.281-.028-.2-.003-.362-.211-.188-.004-1.328-.992-.363.027-.82-.785-.11-.324.23-1.41-.254-.782.063-.71.363-1.59-.125-.372-.289-.008-.316.028-.313-.274-.21-.113-1.868-.621-.347-.16-.204.004-.535-.371-.765-.508-.293-.223-.325-.367-.32-.23-.71-.95-.247-.05-.242-.106-.719-.52-.074.051.012.055-.118.309-.035-.012-.53-.145-.33-.074-.355-.371-.511-.293-.297-.422-.524-.465-.933-.699-.602-.555-.25-.132-.96-.707-.09.043-.036-.047-.851-.914-.465-.352-.305-.219-.265-.015-.168-.203-2.684-2.184-.191.14-1.024-.257-.027-.246-.211-.336-1.168-.864-.773-.367-.356-.574-.062-.277-.227-.09-.238-.207-.196-.14-.355-.204-.32-.25-.48-.016-.684-.527-.383-.004-.27-.254-.336-.625-.047.035-.183-.058-.59-.524-.504.16-.137.024-.48-.145-.086-.035-1.207-1.238-.074-.23-.39-.758-.454-.098-.191-.555.003-.304-.421-.371-.23-.293-.227-.036-.165-.007-.433-.223-.234-.184-.426-.437-.04-.266-.492-.113-.523-.242-.008.02-.156.003-.766-.422-.347-.187-.211-.215-.496-.422-.414-.047-.391.04-.461-.114-.176-.031-.242-.168-.184-.168-.156-.035-.87-.383-.313-.215-.418-.086-.176-.078-.117-.25.039-.008v-.086l-.5-.574-.117-.262-.012-.28.12.007.224-.004.09-.773.023-.286-.192-.43-.398-.238-.914-.16.031.059-.02.094-.023.004-.113-.055-.09-.23-.183-.005-.149.016-.55-.039-.243.055-.004-.012-.402-1.074-.317-.688-.207-.418-.367-.242-.273-.156-.309-.2-.164-.062-.086-.23.14-.86-.003-.41-.313-.805-.293-.128-.898-.098-.09-.594.078-.55-.05-.403-.258-.387-.746-.511-.332-.887.027-.238-.078-.399-.45-.836-.468-.27-.774-.304-.652-.844.035-.293.207-.156.54-.469-.098-.66-.297-.11-.594-.284-.11-.184-.16-.844.04-.414-.368-.277-.23-.215-.164-.21-.73-.352-.29-.141-.593-.649-.118-.375.04-.496-.325-.312-.246.023-.101.184.113.457.207.601.223 1.711.84.555.203.422-.086.426-.29-.055-.683-.387-.848-.3-.57-.63-.223-.316-.566-.011-.25.21-.352.387-.277-.25.008-.578-.031-.746-.364-.266-.39-.425-.664-1.407-.227-.511-.262-.028-.304.192-.325 1.011.18.614-.05.257-.208.051-.691.098-.43.289-.152.184-.043-.028-.684-.785-.785-.93-1.02-.097-.183-.219-.063-.281-.015-.54-.34-.245-.438.253-.093.106-.32.012-.465-.32-.793-.973-.477-.375-.93-1.457-.242-.301-.34-.32-.472-.649-1.39-.758-.532-.113-1.38-.898.114-.387.238-.164.29-.5.226-.496.356-.219.425.05.79.415.16-.238.18-.547.03-.293.954-1 .105-.375.258.11.355.327.536.262.37.055.387.039 1.188.203.277.148.746.176.395-.148.972.32.825.863.41.485.555.222.261.168.274.41.488.41.598.383.609.543.813.637.554.23.469.165.469-.118.261.121.965.692.711.101.336.04.508.023.652-.055-.004-.472.09-.297.278-.04.48.165.363.453.692.59.004-.004.304-.102.235-.422-.02-.648.297-.305.133-.215.117-.191.23-.04.274-.038.648-.246.34.273.496.277.32.004.465.536.407.601.324-.05.273-.02.317.21.453 1.063.656.453.543.051.39-.062.391-.059.602-.18.508-.55.215-.106.43-.86.683-.116.46-.38.145.126.309.222.605.102.293-.09.348.477.23.242.497.316 1.71.594.25.48.008.371-.015.868.672 1.183.03.29-.151.425.101.242.363.149.559.226.762.555.465.11.144.234.082.254.531.84.36.605.476.387.957.87.64.348.2.293.031.305-.207.535.239 1.25.261.242.305.051.438.211.773 1.305-.309.492-.449.523.246.118.926-.028.844-.062.91-.32.418-.204.133-.035.254-.02.27-.019.116-.293-.047-.406-.312-.856-.129-.503-.445-.524-.395-.3-.62-.563-.532-.371-.262-.371-.406-.715-.176-.352-.105-.297-.278-.351-.652-.953-.488-.641-.282-.488-.058-.293-.637-1.043-.324-.399-.172-.16-.992-1.195-.29-.215-.878-1.492-.45.078-.429-.18-1.102-.953-.39-.59-.254-.367-.55-.574-.563-.785-.387-.332-.192-.008-.296-.133-.207-.101-.516-.72-.39-.097-.13-.066-.082-.324-.418-1.391-.164-.082-.457.305-.261-.165-.918-1.316.035-.613-.348-.38-.2-.296-.19-.32-.813-.825.395-.359-.036-.414-.464-.726-.036-.391.227-.461.355-.106.13-.91.054-.418.32-.136.032-.254.027-.688-.04-.426.352-.414.325-.445.203-.207.281-.062.148-.29-.105-.652-.02-.234.278-.219.597-.281.57-.469.266-.066.18-.204.266.032.316.031.188-.129.238-.39.101-.055.192-.73.285-.087.535-.117.149-.191.351-.485.871-1.101.246-.094-.289-.125-.879-.18-1.453-.98-.11-.34-.136-.348-.902-.566-.238-.047h-.137l-.117.059-.145-.004-.078.148-.035-.011-.293-.008-.684-.18-.218-.39-.376-1.075-.351-.097-.32-.297-.094-.395.058-.637-.136-.277-.59-.73-.246-.43-.07-.207.003-.906-.25-1.711.121-.25.02-.184.246-.433.113-.11-.773-1.363.027-.223-.21-.27-.274-.312-.98-.226-.555-.442-.297-.262.95-.882.136-.711.164-.313.375-.5.101-.898-.003-.356.062-.379.04.04.476.19.097-.026.063-.243.05.028.36-.043-.016-.047.09-.617.047-.407.227-.289.136-.168.43-.351.188-1.11-.04-.418.301-.644v.02l.43.636.395.207.042.09.004-.016.211-.23-.011-.781-.067-.23.047.011.172-.203.164.058.016-.027.18-.215 1.784-.226.09-.258.14-.055.274.012 1.555.73.156.133.305.582.176-.078.117.176.102.406.183.98.18.747.465.558.222.45 1.188.175.465.23.5-.433.468.149.422-.067.067-.363.023-.098.527-.484 1.012-.117.899-.325.445.114.203-.055.223-.676-.004-.504.14-.265-.07-.29-.105-.109-.102-.504-.098-.125-.125-.285v-.386l.079-.442.113-.738-.028-.192.094-.168.004-.238.246.024.164.058.024-.062-.028-.551.301.11.559.023.68.172-.063-.262-.035-.402.187-.747-.101-.648-.309-1.68.02-.164.12-.289-.109-.765-.168-.399-.062-1.367-.918-1.742-1.281-1.555-.434-.637-.293-.02-.195.036-.278-.11-.523-.085-.191-.043-.266-.13.012-.01.48-.368.32.125.376-.11-.063-.199-.383-.574.172-.238-.004-.332.094-.38.156-.151.34-.075-.047-.25-.355-1.007.152-.723.023-.227-.652-2.37-.883-1.368-.05-.219-.204-.207-1.074-.488-.41-.367h-.266l-.218-.004-.856.097-.324-.007-.98-.293-.293-.328-.418-.309-.313-.04-.258-.292-.086-.238-.144.043-.145-.016-.52-.516-.109-.265-.265-.43-.801-.902.055-.04.14-.167-.004.011-.254-.343-.011-.157-.047-.3-.219-.457-.812-2.13.18-.628.023-.348-.008-.379.094-.453-.082-.582.02-.191-.075-.188.035-.023.016-.328-.078-.457.16-.746.11-.239.167-.043.149-.402-.098-.2-.004-.167-.133-.457-.14-.485.062-1.215-.293-.546-.066-.375.187-.707-.078-1.235-.047-.129h.067l.406-.281.277-.289.13.039.241.102.274-.254.117-.196.027.008.719.336.16-.375.063-.39-.024-.266-.133-.344-.082-.21.035-.692-.113-.465-.281-.984-.156-.192.05-.047.532-.601.02-.375-.239-.403.078-.53-.094-.548-.023-.215-.121-.48-.707-1.965-.09-.172.05-.023.196-.016.09-.012-.016-.066-.035-.27-.078-.167-.754-.56-.254-.183-.222.024-.141.09-.54-.235-.48.13-.722-.118-.239.25-.343-.008h-.164l-.192.031-.172.059-.37-.05-.25-.009-.708-.367-.488.207-.016.047-.082-.07-.261-.223-.235-.367-.332-.969-.2-.105-.663-.274-.164-.183-.156-.758-.204-.234-.89-.54-.242.23-.723.544-1.078-.211-.156-.02-.844-.421-.309.406-.11.25-.515.219-.8-.262-.25-.207-.024.058-.133.22-.176.343.012.488-.16.098-.652-.02-.149-.062-.582-.508-.594.25-.132-.031-.633.59-.164.191-.352-.008-.367.242-.613-.324-.258.02-.188-.04-.468.305-.239.082-.449.196-.055.609.461.73.094.313-.246.25-.598.93-.32.168-.21.175-.606-.347-.32-.082-.184.125-.39.078-1.134-.879-.23-.367.078-.672.031-.305-.23-.441-.028-.403-.207-.511-.128-.285-.301-.293-.149-.149-.011-.8-.497-.481.004-.309.739-1.078-.207-.754.066-.136-.187-.313-.508-.496-.34-.578-.063-.742-.777-.633-.863-.152-.77-.399-.222.063-1.38-.864-.156-.175-.816-.247-.094-.152-.078.477-.555.086-.359.414.004.504h-.02l-.32.062-.297-.344-.37-.039-.161.012-.39.047-.516-.266-.742-.574-.957-.371-.207-.129-1.012-.191-.426-.618-.367-.004-.278.102-.543-.18-1.062-.375-.691-.625-.454-.214-.078-.72v-.144l-.05-.328.195-.246-.016-.41.309-.203.148-.18-.152-.547-.172-.398.07-.301-.27-.86-.37-.843-.145-.395.094-.32.012-.25-.004-.113-.028-.004-.257-.137-.395-.543-.176-.32-.855-.746-.27-.274-.617-.316-.7-1.063.102-.254.333-.043.414-.21.191-.059.191.031.844-.16.211-.176.797-.14-.05-.137-.04-.3.348.226.11.304.175.243.457.32.226.055.922-.235-.004-.023.04-.746.41-.809.199-.637.426-.355.183-.164.555-.285.039-.953.16-.09.14-.121.673-.63.222-.097-.039-.406-.14-.535-.106-.328-.207-.356-.523-1.055.136-.777-.32-.504-.164-.187.047-.02.156-.05.297-.454.137-.215.234-.394v-.586l.106-.512-.032-.246-.218-.672-.036.008-.546.152-.243.059-.195.004.145-.13.023-.284-.266-.707.243-.055.27-.078.038-.258.38-.504.234-.187-.618-.785-.523-.266H6.28l-.207-.031-.71-.871.19-1.254-.222-.223-.148-.336v-.289l-.012-.32-.04-.235-.378-.238-.14-.207-.274-.637-.29-.277.079-.2.21-.042.196.054.29-.078.234-.054.082-.004.441.117.211-.063.012-.316.023-.23.05-.122L6 6.133l-.004-.207-.656-.274-.145-.191-.246-.016-.867-.59-.45-.16.048-.258.058-.316-.05-.351-.2-.368.11-.468-.114-.274.125-.203.887.078.149-.015.218-.114.086-.008.469.586.129.235h.187l.04-.25.003-.278.051.016 1.324.934.301.246.793.254.402.457.418.68.465.398 1.164.496.114-.074 2.05.64 1.04.418.515-.023.352-.031.37.144.106-.351-.25-.254-.324-.348-.2-.828-.34-1.469.145-.195.352-.07-.023-.063-.438-1.773.133-.196h.195l.64.23.75.368.411.433.305.172 1.312.371.313-.312.328-.664.031-.23-.238-.403-.324-.73-.278-.766.133-.168 1.316.438.329.218.558.172.719.453.976.375.641.282.348.007 1.18.418.515.375.61.348.503.27.953.16.133.218.418.891.785.445.371.086.59.356.75.031.262.133.395.133.296.093.32-.043.25-.097.438-.262.985.242.359-.023.238.23.352.137.66.601.363.098.164-.02.243-.003.183-.012.461.055.566.172-.066-.141.016-.309.27-.14 1.116.316.254.27.317.238.246.207.422.695.183.067.399.05.304.254 1.98.579.15.027.433.176.71.109.372-.05.23-.177-.015-.035-.102-.586.102-.164.09-.043.023.04.379.347.36.125.273.125.203.465-.035.226-.211.344.09.04.597.19.453.255.684.593.309.043.304.278.172.234.262.277.332-.062.21.09.095-.117.09-.352.242-.363.398.02-.043-.2-.058-.207-.239-.902.664-.004.29.207.695.187.394-.203 1.227.691.082.11-.067-.309.141-.918.184-.187-.024-.031-.14-.66.109-.18.023.004.203-.047 1-.137.555.625.14.11.571.277-.008-.059.082-.086h.008l.34.074.52.563.382 1.059.368.289.222.187.156.574-.027.086.074.02.133.136.461.801.52.688-.067-.016-.258.235-.238.668.121.242-.078.492-.004.203.024.422-.164.082.05.098.196.101.203.082.242.352.074.351.055.332.004-.004.129.047.132.246-.148.309-.46.168-.052.062.028.043.05.27-.097.906-.188.227.028.027 1.23 1.254.297.047.785-.106.16.227.43.383.11.16-.055.297.043.12.175.337.254.406.985.867.746.492.445.2.707-.121.317-.102.445-.004.39.235.188.48-.035.105.043.415.316.601-.113.457-.035.262.258.37 1.261.349.469.285.031.293-.226 1.16.187.21-.164-.03-.46.195-.184.172-.18.113-.176.156-.062.246-.067.543h-.023l-.29-.05.04.113.152.297.387-.004.828.637-.098.039-.148.41.05.64.188.508-.246.684-.367.113.207.996.098.094.164.32.406.473.332-.164.465-.094.304-.086.954.172.199-.016.687-.023.524.07.261.09.418.09v-.16l.094-.317.297-.277.164-.188.254-.007.363.191.203.371.055.113.07-.085.106.015 1.09.633.5-.066.363.113.273.36.106.23.25.394.21.434.763.523.148.07.164.223.063-.054.152-.004.277.101.453-.117.153-.121.129-.23-.008-.235-.024-.43.153.028.824.195.172.113.262.313.312.289.3.254.18.5.208.316.234.196.137.124.03-.042.114-.09.238.093.778 1.04.164.351.039-.016.566-.437.07.117.27.234.078.032-.09-.164-.171-.633-.079-.176-.199-.465h.043l.5.125.219.301.203.137.016-.043.101-.23.219-.106.34.164.258.309.215.363.097.101.063-.093.234.074.488.492.254.137.39.324.161.094.395.738.418.336.773.379.05-.043.024.023.23.2.4.285.187.132.289.125.449.34-.012-.113.047-.2.047.013.21-.079.052-.097.054.117.254.246.617.29.282.26.074.454-.04.258.583.5.402.199.195.23.32.274.403.219.442.328.515-.278.34-.359.688-1.71.398.269 2.285 1.37.106.41.214.454.047.254 1.157 1.539.5.363.12.012.227.008.14.172.177.273.355.64.281.255.364.422.234.453 1.176 1.3 1.515.618.313.046.644.368.348.445-.016.355-.066.29-.394.417.011.313.117.508-.183-.02-.363.11-.067.199-.015.398.296.418.434.074.73.18.336-.058.239-.102.093-.09.141-.117.48-.098.149-.261.215-.028.234.121.004-.066.11-.164.285-.063.304.043.442-.382.023-.415.582-.277.156.02.543.687.274.38.668.51.324-.034.215-.043.312.136.29.41.238.555.945 1.395-.293.355-.09.016.051.078.043.219-.059.281-.41.184-.297.285-.347.484-.801-.09-.16.336.336.836-.2.34-.253.367.328.453.215.535.511.141.25-.176.418-.21.254-.298.399.141.125.106.027-.075.195-.34.246.098.125-.035.387-.066.555.152.328.07.37.211.278.188.504.465.281.57.52.789.227.308.101.895-.11.074.122.063 1.293.472.226.059 1.141.55 1.281-.265.34.344.211.531-.09.375-.133.367.61.903.347.293.325.23.468.02.235-.2.035-.02 1.258.462.14.035.293.188.492-.137.176-.149.418-.422.43-.02.18-.105.113-.777.988.07h.297l.125-.199.129-.328.035.012.438.164.511.371.41-.336.083-.121.035.121.242.297 1.05 1.09-.058.3-.043.274.031.32-.015.563.445.12.367.571.621.426.88-.18.128-.277.445-.035.204-.059.187-.027.262.176.433.222.403-.054.144-.063.285-.683.063.066.894 1.168.348.23.195.63.254-.032.559-.266.59.875.113.153.457.992.227.164.59.223.316.148.633.027.105.176.344.91.266.391.132.105 1.41.528.13-.086.093-.055-.082-.055-.25-.43.05-.14h.028l.43-.129.215-.187.168-.235.101.008.38.086.39.047-.008-.055-.164-.625.02-.308.21-.098.32.34.348.316.336.27.02-.16.156-.278.441-.12.278.12.36-.02 1.136.813.05.274.009.304-.075.497.063.308.07.324.262.114.183.015.23-.066.833.27.375-.266.137-.266-.207-.516-.133-.316.156-.133.188-.093.21-.141.098.086.356.316.453-.031.824.367.043.48.144.883 1.81 1.051 1.804.18.187.277.906.453.438.063.426.535.004.18.011.226-.05.008-.301.098-.262.125-.473-.106-.195.086-.555-.203-.011.14.234.302.117.312-.09.535.211.414.016.024.074.02.434.327.426.727.187.293.242.332.09.305.008.222.055.324.136.254.028.192.129-.055.183.074.285.399.54.363.156.004.718-.406.739.207.379-.325.074-.285.238-.02.563.391.699.305.43.266.898.523.348 1.215.004.215-.22.16-.042.059.027.023.18.313.058.437.024.121.879.762.363.605.219.016.351-.05.278.25.011.589.305.406.484.551.192.379.492.207.363.293.868.11.418.011.359-.059.719.2.336.86.12.167.75.797-.1.574.233.461.176.34-.093.297-.57.304.116.13.336.581.145.645.226.207-.02.344.036.164.219.191.418.012.68.613.484-.05.332.347.433.727.024.41.375.625-.129 1.265.082.301.066.293.48.352.177.484.394.102.117.195.075.289.406.277.05.368.415.16.535.894.32.164.242-.082.317-.629.258.02.421.137.079.32.492.258.05.433.004.34.293.235.247.082.351.175.16.16.172.254.356-.07.289.047.047-.004v.035l.07.32.394.575.157.21.027.325.383.266-.098.3-.176.285.051.336.192.114.343.851.25.086.516.254.16.145.078.359.543.48.582.172.68.133.07-.183.106-.184.343-.11.118-.023.316.2.402.19.055.266-.098.375.243.442.464.312.157.493.093.195 1.07.52.532-.15.465-.397.058-.106.329.164.535.785.601.332.965.86.387-.211.156-.094.07-.273-.082-.235.157-.172.238-.027.324-.66.785.691-.136.406.132.375.09.29.153.195.636.25.364.375.035.265.183.59.196.422.328.434.246.695-.09-.012-.45.024-.316.008-.668.004-.21.12-.188.2-.02.207.188.586.156.433-.094.243-.171.035-.622-.223-.378-.066-.375.015.003.035-.23.465-.078.133-.047.227-.078-.032-.293-.02v.09l.183.454 1.403 1.355.207.828.254.63-.082.046-.325.035-.351.227.055.543.257.851-.156.977.172.336.227.457.066.426.207.402-.094.149-.066.191.523.828.043.7.297.886-.058.254-.157.336-.004.2h-.03l-.391-.099-.305-.34-.238-.062-.344.211-.059.95.012.433-.11.23-.081.172.156.48-.117.419-.258.214-.184.786-.172.086-.359-.165-.211.098.066.395.079.277-.082.563-.239.414-.27.726-.562.953-.18.157.008.445-.086.172-.101.36-.117.194-.25.579-.555.714-.09.582.738 1.211.114.809-.086.305.11.332-.036.218-.04.02-.093.219-.043-.016-.316-.25-.317-.105-.527.277.172.754.277.379.11 1.261.172.25.402.512.62 1.946-.081.43.035.237-1.527.31-.211.597-.281.187-.778.219-.992.352-.742.402-.309.031-1.484-.105-.242.613-.235.137-.086 1.043-.738.867-.324-.028-.645-.136-.558-.11-.778-.136-1.043.27-.273.265-.719.11-.543.32-.433.28-.223.298-.063-.063-.41-.21-.562-.15-.602-.073-.336-.168-1.136-.73-.23-.313-.724-.25-.113.113-.187.156-.434.617-.164.086-.187.012-.532-.227-1.77-.89-.597-.059-.332-.054-.129-.024-.656-.191-.734-.02-.47.106-.448-.149-.235.078-.203.125-.5.11-.348.148-.18-.187-.155-.227-.778-.543-.07-.207-.184-.516-.605-.609-.285-.285-.63-.594-.663-.746-.082-.164-.075.027-.25.16-.312.391-.098-.16-.344-.25-.636-.137-.211-.008-.848-.32-.586-.355-.687.097-.246.02-1.254-.73-.25-.114-.77-.203-.207.098-.254-.059-.531.078-.219-.137-.16-.316-.156-.254-.293-.21-.09-.122-.687-.75-.524-.082-.531-.45-.18-.23-.246.04-.312.07-.243-.063-.12.059-.919-.176-.574-.195-.77-.098-.046.02.011.086-.011.156-.067.004-.152.11-.152.343-.2-.11-.222-.05-.258.05-.281-.109-.66-.379-.317-.082-.5-.2-.156.185-.012-.008-.601.004-.348.457-.262.07-.246-.098-.183-.222-.383-.063-.117.024-.29-.04-.953.168-.203.188-.687.586-.215-.047-.219.066-.207-.097-.351-.098-.325-.14-.277.585-.441.891-.067-.14-1.332-1.68-.656-.739-.238-.351-.555-.64-.207-.11-.172-.082-.723-.004-.218-.18-.207.012-1.157-.457-1.023-.852M82.52 133.957l.382.438.207.167.551.184.758.484.25.227.285.242.129.238.086.208.297.492.012.3.242.637.078.258.941.848 2.082.902.645-.406h.39l-.066-.078.016-.676.379-.305.148-.328.2-.156.195-.059.324-.207.187-.027.078-.195-.754-1.286-.042-.386.054-.235.149.008.23.027.031-.41.11-.425.191-.352.172-.242.023-.11.094.012h.317l.14-.086-.02-.058-.1-.418.026-.34h.036l.039-.016-.051-.098-.18-.453-.027-.148.023-.016.075-.101-.04-.274h.075l.242-.02.078-.195-.012-.304.176-.196.18-.28.054-.27-.03-.297.253-.016.277.367.278.043.316.317.031-.078.168-.32.297-.173.164-.367.137-.14.18-.016.023-.856-.222-.636.058.008.125-.102.113.035.48.246.536-.32.137-.922-.024-.46.293-.005.168.125.317.239.218-.122.797-.687.114.02.21.097.364.137.031-.11.293-.543-.187.012-.165-.117-.203-.602.024-.003.566-.22.223-.347.5.387.328.71.027-.015.121-.062 1.012-.235 1.457.856.36-.059.527-.25.39-.117.282-.07.156-.086.406-.02.266.168.105.102.485.082.629.222.363.098.816.317.246.105.54.312.023-.082.242.133 1.05.531.009-.058.105-.442-.137-.503.063-.223-.41-1.281-.11-.301.024-.246-.219-.73.055-.118.543-.058.195-.082.121-.094.246.004-.015-.09-.098-.813.27-.363.222-.488.203-.024.88.035.3-.523.586.074.855.082.223-.015 1.215.25.621.246 1.043-.723.531.047.477-.059.668-.183.097-.184.164-.281.235-.082.195-.137.246.117.028-.066.203-.508.039-.3-.012-.544-.125-.496-.39-.289-.848-.441-.434-.363-.441-.067-.223-.14-.773-.743-.7-1.488-.406-.246-.242-.473.102-.125.168-.265-.024-.254-.266-.262-.554-.324.199-.176.3-.308.141-.176.278-.274.172-.57-.368-.992-.066-.469.297-.629.25-.133.687-.25.946-.949.004-.172-.188-.406-.223-1.11-.351-.78-.574-.555-.2-.23-.46-.15-.145-.363-.453-.785-.598-1.46-.699-.391-.277-.371-.633-.332-.18-.489.074-.726-.109-.63-.137-1.507-.265-.105-.192-.102-.875-.57-.898-.102-.516-.008-.312.094-.14.117-.02-.011-.196-.157-.785-1.507-.582-.793-.066-.23-.422-1.731.113-.266-.18-.293-.418-.5-.21-.8-.31-.509-.366-.105-.2.086-.097.203-.063.367-.156.004-.195.031.02.067.015.316-.211.18-.098.004-.004.074-.152.375-.191.21-.184.134-.27.277-.335.566.07.82-.262.407-.058.2-.122.109-.656.148-.636-.406-.52.004-.531-.516-.617-1.336-1.649-2.297-.68-.832-.222-.047-.18.313-.48.484-.149.196-1.18-.137-.335-.094-.278-.117-.242-.406-.594-.477-.453-.09-.2-.261-.1.003-.512.07-.305.216-.324.254-.114.722-.011.024-.278.015v.004l.204.469.027.3.16.376.41.457-.152.379-.14.242.347.574-.008.504-.102.453.266.535-.164.094.027.156-.02.352-.577.066-.364-.129-.738.086-.465-.199-.11.11-.206.488-.168.062-.176.133-.289.223-.164-.145-.531-.34-.156.219-.055.242-.473.266-.18.074-.05.246.156.227.055.402-.063.402-.152.563-.055.324-.008.031-.027-.011-.445-.368-.282.082-.093.102-.172-.012-.547-.18-.598.438-.3-.238-.336-.528-.497-.195-.207.086-.675-.293-.258-.23-.195-.278-.793-.476-.172-.106-.43-.96.133-.657-.352-.539-.254-.648-.41-.227-.25-.137-.437-.625-.164.028-.149.285-.035-.031-.227-.086-.168.16-.296.14-.235.086-.187.465-.262.024-.5-.368-.25-.207-.207-.527-.117-.152-.14-.348-.384-.367-.566-.336-.852-.05-.671.437-.028-.075-.164-.148-.574-.238-.504.222-.438 1.036-.101.199-.277.027-.266-.008-.094.258-.137.406-.07-.117-.277-.39-.645-.61-.246.067-.183.171-.348-.082-.145-.03-.46-.15-.418.055.015.348.18.246-.067.32-.257.372.043.289-.145.375-.285.746-.281.11-.512.003-.43.047-.34-.094h-.078l-.164.137-.21.941.234.567.324 1.082-.047.343.32 1.09.246.48-.125.825.016.227.305.761.199.637.129.2.062.386.067.621.203.46.242.349.168.363.027.203.239.543-.047.555-.114.156-.285.152-.445.406-.21.04-.188.011-.004.051-.012.668-.438.637.211.297.141.507-.328.844-.438.735.02.226.137.617-.188.18-.191.027-1.09-.14.004.031-.004.117-.047-.02-.207.102-.121.371-.258.086.004.031.094.54.715 1.527.878.555.29.449.242.3.39.391.02-.031.094-.125.246.008 1.148.781.207.133.395.383.363.004.11-.004.546.734.352.355.082.38.055.417.039.356-.016.305-.258.167-.152-.043.101.149-.05.312-.16.368-.012.351.25.512.39.32.106.246.215.239.14.175 1.649.075 1.215.668.175.039.657.855.105.996.07-.027.43.14.23.008 1.356 1.11.602.636.496.243.144-.024.543.281.356.27.004-.11.02-.019 1.589.992.168.29.332 1.25-.07.179-.243.203.032.024.035.18.152.316.34.789-.043.265.305.305.058.082-.023.027.016.286.039.304v.207l.066.41-.027.168.03.184.071.48.028.016" style="fill-rule:nonzero;fill:#908e96;fill-opacity:1;stroke-width:.25;stroke-linecap:butt;stroke-linejoin:miter;stroke:#fff;stroke-opacity:1;stroke-miterlimit:10"/></g></svg>