<svg viewBox="0 0 334.8 214.353" xmlns="http://www.w3.org/2000/svg"><defs><clipPath id="a"><path d="M0 .352h335v214H0Zm0 0"/></clipPath></defs><path d="m226.2 147.414.472.16.047.153.07.472.441.778.352.183.188.016.425.156.38.461.378 1.344.395.383 1.363 1 .41.527.047.082.023.316.125.266-.023.137.098.015.164.203.324.72.023-.122.504-.941.196.164.144.535.399.133.144.035v-.07l-.18-.848.508-.043.196.07.152-.125.262-.418.355-.187.023-.301.208-.41.011.008.094.226.34.262-.016-.16-.05-.328-.114-.211-.012-.16-.004-.184-.269-.524.035-.015.488.07.168.36 1.016 1.48.39.047.587-.152.21.203.368.277.215-.012.484.356.176.277.011-.156.008-.285.285-.5-.011-.059.125.04.937.538.211.098.469.328.387.137.16.039 1.164.281.27-.105.097.004.18.117.007-.082.477.125.672.082.355.027.22-.187.776.511.286.074.793-.511.343-.203.391-.075.973.168-.028.11.059.418.082.367.723 1.18.07.289.133.074.238.41.094.356.015.308.211.371-.035.016-.023.125-.133.047.016.054.062.168.035.196.602.804.16.239.226.304.04.149.12.101-.011.118-.027-.004-.067.039.008.054.14.36-.038.11.398.94.289.083-.082.332.367.183.059.012-.012.078.059.55.082.114.027-.14.219-.008-.008.07-.016.207-.03.297.05.14.176.551-.086.082.015.032.106.195-.012.191-.004.168.262.727.133.402-.125.031-.035.09.023.024.168.09v.011l-.047.078.059.04.187.203.008.312-.14.016.019.047v.449h-.106l.004.086.32.965.055.125.086.347.094.352-.004.347-.262.059-.011.156.375.785-.051.032.078.066.25.328.184.192.152.152.14.258.094.16.551 1.152.035.184.164.457.176.644.176.297-.031.211.16.238.012.454-.125.312-.098.102-.149.43-.082-.055-.035.11.043.034.094.215-.227.43.02 1.187-.227.047-.156.02.012.355.062.238-.039.336-.035.211.012.258h-.043l-.156.176-.094.375-.094.125.047.047.059-.024.335.227-.09.953-.035.117-.054.196.062.14.262.32.555.442.133.277.398.18.105-.031.024.05-.004.059-.082-.004-.024.113.043.106.036-.004.125-.043.015.059.153.28.496.872.14.238.192.274.23.238.012-.082.094-.063.027.016.348 1.176.03-.024.036-.039.04.032.616.66.059.125.027.164.164.238-.125-.043-.12-.043.37.445.012.168.164.059-.098.09.094.87h.016l.101-.007.008.07-.055.094h-.332l-.078.106.489.613-.024.02-.012.203-.093.343-.008-.004-.102-.086.223.29-.082.097-.05-.035-.231.004.02.113.054.235-.094-.036-.133.04.047.175.145.262-.047.152.148.438-.113.152-.066.11.07.105.14.176-.038.027-.137.13.027.062.063-.028.18.02.058.066-.031.047.011.098.13.203-.079.008-.031.02.016.066.02.218.155.22.172.01.172.169-.043.015-.008.149.094.254.066-.067.192-.074.098.137.011.441.059.211-.02.207-.093 1.121-.024-.008-.176.016-.02.149-.007.039-.102-.067-.039-.012-.011.11.066.426.047.168.129.277.004.383.054-.051.528.89.023-.163.024-.024.043.035.246.114.097.03.235.2.437.492.153.07.117.32-.184.063-.062-.023-.106.262-.062.035-.012-.059-.074-.094-.031.13-.02.109.035.03.063.169-.043.02-.121.023.027.125.078.34-.043.445-.012.066-.09-.046-.12-.11-.02.012-.23.215-1.118-1.176-3.129-3.836-.117-.098-1.605-.214-.797-.235-1.438.102-2.527.21-1.473.118-.703.05-4.66.485-2.144.207-.567.055-2.336-.856-5.656-1.433-1.176-.485-1.43-1.597-.937-1.668-1.336-1.266-2.379.05-2.762.294-2.297-.043-1.445-.176-1.476-.191-3.22.601-1.886-.418-4.918-.367-.14-.59-.036-.203.09.024.137-.012-.016-.055-.12-.105-.036-.375-.219-.477.149-.414.543.277-.164-.199-.059-.465.031.004.27.078.133.032.093.156.024-.106.09-.37-.196-.16.02-.028.11-.07-.055-.044-.2-.277-.035.156-.05.02-.02-.035-.211-.364.04-.109.108-.184-.078-.12-.039.093-.043.14h-.148v-.042l.02-.27-.067-.027-.008.098-.05-.004-.075-.102-.055.074-.066-.05.188-.2.003-.086-.261-.289-.254-.078.008-.054.09.039.027-.012-.195-.664-.067-.145.106.008.015-.066-.097-.012-.153-.2.043-.218h-.062l-.196.152-.043-.074-.136-.18.086-.195.156-.113-.05-.14-.052.01-.215-.062-.03-.191.109.043.156-.031-.047-.18.11-.133.222.024.258-.125-.125-.164-.422-.524.004-.273.262-.086.277-.168.078-.266-.105-.246-.512-.68.062-1.32.028-.547.226-.207-.195-.304-.938-.73-.367-.235-.117-.614-.894-.832-.418-.32-.04-.215.008-.215-.55-1.125.144-.101.121-.082-.11-.172-.59-.242.067-.051.403-.07.047-.18-.387-.336.125-.145.191-.382-.031-.02-.184-.117-.164-.371.09.004.067-.184-.25-.625-.27-.156-.101.066-.012-.011-.09-.34-.008-.14-.16.019-.004.015-.086.11-.273-.028-.051-.16.059-.226.023.004.172-.04-.067-.16-.109-.175-.191-.426-.801-.73-.172.187-.117.058-.203-.238-.008-.09.05-.277-1.023-.477-.004-.117.043-.008.27-.074-.016-.309-.305-.394.172-.293-.234-.402-.074-.164-.031-.32-.028-.368.09-.672-.488-.648-.918-.781-.25-.41-.414-.97-.114-.605-.004-.695-.085-.55-.25-.599-.114-.148-.074-.336-.09-.3-.105-.317-.02-.082-.086-.145.028-.031-.059-.191-.398-.668-.23-.328-.235-.442.015-.183-.214-.368-.2-.203-.148-.254-.277-.23-.02-.227.54-.23.175.012.496-.18.195.11.254.171.36-.023.152-.11.328.055.105.035.149-.195-.012-.457.012-.133.098-.164.32-.207.062-.145-.113-.593-.074-.473.387-.121.41-.106.062-.035.547.02.23-.074.247.042 3.328-.003.27.726.058.246.047.117.039-.238.183-.16.73-.129.446-.312.078-.09.02.004.234.015.121-.328-.074-.633-.355-.73.086-.457.011-.11-.27-.414.208-.007.644.199.184-.028.254-.25 1.39.368.254.093.375.164.52.079h.3l.239-.383.398.152.758.09.227.035.394.113.246-.257.188-.11.473.102.289-.059.297-.11.226.052.262.09.3.023.536.144 1.039-.293.48.313.461.375.309.035.23.027.227-.136.62.574.157-.016.184-.273.351.016.555.351.195-.101.254-.06.192-.331.187-.043.461-.254.707-.137.156.102.715-.703.36.12.41.212.234-.07.348-.122.812.164.325-.136.882.23.477-.172.398-.558.098-.211.09-.606.129-.601.218-.953.305-.48.04-.329.085.066.067.602-.102.8.074.071" style="fill-rule:nonzero;fill:#1a1523;fill-opacity:1;stroke-width:.25;stroke-linecap:butt;stroke-linejoin:miter;stroke:#fff;stroke-opacity:1;stroke-miterlimit:10"/><g clip-path="url(#a)"><path d="m302.64 168.074.153-.125.289.028.246.062.008-.02h.133l.246.297.176.114.183-.164.106-.203.523-.395.117-.293.067-.262.058-.222h.016l.113-.016.008-.012.117-.164.145-.16.039.043.195.164.297-.031.316.21h.145l.793.052.176.203.617.144.508-.023.578.02.281.546.281.207.192-.035.36-.672.925-.004.68-.043.46.078.567-.007 1.25.414.594.172.183-.012.008.047.047.484.144.512.196.168-.043.195-.125.371v.188l-.188.226.032.063.199.101-.004.266.129.281.312.559-.05.414-.29.242-.296.266.011.23.297.379.168.262.203.304.047.227h-.074l-.734.129.011.05.36.606.195.371-.125.356-.445.215-.172.406.172.207 1.285 1.101.187-.078.582.07.25.364-.011.687.086-.023.609-.098.367-.34.09-.09.226.047.375.204.852.418.098.015.218.18.325.406.84 1.57-.192.051-.265.344-.31.602.298.613-.004.137.363.55.438.637.125.707-.032.164.059.016.164-.125.04-.297.19-.266-.003-.187-.211-.492.097-.54.055.012.106-.137.113-.117.527.356.797 1.34.34.304.277.098 1.184.562 1.734 1.883.059.254.144.371-.129.274-.23.14.016.891.293.684.148.015.46.192.442-.11 1.133.871.32.47-.078-.013-.57-.066-.168.207-.273.32-.336.004-.047.258-.594.613.277.383.457.316.246.278.11.074.277.07.149.403.41 1.488-.028.555.664.457.004.898.344 1.055.317.469.39.28.426.474-.027.011-1.258.36-.54.285-.714.61.02.437.28.543.376.675.617 1.13.312.433.149 1.242.086.66 1.883.281.992.079.59-.012.285.719.066.554-.039.383-.187.512-.551.77-.176.152.059.297-.024.25-.023.355-.121.16v.168l-.02.055-.328.117-.078.176-.55.37-.513.247-.507.613-.305.047-2.66-2.074-1.535-1.176-26.528-13.887-23.637-1.394.133.164.356.285-.02.149-.156.101.012.16-.059.02-.023.215.093.175.036-.015.125-.067.617.36.05.25.446.152.195-.226.02.02.078.26-.176.24.25.667.195.219-.144 1.332-.211.183-.39-.02-.25.345-.313.18-.028.19.211.095.16.273-.007.125-.145.121.11.242.386.41.137.055.23.242.235.164.031.227.598.687.504.157.144.152-.047.027-.12.004-.005.043.118.102.199-.082.398.16.285.476.102.008.023-.062.094.074.098.348-.121.035-.18.043.047.246.066.129-.137 1.164-.183.312-.067.059-.195.117-.082.234-.312.004-.364.602-.25.094.02.242.21.488.34.324-.062.371.274.766-.086.238-.184.293-.277.153-.621.172-.028.558.137.281.211.375.023.461-.336-.183-.07.012-.086.335-.187.07-.207-.023-.016.157-.387.425-.09.114.165.203.09.281.136.535-.418-.2-.394.349.015.058.219.235-.117.054-.238-.023-.258.207-.203.012-.012.062.039.379-.188.074-.144.04-.25.206-.36-.082-.234.055-.406-.156-.125-.028-.172-.12-.082-.177-.063-.058-.285.043-.152-.05-.273-.067-.004.058.066.192-.164.332.117.191.211.152-.012.079-.039-.004-.293-.192-.832-.273-.218.297-.625-.442-.54.14-.16-.179-.195-.047.043-.078.02-.09-2.797-2.476-1.07-1.602.054-2.527-4.531-3.36-1.457-.648-1.028-.777.391-.106.082.024-.133-.235.145-.422-.008-.359.055.027.043-.09-.075-.324.047-.043.024.02.062.137.067-.082.273-.473-.324-.465.015.129-.078-.066-.097-.145-.13-.043-.128-.098-.555-.355.008.145-.062.035-.032-.075-.531-1.05-.062-.313-.106-.226.125-.211-.191-.215.011-.11.04.012.101.067.012-.07.039-.122.203-.215.023-.402.02-.21.008-.005v-.156l-.067-1.098-.18-.004-.203.059v-.094l.016-.273-.035-.125-.027-.008-.391-.133-.066-.441.015.004.082-.032-.027-.062-.117-.215.015-.098-.062-.007-.254-.04.004-.023.172-.215-.184-.312.012-.012.137-.105-.008-.32-.153-.29.082-.086-.043-.043-.203-.222.114-.188.16.055-.012-.074-.05-.352.21.082.106.027.007-.199-.035-.008-.164-.047.008-.128.09.09.07-.047.004-.02-.07-.129.09-.035.035-.414-.125-.129-.02.02-.125-.043-.039-.532.074-.078.043.031.122.094.054-.094-.055-.109-.054.047-.117-.106-.063-.078.05-.12.013-.419.097-.289-.195-.086-.09-.32-.265-.195.257.066-.027-.117-.16-.317-.063-.093-.308-.082-.059-.313v-.07l-.082-.008-.23-.219-.012.04-.07.011.054-.113-.031-.008-.168-.102.066-.046-.062-.141-.086-.133.035-.016.09-.007-.191-.102-.059-.516-.098.153-.117-.063-.246-.273-.23-.438-.102-.058-.266-.64.067-.009.004-.047-.031-.02-.13-.077-.109-.242-.219-.051-.043-.106.024-.113.055.004.039-.027-.032-.082-.058-.043-.047.074-.129-.047-.016.11-.117-.051.035-.055-.191-.14-.105-.145-.09-.18-.211-.312-.078-.075-.032.043-.25-.113-.273-.602.164-.136.04-.227.015-.004.101.067-.027-.09-.024-.156-.042-.258-.02-.293-.102-.078-.312-.23.035-.012.145-.145.066-.363.168-.184-.012-.344.04-.336-.102-.39.125-.23.332-.067-.043-.098.082-.172-.012-.007-.074-.149.02-.148-.04-.012-.066-.223.102-.668.19-.125-.023-.03-.09-.188-.038-.082.05-.047.18-.18.05-.195.099-.102.07-.074.012-.438-.004-.066.058-.027-.023-.16-.067-.165-.109-.203.02-.011-.004-.141-.024-.008-.078-.078.004-.023-.047-.118-.129-.254-.054-.472-.415-1.121-.097-.059-.098-.34-.973-1.468-.003-.239-.274-.289-.094-.324.297-.082-.031-.324-.398-1.137.011-.148-.133-.633.055.039.028-.012-.008-.078.011-.883-.171-.133.054-.02-.023-.062-.043-.027-.106-.121.055-.05.008-.286-.02-.219.032-.012v-.183l-.125-.215-.082-.113-.133-.34v-.266l-.059-.148.04-.004.07-.059-.227-1.175-.016-.075-.09.036-.128.136-.043-.015-.024-.059-.105-.68-.243-.039-.16-.183.082-.332-.37-.211.027-.157-.274-.527-.047-.183.032-.008.02-.2-.153-.25h.078l.012-.117-.313-.511-.203-.188-.352-.5-.125-.219-.109-.125-.082-.25.09-.406.035-.078-.02-.04-.25-.417-.042-.465-1.266-2.445-.04-.281-.066-.227-.12.059-1.196-.079-.93.551-.312.196-.656-.383-.364-.211-.254.183-.484-.097-.926-.149.004.012.008.063-.113-.075-.153-.054-.39.105-.465-.14-.774-.165-.273-.101-1.824-1.055-.016.379-.035.059-.219.125-.008.28-.011.157-.075-.086-.226-.36-.316-.163-.223-.028-.09.016-.828-.57-.016.054-.058.125-.598.016-.18-.168-.21-.383-.731-1.078-.277-.32-.274.039-.035.062.031.055.446 1.445-.09.032-.477-.457-.07.27-.281.538-.172.043-.149.246-.16.278-.191-.004-.27-.106-.23.082-.102.07.02.032.12.183.036.461v.223l-.035-.031-.41-.14-.274-.18.059-.243-.047-.215-.274-.12-.136.179-.211.656-.047.254h-.008l-.125-.172-.324-.73-.106-.172-.066-.203-.098-.223-.129-.27-.152-.234-.434-.504-1.351-.984-.34-.54-.195-1.007-.406-.441-.926-.332-.203-.371-.258-.489-.262-.664-.371-.207.023-.226.102-.774-.137-.375-.039.008-.043.188-.113.312-.383.734-.36 1.973-.331.441-.196.223-.375.047-.218-.012-.297-.074-.52-.2-.02.079-.214.117-.785-.172-.63.14-.413-.233-.38-.047-.07.246-.14.101-.211.16-.203.207-.024-.03-.296-.204-.41.195-.149.067-.195-.004-.004.027-.254.262-.195.055-.149.324-.758-.063-.37-.257-.302.152-.16.242-.406-.293-.383-.312-.199.148-.777-.297-.23-.262-.204-.128-.687-.051-.422.242-1.715-.2-.242.098-.707-.074-.004.008-.293.32-.239-.043-.437-.164-.496-.054-.192.02-.554-.028-.102.273-.281-.015-.356-.086-.425-.067-.368-.183-.445.039-1.11-.38-.015.122-.21.133-.9-.196.118.137.152.367-.129.282.309.8.164.438-.07.57-.207.113-.156-.046-.02.039-.07.254-.032-.02-.156-.027-.008.015-.058.094-.418.152-.121.04-.485.05-.058.27-.004.054-.059-.152-.054-.285-.38-.7-3.425.028-.176-.012-.21.075-.231.007-.496.067-.63.207.036.074.195 1.074-.453.317-.066.808-.184.012-.328-.055-.598.133-.398-.273-.563.199-.312-.067-.098.106-.156.418.742.8.04.446.05.16.441.61.278.48.164.348-.02.093.102.149.11.32.093.445.18.336.125.164.058.208v.144l-.078.68-.328.027-.484-.785-.024.023-.262.48-.562.477-.8.168-.962-.07-.656-.324-.406-.77-.625 1.227-1.598.586-1.21-.328-.013.453-.257.469-.336.363-.57-.215-1.055-.277-.407.218-.148.508-.352.516h-.172l-.847-.184-1.613.727-.754.398-.399.219-.465-.04-.785.419-.398-.234-.774.105-1.707-.438-1.883.766-.277.098-.125.347-.648.024-.215-.23-.055.011-.863.856-2.563-.383-1.902-1.035-.578-.227-2.356-1.621-1.171-.688-1.657-1.511-1.078-1.196-1.039-1.386-.02.015-.917-1.203-4.47-2.207-1.983-1.207-2.11-1.445-3.387-2.621-2.921-2.211-1.543-.84-.82-.504-2.989-2.977-4.875-2.296-1.637-.918-.004.007-.156 1.141-.59-.133-1.547-.527-1.007-.441-1.282-1.657-1.675-1.176-1.301-1.187-.309-.664-1.344-1.352-1.488-1.886-1.07.082-2.266-.364-1.504-.058-4.168-.54-2.02.079-.417 1.015-.031.676-.653 1.043-.203 1.008-.531 1.086.164.863-.664.906-.176.829.195.5.446 1.64-.48.192-1.2.398-.266.043-.226.094-.266.125-1.902-.594-.617-.672-.946-.972-4.898-3.614-.344-.34-1.008-.535-.465-.195-.707-.152-.19.02-.677.14-.093-.098L81.883 122.5l-1.047-.227-4.89-.554-.786-.496-.285-.106-.957-.492-.023.04-.157.026-.187-.164-.824-1.02-.559-.28-2.8-1.59-1.114-.633-1.547-1.063-2.473-1.722-1.484-.824-7.238-4.036-.492-2.113-.325-1.918.102-.96-1.43-1.009-.742-.351-2.18-1.774-.332-1.363-.586-.86-.09-.484-.292-.218-3.567-1.723-.785-.031-1.16.07-.914-.047-1.473-.254.024.215.046.246-.03.004-.095-.008-.004.016-.015.18-.192.191-.03.734.042.168.078.227.614.308.539.207.14.25.059.188-.027.02.039.16.035.195-.055.176.02.273-.082.156-.059.399-.125.242.004.152h-.027l-.489.102-.148.008-2.461.27-.695-.028-1.43.879-.39-.477.007-1.152.89-.422-1.238-1.668-.855.617-.016-.05-.332-.707-.375-.13-.363-.171-.188-.371.012-.27.18-.066.781.12.664-.093.297-.074.145-.863-.934-1.024-.309-2.078-2.625-2.762-.433-.422-.848-.375-3.14-3.257-4.504-4.903-.91-1.039-1.094-4.96-2.7-3.493-.718-1.187-.371-.32-5.086-1.188-4.184-.832-4.617-1.133-.727-.309-1.574-1.32-.207-.64-.656-.696-.492-.543.02-.797.081-.582.063-.57.949-1.567.594-.64-.07-.992V57.05l.21-.188.34.055.578-.09.625-.34.016-.25-.012-.847.239-.446.414-.242L5.8 52.016l.285-.266.016-.055-.032.008-.218.09.023-.063.281-.472.45-.27.59.086.007-.289-.047-.539.035-1.508.067-.554-.059-.274.57-1.027.868-1.938 1.656-2.355.82-.805 1.239-2.105.824-2.051.629-2.293.199-.086.293-.395-.035-.468-.16-1.235.968-1.898.09-.633-.77-2.414-.382-1.012.027-.008.348-.09.172-.097.496.176.195.031.172-.082.277.055.09.23.07.164.176-.07v-.043l-.043-.14.028-.016.77.172.179.09.406.035.578.382.188.786-.063.445-.14.363-.016.57-.043.004-.2-.047-.179-.011.016.414.476.594.367.523.06.23-.06.028.122.215.171.226.254.035.442.086.511.34.243.2.511.199.856.41.86.332 1.84.226.644.57.226.278.633.387.172.172.46.132 2.25.844.079.473 1.2.976.538.067.184-.055.449.441.3.465.384.399-.036.719.278.308.09.156.058-.058.547.054.293.442.363.945.004.266 1.063.996.23.07.582.578.57.137.305.066.352-.199.57-.058.469.441.332.398.43.145.582 1.04.304.105.766-.02.3.25.528.715.621-.14.43.39L43.16 48l.028.316.03.192.282.316.559.664.695.184.176.07.863.469 1.02 1.047.25.758.652-.012.855.137.145-.203.183.058.434.422.219.137.332.297.43.425.64.41.371.61.57.308.922.805.188.2.168-.106.187.023.368.317 2.054 1.816.285-.039.446.438.851.757.727.45.547.726.488.403 1.156.68 1.18 1.23.754.62.23.157.657.023.593.106.032-.371.054-.121.188.066.55.356.715.492.371.082.641.957.149.191 1.812 1.492.453.227.574.504.836.547.489.062 1.164.633.511.125.446.117.332.008.828.402.305.27.296.105.528-.152.265.219.055.574-.297 1.192.008.351-.348 1.621.368 1.73-.16.333-.133.148.035.34-.004.418-.051.422.262.539.265.254.254.14.344.32.606.208.511-.153.899 1.121.949.418.262.043.472.309.36-.05.293.195.3.62 1.114 2.22.03-.016.231.035.192-.02.652-1.28.277.089 1.094.64.516.118.316.008.93.433.797.18.265.129.262.336.32.234.645.68.871.836.328.203.586 1.02-.097 1.132.082.145.472-.02 1.024-.11.109.044.008-.094.258-.34.293-.097.535.457.566.515.496.293.188.102 1.363.164 1 .668h.29l.144.094.175.472-.03.387.862.77.137.347.11.457 1.218.422.16.387.114.238 1.05.61.262.222.418.2.29-.063.37.05.157-.101.308.324.098.2.023.456.192.258.11.094.128.18.617.187.168-.305.633.403.262.523.254.102.289.055.254.34.332.452 1.425 1.254.301.36.535.644.485.578.328-.582-.156-.289-.067-.246-.09-.215.067-.12.215-.165-.067-.41-.371-.605.078-.524.094-.3.016-.946.468-.297.38-.105.038-.235-.082-.34-.238-.687-.723-1.047.11-.512.004-.578.273-.699.465-.027-.074-.114-.11-.296.2-.329.015-.734.059-.707.25-.371.082-.215.14-.5.09-.324.285-.152 1.028.386.558.317.008-.082.035-.274.328-.332.664-.95.832-.026.137-.098-.027-.2-.031-.257.195-.387.219-.262.3-.171.274.058.21-.035.348.207.48.41.415.223.223.16.906-.352.754.438.601.723.778.914.199.285.355-.203.118-.09.464.129-.015-.086-.059-.309.567-.023.18-.067.085-.28.067-.36.293-.696.41.055.656.219.5-.043 1.293.414.758.48.379-.152 1.336-.687.992.675 1.023.649 1.055.262.355-.223.375.012.497-.239.011-.324.239-.058.5.02 1.136-.61.364-.016.226.074.516.282.265-.094.153-.07.57.199.152.039.282-.07.175.437.286.988.273.45.219.085.273.055.3.035.27.364.282.718.035-.035.629-.207.387.008.59.062.769.121.168.036.781.664.434.468.422.98.402.177.34.12.23.302.762.835.277.184.45.73 1.703.84.71-.476.59.086.188.308.18.243.214.273-.05.61-.051.21.277.684.211.226.086.106.047-.082.11-.172-.051-.258.023-.664-.285-.39.226-.512.032-.207-.563-1.012.024-.246-.059-.297-.035-.277-.047-.258.008-.313-.192-.683.012-.258-.016-.879.032-.832.593-.426.125-.222-.003-.246.074-.204.199-.066.277.117.184.145.012-.043.101-.156.176-.106-.004-.246-.398-1.023.187-.215.211-.137.172-.106.156-.207.016-.437-.332-.184-.696-.398-.269-.106-.254.118-.625-.344-.586-.055-.367-.484-.25-.156-.215-.153-.305-.25-.16-.195-.101-.273-.493-.555-.468-.727-.34-.492-.262-.754-.281-.2-.285-.269-1.04-.992-.55-.828-.637-1.031.043-.278-.254-.683-.453-.445-.914-.239-.215-.074-.008-.316.204-.285-.239-.872-.293-.05-.254-.856-.218-.586.175-.433 1.11-1.082-.14-.383-.25-.375-.177-.254.2-.305.07-.351.187-.133-.007-.14-.477-1.22-.883-.496-1.594-1.64-.246-.778.02-1.03-.168-.177-.348-.363-.16-.2-.34-.066-.586-.292-.066-.391-.137-.309-.308-.504-.141-.504.172-.125.512-.093.847-.164.246-.047.61-.727-.473-1.273-.46-1.043.042-.156.95-1.196.671-.27.203-.327-.164-.493-.12-.43.085-.066.328-.172.121-.804.098-.29-.164-.683-.129-.531.113-.125.196-.133.07-.582-.41-.809-.418-.683.078-.54.07-.152-.039-.437.094-.223.176-.078.031-.672-.098-.261-.12-1.118.202.098.34.129.957.3.098-.128.156-.051 1.387.445.363.055 1.43.195.094-.113.261-.57.297-.219.207-.191.196-.043.085-.059.274-.078.183-.317.157-.382.414-.274.172-.144.136-.532-.183-.433-.406-.914.082-.133.32-.121 1.691.262.496-.348.477-.031-.004-.051.063-.203.18-.121.152-.137.207-.016-.043-.882.172-.25.078-.606.254-.062.28-.036.298-.214.691-1.172.54.258.5.12.519.149.597-.156.14-.281.15-.547.163-.172-.054-.305-.114-.367.02-.137-.434-1.191-.136-.117-.063-.309-.094-.777-.277-.637-.191-.102-.032.055-.796.629-1-.211-.856-.621-.3-.129-.5-.398.011-.47.309-.37-.172-.008-.114-.117-.156-.117-.281.039-.125.195.023.488-.27.11-.421-.243-.996-.261-.746.011-.29-.02-1.187-.597-.183-.261-1.805-.977-.664-.352.031-.617.016-1.187-.219-.278-.074-.566.187-.227.239-.207.082.04.242.124.172-.16-.024-.379-.027-.308.101.133.387.527.223.168 1.094.18.136-.098.278.148.382.395.34.305.43.152.855.539.176.07.254.336.281.067.18-.02.332.09.688.105.379.059.488-.29.133-.417.957-1.566.125-.477.27-.031.546.16.297-.27.191-.257.442-.059.195-.223-.031-.21-.106-.426-.238-.977-.098-.41.227-.348.18-.082 1.011-.398-.011-.024-.078-.23-.485-.887-.035-.215-.105-.406.02-.387-.27-.797-.442-.277-.367-.098-.277-.207-.875-2.285-.188-.414-.02-.23-.41-.867-.574-.094-.101.281-.418.234-.672-.144-.422-.027-.484.082-.348-.22-.48-.362-.098.039-.051.082-.004-.067-.246-1.144-.117-.594-.086-.09-.336-.156-.117-.457.047-.262-.153-.266-.308-.304.125.043.394.011.031-.109-.117-.32.063.011.246-.21.2-.387.444-.531.176-.278.235-.101.289-.098.12-.539-.109-.633.125-.14.461-.055.692-1.363.086-.137.289-.348.113-.215.023-.07.024.012.422-.098.164-.152-.11-.469-.718-1.191-.453-.766.445-.559.312-1.57-.297-.363-.062-.32.375-.93.562-.235-.05-.664.437-1.03.55-.165.65.39.206.438.528.535.355.336.38.352.589.207.297-.031.7-.743.128-.312.18-.219.836-.41.472.406.578.68.262.309.652.242.348.203 1.316.473.356.19.316-.151.536-.032.304.27.469.105.18.325.34.617.187.18.344.644.48.469.473.492.383.625.382.324.149.371.578.57.297.477.09-.105.097-.313.188-.504.55-.808.2-.45.328.172.461.196.36.085.234.145.008-.016.16-.171.222.011.153.067.027-.04.336-.3.074-.063.246-.289.485-.37.273-.388.004-.015.047.031.36.152.472-.101.719.055.187-.04.164-.136.301.191.332.328.203.168.348-.004.277-.152.395-.527.175-.086.993-.032.082-.253.308.093.805.352.445.133 1.07.578.563.012.297.152.14-.176.215-.484.204-.043v-.016l.015-.336.074.024.653.164.894.07.64.34.224.066 1.906-.113v-.012l.133-.078.41.375.234.371.227.082.84.418.574-.02v.094l.191.454.313.25.293.433.343.2.332.484.23.46.54.305.16-.015.344-.18.273-.008.313.043.566-.254 1.09.602.344-.02.594.368 1.093.863.051-.07.352-.188.578-.066.648.242.953.66.227-.024.746.13h.227l.66.19.496.325.262.285.054-.105.23-.38.653-.25.004.016.223.547.445.407.25.168 1.598 1.43.164.155.293.356.449.8.41.759.43.343 1.093.805.832-.316.532-.11.218-.18.743.165.261.066.328-.102-.007.032-.09.48.215.871.062.23.145.391.347.41-.027.438.215.398.113.262.07.266.684.898.215.32.16.989.274.543-.008.3-.14.454-.31.105-.117.117.051.492.29.399.284.504.086.27-.558.84-.246.097-.07.094-.966-.13-.59-.19-.062.218.023.52.243.312.203.102.039.12.48.587.086.472.047.535-.414 1.532.086.367.309.883.023.625-.066.004-.77-.2-.668-.265-.207-.043-.371-.094-1.098.598-.164.726-1.207.274-.133.023-.89.469-.219-.106-1.68-1.265-.25.176-.464.422-1.04-.11-.128.113-.16.485-.122.058-1.34-.18-.253.024-.188-.125-.488.027-.34-.265-.164-.098-.121-.097-.36.093-.367-.34-.492-.296-.602.343-.085.34-.036.516-.136.426-.375.68-.746.59.093.425.024 1.3.285.583.031.039.688.734.734.914 1.313.883.3-.074.09-.031.363.312.313.32.238.024.168.508-.187 3.062-.14.395-.09-.067-1-.73-.329-.29-.246-.085-.23-.164-.293.086-.157-.102-.273-.328-.063-.063-.148-.144-.461-.121-.309-.176-.277-.062-.719-.536-.261-.218-.258-.23-.735-.266-.632.062-.309.348-.023-.012-.008.105.469 3.27.207.566-.043.125.148.489-.016.28.243.477-.211.313-.23.11-.032.171-1.04.942-1.741-.012.05.09.875.718.622.547.222.496.578.868 1.84 1.738.52.223.254.351-.082.168-.665.36-2.003-.532-.575.532.059.285.793 1.351.144.438.567.816.016.25.394.328.273.117.567.301.305-.062.285.18 1.035 1.113.34.343.445.375v.32l.047.274.023.332 1.04 1.563.331 1.3-.074.504.38.11h.675l.219-.035.293.066.41-.031h.234l.098.222.164.239.488-.012.082.121-.035.5.273.258.29.183.644.922.027.121-.078.606.352.531.836.871.226 1.23-.004.005.13.023.277.059.332-.012.675.277.793-.246.508.028.93.726 1.02.746.359.52.738 1.238.676.473.484-.082.399.218.168.266.18.277.324.32.765.114 1.16.387.54-.227.16-.176.136.043.602.575.305.203.347.074.871.242.461.398.203.188.18.156.16.57.067.31.168.413.433.328.446.325.644.812.207.121.524.356.632.945.633.48.188-.007.175.261.086.602-.015.457.293 1.566.445.137 1.484.582.196-.156.37-.39.18-.157.532-.09.16.207.383.75.383.031.335-.144.645-1.582.23-.246.004-.192.426-.453.145-.21.308.222.575.578.226.305.293.215.352.46.246-.3 1.011-1.48.137.136.242.336.184.129.27.281.167.066.27.184.68.598.738.484.492.52.938.543.164.507.843.875.309.211.23.137.211.402.243.22.539.519.113.28.351.485.313.063.285.113.238.04.489.343.32.195.594.52.14.36.23.421.622.809.129.12.91.247.422.449.574.992.258-.344.05-.144.071.039.227.14.496-.23.132-.172.415-.027.714-.031.547-.63.176-.042.316.238.418.383.172.055.457.335.278.032.152.043.54.062.382.078.238-.066.977-.371.293-.184.18.012.156-.145.097-.015.008-.04.11-.406.332.102.07.191.879.66.543.794.597.64.414.664.2.055.297.254 1.27 1.371.425-.492.05.062 1.481 2.153.297.191.684.453.082.18.472.222.23.575.423.36.379.085.18.379.21.477.125.347.402.383.032-.086.36-.082.077-.117h.02l.133-.125.125-.172.304-.031.215-.032.219-.113.945.762.332-.133.149-.137.144-.433.387-.281.387.3.168-.008.37-.261.22-.008.55.09.43.21.074.673.004.875.516.191.191-.02.352.243.343.351.641-.304.227-.157.359-.136.55-1.254.173.03.035-.081.066.066.27.188.64.547.606.101.246-.023.492.304.348.262.03-.055.5-.453.677-.05 1.117.543.215.73.191.574.149.168.23.114.227.109.144.105.594.606-.035.183-.043.086.004.563.277.308.625.293.332.012.387.281.32.805.473.66-.653.465-.105.555-.152.648-.582.051.066.14.473.848-.032.66.098.633v.668l.238.156.23.055.165.254-.086.277-.04.274.27.191.973.242.34-.03.262-.141.007.007.184.243.32.46.414.395.645.086.316.566.032-.02.253-.042.32.332.684.742.235.074.199.399.18.644.015.664.125.301-.136.55-.297.427-.317.363-.894.328.398 1.152-.402-.093-.227.015.09.375.024.153-.168.175-.832-.23-.457.133-.579.183-.34-.132-.253-.262-.438-.035-.336.82-.023-.012-.39-.031-.231.293-.434.25-.125.355-.238-.066-.293-.164-.524.285-.449-.27-.972-.402-.22-.265-.984-.82-1.187-.372-.543-.336-.281.11-.121.113-.239.781-.148.102-.625 1.847.02.407-.06.57-.445.562-.445.188-.265.203-.184.137-.223.168v.242l.352.691-.262.325-.062.254.109.195.648.355.38.219.109-.148.125-.442.312-.086.656-.004 1.368.93.492.227.867.312.176-.238.035-.266.215-.394.195.015.902.278.157-.028.398-.238.195-.543-.18-.094-.155.016-.52-.438.031-.25.426-.328.527.207.434.325.957 1.152.129.582.195.027.156-.324.168-1.008-.175-.734.312.062.367.23.125.384.094.554.18.258.219.106.37-.125.18-.086.29.117.187.004.441-.352.47-.562.6-.043.016-.328-.066-.383.2-.352.17.043.645.711.082.332.004.676.325-.02h.507l1.102-.078.496.446.496.582.176.011.633-.164.293-.144.164-.387.097-.258.145-.031.305.32.183.246.313.036.39.12-.015.184-.25.946.367.23.363.125.656.078.043.238-.109.313.52 1.348.199.164.012-.012.105-.145.543-.23.438.5.066-.2.297-.335.578-.047.676-2.836.425-.563.196-.046.441.199.34.43-.168.394.254.379.293.144.14-.105.075-.68.09-.254.156.032.91.84.23.003.196-.136.496.168.512.105.414-.266.293-.246h.074l.437.563.528.562.93.461.175.176.23.457.352.203.602.387h.367l.008-.258-.332-.242-.281-.14.027-.352.105-.106.801.243.649.43.082-.126-.118-.215-.234-.332-.023-.199.058.004.754.059 1.606 1.011.906 1.09.906 1.164.594.301.437.117.446.457.668.688.296.152.48-.09.337-.035.183-.176.254-.328.871.598 1.36.66.445.035.293-.133-.121-.66-.578-.906.101-.14.297-.048.375.145.118.453.015.262.27.238.597.074.192-.183-.035-.348-.239-.531.137-.258 1.094-.383.402-.336.281.176.332.633.27-.074.601-.438.157.047.824.422 1.316.45.305.378-.184.484.356.274.32.02.461-.036.649.438.21-.254.235-.27.156-.195.45-.645.253.133.973 1.047.344.031.308-.191.395-.29.27.075.23.07.426.203.246-.078.14-.242.043.02.203.234.372.5.933.207.32-.058.309-.083.781.399.235.68.168.41.367.191.347-.058.559.18 1.184.41.23-.098.024-.133-.278-.356-.265-.183-.364-.133-.07-.285.195-.324.367.02.43.327.344.36.121.035-.266 1.238.086.559-.078.426.297.414.285.214.11.172.195.485.11.27-.028.007-.008.172.176.46.004.122.148.687-.031.098-.43-.047.008.254.035.23-.383.473.09.864-.058.707-.489.671-.203 1.43.14.442.188.64-.086 1.094-.113.43.047.285.125.734.016.274.101.562.23.344-.718.402-.207-.094-.434-.09-.191.141-.207.11-.441-.114-.188-.195-.547.348-.2-.082-.144-.008-.136-.035.039.078-.055.129-.027-.008-.961-.086.004.113-.07.106-.169.05.008.04-.039.195-.113-.016-.094-.023-.023.039-1.457 1.625-.22.75-.151-.055-.305-.336-.121.067-.203.074-.426-.328-.297-.028-.387-.12-.004-.11.141-.207-.184-.117-.312-.043.008.082.086.312.054.18-.222.133-.176-.117-.117-.125-.102.117-.113.16-.246-.09-.25-.055-.336.114-.106-.172-.187-.113-.164-.075-.195-.183-.051-.125-.024.011-.328.18-.418-.3-.027.109.031.261-.082-.046-.344-.07-.867-.012-.242-.004-.242-.047-1.106.047-.39-.125-.094.183-.016.172-.031.316.266.297.12.328.094.23.204.77.168.43.304.27.184.379-.203.16-.461-.184-.445-.062-.547-.348-.286.035-.625-.023-.09.18-.14.257-.152-.039-.25-.203-.856-.3-.351-.337-.625-.43-.274-.183-.59-.05-.593-.102-.442-.305-1.406.14-.45.196-.976.137-.187.156-.559-.11-.336.196-.226.078-.176.293-.309.27-.289.023-.297.066-.16.125-.098.586-.113-.011-.308-.122-.48-.136-.067-.13-.032.016-.175-.003-.727-.485-.285.004-.227-.047-.785-.082-.144-.039-.235.11-.37-.141-.31-.262-.292-.07-.97-.16-.187.125-.054.148.047.008h.511l.25.3.633.864.188.215.504 1.531 1.449 1.29.23.382.313.309.027.207-.246.101.074.09.067.098-.094.168-.055.125.008.3.113.856-.043.265.035.297-.039.543.032.004" style="fill-rule:nonzero;fill:#908e96;fill-opacity:1;stroke-width:.25;stroke-linecap:butt;stroke-linejoin:miter;stroke:#fff;stroke-opacity:1;stroke-miterlimit:10"/></g></svg>