<svg viewBox="0 0 334.8 167.032" xmlns="http://www.w3.org/2000/svg"><defs><clipPath id="a"><path d="M180 52h155v115.031H180Zm0 0"/></clipPath><clipPath id="b"><path d="M176 49h159v118.031H176Zm0 0"/></clipPath><clipPath id="c"><path d="M0 .031h170V116H0Zm0 0"/></clipPath><clipPath id="d"><path d="M0 .031h173V120H0Zm0 0"/></clipPath></defs><path d="m169.723 47.355.43.067 1.835 1.144-.011.121-.098.22-.035.46-.028.426-.187.082-.172.293-.098.05.008.06.383.488.242.23.153.035.332.137.68.496.902.398.152.153.3.574.278.082.191.211.32.422.348.332.149.016.004-.04-.012-.148.516-1.305.254-.257.246-.536.41-.472.097-.344.06.02.32.093.132.028.918.707 1.758 1.297-.016.015-.101.074-.008.48-.066.294-.036.11 1.575 1.792.718.406.254.403.246.375.875.695 1.7.922.433.574.336.953.059.489-.102 1.066.137.453.332.445 1.219 1.282.324.793-.195.796-.348.903-.117.457-.168.629-.219.191-.492.031-.438-.03-.816-.005-.02.442.13.5.253.129.305-.188.312-.016.395.313.55.95-.058.394-.351.765-.512.961-.05 1.317.733 1.77.114.402.11.765-.067.934-.02.582.164.824.203.711.168 1.633.239.183 1.054-.066.137.113.191 2.09.121.805.157.308.265 1.739.098.48-.047.399-.433.238.007.539-.164.129.094.265.09.188.02 1.777.03.496.06 1.235.152.367.09.457.175.223-.289 1.293.438.64.914.336.437.055.2.027.34.074.527-.097-.024.125-.031.379.129.254.219.253.035.266.336.848.164.379h.015l.18.14.043.106-.078.226.492 1.727-.137.473.047.402.125.476-.011.075.171.785.274.988.016.621-.075.32-.054.446-.047.199.289.648.05.243-.03.007-.31-.082-.019.059.059.2.12.113.18.585-.058.403.176.644.195.227.004 1.305-.227-.032.012.27.016.14-.016.012-.133-.011-.16-.063v.02l-.015.207-.133.148-.008.414-.094.367.086.223.09 1.152-.3.692-.497.488-.543-.09-.059.027.055 1.34.156.2.036.562-.012.145.305.308.117.121.484.223.094.262.023-.004.223.183.293.688-.016.094.352.847.387.465.152.066.379 1.243-.106.21.102.43-.082.121.043.145-.09-.024-.129.075.152.382.032.551-.114.211.254.38.188.175-.14.418-.04.144.559.407.082.078.281.523.48.61.07.113.227.02.407.136.293.254.171.125.563.805-.133 1.277-.45.23-.128.118.129.172.09.097.117.14.516.208.41.16.234 1.145.082.117-.058.199.093.18-.05.02-.223.097-.27.062-.289.41-.093.196-.032.191-.086.207-.093-.054-.079-.032-.046.063-.266.172-.133.097-.082.059.008.039.031.293-.265.027-.192.446-.094.547-.214.109-.024-.047-.031-.191-.094-.047-.023.07h-.118l-.18-.09-.023.047.004.41-.062-.012-.207-.027v.016l.023.37-.074.47-.063.144-.64.063-.04.25.227.547.02.757-.04-.004-.827-.097-.008.113-.004.207-.164.27.043.761.18.094.289-.059.093.735-.101.23-.028-.047-.445-.671-.39-.024-.27-.101-.46-.063-.946-.168-.332-.058.011.05.313 1.504-.024.004-1.601-.183-.918-.825-1.406-1.425-.63-1.25-4.038-.922-1.574-1.047-1.282-.457-1.343-1.145-.477-.578-.207-.18-.125.149-.008-.09.043-.258-.121.031-.02-.105-.109-.09-.144-.012-.082-.28.023-.04.055.008.09-.031-.004-.047.015-.77-.12-.52-.423-.116-.285-.125-.047.003-.015-.062-.102-.266-.039.121-.094-.109-.336-.355-.168-.235-.086-.46-.144-.012-.016.066h-.082l-.031-.035.035-.184-.012-.277-.25-1.254-.113-.191-.207-.137-.012-.512-.082-.57-.027-.176-.016-.188-.402-1.19-.086-.673-.101-.48.054-.196-.043-.695-.082-.367-.203-.191-.098-.434.145-.488.031.007.086-.011-.004-.02-.187-.465-.149-.246.075-.004.148-.05.039-.215-.055.008-.05-.079-.06-.199-.1-.183.1-.297.15-.168.038-.028.075.024-.012-.106-.238-.398-.883-1.648-.469-4.696-.922-2.773-.812-.926-.258-.922-1.418-1.926-2.914-2.097-2.895-1.547-.039-.18-.07-.402-.215-.375-.375-.5-.2-.785.071-.153-.207-.472-.16-.352-.137-.23.395-.61.043-.242.14-.184.012-.332.363.11.223.023.008-.035-.082-.43-.047-.18-.09-.464-.105.086-.02-.098-.07-.469.047.008.285.024.273-.473-.152-1.785.094-.156.601-.29-.023-.18.113-.05-.016-.05-.183-.286.11-.016.425-.343-.047-.032-.55-.183.12-.887.16.043.11.145.05-.078.048-.188-.196-.2-.414-.26-.367-.77-.039-.075.024-.035.18-.191.44.14.02-.101-.246-.32-.34.043-.078-.083.04-.312.151-.125.516.152.004-.027-.125-.184-.32-.441.05.02.06-.094-.009-.012-.176-.332.137-.117.473-.281-.016-.118-.187-.332.136-.23.082-.238-.199-.403.031-.18-.085-.55.12-.13.13-.655.093-.168.18-.184-.04-1.2.024-.51-.132-.34.203-.712-.172-.574.07-.875-.18-.367-.117-.77.133-.191-.02-1.191-.285-.762-.093-.899-.133-.867.086-.426.14-.933-.132-1.52-.13-.46.06-.477.25-1.102.03-.355.348-.914.508-.426.144-.332 1.067-3.113-.184-.477.051-.367.024-.461.015-.238v-.426l.117-.05.067-.216.015-.144-.175-.137-.121-.055.054-.28.13.073.05-.05.078-.184.043-.121-.004-.133.094.043.113-.07.191.011.188.2.098.093.035-.066.164-.277-.184-.223.094-.016.023-.066-.007-.016-.485-.433.008-.012.203.023.328.114.008-.086-.129-1.07-.351-.133-.23-.043-.29.347-.113-.156-.07-.332.07-.125.172-.254.125-.605-.278-.16-.644-.36-.07-.379.054-.035.035.024.215-.024.242-.262.102-.168-.094-.148-.402-.266-.461-.773.02-1.227.417-.109.094-.16.117-.54.204-.198.515-1.07-.183-.872.27-.348.136-.226.078-.344.258-.168.105-.133.156-.504.282-.125.21.125" style="fill-rule:nonzero;fill:#1a1523;fill-opacity:1;stroke-width:.25;stroke-linecap:butt;stroke-linejoin:miter;stroke:#fff;stroke-opacity:1;stroke-miterlimit:10"/><g clip-path="url(#a)"><path d="m274.293 108.129.102.238.16.715.328.316.156-.144.149-.414.269-.098.598.113.129.61.082.39-.016.067.035.57-.265.7.023.269h-.148l-.098.05-.16-.046-.016.426.004.242-.164.183-.055.301-.46 1.211.003.457-.25.313-.07.23.101.254.47.148.722.051.668.293.558.375.305.14.04.419-.06.558.27.512.137 1.008.363.535.895.598.097.316.184.27.348.175-.012.141-.133.203.102.399.171.218.215.48.13.227.363.27.218.586.078-.012.098-.183.023.004 1.23-.106.24-.289.136.129.351.644.153.282.367.367.504.32.039-.05.18-.81.367-.038.5.187.84.563.054-.063v-.672l.282-.086.035-.152.101-.2-.011-.206.195.082.21.012.626-.012.805.851.347.465.13-.078.519-.262.238-.097.039-.29.106-.386.078-.36.37-.828.141.133.668 1.18.102.305.25.129.332.222 1.144.531h.446l.363-.128.168-.047.164-.364.145-.336.183-.457.106-.257.398-.145-.023-.855.156-.149-.02-.027-.046-.184.117-.058.75-.075.129-.078.21.13.247.105.074-.07.055-.106.058.023.192-.074v-.027l.035-.2h.023l.227-.003.25-.024.215-.035.187-.184.273.06.118-.216.336.02.015-.051.028.012.164.062.336.676.074.312.469.442.043.219.203.222.175.075.137.128.047.164.2.149-.009-.098.051-.078.203.074.211.172.149.055.36.762.019.355.144.48.07-.081.059-.344.184-.078.082-.325.02-.53.144-.114.203.035.277-.012.367-.675.36.097.328-.496-.016-.105.086.011.281-.03.125.16.024-.094h.039l.16.109.012-.012.008-.222.293-.293.238-.149.137-.266.074-.039.226-.046.145-.102.36-.277.109-.035-.008-.043-.008-.118.074.043.094-.07.023-.137.086.016.414.012.153.023.137-.05.019.034.102.176.117.13.226.292.325.02.382.097.157-.273.285.062.02-.07.034-.027.297-.7.262.051.602.246.257.059.809.406.34.598.191.41.34.941.145.157.082.25-.047.375.117.148.16.152v-.07l.117-.375.149-.02.183.012.246.348.036-.133.226-.215-.176-.476.567-.149.164-.164.144.078.008-.043.043-.449.348-.074.351.129v-.05l-.289-.95.047-.621.633-.324.445.062.25-.098.618.227.351-1.047-.02-.27.477-.78.125-.032.149-.14.058-.13.055-.468.191-.008.004-.043-.129-.309.184.141.074-.023.04-.317-.145-.523.132.015.082-.035.118.074.05-.066-.023-.2-.082-.206.039-.012.36-.078.046-.102-.105-.289-.297-.449-.406-1.195-.27-1.188.047-.008.379-.132.242-.192.621-.797.668.61.399.89.039 1.243 2.12 2.066.364.164.5.395.61.125.476-.16.816-.36.575-.086.32.219.523.746.387.992.621.73 1.04.688.413.926.157.746.332.379.757.637v-.051l-.105-.758.223-.074.296.105.305-.96.012-.227.125.031.375.246.476-.21.082-.134.012.028.55 1.336.38.625.238.691.133.434.105.351-.218.66.117.5.246.47.2.452.241.516.012.527-.621.617-.133.946-.039.152.004.648-.738.266-.137.469-.078.297.082.965.012.476.129.703-.258.25.02.293.206.418-.039.117-.61.555.18.293 1.317 1.707.621 1.274-.008.39-.203 1.102-.016.832.258.797.16.277.348.375.645.504.441.605.023.504-.89 1.39-.703.903-.172.703-.156.188-.094.777-.414.508-.63.242-.421.766-.434.035-.605.191-.93.364-.761 2.05-.07.399-.235.71-.043.677.086.277.355.746-.066.223-.008.132-.3.266-.231.14.02.266v.223l-.141.21-.13.263.114.289-.379.418-1.16.113.027.035.133.14-.16.067-.105-.02.046.102-.011.637.16.187.223.329.05.128-.039.02-.047.074.07.117.032-.015.144-.004-.007.035-.067.2.239.655.168.313.027-.027.078.007.008.047.039.168h.035l.055.164.015.77-.812.07-.317.113.063.2-.074-.02-.114.031-.128.23-.098.04v.05l-.05.055-.036-.023-.117-.098-.02.032-.129.105-.199-.094.059.137.12.207-.03.016-.192.035-.074.172-.219-.067-.125-.168-.152.176-.535-.34-.043-.172-.516.004.023.032.11.21h-.047l-.148-.023-.06.363-.007.133.04.207-.13.094.067.328-.067.117-.547.106-.27-.121-.026.058-.09.02-.188-.09-.125.226.094.157.078.382.238.32-.043.032-.27-.133.013.074-.004.137-.141.055.04.101h-.106l-.254-.05-.125-.078.035-.16-.11.038-.136-.12-.02.105-.066.316-.035-.015.02-.082-.071-.098-.125.078-.102.262-5.382-1.77-3.547-1.492-.239.297v.336l.207.203-.05.035-.016.106.125.37h-.012l-.406-.1.004.046.094.516-.332.058-.172.196-.211.003-.024.247.153.406-.035.097-.063-.023-.246.09-.063.297-.164.566-.238.172.078.16.38.156.058.434.101.32-.554.543-.075.067-.37-.16.003.093.024.25-.047.012-.57-.02-.083.176-.046-.035-.184-.191-.016-.39-.03.007-.122-.05-.062-.06-.02.028-.059.293-.054-.008-.27-.21-1.168-1.427-2.398-.52-.082-.28-.711-1.098-.133-.356-.238-.12-.18-.243-.234.055-.153-.02-3.308-.969-2.77-.878-.648-.29-.106-.261-.3-.055-.172.047.011.027-.011.227-.036-.012-.3-.379-.157-.21-.144-.067-.027.039.007.117.114.168-.114-.031-.199-.07.016-.04.187-.324-.011-.011-.086.054-.172.051-.156-.047-.114-.367.012-.73.105-.325-.101-.011-.094-.137-.043.047.059.152v.102l-.028.02-.09-.122-.242-.508-.57-.234-.156-.297-.145-.02-.172.086-.324-.14-.125-.07-.258-.333-.09.036-.054.214-.074-.062-.204-.098-3.003-1.132-1.13-.141-1.117-.43.036-.12-.059.007-.129.004.047-.074-.016-.059-.511-.324-.203-.094.015-.05-.086-.157-.683-1.152-.079.015.004-.093-.324-.336-.707-.739-.066-.308.11.144.062.028.004-.079-.516-.98h-.262l-.09-.223-.105-.34-.125-.378-.152-.067-.274-.207-.351-.46-.243-.188-.457-.43-.246-.008-.91-.312-.215-.082-.453-.285-.41-.07-.258-.036-.207.133-.476.543-2.317-.516-1.765-1.25-3.165-2.101-1.367-.813-3.422-.894-4.355-1.864.016-.418.05-.18-.273-.675-5.559-1.781-1.593-.227-.247-.324-.082-.207.082-.43.176.082-.027-.101-.05-.157.097-.386-.008-.153.043.004.059-.008-.372-.113-2.011-.394-2.262-.04-1.563 1.043-2.386-.601-2.508.23.094-.03-.047-.134-.164-.043-.047.2-.031.222-.086.02-.004.043-.012.25-.121-.016.016.078.234.434-.078.11-.05-.048-.145.043.007.016.036.16-.106-.035-.152-.254-.063.121.063.242.074.133-.098-.008-.12.082.015.036.18.351.003.129-.097-.09-.203-.074-.09.137.031.257-.043.016-.11-.031-.128-.055v.059l.027.328-.21.203.148.676.105.488-.133-.195-.308-.188-.016.043-.023.23-.051-.046-.172-.074-.406.246-.305-.012-.113.121-.414.238-.364-.316-.168-.117-.007.015-.098-.043-.168-.226-.418-.031-.215-.149-.3-.426-.126-.004-.273.336-.04-.109-.163-.336-.07.07-.184.563-.145-.07-.183-.301-.11-.438-.062-.039.023-.031.043-.434-.492-1.156-.707-.52.059-.132.043.004.183.144.149.04-.024-.204-.344-.328-.523-.043-.215.149-.012.078-.105-.047-.535-.047-.621-.164-.117.21-.07-.066-.446-.394-.434.402-.703.024-.386.558-.055.121-1.098.239-.11.242-.073.242-.036.066-.043-.035-.796-.273.004-1.567.171.004-.02-.082-.862-1.902-1.036-.059-1.472-.215-.254-.12-3.028-1.438-2.93-1.73-.648-.954-.652-.203-2.902-.723-1.985-.609-.007.04.015.187-.223.132-.093.063-.172.105-.313.38-.558.077-.114.282.067.16-.008.351-.098.2-.054.074-.028-.035-.464-.309h-.165l-.136.063-.11-.043-.328.164-.277-.078-.145.004-1.972-.356-.325-.082-.218.008-.098-.02-.031.07-.09.22-.07.253-.035-.004-.329-.027.02.094-.086.117-.105.215-.004.066-.075-.02-.336-.1-.015.116-.055.227-.055-.031-.324-.102-.004.074-.074.266-.203.016-.078-.016.016.11-.04.19h-.027l-.066.09.062.293-.02.325.071.242.059.234.015.254-.023.207.101.23.207.294.266.433.043.285-.137.235-.09.504-.02.093-.07-.02-.187-.058.004.059-.043.152-.055.024-.129.46.09.145.082.34.184.144-.055.168.188.133.02.176-.087-.059-.133-.046-.003.03-.04.192-.652-.074-.191-.273-.239-.192-.003.086-.32.152-.173.184-.234-.258-.242-.199-.153-.023.004.054.063.446.027.441.024.16-.555.035-.215-.07-.45.176h-.288l-.082.039.043.691-.36-.07-.382.27-.063.183-.266.102-.015.144h-.063l-.148-.008.125.274.105.273v.336l-.37.059-.118.129-.422-.196-.129.086.024.23-.016.255-.039 1.039.023.277-.085.004-.426.031-.317-.148-.203.074-.05.293-.41.234-.208.246-.027-.027-.191-.137v.004l-.047.477-.055.273-.75.739-.238.222-.008-.18-.125-.269-.246-.016-.223.176-.062.133-.098.238-.309-.074-.37-1.426.472-2.12-.637-1.216-.441-.965.058-.183-.136-.781-.13.015-.21.074-.113-.19.03-.798.16-.254-.03-.187.187-.02.68.121.031-.023-.012-.02-.035-.605-.097-.457-.145-.262.106-.242.234-.055.351.047.063-.144.074-.47.024-.202-.024-.207.063.015.222.016-.004-.059-.027-.246.047-.133.434.188.015.137h.028l.171-.118.11-.285v-.558l.469-.274-.016-.293h.031l.11-.035.18-.222.405-.086.196-.762.094-.086.16-.07.203-.055.238-.066.016-.18-.028-.215.051-.047-.008-.035-.207-.203-.199-1.145-.766-.187-.375-.36-.003-.183.277-.176.238-.078.137-.09-.016-.223-.02-1.293-.124-.19-.04.058-.074.015-.921-.816-.496-.242-.153-.352-.488-.437-.723-.926.14-.418-.44-.606.062-.02.031-.651-.066-.497h.031l.09.024-.016-.086-.047-.164.059-.012.055-.035.004-.059-.16-.414-.032-.117.028-.012.16-.05-.32-1.032-.258-.257-.348-.442-.254-.484-.375-1.145-.223-.183-.093-.078-.133-.282-.492-.242-.102-.176-.219-.222.047-.29-.289-1.644.156-.23.47.07.233-.078.27-.442.348-1.101-.203-1.113.14-.727.11-.102-.02-.156.105.047.22-.004-.04-.113-.062-.11.035-.039.137-.109.23-.168-.14-.945-.048-.305-.25-.293-.023-1.144-.309-.672.141.008.188.078.011-.043-.086-.235-.242-.734.09-.66.047-.93-.344-1.816.05-.024-.034-.035-.317-.594.043-1.105.02-.215.004-.144-.375-1.008.027-.192-.215-.152-.144-.48-.246-.567-.125-.46-.133-.161-.215-.32.039-.59-.039.023-.473.16-.976-.156-1.192-.656h.004l-.187-.383.02-.453.21-.934h-.015l-.153-.265-.094-.504-.152-.367.016-1.371-.098-.688.082-.18-.156-1.558.144-.176-.011-.469.472-.293-.125-.765-.187-1.063v-.16l-.055-.293-.105-.422-.239-.465-.007-1.433-.106-.528-.05-.62-.122-.071L188 80.75l-.148-.363-.207-1.883-.227-.809-.059-2.53-.484-1.282-.176-.371-.195-.938.23-1.293.758-1.52-.004-.292-.195-.348-.863-.82-.684.183-.164-.296.121-.833h.207l.39.125 1.032.012.219-.191.137-.324.187-.868.258-.601.215-1.164-.426-.867-1.356-1.356-.199-.578.004-1.762-.297-.746-.433-.574-.735-.465-1.66-.95-1.094-1.273-.464-.23-.747-.773-.632-1.012.074-.196.043-.644.129-.137v-.015l.152.007.438.196.335.136.438.372.258.011.195.032 2.656 1.343.075.828.085.864.762 1.34.801 1.226.32.473.23.16.118.144.098.04.007.05.141.125.234-.004.106.246.09.418.75.079.832.867.082.304.336.5.226-.086.27.586-.008.192.61 1.031.14.344.074.27.23.417.005.383.398.598.55.719.72.8.562.567.172.351.43.356.156.293.285.422.48.425.282.125.195.012.5.215.656.293.282-.121.5.289.207.031.222.188.016-.02.207-.203.258.055.594.062.292-.137 2.02.086.254-.011.273-.067.239-.175.105.128.133.243.824.129 1.621-.145.344.055 2.336.043.316.035 1.239.39 1.421.649.704.336.41.222 2.234 1.172.387.29.265.058.458.203.554.246.742.395.434.136.844.36.32.27.34-.048 1.027.547.297.188.285.058.57.301.22.004.144.43-.04.293.083.07.539-.078.324.52.668.558.297.164.586.324 1.492 1.07.14.15.184.077.453.711.075.227.047-.016.164-.144.191.144.285.25.121.164.145.23.418.157.61-.2.167.2.258.527.512.547.191.223.219.215.254.074.367.27 1.387.956.43.61-.024.226.082.47.242.487.367.532.028.617-.22.277-.448.012-.465-.344-.25-.187-.215.027-.195 1.559-.711.261-.707-.11-.543.09.035.157-.117.36.214.609.395.875-.105.328-.286.023-.609-.64-.195-.547-1.09-.5-.492-.086-.172-.195-.48-.657-.133-.043-.434.082-.586.067-.809-.535-1.722-1.563-1.602-1.105-.73-.395-.184-.484.004.238.113.727.262.504-.094.324.817.734.644.04.301.124.207.465.215.148.656.497.574.945.29.14.234-.101.078-.094.203.035.305.305.27.656.64.055.312.152.075.047.421.153.696.539.605.214 1.809.907.336-.032.535.223.828.852.215.109.098.172 1.238 1.273.64.25.207-.582.094-.101.29-.196.245-.398.055-.172.52-.383.199-.281.347-.168.18-.703.254-.078 1.934-.547.746.144.258-.027.222.184.297.074.453.281.27.094.297-.152.699.55.238-.195.524.281 1.304-.086.395-.093.742.039.668.355.312-.094.25.012.641.266.367.199.406.02.235.195.316.176.32-.446-.128-.183-.086-.172.156-.758.2-.484-.118-.829.082-.53-.082-.118-.039-.418.219-.414.18-.195v-.496l-.047-.297.011-.164-.14-.266.242-.137.148.188.14.012.411-.008.148-.043.301.054.133-.203.152-.015.22.136.472-.136.094-.047.035.015.64.399.739.144.379.051.117-.062.011.008.637.503.164-.039.281.043.352.207.742.598.235.156.476.332.559.282.398.293.332.128.301.145.207.078.14.113.86.153.313.07.242.043.152-.027.656-.098.149.016.695.015.313-.023.007.297-.148.468.762 1.489-.082.14.062.032.516.492v-.106l.082.09.265.082.274-.012.144.36.778.8-.016.094.027.016.153.09-.031.031-.075.106.192.132.472.32.012-.019.39-.055.489.227.281.715.285.746.383.098.281-.036.106.235-.027.36.386.359.118-.196.007-.273h.067l.21.047.473.765.14.473.114.246.008.406.035-.004.649-.144.664.137.757-.016v-.04l-.082-.237h.067l.05-.133.31-.336.988.016.41.527-.035.203.195.016.223.144-.036.887-.047.183.141.532.102.234.336.594.011.148-.316.25-.016.18-.117.328-.016.375-.19.281.194.453-.285.364-.023.195-.094-.016.023.133-.003.082-.09-.058-.211-.184-.278-.164-.12.188.007.293.219.152-.117.265-.309.512-.07.133.742.64.203-.046.172-.043.004.027-.047.574.305.121.164-.144.695.23.32.125.036-.183-.059-.14.039-.02.012-.188.09.086.046-.07.024-.246h.039l.164.004.223-.184.172-.176v-.215l.035-.004.508.13.152-.126.074-.129.043.059.07.246.059.05" style="stroke:none;fill-rule:nonzero;fill:#908e96;fill-opacity:1"/></g><g clip-path="url(#b)"><path d="m274.293 108.129.102.238.16.715.328.316.156-.144.149-.414.269-.098.598.113.129.61.082.39-.016.067.035.57-.265.7.023.269h-.148l-.098.05-.16-.046-.016.426.004.242-.164.183-.055.301-.46 1.211.003.457-.25.313-.07.23.101.254.47.148.722.051.668.293.558.375.305.14.04.419-.06.558.27.512.137 1.008.363.535.895.598.097.316.184.27.348.175-.012.141-.133.203.102.399.171.218.215.48.13.227.363.27.218.586.078-.012.098-.183.023.004 1.23-.106.24-.289.136.129.351.644.153.282.367.367.504.32.039-.05.18-.81.367-.038.5.187.84.563.054-.063v-.672l.282-.086.035-.152.101-.2-.011-.206.195.082.21.012.626-.012.805.851.347.465.13-.078.519-.262.238-.097.039-.29.106-.386.078-.36.37-.828.141.133.668 1.18.102.305.25.129.332.222 1.144.531h.446l.363-.128.168-.047.164-.364.145-.336.183-.457.106-.257.398-.145-.023-.855.156-.149-.02-.027-.046-.184.117-.058.75-.075.129-.078.21.13.247.105.074-.07.055-.106.058.023.192-.074v-.027l.035-.2h.023l.227-.003.25-.024.215-.035.187-.184.273.06.118-.216.336.02.015-.051.028.012.164.062.336.676.074.312.469.442.043.219.203.222.175.075.137.128.047.164.2.149-.009-.098.051-.078.203.074.211.172.149.055.36.762.019.355.144.48.07-.081.059-.344.184-.078.082-.325.02-.53.144-.114.203.035.277-.012.367-.675.36.097.328-.496-.016-.105.086.011.281-.03.125.16.024-.094h.039l.16.109.012-.012.008-.222.293-.293.238-.149.137-.266.074-.039.226-.046.145-.102.36-.277.109-.035-.008-.043-.008-.118.074.043.094-.07.023-.137.086.016.414.012.153.023.137-.05.019.034.102.176.117.13.226.292.325.02.382.097.157-.273.285.062.02-.07.034-.027.297-.7.262.051.602.246.257.059.809.406.34.598.191.41.34.941.145.157.082.25-.047.375.117.148.16.152v-.07l.117-.375.149-.02.183.012.246.348.036-.133.226-.215-.176-.476.567-.149.164-.164.144.078.008-.043.043-.449.348-.074.351.129v-.05l-.289-.95.047-.621.633-.324.445.062.25-.098.618.227.351-1.047-.02-.27.477-.78.125-.032.149-.14.058-.13.055-.468.191-.008.004-.043-.129-.309.184.141.074-.023.04-.317-.145-.523.132.015.082-.035.118.074.05-.066-.023-.2-.082-.206.039-.012.36-.078.046-.102-.105-.289-.297-.449-.406-1.195-.27-1.188.047-.008.379-.132.242-.192.621-.797.668.61.399.89.039 1.243 2.12 2.066.364.164.5.395.61.125.476-.16.816-.36.575-.086.32.219.523.746.387.992.621.73 1.04.688.413.926.157.746.332.379.757.637v-.051l-.105-.758.223-.074.296.105.305-.96.012-.227.125.031.375.246.476-.21.082-.134.012.028.55 1.336.38.625.238.691.133.434.105.351-.218.66.117.5.246.47.2.452.241.516.012.527-.621.617-.133.946-.039.152.004.648-.738.266-.137.469-.078.297.082.965.012.476.129.703-.258.25.02.293.206.418-.039.117-.61.555.18.293 1.317 1.707.621 1.274-.008.39-.203 1.102-.016.832.258.797.16.277.348.375.645.504.441.605.023.504-.89 1.39-.703.903-.172.703-.156.188-.094.777-.414.508-.63.242-.421.766-.434.035-.605.191-.93.364-.761 2.05-.07.399-.235.71-.043.677.086.277.355.746-.066.223-.008.132-.3.266-.231.14.02.266v.223l-.141.21-.13.263.114.289-.379.418-1.16.113.027.035.133.14-.16.067-.105-.02.046.102-.011.637.16.187.223.329.05.128-.039.02-.047.074.07.117.032-.015.144-.004-.007.035-.067.2.239.655.168.313.027-.027.078.007.008.047.039.168h.035l.055.164.015.77-.812.07-.317.113.063.2-.074-.02-.114.031-.128.23-.098.04v.05l-.05.055-.036-.023-.117-.098-.02.032-.129.105-.199-.094.059.137.12.207-.03.016-.192.035-.074.172-.219-.067-.125-.168-.152.176-.535-.34-.043-.172-.516.004.023.032.11.21h-.047l-.148-.023-.06.363-.007.133.04.207-.13.094.067.328-.067.117-.547.106-.27-.121-.026.058-.09.02-.188-.09-.125.226.094.157.078.382.238.32-.043.032-.27-.133.013.074-.004.137-.141.055.04.101h-.106l-.254-.05-.125-.078.035-.16-.11.038-.136-.12-.02.105-.066.316-.035-.015.02-.082-.071-.098-.125.078-.102.262-5.382-1.77-3.547-1.492-.239.297v.336l.207.203-.05.035-.016.106.125.37h-.012l-.406-.1.004.046.094.516-.332.058-.172.196-.211.003-.024.247.153.406-.035.097-.063-.023-.246.09-.063.297-.164.566-.238.172.078.16.38.156.058.434.101.32-.554.543-.075.067-.37-.16.003.093.024.25-.047.012-.57-.02-.083.176-.046-.035-.184-.191-.016-.39-.03.007-.122-.05-.062-.06-.02.028-.059.293-.054-.008-.27-.21-1.168-1.427-2.398-.52-.082-.28-.711-1.098-.133-.356-.238-.12-.18-.243-.234.055-.153-.02-3.308-.969-2.77-.878-.648-.29-.106-.261-.3-.055-.172.047.011.027-.011.227-.036-.012-.3-.379-.157-.21-.144-.067-.027.039.007.117.114.168-.114-.031-.199-.07.016-.04.187-.324-.011-.011-.086.054-.172.051-.156-.047-.114-.367.012-.73.105-.325-.101-.011-.094-.137-.043.047.059.152v.102l-.028.02-.09-.122-.242-.508-.57-.234-.156-.297-.145-.02-.172.086-.324-.14-.125-.07-.258-.333-.09.036-.054.214-.074-.062-.204-.098-3.003-1.132-1.13-.141-1.117-.43.036-.12-.059.007-.129.004.047-.074-.016-.059-.511-.324-.203-.094.015-.05-.086-.157-.683-1.152-.079.015.004-.093-.324-.336-.707-.739-.066-.308.11.144.062.028.004-.079-.516-.98h-.262l-.09-.223-.105-.34-.125-.378-.152-.067-.274-.207-.351-.46-.243-.188-.457-.43-.246-.008-.91-.312-.215-.082-.453-.285-.41-.07-.258-.036-.207.133-.476.543-2.317-.516-1.765-1.25-3.165-2.101-1.367-.813-3.422-.894-4.355-1.864.016-.418.05-.18-.273-.675-5.559-1.781-1.593-.227-.247-.324-.082-.207.082-.43.176.082-.027-.101-.05-.157.097-.386-.008-.153.043.004.059-.008-.372-.113-2.011-.394-2.262-.04-1.563 1.043-2.386-.601-2.508.23.094-.03-.047-.134-.164-.043-.047.2-.031.222-.086.02-.004.043-.012.25-.121-.016.016.078.234.434-.078.11-.05-.048-.145.043.007.016.036.16-.106-.035-.152-.254-.063.121.063.242.074.133-.098-.008-.12.082.015.036.18.351.003.129-.097-.09-.203-.074-.09.137.031.257-.043.016-.11-.031-.128-.055v.059l.027.328-.21.203.148.676.105.488-.133-.195-.308-.188-.016.043-.023.23-.051-.046-.172-.074-.406.246-.305-.012-.113.121-.414.238-.364-.316-.168-.117-.007.015-.098-.043-.168-.226-.418-.031-.215-.149-.3-.426-.126-.004-.273.336-.04-.109-.163-.336-.07.07-.184.563-.145-.07-.183-.301-.11-.438-.062-.039.023-.031.043-.434-.492-1.156-.707-.52.059-.132.043.004.183.144.149.04-.024-.204-.344-.328-.523-.043-.215.149-.012.078-.105-.047-.535-.047-.621-.164-.117.21-.07-.066-.446-.394-.434.402-.703.024-.386.558-.055.121-1.098.239-.11.242-.073.242-.036.066-.043-.035-.796-.273.004-1.567.171.004-.02-.082-.862-1.902-1.036-.059-1.472-.215-.254-.12-3.028-1.438-2.93-1.73-.648-.954-.652-.203-2.902-.723-1.985-.609-.007.04.015.187-.223.132-.093.063-.172.105-.313.38-.558.077-.114.282.067.16-.008.351-.098.2-.054.074-.028-.035-.464-.309h-.165l-.136.063-.11-.043-.328.164-.277-.078-.145.004-1.972-.356-.325-.082-.218.008-.098-.02-.031.07-.09.22-.07.253-.035-.004-.329-.027.02.094-.086.117-.105.215-.004.066-.075-.02-.336-.1-.015.116-.055.227-.055-.031-.324-.102-.004.074-.074.266-.203.016-.078-.016.016.11-.04.19h-.027l-.066.09.062.293-.02.325.071.242.059.234.015.254-.023.207.101.23.207.294.266.433.043.285-.137.235-.09.504-.02.093-.07-.02-.187-.058.004.059-.043.152-.055.024-.129.46.09.145.082.34.184.144-.055.168.188.133.02.176-.087-.059-.133-.046-.003.03-.04.192-.652-.074-.191-.273-.239-.192-.003.086-.32.152-.173.184-.234-.258-.242-.199-.153-.023.004.054.063.446.027.441.024.16-.555.035-.215-.07-.45.176h-.288l-.082.039.043.691-.36-.07-.382.27-.063.183-.266.102-.015.144h-.063l-.148-.008.125.274.105.273v.336l-.37.059-.118.129-.422-.196-.129.086.024.23-.016.255-.039 1.039.023.277-.085.004-.426.031-.317-.148-.203.074-.05.293-.41.234-.208.246-.027-.027-.191-.137v.004l-.047.477-.055.273-.75.739-.238.222-.008-.18-.125-.269-.246-.016-.223.176-.062.133-.098.238-.309-.074-.37-1.426.472-2.12-.637-1.216-.441-.965.058-.183-.136-.781-.13.015-.21.074-.113-.19.03-.798.16-.254-.03-.187.187-.02.68.121.031-.023-.012-.02-.035-.605-.097-.457-.145-.262.106-.242.234-.055.351.047.063-.144.074-.47.024-.202-.024-.207.063.015.222.016-.004-.059-.027-.246.047-.133.434.188.015.137h.028l.171-.118.11-.285v-.558l.469-.274-.016-.293h.031l.11-.035.18-.222.405-.086.196-.762.094-.086.16-.07.203-.055.238-.066.016-.18-.028-.215.051-.047-.008-.035-.207-.203-.199-1.145-.766-.187-.375-.36-.003-.183.277-.176.238-.078.137-.09-.016-.223-.02-1.293-.124-.19-.04.058-.074.015-.921-.816-.496-.242-.153-.352-.488-.437-.723-.926.14-.418-.44-.606.062-.02.031-.651-.066-.497h.031l.09.024-.016-.086-.047-.164.059-.012.055-.035.004-.059-.16-.414-.032-.117.028-.012.16-.05-.32-1.032-.258-.257-.348-.442-.254-.484-.375-1.145-.223-.183-.093-.078-.133-.282-.492-.242-.102-.176-.219-.222.047-.29-.289-1.644.156-.23.47.07.233-.078.27-.442.348-1.101-.203-1.113.14-.727.11-.102-.02-.156.105.047.22-.004-.04-.113-.062-.11.035-.039.137-.109.23-.168-.14-.945-.048-.305-.25-.293-.023-1.144-.309-.672.141.008.188.078.011-.043-.086-.235-.242-.734.09-.66.047-.93-.344-1.816.05-.024-.034-.035-.317-.594.043-1.105.02-.215.004-.144-.375-1.008.027-.192-.215-.152-.144-.48-.246-.567-.125-.46-.133-.161-.215-.32.039-.59-.039.023-.473.16-.976-.156-1.192-.656h.004l-.187-.383.02-.453.21-.934h-.015l-.153-.265-.094-.504-.152-.367.016-1.371-.098-.688.082-.18-.156-1.558.144-.176-.011-.469.472-.293-.125-.765-.187-1.063v-.16l-.055-.293-.105-.422-.239-.465-.007-1.433-.106-.528-.05-.62-.122-.071L188 80.75l-.148-.363-.207-1.883-.227-.809-.059-2.53-.484-1.282-.176-.371-.195-.938.23-1.293.758-1.52-.004-.292-.195-.348-.863-.82-.684.183-.164-.296.121-.833h.207l.39.125 1.032.012.219-.191.137-.324.187-.868.258-.601.215-1.164-.426-.867-1.356-1.356-.199-.578.004-1.762-.297-.746-.433-.574-.735-.465-1.66-.95-1.094-1.273-.464-.23-.747-.773-.632-1.012.074-.196.043-.644.129-.137v-.015l.152.007.438.196.335.136.438.372.258.011.195.032 2.656 1.343.075.828.085.864.762 1.34.801 1.226.32.473.23.16.118.144.098.04.007.05.141.125.234-.004.106.246.09.418.75.079.832.867.082.304.336.5.226-.086.27.586-.008.192.61 1.031.14.344.074.27.23.417.005.383.398.598.55.719.72.8.562.567.172.351.43.356.156.293.285.422.48.425.282.125.195.012.5.215.656.293.282-.121.5.289.207.031.222.188.016-.02.207-.203.258.055.594.062.292-.137 2.02.086.254-.011.273-.067.239-.175.105.128.133.243.824.129 1.621-.145.344.055 2.336.043.316.035 1.239.39 1.421.649.704.336.41.222 2.234 1.172.387.29.265.058.458.203.554.246.742.395.434.136.844.36.32.27.34-.048 1.027.547.297.188.285.058.57.301.22.004.144.43-.04.293.083.07.539-.078.324.52.668.558.297.164.586.324 1.492 1.07.14.15.184.077.453.711.075.227.047-.016.164-.144.191.144.285.25.121.164.145.23.418.157.61-.2.167.2.258.527.512.547.191.223.219.215.254.074.367.27 1.387.956.43.61-.024.226.082.47.242.487.367.532.028.617-.22.277-.448.012-.465-.344-.25-.187-.215.027-.195 1.559-.711.261-.707-.11-.543.09.035.157-.117.36.214.609.395.875-.105.328-.286.023-.609-.64-.195-.547-1.09-.5-.492-.086-.172-.195-.48-.657-.133-.043-.434.082-.586.067-.809-.535-1.722-1.563-1.602-1.105-.73-.395-.184-.484.004.238.113.727.262.504-.094.324.817.734.644.04.301.124.207.465.215.148.656.497.574.945.29.14.234-.101.078-.094.203.035.305.305.27.656.64.055.312.152.075.047.421.153.696.539.605.214 1.809.907.336-.032.535.223.828.852.215.109.098.172 1.238 1.273.64.25.207-.582.094-.101.29-.196.245-.398.055-.172.52-.383.199-.281.347-.168.18-.703.254-.078 1.934-.547.746.144.258-.027.222.184.297.074.453.281.27.094.297-.152.699.55.238-.195.524.281 1.304-.086.395-.093.742.039.668.355.312-.094.25.012.641.266.367.199.406.02.235.195.316.176.32-.446-.128-.183-.086-.172.156-.758.2-.484-.118-.829.082-.53-.082-.118-.039-.418.219-.414.18-.195v-.496l-.047-.297.011-.164-.14-.266.242-.137.148.188.14.012.411-.008.148-.043.301.054.133-.203.152-.015.22.136.472-.136.094-.047.035.015.64.399.739.144.379.051.117-.062.011.008.637.503.164-.039.281.043.352.207.742.598.235.156.476.332.559.282.398.293.332.128.301.145.207.078.14.113.86.153.313.07.242.043.152-.027.656-.098.149.016.695.015.313-.023.007.297-.148.468.762 1.489-.082.14.062.032.516.492v-.106l.082.09.265.082.274-.012.144.36.778.8-.016.094.027.016.153.09-.031.031-.075.106.192.132.472.32.012-.019.39-.055.489.227.281.715.285.746.383.098.281-.036.106.235-.027.36.386.359.118-.196.007-.273h.067l.21.047.473.765.14.473.114.246.008.406.035-.004.649-.144.664.137.757-.016v-.04l-.082-.237h.067l.05-.133.31-.336.988.016.41.527-.035.203.195.016.223.144-.036.887-.047.183.141.532.102.234.336.594.011.148-.316.25-.016.18-.117.328-.016.375-.19.281.194.453-.285.364-.023.195-.094-.016.023.133-.003.082-.09-.058-.211-.184-.278-.164-.12.188.007.293.219.152-.117.265-.309.512-.07.133.742.64.203-.046.172-.043.004.027-.047.574.305.121.164-.144.695.23.32.125.036-.183-.059-.14.039-.02.012-.188.09.086.046-.07.024-.246h.039l.164.004.223-.184.172-.176v-.215l.035-.004.508.13.152-.126.074-.129.043.059.07.246.059.05" style="fill:none;stroke-width:.25;stroke-linecap:butt;stroke-linejoin:miter;stroke:#fff;stroke-opacity:1;stroke-miterlimit:10"/></g><g clip-path="url(#c)"><path d="m157.95 43.68.132.035.926.414.086-.11.258.102.23.215.352.09.293.023.359.078.305.168.28.168.657.117.356.051.738.598.219.02.09.14 1.722.762.309.351.746.485.742.27 1.316.632.207-.012.235.125.11-.039.015.078-.086.254-.258.258-.074.406.191.641-.18.246-.19.438-.454 1-.102.234-.57.355.117.477v.223l.125.515.434.63.207.124.2.16-.04.184-.27.227-.12.117-.211-.024.03.07.22.458.793.453-.047.324-.348.797.195.254.22-.262.16-.074.542.324.07.27-.148.78-.035-.015-.18-.137-.21-.011.058.175.258.168.18.157-.098.11.02.023.171.207-.105.105-.153.145-.035-.043-.367-.29-.207.07-.059.009v.03l-.058.227h-.047l-.004.04-.02.175-.082-.039-.101-.02.02.102.019.207.23.149-.066.164-.016.195-.117.477-.058.265-.141.125.328 1.364-.226.55-.247.59-.191.535-.441 1.29-.141.269-.707.648-.414 2.97.203.718-.04.453-.01.89-.126.544-.05.5.367 2.12.28.907-.304.828-.082.113.133.297.309.735-.012.285-.012.879.125.48-.187.383-.04.191.141.559-.097.508.062.988-.23.156-.102.657-.117.601.023.328-.05.137.164.207.105.121-.102.176-.144.266.094.207.117.207-.395.253-.222.165.12.246.04.164-.067.054.012.024.387.59-.063.02-.343-.169-.204.024-.066.382.078.082.04-.019.152-.04.254.067.12.371-.218-.027-.293-.086-.117.266.05-.004.22.105.136.7.246.171.348.266-.047.188-.09.07-.027-.078-.203-.102-.102.172-.016.777.133.059.414.062.051.157-.152.062h-.164l-.012.07-.188.211.172.262-.035.012-.105.07v.028l.004.23-.094.04-.547.198.062.172.036.242.011.887-.043.836-.34.203-.277.035.031.125.133.258.05.098.13-.063.023.035.012.407.074.707-.105-.059-.48-.113-.016.129v.304l-.157.207-.02.31-.327.573.05.02.13.125.308.8-.125.399.961 1.89-.016.036-.363-.149-4.61-1.453-1.91-3.078-1.207-.191-.101.199-1.328 2.488-2.164 1.465-.043-.617.039-.168-.531-.781-.012-.11-.258-.062-.16.375-.219-.114-.215-.394-.058-.012-.227-.258-.289 1.582-.039 1.645-.129-.059-.969-.433-.004.086-.105 1.472-1.422-.652-.012.047-.257.582-1.532 3.219-1.675-.305-.403.215-.097.055-.051.168-.149.117-.027.074-.148.078.03.031.15.207-.177.203.188.317-.004.004.121 1.086.09.207-.027.273.004.07-.106-.074-2.117-.703.008.055.078.441.133 1.008-.38.367-.71.223-.153.078-.078.055-.015-.106-.13-.047-.007.028-.059.113-.457.578.125.008-.09.144-.03-.007-.262.101-.106.168-.152-.039.062-.062-.09.027-.015.023-.074.141-.055-.035-1.582-.844-1.067-.539-.015.047-.254.578-.555.027-.457-.324-.527-.36-.344-.038-.887-.11.008.075-.168.957-.46.937-.434.453-.325.164-.761.227-.434 1.863-.14.238-.098.004-.45.38-.894-.462-.266-.3-.054.062-.586.422-1.227 2.09-.507.883-1.458-.579-.062.036-.043-.036-.105-.109-.18-.223-.63-.363-.214-.035-.25-.11-.457-.152-.644-.148-2.2-.168-1.851-.153-1.664-.292-.848-.48-1.008-.321-1.625-.203-1.133.441-.375.117-.796.051-.907-.652-.558-.707-.285-.336-.391-.149-.094-.203-1.066-1.754.074-.008.14-.058.075-.293-.223-.461-.156-.215-.125-.394-.2-.075-.632-.02-.027-.296-.032-.254-.18-.07-.214.132-.364-.117-.265-.437.09-.086.199-.262-.04-.094-1.089-1.609-.148-.687.695-1.41.055-.301.191-.239.086-.726-.402-1.766-.438-1.379-.238-1.789-.196-.672-.464-.539-1.715.16-1.403.051-2.925-.379-.41.328-.157.207-1.187-.379-.485-.222-1.296-.102-.063.192-.145-.028-.445-.02-.035.071-.684.004-.21.606-.735-.293-.101-.024v.05l.043.13-.153-.102-.004.067.086.125-.078.007-.086.043-.117-.058-.059.332.305.453.383.48-.082.016-.113-.02-.047.18.125.145-.082.199-.184.043.004.16.441.32-.105.008-.531-.285-.145-.312.047.168-.145.007-.074-.277-.168.059-.172-.176-.113-.121-.09.14.258.34-.266-.187-.03.21-.247-.035-.187.082-.094-.035.047.121-.063.102-.265-.027-.301.175.086.457-.317.06-.175-.384-.11-.293.246-.414-.133-.047-.023.067-.086.05.07-.214-.117-.075-.133.286.141.28-.062.126-.297-.113-.141-.239.063.305-.06.262.224.547-3.079-.618-1.168-.257-.265-.13.039-.195.371-.226-.016-.133.047.004.203-.074-.035-.285-.168-.262-.113-.028-.223-.718.36-.094-.055-.078-.355-.531-.016-.383.07-.211.192.129.132-.028.192.016.258-.066.09-.192-.086-.27.148.051.445.504.121-.035-.003-.054-.067-.122-.105-.32.257-.332.254.203.04-.05.331-.137.227-.14v-.286l-.16.023h-.14l-.294-.464.137.027.246.277.02-.05.16-.223.18.105.234.469.062-.043.364-.676-.079-.195-.078-.027.012.117.024.187-.047.012-.282-.094-.398-.12-.246.05-.059-.242.172-.188-2.433-.402-1.551-.09-.215-.16-1.39-.2-.594-.117-1.137-.91-.543-.472-.031-.317.086.016.101-.129.207.008.188.242.32.047.266.18-.004-.125-.14-.25-.161-.168-.102-.301V88.8l.09-.106-.64-.445-2.973-.45-.758-.136.059-.035.254-.3-.121-.528.078-.086-.012-.028-.41-.515.054-.027.204-.075-.024-.058-.293-.426.035-.02.196-.117.136-.324.285-.094v-.37l-.015-.25-.496-.54.086-.035.277-.031-.043-.051-2.152-2.723-.059-.129-.05.078-.235-.125-.473-.34-.465.008v.055l-.082.098-.332-.043-.789-.395-2.09-.918-.347-.027-.176.09-1.441-.156-.746.093-1.043-.273-.211-.004-.555-.477-.406.18.125.23.082.145-.114-.023-.257-.239-.043-.312-.09-.317-.86-.562-.511-.125-1.309-.461-.254-.21-.105-.083-.086-.004.02.082.019.063-.14-.078-.438-.293-.578-.36-.114-.136.004-.086-.261.406-.051-.055-.086-.308.082-.34-.305-.207-.008-.16.02-.004.203.12.086-.015.008-.043-.2-.496-.074-.105.024-.028.012-.18-.489-.144-.191.074-.23.008-.008-.016.101-.097.067-.07V74.3l-.2-.809.075-.293.19-.195-.355-.2-3.011-1.53-.34-.208-.336-.156-.227-.012-.156-.054-.164-.008-.219.094-.472.066-.176.309-.066-.102-.211-.312.003.148.13.348.078.316-.16-.074-.305-.328-.051.12.016.599.042-.004.34-.141.078.398-.046.204-.082-.024-.204-.148-.02.379.118.273.086-.05.016.03.047.04-.06.05-.616.657.039.254-.059.171-.082-.058-.336-.512-.086.016.012.047-.004.187-.055.004-.043.023.043.055.094.125-.02.031-.109.871-.383-.207-.054-.16.035-.047.059.043.062.016-.148-.172.05-.008-.199.024.031.078.004.215-.027.004-.121-.047-.168-.227-.11.074-.019-.086-.129-.878.04-.262-.056-.48-.28-.102-.141-.215-.02.027.043.246.008.227-.043-.004-.149-.168-.304-.676-.11-.191-1.441-.477-.195.243-.344.382-.074.2-.172 1.128-.278.329-.183-.008-3.723-1.89-.304.171-.7-.148-.246-.301-.086-.14-.246-.184-.168-.196-.226-.09-.133-.18-.223-.011-.008.04-.043.026-.05-.027-.313-.09-1.336-.883-2.281-.66-1.203-.531-4.153-1.992-.027-.215.07-.004.086-.008-.027-.078-.191-.207.066-.137.195.008.09-.008-.027-.082-.313-.629-.07-.218-.016-.262-.023.012-.145-.004-.152-.219.098-.637-.285-.324.023-.02.098-.085.02-.922-.11-.098-.086-.379.004-.05.078-.008.031-.11.05.172.161.106.012-.059v-.352l.39-.18-.035-.066-.148-.27.023-.015.117.043.38.2.058-.126.062-.078.036.11.043.023-.23-.273-.407-.274.012-.02.082-.203.03.024.337.27.015-.028.149-.348.223-.117.085-.203.028.028.137.105.02-.023.015-.067-.051-.039-.215-.238.012-.172.379.273-.008-.199-.055-.258.106.059.175.05.141-.234-.187-.105-.512-.145h-.117l.015-.289.145.098.222.086.008-.04.114-.702.082.047.504.343.007-.23-.105-.606-.047-.363-.23-.262-.126-.257.004-.262-.004-.149-.132.051-.293.18-.016-.024-.152-.476.144-.238.035-.317.04.012.32-.05.082-.188-.313-.77-.12-.164.1-.46-.015-.134-.004-.117.063-.277-.2-.317-.03-.543-.098.07-.082-.14.086-.3.132-.165-.007-.554.074-.723-.203-.465-.23-.543-.259-.262.141-.054.082-.028-.008-.039-.023-.273.129-.254.086-.223.054-.222-.347-.301-.137.07-.14.184-.024-.016-.719-.758.125-.488.145-.063-.012-.242-.203-.203-.305.078-.168-.027-.074-.246.164-.227.41-.625.016-.12.066.003.07-.055-.03-.054-.325-.29.035-.03.164-.044.235.024.004-.024-.082-.168-.211-.156.007-.02.063-.109-.188-.136-.234.082-.031-.215-.02-.156-.074.093-.11.059-.038-.05.02-.208.167-.469-.242-1.343-.379-.579.195-.562-.015-.125h.086l.082-.129-.004-.34.066-.05-.152-.262-.043.02-.172-.173-.098-.238.047-.023.04.074.116-.04.047-.175.012-.145.402.02-.07-.137-.328-.715-.176-.55-.36-.145-.132-.215-.148-.273-.07-.324-.423-.614-.703-1.12-.566-.852-8.578-12.383-1.965-2.23-.34-.122-1.09.301v.082l-.094-.023-.882-.5-.2.011-5.843-1.668-.621.024-.391-.02-1.192-.23-.8-.125-.18.027-.148-.015-.524-.188-.16-.055-.332-.16-.215.157-.812-.211-.23-.063-.571-.066-.223-.063-.281-.129-1.36-.226-.206-.078-.461-.32-.461-1.063.046-.008.16-.242.169-.602.472-.43.078-.34h.305l.516-.124-.09-.403.172-.191.453.07.27-.082.163-.222.852-.23 1.445.425.008-.031.067-.38.363-.113.418-.195-.094-.277-.75-1.02-.285-.68-.113-.714.105-.14.375-.04.594.05.258-.183-.453-.851-.399-.055-1.285-.656.023-.059.067.012.086.047.289-.157.367-.597.121-.031.336.234.465-.082-.2-.559-.226-.781.11-.742-.032-.434-.094-.5.184-.36.117-.206.074-.258-.113-.727-.047-.398-.164-.293L5.09.93 5.052.434l.316-.422.149.058.226-.066.266.281.21.16.657.258.523.77.754-.114-.027-.125-.043-.164.055.004.175.008.18.047.254.262.617.203.598-.2.316.262.149.188.156.078.012-.043.035-.176.21-.187.372-.059.46.34.415.086.973.105.156.157.02-.04.234.012.219-.074.16-.055.023.035.254.274.2.191.562.508 1.031.25.094.309.117.351.117.344.293.313.188.394.097.297.278.2.714-.391.188-.176.008.008.383.039.218-.11.098.164.336.41.555.028.222.031.559-.05.531-.06.61-.304.257-.023.836-.06 1.047-.07.223-.046.535.195.375-.137.742.203.004-.117-.113-.343.047-.497.125-.363.195-.41-.004-.387.121-.02.527.075.45-.004.117.36.426.074.171.16.094-.059.23-.207.22.113 1.203.758.449.024.222-.164.41.043h.145l.563-.016.105.031v-.058l.031-.153.696.063.156.11.488.28.133.102.402-.055.141-.054.145-.18.269-.102.238-.02.918.571.094.29.3.277.126.085.426.278.867.664-.055.035.024.102.472 1.164.172-.11.281-.261.176-.153.656.012.22-.02.202-.046.711.53.418-.132.629.43.184-.075.152.18-.004.16.129.14.32-.023.168.27.293.219.172.187.242.285.328.36-.054.027v.145l.457.675.773.004 1.043.172.317-.21.086-.09.042.027.215.125.434.105.324.309-.016.183.278.438.539.645.633-.223.234.02.281.324.368.078.55.875.145.351.629.7.14-.114.215-.25.156-.094.442.243.7.488.323.066.418.243.211.078.371.449.54.543.535-.156.171.097.371-.199.204.016.351.125.098.308.531.13.016.323.136-.129.329-.242-.012-.316.008-.328.078-.07.554.312.122.293-.204.281.024.02.348.215.132.125.051-.036.688-.617.101.301.067.285.554.508.723.098.227-.075.152.024-.016-.078-.015-.332.132-.45.348-.144.746-.047.113-.137.293-.058.215-.285.305.046.105.004.02.036.754 1.624.527.25.278-.199.332-.023.257-.016 1.086.45-.007-.051-.012-.207-.215-.543.473-.309.488-.102.058-.132.23.066.435.438.242-.051.316-.215h.266l.316-.52.25.063.242-.242.172.004.035-.22.426-.07.125.165.317.18.054.285.387.042.059-.03.168-.223.132.125.176.23.02-.047.062-.273.121-.016.051-.305.402.13.235.058.164-.047.336.102.695.183.492.48.008.087.48.332.028.437.285.254.426 1.36-.024.386.317.602.883 1.234.265.395.39.398.337.398.254.383.285.086 1.168.156.226.258.239.399.507 1.238.118.414.16.297.496.055.3.586.364.886.578.059.863.629.364.445.3.063.368.382.066.45.2.55.241.594.918.754.27.406.77.575.386-.063 1.043.547.578.684.41.117.446-.121.195.015.004.07-.164.473-.059.227.399.242.734.219 1.32.195.18-.172.02-.238.101-.223.254-.117 1.168.723.516-.164.636.418.254-.043.313-.157.37.106.54.14.008-.054.055-.215.753-.535.375.074.399.293.496.074.254.34.144.383.723.914.348.371-.067.125.117.418.297.289.157.11.238.152.21-.082.587.074.125-.336.511-.121.254.078.399-.004-.028-.34 1.23-.195.356-.07.395.203.465.183.55.028.149-.254.242.129.305.043.144.039.532.425.539.184.261.082.516.262.984.281.832.52.301-.223.852-.105 1.168 1.285.176.047.136.042.235.364.02-.024.124-.254.313-.007.574.101.226.059.395.226.328-.297.953.684.305.047.23-.195.125-.164h.395l.078-.114.66.864.133.886.195.293.434.18 1.035-.07.559.355.941.723.66-.434.192.055.203.191.906.489.266.175 1.367.082.344.426.043.14.09.493.433.25.117.238.004.36.168.77.195.288.329.09.23.254 1.258.078.383.492.18-.004.206.121.328-.14h.317l.433-.102.735-.41.449-.715.098-.57.215-.078.253-.215.43.512-.055.355-.203.426.196.184.402.18.09.421-.32.024-.395-.067-.379.008-.133.137-.082.648-.023.574.21.075.56.816.484.55.09-.019.64.313.684-.004.699.277.355-.078.649.266.254-.024.437.094.45-.094.125-.254.046-.886.207-.118.496.262.31.3.12.142.211-.04.395.364.109.289.223-.04.297.051-.133-.124-.281-.29-.032-.246.07-.242.403-.097.125.097.262.133.324.238.191-.015.137-.11.926.29.074.19.05.153.4.566.05-.062.398-.547.192-.434h.336l.32.165.008-.09.176-.043.742.289.125.094.297.074.48-.477.082.012.938.637.242-.098.496-.16.105.066.41.09.235.113.176.09.18-.281h.035l.972.523.172-.164.07-.433.293-.114.336-.05.176-.121.242.074.16-.117.118-.028.351-.703.028-.46.168-.102.02-.207.206-.04.2.055.015-.14-.129-.282.5-.144.223-.028.187-.832-.043-.156.047.012.758-.797.207.04.402-.15.258-.394.207-.668-.043-.308.238-.016.317-.441.426-.95.21-.16.739.2 1.465-.622.215-.765.046-.227.223-.012.336.227.992.52.375-.008" style="stroke:none;fill-rule:nonzero;fill:#908e96;fill-opacity:1"/></g><g clip-path="url(#d)"><path d="m157.95 43.68.132.035.926.414.086-.11.258.102.23.215.352.09.293.023.359.078.305.168.28.168.657.117.356.051.738.598.219.02.09.14 1.722.762.309.351.746.485.742.27 1.316.632.207-.012.235.125.11-.039.015.078-.086.254-.258.258-.074.406.191.641-.18.246-.19.438-.454 1-.102.234-.57.355.117.477v.223l.125.515.434.63.207.124.2.16-.04.184-.27.227-.12.117-.211-.024.03.07.22.458.793.453-.047.324-.348.797.195.254.22-.262.16-.074.542.324.07.27-.148.78-.035-.015-.18-.137-.21-.011.058.175.258.168.18.157-.098.11.02.023.171.207-.105.105-.153.145-.035-.043-.367-.29-.207.07-.059.009v.03l-.058.227h-.047l-.004.04-.02.175-.082-.039-.101-.02.02.102.019.207.23.149-.066.164-.016.195-.117.477-.058.265-.141.125.328 1.364-.226.55-.247.59-.191.535-.441 1.29-.141.269-.707.648-.414 2.97.203.718-.04.453-.01.89-.126.544-.05.5.367 2.12.28.907-.304.828-.082.113.133.297.309.735-.012.285-.012.879.125.48-.187.383-.04.191.141.559-.097.508.062.988-.23.156-.102.657-.117.601.023.328-.05.137.164.207.105.121-.102.176-.144.266.094.207.117.207-.395.253-.222.165.12.246.04.164-.067.054.012.024.387.59-.063.02-.343-.169-.204.024-.066.382.078.082.04-.019.152-.04.254.067.12.371-.218-.027-.293-.086-.117.266.05-.004.22.105.136.7.246.171.348.266-.047.188-.09.07-.027-.078-.203-.102-.102.172-.016.777.133.059.414.062.051.157-.152.062h-.164l-.012.07-.188.211.172.262-.035.012-.105.07v.028l.004.23-.094.04-.547.198.062.172.036.242.011.887-.043.836-.34.203-.277.035.031.125.133.258.05.098.13-.063.023.035.012.407.074.707-.105-.059-.48-.113-.016.129v.304l-.157.207-.02.31-.327.573.05.02.13.125.308.8-.125.399.961 1.89-.016.036-.363-.149-4.61-1.453-1.91-3.078-1.207-.191-.101.199-1.328 2.488-2.164 1.465-.043-.617.039-.168-.531-.781-.012-.11-.258-.062-.16.375-.219-.114-.215-.394-.058-.012-.227-.258-.289 1.582-.039 1.645-.129-.059-.969-.433-.004.086-.105 1.472-1.422-.652-.012.047-.257.582-1.532 3.219-1.675-.305-.403.215-.097.055-.051.168-.149.117-.027.074-.148.078.03.031.15.207-.177.203.188.317-.004.004.121 1.086.09.207-.027.273.004.07-.106-.074-2.117-.703.008.055.078.441.133 1.008-.38.367-.71.223-.153.078-.078.055-.015-.106-.13-.047-.007.028-.059.113-.457.578.125.008-.09.144-.03-.007-.262.101-.106.168-.152-.039.062-.062-.09.027-.015.023-.074.141-.055-.035-1.582-.844-1.067-.539-.015.047-.254.578-.555.027-.457-.324-.527-.36-.344-.038-.887-.11.008.075-.168.957-.46.937-.434.453-.325.164-.761.227-.434 1.863-.14.238-.098.004-.45.38-.894-.462-.266-.3-.054.062-.586.422-1.227 2.09-.507.883-1.458-.579-.062.036-.043-.036-.105-.109-.18-.223-.63-.363-.214-.035-.25-.11-.457-.152-.644-.148-2.2-.168-1.851-.153-1.664-.292-.848-.48-1.008-.321-1.625-.203-1.133.441-.375.117-.796.051-.907-.652-.558-.707-.285-.336-.391-.149-.094-.203-1.066-1.754.074-.008.14-.058.075-.293-.223-.461-.156-.215-.125-.394-.2-.075-.632-.02-.027-.296-.032-.254-.18-.07-.214.132-.364-.117-.265-.437.09-.086.199-.262-.04-.094-1.089-1.609-.148-.687.695-1.41.055-.301.191-.239.086-.726-.402-1.766-.438-1.379-.238-1.789-.196-.672-.464-.539-1.715.16-1.403.051-2.925-.379-.41.328-.157.207-1.187-.379-.485-.222-1.296-.102-.063.192-.145-.028-.445-.02-.035.071-.684.004-.21.606-.735-.293-.101-.024v.05l.043.13-.153-.102-.004.067.086.125-.078.007-.086.043-.117-.058-.059.332.305.453.383.48-.082.016-.113-.02-.047.18.125.145-.082.199-.184.043.004.16.441.32-.105.008-.531-.285-.145-.312.047.168-.145.007-.074-.277-.168.059-.172-.176-.113-.121-.09.14.258.34-.266-.187-.03.21-.247-.035-.187.082-.094-.035.047.121-.063.102-.265-.027-.301.175.086.457-.317.06-.175-.384-.11-.293.246-.414-.133-.047-.023.067-.086.05.07-.214-.117-.075-.133.286.141.28-.062.126-.297-.113-.141-.239.063.305-.06.262.224.547-3.079-.618-1.168-.257-.265-.13.039-.195.371-.226-.016-.133.047.004.203-.074-.035-.285-.168-.262-.113-.028-.223-.718.36-.094-.055-.078-.355-.531-.016-.383.07-.211.192.129.132-.028.192.016.258-.066.09-.192-.086-.27.148.051.445.504.121-.035-.003-.054-.067-.122-.105-.32.257-.332.254.203.04-.05.331-.137.227-.14v-.286l-.16.023h-.14l-.294-.464.137.027.246.277.02-.05.16-.223.18.105.234.469.062-.043.364-.676-.079-.195-.078-.027.012.117.024.187-.047.012-.282-.094-.398-.12-.246.05-.059-.242.172-.188-2.433-.402-1.551-.09-.215-.16-1.39-.2-.594-.117-1.137-.91-.543-.472-.031-.317.086.016.101-.129.207.008.188.242.32.047.266.18-.004-.125-.14-.25-.161-.168-.102-.301V88.8l.09-.106-.64-.445-2.973-.45-.758-.136.059-.035.254-.3-.121-.528.078-.086-.012-.028-.41-.515.054-.027.204-.075-.024-.058-.293-.426.035-.02.196-.117.136-.324.285-.094v-.37l-.015-.25-.496-.54.086-.035.277-.031-.043-.051-2.152-2.723-.059-.129-.05.078-.235-.125-.473-.34-.465.008v.055l-.082.098-.332-.043-.789-.395-2.09-.918-.347-.027-.176.09-1.441-.156-.746.093-1.043-.273-.211-.004-.555-.477-.406.18.125.23.082.145-.114-.023-.257-.239-.043-.312-.09-.317-.86-.562-.511-.125-1.309-.461-.254-.21-.105-.083-.086-.004.02.082.019.063-.14-.078-.438-.293-.578-.36-.114-.136.004-.086-.261.406-.051-.055-.086-.308.082-.34-.305-.207-.008-.16.02-.004.203.12.086-.015.008-.043-.2-.496-.074-.105.024-.028.012-.18-.489-.144-.191.074-.23.008-.008-.016.101-.097.067-.07V74.3l-.2-.809.075-.293.19-.195-.355-.2-3.011-1.53-.34-.208-.336-.156-.227-.012-.156-.054-.164-.008-.219.094-.472.066-.176.309-.066-.102-.211-.312.003.148.13.348.078.316-.16-.074-.305-.328-.051.12.016.599.042-.004.34-.141.078.398-.046.204-.082-.024-.204-.148-.02.379.118.273.086-.05.016.03.047.04-.06.05-.616.657.039.254-.059.171-.082-.058-.336-.512-.086.016.012.047-.004.187-.055.004-.043.023.043.055.094.125-.02.031-.109.871-.383-.207-.054-.16.035-.047.059.043.062.016-.148-.172.05-.008-.199.024.031.078.004.215-.027.004-.121-.047-.168-.227-.11.074-.019-.086-.129-.878.04-.262-.056-.48-.28-.102-.141-.215-.02.027.043.246.008.227-.043-.004-.149-.168-.304-.676-.11-.191-1.441-.477-.195.243-.344.382-.074.2-.172 1.128-.278.329-.183-.008-3.723-1.89-.304.171-.7-.148-.246-.301-.086-.14-.246-.184-.168-.196-.226-.09-.133-.18-.223-.011-.008.04-.043.026-.05-.027-.313-.09-1.336-.883-2.281-.66-1.203-.531-4.153-1.992-.027-.215.07-.004.086-.008-.027-.078-.191-.207.066-.137.195.008.09-.008-.027-.082-.313-.629-.07-.218-.016-.262-.023.012-.145-.004-.152-.219.098-.637-.285-.324.023-.02.098-.085.02-.922-.11-.098-.086-.379.004-.05.078-.008.031-.11.05.172.161.106.012-.059v-.352l.39-.18-.035-.066-.148-.27.023-.015.117.043.38.2.058-.126.062-.078.036.11.043.023-.23-.273-.407-.274.012-.02.082-.203.03.024.337.27.015-.028.149-.348.223-.117.085-.203.028.028.137.105.02-.023.015-.067-.051-.039-.215-.238.012-.172.379.273-.008-.199-.055-.258.106.059.175.05.141-.234-.187-.105-.512-.145h-.117l.015-.289.145.098.222.086.008-.04.114-.702.082.047.504.343.007-.23-.105-.606-.047-.363-.23-.262-.126-.257.004-.262-.004-.149-.132.051-.293.18-.016-.024-.152-.476.144-.238.035-.317.04.012.32-.05.082-.188-.313-.77-.12-.164.1-.46-.015-.134-.004-.117.063-.277-.2-.317-.03-.543-.098.07-.082-.14.086-.3.132-.165-.007-.554.074-.723-.203-.465-.23-.543-.259-.262.141-.054.082-.028-.008-.039-.023-.273.129-.254.086-.223.054-.222-.347-.301-.137.07-.14.184-.024-.016-.719-.758.125-.488.145-.063-.012-.242-.203-.203-.305.078-.168-.027-.074-.246.164-.227.41-.625.016-.12.066.003.07-.055-.03-.054-.325-.29.035-.03.164-.044.235.024.004-.024-.082-.168-.211-.156.007-.02.063-.109-.188-.136-.234.082-.031-.215-.02-.156-.074.093-.11.059-.038-.05.02-.208.167-.469-.242-1.343-.379-.579.195-.562-.015-.125h.086l.082-.129-.004-.34.066-.05-.152-.262-.043.02-.172-.173-.098-.238.047-.023.04.074.116-.04.047-.175.012-.145.402.02-.07-.137-.328-.715-.176-.55-.36-.145-.132-.215-.148-.273-.07-.324-.423-.614-.703-1.12-.566-.852-8.578-12.383-1.965-2.23-.34-.122-1.09.301v.082l-.094-.023-.882-.5-.2.011-5.843-1.668-.621.024-.391-.02-1.192-.23-.8-.125-.18.027-.148-.015-.524-.188-.16-.055-.332-.16-.215.157-.812-.211-.23-.063-.571-.066-.223-.063-.281-.129-1.36-.226-.206-.078-.461-.32-.461-1.063.046-.008.16-.242.169-.602.472-.43.078-.34h.305l.516-.124-.09-.403.172-.191.453.07.27-.082.163-.222.852-.23 1.445.425.008-.031.067-.38.363-.113.418-.195-.094-.277-.75-1.02-.285-.68-.113-.714.105-.14.375-.04.594.05.258-.183-.453-.851-.399-.055-1.285-.656.023-.059.067.012.086.047.289-.157.367-.597.121-.031.336.234.465-.082-.2-.559-.226-.781.11-.742-.032-.434-.094-.5.184-.36.117-.206.074-.258-.113-.727-.047-.398-.164-.293L5.09.93 5.052.434l.316-.422.149.058.226-.066.266.281.21.16.657.258.523.77.754-.114-.027-.125-.043-.164.055.004.175.008.18.047.254.262.617.203.598-.2.316.262.149.188.156.078.012-.043.035-.176.21-.187.372-.059.46.34.415.086.973.105.156.157.02-.04.234.012.219-.074.16-.055.023.035.254.274.2.191.562.508 1.031.25.094.309.117.351.117.344.293.313.188.394.097.297.278.2.714-.391.188-.176.008.008.383.039.218-.11.098.164.336.41.555.028.222.031.559-.05.531-.06.61-.304.257-.023.836-.06 1.047-.07.223-.046.535.195.375-.137.742.203.004-.117-.113-.343.047-.497.125-.363.195-.41-.004-.387.121-.02.527.075.45-.004.117.36.426.074.171.16.094-.059.23-.207.22.113 1.203.758.449.024.222-.164.41.043h.145l.563-.016.105.031v-.058l.031-.153.696.063.156.11.488.28.133.102.402-.055.141-.054.145-.18.269-.102.238-.02.918.571.094.29.3.277.126.085.426.278.867.664-.055.035.024.102.472 1.164.172-.11.281-.261.176-.153.656.012.22-.02.202-.046.711.53.418-.132.629.43.184-.075.152.18-.004.16.129.14.32-.023.168.27.293.219.172.187.242.285.328.36-.054.027v.145l.457.675.773.004 1.043.172.317-.21.086-.09.042.027.215.125.434.105.324.309-.016.183.278.438.539.645.633-.223.234.02.281.324.368.078.55.875.145.351.629.7.14-.114.215-.25.156-.094.442.243.7.488.323.066.418.243.211.078.371.449.54.543.535-.156.171.097.371-.199.204.016.351.125.098.308.531.13.016.323.136-.129.329-.242-.012-.316.008-.328.078-.07.554.312.122.293-.204.281.024.02.348.215.132.125.051-.036.688-.617.101.301.067.285.554.508.723.098.227-.075.152.024-.016-.078-.015-.332.132-.45.348-.144.746-.047.113-.137.293-.058.215-.285.305.046.105.004.02.036.754 1.624.527.25.278-.199.332-.023.257-.016 1.086.45-.007-.051-.012-.207-.215-.543.473-.309.488-.102.058-.132.23.066.435.438.242-.051.316-.215h.266l.316-.52.25.063.242-.242.172.004.035-.22.426-.07.125.165.317.18.054.285.387.042.059-.03.168-.223.132.125.176.23.02-.047.062-.273.121-.016.051-.305.402.13.235.058.164-.047.336.102.695.183.492.48.008.087.48.332.028.437.285.254.426 1.36-.024.386.317.602.883 1.234.265.395.39.398.337.398.254.383.285.086 1.168.156.226.258.239.399.507 1.238.118.414.16.297.496.055.3.586.364.886.578.059.863.629.364.445.3.063.368.382.066.45.2.55.241.594.918.754.27.406.77.575.386-.063 1.043.547.578.684.41.117.446-.121.195.015.004.07-.164.473-.059.227.399.242.734.219 1.32.195.18-.172.02-.238.101-.223.254-.117 1.168.723.516-.164.636.418.254-.043.313-.157.37.106.54.14.008-.054.055-.215.753-.535.375.074.399.293.496.074.254.34.144.383.723.914.348.371-.067.125.117.418.297.289.157.11.238.152.21-.082.587.074.125-.336.511-.121.254.078.399-.004-.028-.34 1.23-.195.356-.07.395.203.465.183.55.028.149-.254.242.129.305.043.144.039.532.425.539.184.261.082.516.262.984.281.832.52.301-.223.852-.105 1.168 1.285.176.047.136.042.235.364.02-.024.124-.254.313-.007.574.101.226.059.395.226.328-.297.953.684.305.047.23-.195.125-.164h.395l.078-.114.66.864.133.886.195.293.434.18 1.035-.07.559.355.941.723.66-.434.192.055.203.191.906.489.266.175 1.367.082.344.426.043.14.09.493.433.25.117.238.004.36.168.77.195.288.329.09.23.254 1.258.078.383.492.18-.004.206.121.328-.14h.317l.433-.102.735-.41.449-.715.098-.57.215-.078.253-.215.43.512-.055.355-.203.426.196.184.402.18.09.421-.32.024-.395-.067-.379.008-.133.137-.082.648-.023.574.21.075.56.816.484.55.09-.019.64.313.684-.004.699.277.355-.078.649.266.254-.024.437.094.45-.094.125-.254.046-.886.207-.118.496.262.31.3.12.142.211-.04.395.364.109.289.223-.04.297.051-.133-.124-.281-.29-.032-.246.07-.242.403-.097.125.097.262.133.324.238.191-.015.137-.11.926.29.074.19.05.153.4.566.05-.062.398-.547.192-.434h.336l.32.165.008-.09.176-.043.742.289.125.094.297.074.48-.477.082.012.938.637.242-.098.496-.16.105.066.41.09.235.113.176.09.18-.281h.035l.972.523.172-.164.07-.433.293-.114.336-.05.176-.121.242.074.16-.117.118-.028.351-.703.028-.46.168-.102.02-.207.206-.04.2.055.015-.14-.129-.282.5-.144.223-.028.187-.832-.043-.156.047.012.758-.797.207.04.402-.15.258-.394.207-.668-.043-.308.238-.016.317-.441.426-.95.21-.16.739.2 1.465-.622.215-.765.046-.227.223-.012.336.227.992.52.375-.008" style="fill:none;stroke-width:.25;stroke-linecap:butt;stroke-linejoin:miter;stroke:#fff;stroke-opacity:1;stroke-miterlimit:10"/></g></svg>