<svg viewBox="0 0 203.849 217.44" xmlns="http://www.w3.org/2000/svg"><defs><clipPath id="a"><path d="M6 .441h198v217H6Zm0 0"/></clipPath><clipPath id="b"><path d="M3 .441h201v217H3Zm0 0"/></clipPath></defs><path d="m7.828 72.293.145.008.148-.149.031.028.563.547.36.152.25.226.788.188.399-.055.273.09 1.262-.14.262.148 1.129 1.387.261.601.324.348.18.266.25.277.422.34.25.3.613.336.157-.105.144-.117.34.101.387.04 2.207 3.48.183.344 1.465 1.18.004.425-.207.559-.09.359.746.777.27.227.492.492.187-.047.258-.101.73.011.083-.199.035-.305.094-.05.16-.04.183.036.446.16.02-.078.015.015.262-.007.433.425.89 1.516.294.188 1.32.8.402.582.606.305.57.996.434.156 1.52 1.395.644.46.828.821.316 1.457.254.426.34.578.395.453.605-.16.836-.101.207-.102.547.16.422.04.078-.055 1.125.039 1.328.355.356.082.574.035 1.648-.187.336-.016.48-.973.29-.578.715-.09.433 1.075-.133.18.34.906.258.171.285.758-.12.45.116.195.403.37.203.767.203.132.086.426-.235.23-.171.438-.149.281.047.38-.082.003-.441-.117-.266.305.226.5.59.558-.047.164-.199.391.196.52-.149.316.492.723-.101.332-.758.03-.024.419-.05.308-.239-.086-.27-.113-.23.043-.504.668-.62.211-.051.547-.008.46-.188-.015-.129.035-.18.133-.292.055-.07.152.078.617.144.598-.246.09-.14-.031-.395-.2-.176.06-.102.355-.765-.133-.188-.028-.254.32-.23.9-.27.058-.238-.153-.773.098-.395-.3-.312.253-.176.215-.574-.27-.27-.168-.254.551.043.153.145-.008.16-.016.07.176-.164.18-.597.011.015.391-.015.121-.165.172-.074.586-.254.016-.023.078.012.347-.528.586-.11.371-.007.23-.035.216-.074.054-.457.164-.13.188-.566.375-.101-.008-.371.098-1.223-.117-.152.156-.117.336-.313.347-.203.098-.219.133-.312.148-.11.223-.12.777-.337.278-.222.043-.356.054-.414.082-.234.032-.282.238-.113.11-.223.187-.117.386-.347.551-.047.2-.04.296-.034-.004-.16.176-.204.094-.43-.238-.495-.477-.336-1.098-.477-.664-.582-.285-.742-.136-.18-.141-.207-.48-.098-.18-.312-.086-1.145-.457-.382-.516-.715-1.027-.309-.008-.285.156-.29-.074-.757-.676-.43-.344-.308.016-.528.031-.625-.312-.53-.992-.071-.5.094-.485-.243-.535-.464-.7-.305-.089-.598-.012-.265.043-1.684-.367-.187-.234-.247-.266-.796-.094-.352-.12-.937-.887-.282-.012-.273.008-.328-.34-.297-.25-.973-.434-.164-.765-.144-.04-.114.27-.175.16-.305-.105-.09.226.063.27-.118.25-.082.133-.05.132-.231.192-.172.078-.37.172-.08.363-.046.332-1 .383-.809-.398-1.277-.778-.492-.355.078-.008.059-.008-.02-.066-.07-.832.203-.285.102-.153.019-.59.035-.199-.054-.164.16.121.113-.066.293-.621.113-.145-.008-.347.07.015.169-.035.203-.43.14-.203.09-.347.282-.223.171-.238-.234-.172-.227-.301-.285-.688.04-.586-.43-.43-.133-.152-.461-.812-.16-.047-.106-.293-.129-.305-.964-.359.042-.219.098-.34-.27-.074-.222-.039-.3-.656.066-.508-.13-.2.024-.151-.156-.196-.164-1.636.023-.606-.27-.238.216-1.102-.579-1.39.141-.012.11-.227-.098-.422.023-.007.055-.204-.184-.386.016-.356.031-.37.145-.11.117-.375.21-.258-.171-.27-.113-.152.011-.016.207-.222-.02-.5.102-.242.032-.32.226-.122.27.067.012-.028-.008-.324-.09-.336.21-.433-.058-.704.192-.222-.055-.29-.145-.452.274-1.766.187-.211.098-.172.246-.168.067-.137.058.016.133-.066.172-.223.375-.07.105-.188.172-.015.512-.508-.086-.778.101-.105.06-.207.187-.055.503-.32.075-.098.125-.437.133-.188.007-.133.153-.144.027-.18.176-.097.191-.778.41-.133.098-.8.016-.153.101-.23.172-.227-.027-.488.215-.535.175-.137.051-.086.563-.176.597-.254.008-.109.059.067.148.148" style="fill-rule:nonzero;fill:#1a1523;fill-opacity:1;stroke-width:.25;stroke-linecap:butt;stroke-linejoin:miter;stroke:#fff;stroke-opacity:1;stroke-miterlimit:10"/><g clip-path="url(#a)"><path d="m201.035 163.77.48 1.054.231.692.617 2.93.203.8.047 3.293-.175.23-.137.223-.14.781-.044.278.09.387.402 1.605-.164.516.426 1.394.238 1.313.102.593.14.973-.156.176-.054.133.074.273.258.324-.028.008-.168.066-.078.586-.137.13-.683.132-.117.184.011.105-.148.23.078.817.176.602.02.414.046.472-.277.047-.383.567.274.41.175.59-.039.71.102.47.016.394.214.262.176.601-.11.113-.027-.023-.601-.555.02.149.238.23-.13.227-.062.012-.133-.286-.132-.148-.207.246.296.691h-.042l-.438-.273-.184-.277-.03.047-.028.39.117.227.027.175.012.13.031.007.106-.078.043-.168.082.059-.028.175-.191.415.293.445-.227.117-.203-.133-.226-.316-.145-.047.328 1.262.203.023.543.66-.738.66-.2.141-.03.254.164.23.16-.039.191-.172.028.067.054.516.157.261.16.207.094 1.203-.512.118-.133.203.203.277.09.336-.195.148-.235.243.121.218.286.145.218-.094.203-.05.016.03.363.95.078.312.278.301.12.145.118.164.188.074.015.238-.191.363-.059.223.121.473.399.164.273.2.063.312-.106.183-.27.078-.41-.129.075.141.515.34.133.258-.125.199-.414.039-.394.105.011.23.824 1.415.153 1.664-.633.879-.336 1.367-.504.899.23.355.075.117-.098.016-.258-.102-.097-.117-.024.09-.168.101-.066-.16-.078-.16-.063.024-.46.382.046.024.047.09-.023.027-.133.086.097.086.012.21.028.224v.07l-.067.015-.238-.02.023.134-.027.09-.074-.133-.18-.074-.101.03-.012-.015-.086-.074-.05.086-.099.066v.02l.118.113.058.16-.074-.004-.129.075.027.062.079-.023.027.086-.09-.004-.32.078.066.039.121.086-.219-.024-.125.254.02.078-.063.028-.046.144-.106-.097-.113-.102.074.238.012.25-.078-.02-.09.036.008.074.054.637-.058-.11-.121.008-.055.246.21.27.142-.012.074.215-.008.172-.082-.074-.078-.051.16.344-.094.511.14.172.266.38-.101.093-1.922.445-.828-.66-.215.14-.426-.355.004-.148-.308-.457-.743-2.426-2.449-.547-1.55-1.14-2.391-1.446-.317.004-.144-.277-.29-.946-.241-.168-.649-.12-.148-.196.027-.351.211-.215.371-.442-.059-.32-.359-.527-2.336-.239.723-1.113-1.52-2.434-1.406-1.14.098 1.262-1.774 1.117.047.343-.16.118-.246.05.012.051.578 1.133.16.156-.008.012-.055.273.09.157-.851.449.07 1.086-2.016-.45-.183-1.25-.735-.43-.007-.077-1.32-.926-1.985-.871-.035.105-.008.196-.04.008-.066-.125-.18-.23-.198.144.039.148.355.27-.027.03-.16-.019-.149-.14-.008.113.133.258.211.09-.035.175-.234.243-.055.312-.059.3-.152.04-.207-.043-.012.059.137.148.082.164-.043.012-.426.02.04.1.41.61-.02.25h.18l-.075.094-.16.254.043.293.004.238.164.004.137-.176.058.043.059.254-.023.59-.047-.02-.172-.168-.059.122.07.199.227.094.047-.016.004.105-.125.028-.336-.125.16.21.41.286-.027.035-.106.32.07.106.036-.043.086-.184.031-.047-.168.371-.113-.109-.121-.191-.07.105-.07.625.038.168-.027.008-.117.2.191.202-.148.063-.047.066-.934.266-.96-1.196-.716.102-.18 1.14-1.156-.62-.035-.426-.531-.594-.293-.203-.05.101-.098-.093-.551-.586-1.2-.102-.831-.922-1.325.035.684 2.418-2.281 1.227.543 1.531-2.559.063-1.02.351-.206 1.125h-.477l-1.418-.25-.05-.43-.055-.343-.317-.473-1.234-.36-2.235-1.194-.898-1.583-1.36-.394-2.117-1.188-3.199-.765-.922-.207-.761-.09-1.172.598-.977.683-.789.88-1.34.081-2.199.492-.688 1.332-.718-.129-.508 2.458.285 2.085.758 1.27-.68 1.172-.504.476-.57-.515-1.785-1.196-.836-.746-.219-.476-.031.015-.824.625-1.36-.914-.925.118-.594.011-.649-.152-.566-1.848-.055-.449-.531-1.75-.95-.547-.23.035-.117.078-.176.067-.007-.02-.438-.57-1.64.113.042.082-.125.09-.046.008.105.094-.055.011-.105.301-.067.149.016.015.027.043-.082.032.008.02.067.085-.106.02-.11.214-.05.082-.047-.035-.094.035-.007-.078-.196-.304-.16-.082-.203-.16-.336-.188.07-.031-.031-.09-.117-.145.008-.133-2.391-.14.031.066.54 1.016-1.61.262-.809-.079-2.433-1.3-.414-.301-5.301-4.371-2.402-6.36-1.141-2.945-.574-1.2-.45-.573-.718-2.606-.38-1.762-.386-1.046-2.558-.184.39 2.34-1.25 3.953-.097.523-1.985 1.11-1.133-.23-.222.613-.934-.348-.031-.098-.434.106-.07.304-.082-.023-1.11-.047-.074.469-1.097.043.007.558.293 2.047.309.75-.098.008-2.27.082.009-.035.132-.379-.043-.242.032.004.11-.055.081-.148.012-.43.191-.047.145-.117.043-.211-.059-.453-.219-.461.059-.754.211-.617.059-.371.523-1.203.23-.075.235-.054.594-.281.59-.184.246-.524.566-.246.227-.422.207-.656.05-.324.035-.262 1.262-1.765-.187-.48-.72-.634-.358-.425-.239-.762.102-.996.047-.856-.461-.882-1.074-1.583.433-.375-.023-.199-.157-.312.133-.235.114-.168-.059-.918-.027-.238-.082-.125.023-.472.098-.305.054-.13.414-.108.18-.09-.027-.235.011-.336.06-.242.073-.586.461-.5-.183-.566-.41-.817-.075-.398.114-.379.046-.207-.234-.695-.25-.602-.426-.597-.18-.653-.101.18-.164.066-.45-.172-.116-.007-.016.039-.078.527-.215.363-.066-.062-.141-.055-.121.156.097.528h-.023l-.816-.782-.114-.515-.16-.485-.398-.527-.39-.168-.477-.418-.344-.68-.445-.816-.332-.27-.497.09-1.093.352-.555-.242-.422-.262-.875-.734-.848-.985-.023-.148.07-.781-.261-.52-.243-.266-.48-.21-.016.023-.406.656-.406.18.629 1.984.215.371-.106.086-.246.094.05.332-.112-.059-.176.067.035.05.144.2.004.164-.066.184-.055.015-.14-.105.082.16-.02.129h-.058l-.09.008-.004.011-.051.426-.113.11-.278.242-.058.222-.11.368-.074.308-.2.496-.16.008-.394-.2-.476.024-.16-.031-.34.617.101.559.121.367-.09-.035-.18-.063-.144-.043-.02.032-.171.171.027.274-.05-.004-.126-.023-.214.242-.286-.024v.063l.016.394-.09.16-.078-.101-.176-.188-.242.168-.043.22-.066-.106-.13-.137-.32-1.016-.343-.773-.125-.207-.047-.14-.5-.24-.98-.269-.282.59-.293-.027.008.133-.133.062-.32-.125-.192-.031-.328-.461-.05.059-.118-.02-.113-.09-.047.051-.242.047-.035.133h-.04l-.054-.035.012.125-.133-.016-.133.035-.207.297-.754.7-.02.097-.038-.016-.27-.125-.226.016-.375.465-.184-.043-.113.238-.098.09-.098.207-.41.016-.218.718-.07.114-.009.214h-.02l-.089-.101-.035-.637-.129-.348-.215-.183-.172-.078-.195-.114-.035.137-.043.008-.028-.027-.343-.36-.633-1.113-.149-.203-.32-.13-.265-.015-.086.192-.02-.008-.223-.086-.02.074-.12.106-.293.039-.692.218-.207-.078-.312.157-.297-.047-.094.11.008.187-.031.004-.078.113-.032.605-.3.27-.153.383-.422.55-.46.11-.567-.239-.535-.21-.316-.25-.043-.282-.036-.14-.234-.383-.156-.188-.36-.289-.011.145-.106.426-.09.242-.156.789-.05-.047-.266.008-.176.133-.207.086-.18-.262-.344-.461-.406-.293-.3.039-.41-.055-.009.016-.093.441-.266.188.05.394h-.085l-.453-.316-.332-.164-.508-.043-.082.254-.043.387-.102-.094-.617-.555-.535-.687-.473.308-.64.031-.078.11-.047-.04-.153-.48-.445-.539-.23-.726.066-.157-.156-.09-.23-.195-.239-.433-.5-.309-.062-.031-.301-.508-.137-.871-.152-.262-.04-.738-1.437-.61-.61-.117-.05-.218.129-.235.133-.222.18-.915.128-.238.188-.61.012-.327.058-.016.121.05.02-.038.144-.086-.004-.219.102-.3.086-.34-.23-1.075-.083.055-.59-.004-.25.383-.011-.016-.32-.777-.075-.18-.101-.23-.067-.047-.023.101-.254.082-.324-.015.008.031-.008.164-.332.215-.082-.04-.028.04-.007.203-.086-.062.004.265-.028.145h-.058l-.215-.11-.094-.046-.172-.13-.184.07-.03-.054-.13.047-.109.055-.195-.281-.012-.157.09-.113-.133.031-.2.024-.386-.301-.035-.313.176-.671-.102-.106.145-.27.422.305-.02-.113.09-.117.113-.258.113-.254-.125-.297.125-.12.149-.747.203-.11-.012-.113-.394-1.207-.09-.742-.188-.238-.144-.281-.375-.125-.196-.02-.554.203-.102.43-.093-.043-.223.07-.875-.125-.14.094-.29-.027.012-.059-.11-.52-.593-.867-.094.051-.004.25-.133.082-.027-.039-.371-.723h-.29l-.218-.199-.098-.418-.09-.262-.152-.308-.562-.164-.285.078-.176-.258-.145-.148.016-.02.062-.05-.054-.044-.102-.058.035-.07-.246-.301-.097-.133-.13-.07-.167-.137-.282-.211-.234-.098-.035-.035v.082l-.063-.008-.297-.207-.042-.172-.047-.046.109-.184-.191-.168-.098-.176-.293-.86.086-.35-.11-.18-.023.054-.215.102-.281-.012-.281-.039-.301.102-.32-.008-.157-.012-.27-.074-.32-.05-1.624-.81-.278-.117-1.27-.922-.804-.296-.125-.118-.04.028-.077.043-.028-.008-1.011-.227-.324-.246-.028.11-.14.07-.54-.055-.105.082-.754-.062-.152-.102-.125.14.023.028.086.27.035.226.004.352-.144.18-.117.12-.004.548.109.261-.137.285-.035.907-.133.359.157.492-.02.086-.281.305-.438-.317-.418-.058-.37-.235-.415-.078-.281.067-.848-.325-1.086.11-.187.004-.313.035-.449-.106-.168.067-.457-.442-.152.086-.157.02-1.035-.445-.258.027-.335-.14-.461.038-.391.188-.316.05-.606.41-.152.438-.254.114-.11.191-.378.422-.184.25-.285.297-.113.312-.13.063-.734-.48-.808-.891-.16-.09-1.043-.785-.352.043-.555-.305-.261-.156-1.102-.496-.02.05-.035-.004-.02-.03-.245-.352-.797-.305-.29.027-.073-.082-.082-.23-.196-.36-.246-.093-.406.09-.258-.356-.844-.89-.093-.055-.254-.383-.5-.09h-.149l-.594-.656.07-.297-.273-.508-.004-.46v.007l.313.524 2.223 1.464.933.903.543.28.844-.046.75.645.203.062.535.246.18.121.355.692.399.18.117-.157-.055-.336-.402-.988.176-.402.902.082.258-.051.172-.117.16-.192.082-1.082.031.008.293.16.527.29.258-.122.102-.351-.152-1.207.207-.395.558-.41.38-.211.155-.309-.02-.36-.034-.394.011-.175-.109-.496.176-.25 1.105-.399 1.371-1.351.305.027 1.121-.098.2-.066.308.086.289-.016.293-.039.379.086.527-.113.117-.309.203-.73.16-.29.153-.57-.11-.898-.34-1.5-.066-.11.036-.027.453-.496-.114-.547-.199-.289.07-.027.028-.188-.195-.207-.098-.187.078-.414.05-.215-.155-.313.18-.332.112-.62.102.073.11.114.023-.051-.09-.242-.598-.317-.136.028-.653-.262-.234-.152-.379-.688-.121-.453-.516-.89-.277-.231-.34-.32-.68-.512-.101-.434-.05.145-.165.137-.121-.125-.106-.399.028-.11-.004-.12.055-.008.148.05.156.055-.015-.136-.028-.375.266-.172-.14-.082-.055-.121.011-.008.047-.059-.004-.047-.047-.394v-.063l.094.04.031-.016.012-.48-.27-1.192.07-.188.099-.226.058-.14-.14-.028-.2.039-.125.012-.222-.25-.118-.32-.394-.11-1.078-.168-.16.266-.395.527-1.058-.082-.305-.149-.211-.058-.55-.254-.54-.578.234-.11.258.02.008-.035.156-.11.442.059.586.023.004-.02.3-1.07.032-.351.082-.082-.047-.504.136-.129-.035-.043-.164-.027.106-.086.02-.04-.071-.023-.164-.105.07-.102.012-.207-.102-.199.137.063.106.004-.06-.102-.058-.504.145-.465.008-.594.11.067.226.371.39.074.168.008.2-.02.585.395.114.102.136-.079.168-.261.07.047.364.093-.012-.113-.02-.406.094-.278.274-.043v-.03l-.074-.106-.383-.309.086-.191.082-.328-.059-.535.078-.211.114-.016.004-.027.101-.809.082-.402-.012-.196.059.004.074.016-.015-.094-.079-.312.22-.16.116-.2.047-.058 1.051.55.04.215.394.422.492.149.383-.016.879.937.351 1.141.152.274.758.398.168-.047.262-.234.062.004-.027-.079-.012-.347.704-1.18.128-.133-.011-.02.058-.14.828-.148.41-.078.223-.043.426-.5.04-.414.042-.317.676-.402.234-.102.594-.754.422.032.402.054.89-.11.708-.647.422-.16.297-1.102.332-.23.03-.173.017-.296.128-.008.157-.055.054-.59.133-.199-.015-.39.242-.184.52-.008-.071-.176-.16.016-.188-.035.028-.145.226-.516.176.075.328.328.469-.082.187-.254.336-.094.149.207.117.102 1.02.066.226-.082.16-.273.07-.625.098-.196.305-.125.449.196.461-.203.074-.274.512.238.3-.011.11-.246-.27-.782.075-.398.238-.055.176-.035.187-.133.223-.035.008-.2-.004-.667.121-.18.789-.285.297-.547.437.113.301.016.07-.723.762-.09.074-.32-.27-.41-.257-.2.04-.198.136-.23-.195-.536.207-.473-.27-.37-.309-.141-.23-.575.352-.23.476.047-.082-.313-.004-.136.254-.328.207-.387.129-.211-.172-.371-.324-.239-.027-.601-.07-.117-.45-.45.027-.222.082-.387-.273-.597-.371-.47.012-.175-.23-.492.148-.196-.586-1.023-.618.18-.785 1.515-.61.067-1.39.144-.742-.164-.281-.031-1.016-.266-.867-.18-.672.216-.332-.145-.562-.09-.364.117-.382.047-.633.094-.164.07-.989-1.457-.125-.261-.191-1.196-.148-.203-.301-.16-.38-.457-.26-.293-1.052-.742-.851-.82-.524-.301-.367-.653-.344-.418-.437-.12-.133-.126-.207-.422-1.5-.898-.223-.211-1.214-1.82-.278-.008-.02.078-.05-.02-.738-.136-.13.12-.226.493-1.32-.082-.59-.64-.14-.133-.192-.22-.316-.495.043-.028.226-.55.059-.559-.164-.238-1.453-1.153-.293-.847-.473-.578-1.73-2.332-.145.05-.45-.082-.117.184-.226-.05-.2-.063-.933-.844-.594-.8-.23-.15-.258-.683-.05-.14-.192-.118-.379-.547-.93-.707-.797.164-.394.079-.29-.098-.62.105-1.477-1.011-.156-.157-.024.04-.265.078-.176-.192.047-.035.035-.375-.254-1.25.324-.77.188-.242.191-.203-.027-.379-.281-.457.093-.71.485-1.102.265-.082.422-.114.313-.707.105-.207.211-.402.242.023.211-.152.403-.086.07-.16.426-.262.144-.43-.03-.566.042-.32.156-.14.246-.274.395-.528.125-.402.445-.105.559-.13.219-.116 1.109-.297.332-.043.695-.11.317.117.304-.148.52.04.707.366.004-.074.101-.55.196-.005.168-.25.011-.746.055-.492-.05-.43.07-.152-.051-.644.293-.184.05-.258-.003-.457.375.156.21-.183.305-.172.168-.066-.074-.938-.152-.34.133-.14.332-.149.129-1.187-.051-.325-.278-.52.02-.644-.16-.508-.043-.628-.23-.438.042-.707.227-.215.316-.61.078-.245-.105-.813.047-.258-.067-.382.016-.758-.133-.453-.004-.563.137-.48.09-.387-.152-.508.683-.535.02-.129-.711-.805-.227-.293-.394-.953-.149-1.187-.18-.535-.03-1.184-.477-.851-.016-.235-.402-.222-.375-.102-.457-.156-1.043-.407-.246-.027-.329-.64.067-.31.066-.382-.148-1.23.023-.805-.093-.895-.028-.507-.047-1.293-.82-1.86-.008-.55.008-.669-.68-1.503.024-.207.07-.329-.309-.992-.937-1.879-.273-.539-.41-.281-.485-.262-.566-.675-.301-.196-.418.094-.55.098-.548-1.02-.324-.695-.238-.274.035-.11-.356-.343-.375-1.062.48-.407-.132-.386-.723-.91-.078-.168-.031-.141.023-.77-.3-1.359.156-.121.055-.3-.157-.86-.039-.543-.136-.219.144-.277.246-.211.14-.219.079-.156.062-.164-.207-.598.043-.273-.222-1.692.191-.277.235-.031.886-.082.059-.278.23-.273.055-.168.102-.84.105-.102.219-.375.023-.234-.09-.16-.476-.453-.207-.203-.133-.153-.027-.312.043-.399.191-.226.027-.352-.101-.746-.723-1.156.031-.543.301-.3.07-.098.348.148.313-.27.203.172L9.87.711l.246.383 1.278.383.195.304.504.938-.133.215-.188.195.918 1.414.602.309.36-.067.413-.07.493.14.812.34-.004-.047.227-.285 1.12-.414.31-.68-.067-1.07-.027-.332.023-.328.168-.254.672-.472.43-.06.863-.714 1.484.137.235.18.355-.012.168-.121.149-.094.285.121.5.168.39.23 1.235.184.613.477.14.058.38.727.28.894.212.258.578.422.726.258.301.43-.312.324-.344.363v.809l.11.875-.118.289-.156.066.082.438.262.324.187.261.305.48.496.349.363.101.38-.12.726-.196.101.011.828.84.203.575.485.246.219.234.293.305.183.066 1.004-.5.363.203.25.2.41.12.157-.058.527.004 1.129.539.555-.152.054-.145h.012l.258-.059.137-.105.27-.082.042-.18-.082-.496.285-.324.262.035.254.047.469.105.386.098.325.203.382.371.051.239.09.699.418.394.55.461.38.438.832.578.136.129.832.258.372.07.773.21.262.106.355.157.207.156.715.144.344.606.36.203.359.45.703 1.94.418.13 1.23.496.711.05.973.149.285.062.469.239.421.218.407.137.5-.445.16-.18 1.07.125.313.04.258-.095.425-.394.164.234.368.371.433.309.309.008.207.011.375.024.16-.11.351.051 1.239 1.688.37.457.391.66.204.133.199-.008.945.316 1.434 1.055.039.313.066.605.348.668.383.332.574.938.223.21.148.11.105.586.247.289.726.336.848.246.367.5 1.23 3.32.633.727.703.23.465.524.067-.145.332-.14.261-.083.598.032 2.293 1.625 1.91.312.219-.129 1.164.2.55-.22.15.09.148.063.152-.078.414-.086.586-.121.387.098.14.015.25.336h.032l.007-.043.34-1.422.145-.632-.016-.223.223-.3.36-.196.339-.031.098-.102.425-.707.223-.168.168.055.184.101.187-.133.477.22 1.32.484.219.027.32-.078 1.246.261.164.016.52 1.184 1.21.77.216.144.48-.074.156-.004.156-.07.266-.005.246-.125.496-.093.496.136.137-.043.09-.254.336.235.187.113.454-.027.261-.223.102-.648.133-.285.12-.114.29-.879.386-.109.223-.063.387-.253.344-.008.144.035 1.074-.676.309-.426.398-.12.145-.169.137-.324.043.078.16.184.597.242.391.836.328.2.399.57-.063.445-.195.12-.406-.007-.29-.008-.328.07-.78.223-.31.293.028.246 1.332.235.887.218 1.73.782.805.18 1.02-.872.538-.629.168-.187.149-.485.234-.09.082-.187.649-.496.015.07.239.23.183-.023.137-.093.25-.04.18-.124.449.027.215-.113 1.652.343.203-.086.613.188.16.039.176-.25.598-1.203.066-.293-.027-.348.008-.668.898-.12 1.008.612.32-.074.266.028 1.242 1.773.367.86.34.55.528 1.992.203-.007.132-.122.25-.062.551.14 1.274 1.153.058-.129-.058-.543.14-.379.48-.308.368-.028.188-.215.12-.183-.206-.903.168-.14.187-.098.637.028.347.05.305-.152 1.379-.05.277.148.16.644-.347.817.254.53.015.208.563 1.21.324-.097.23.012.165-.13.066-.222.043.02.223.047.3-.102.133-.172.406-.027.829.05.117-.03.64.16.235-.11 1.262.551.453.23.101-.066.715-.883-.113-.242-.313-.629.34-1.45.047-.44.176-.07.558.081.153-.16.105-1.629.211-.726.106-.59.304-.192.254-.203.078-.16.215-.086-.101-.098-.13-.222-.05-.528-.41-.687.328-2.758.473-.23.09-.188.456-.387.266-.242.043-.246-.043-.433.086-.192.184-.375.277-.23.242.015.137-.023.242.277.246-.011.09-.204-.129-1.132-.16-.336-.266-.348v-.605l.086-1.497.168.098.578.192.551.269.371.227.137-.235.3-.031.321.031.117.16.438 1.059.097.223-.039.535-.18.351.07.114.485.375.242.308.133.32.403.524.27.547.16.078.023-.04.488-.339.324-.086 1.227.559.637-.137.535-.168.214-.363.313-.114h.21l.278-.085.149.054.164.09.308-.02.524-.136.66.137.703.695.79.105.769.114.527.68 1.145 1.343.796.316.489.176.363.184.105.11.032-.098.16-.2.223-.11.52-.667.155-.363.364-.11 1.132.012.454.207v-.098l.109-.48.043-.246.016-.188.175-.109.446.09.48.23.324.313.407.137 1.007.43.313.573.414.399.652.105.45-.797.308-.097.234-.164.598.25.16.238.239.25.253.559.63 1.746.695.488.968-.05.532-.223.195-.45.344-.765.297-.348.687.082.41.344.094.125.055-.063h.363l.941.606.403.285.625.203.324.188.473.382.566.387.21.215.536.355.488.047.356.309.21-.082.481.062.23.453.36.708.309.308.105.613-.168.075-.367.101-.164.438-.008.422-.137.421-1.078.723.301.313 1.086.777.543 1.21.617.524.219.176.355.629-.023.27-.05.222-.36.469-.082.281-.153.348-.261.148.011.02.16.508.141.39.168.324-.012.309-.054.203-.207.496.242.617.266.559-.024.152h-.035l-.191.196-.243.332-.851.226-.297-.043.023.094-.015.293-.047.25.242 1.34.309.894-.067.192-.02.512-.128.55.12.684.372.539.066.152.461.606-.015.16-.243.894.11 1.391.047.828-.61.996-.32.399-.113.097-.172.23-.316.72.261.847.012 1.035.2.176.073.078-.132 1.22.093.952-.707 1.008-.203.184-.754.699-.344 1.176v1.746l.57.758-.034.101-.114.461-.425.383-.192.097.063.254.164.957-.176.153-.094.11-.207.636.145.82.36.25.26.047.286.402-.05.004-.27-.011-.22.234-.058.52.028.511.496.614-.04.03-.175.102-.055.317-.07.343-.43.188-.082.129-.05-.02-.133.203-.036.602.61 1.922-.012.195.754.774.176.09.293.292.406.336.121.176.93.754.16.188-.027.18-.051.195-.012.086.285.328.164.199.32.297.2.308-.055.04-.113.48.047.285.648.523.735.504.05.356-.078.008-.554.035-.165.023-.226.043-.816.871-.125.055-.118.355-.082.832.024.2-.168.215.265.48-.007.371v.524l.054.441.09.297.156.637.098.41-.027.508.12.707.321.359.258.281.644.77.336.078.45.453.925 1.465.153.27.277.48-.102.047-.183.297-.238.66-.395.418-.043.453-.02.34.075.476-.074.317-.247 1.168.102.168.504.882-.242.258-.324-.008-.118.2-.066.117-.059.191-.132.172.078.211.199.508.3 1.562.133.36-.039.183.098.215.09.395.254.976-.164.004-.098.156-.066.672.062.317.13.425-.138-.082-.265.098-.051.29.281 1.398-.082.16-.05-.02-.036.121-.035.774.41.715-.14.671.41.415.125.25.117.89.039.207.5 1.637.602.637-.102.066-.273.43-.137.007-.012.016.031.356.094.632-.027.274.101.379.07.797.063.46-.031.012-.211.07.023.176-.085-.023-.215.144.007.832-.496.547.008.579-.047.175.063.29-.074.117.101.074.067.172.128.273.387.79.07.32.297.222.29.125.695-.023.316.234.223.211.074.187.48.43.239.477.312.363.207.047.223.062.047-.03.02.112-.024 1.09-.04.258.216.445.34.329.152.117.672 1.207.144.293.352.699.297.273.195.29.86 1.136.117.106.379-.008.238-.074.285.222.73.293.426.211.207.192.531-.211.348-.157.164-.23.371-.106.676.75.223.625.176.305.625.996.164.64.586.462.613.16.742.762.176.152.289.316.043.078.457.317.566.316.64-.03.462.05.289.078.121.07.07.305-.293.613-.156.524-.129.894.278 1.246.035.29.207.667 1.254 1.356.254.18 1.253 1.492.364.39.062.168-.07.211.098.696-.063.23v.273l-.05.301-.02.285.086.227-.012.074-.05.008-.102.191.097.235.219.117.617.73.285.239.77.511.43.028.347.394.348.328.234.387.254.461.149.145.086.105.246.133.246.055.199.812.086.234.164.024.031.129.016.148.187.633-.195.113-.305.196.035.129.247.32.156.191-.004.95.316.128.383.301.016.223-.074.406.214.414.86 1.121.617 2.215.207.254.336.7.5.976.031.05" style="stroke:none;fill-rule:nonzero;fill:#908e96;fill-opacity:1"/></g><g clip-path="url(#b)"><path d="m201.035 163.77.48 1.054.231.692.617 2.93.203.8.047 3.293-.175.23-.137.223-.14.781-.044.278.09.387.402 1.605-.164.516.426 1.394.238 1.313.102.593.14.973-.156.176-.054.133.074.273.258.324-.028.008-.168.066-.078.586-.137.13-.683.132-.117.184.011.105-.148.23.078.817.176.602.02.414.046.472-.277.047-.383.567.274.41.175.59-.039.71.102.47.016.394.214.262.176.601-.11.113-.027-.023-.601-.555.02.149.238.23-.13.227-.062.012-.133-.286-.132-.148-.207.246.296.691h-.042l-.438-.273-.184-.277-.03.047-.028.39.117.227.027.175.012.13.031.007.106-.078.043-.168.082.059-.028.175-.191.415.293.445-.227.117-.203-.133-.226-.316-.145-.047.328 1.262.203.023.543.66-.738.66-.2.141-.03.254.164.23.16-.039.191-.172.028.067.054.516.157.261.16.207.094 1.203-.512.118-.133.203.203.277.09.336-.195.148-.235.243.121.218.286.145.218-.094.203-.05.016.03.363.95.078.312.278.301.12.145.118.164.188.074.015.238-.191.363-.059.223.121.473.399.164.273.2.063.312-.106.183-.27.078-.41-.129.075.141.515.34.133.258-.125.199-.414.039-.394.105.011.23.824 1.415.153 1.664-.633.879-.336 1.367-.504.899.23.355.075.117-.098.016-.258-.102-.097-.117-.024.09-.168.101-.066-.16-.078-.16-.063.024-.46.382.046.024.047.09-.023.027-.133.086.097.086.012.21.028.224v.07l-.067.015-.238-.02.023.134-.027.09-.074-.133-.18-.074-.101.03-.012-.015-.086-.074-.05.086-.099.066v.02l.118.113.058.16-.074-.004-.129.075.027.062.079-.023.027.086-.09-.004-.32.078.066.039.121.086-.219-.024-.125.254.02.078-.063.028-.046.144-.106-.097-.113-.102.074.238.012.25-.078-.02-.09.036.008.074.054.637-.058-.11-.121.008-.055.246.21.27.142-.012.074.215-.008.172-.082-.074-.078-.051.16.344-.094.511.14.172.266.38-.101.093-1.922.445-.828-.66-.215.14-.426-.355.004-.148-.308-.457-.743-2.426-2.449-.547-1.55-1.14-2.391-1.446-.317.004-.144-.277-.29-.946-.241-.168-.649-.12-.148-.196.027-.351.211-.215.371-.442-.059-.32-.359-.527-2.336-.239.723-1.113-1.52-2.434-1.406-1.14.098 1.262-1.774 1.117.047.343-.16.118-.246.05.012.051.578 1.133.16.156-.008.012-.055.273.09.157-.851.449.07 1.086-2.016-.45-.183-1.25-.735-.43-.007-.077-1.32-.926-1.985-.871-.035.105-.008.196-.04.008-.066-.125-.18-.23-.198.144.039.148.355.27-.027.03-.16-.019-.149-.14-.008.113.133.258.211.09-.035.175-.234.243-.055.312-.059.3-.152.04-.207-.043-.012.059.137.148.082.164-.043.012-.426.02.04.1.41.61-.02.25h.18l-.075.094-.16.254.043.293.004.238.164.004.137-.176.058.043.059.254-.023.59-.047-.02-.172-.168-.059.122.07.199.227.094.047-.016.004.105-.125.028-.336-.125.16.21.41.286-.027.035-.106.32.07.106.036-.043.086-.184.031-.047-.168.371-.113-.109-.121-.191-.07.105-.07.625.038.168-.027.008-.117.2.191.202-.148.063-.047.066-.934.266-.96-1.196-.716.102-.18 1.14-1.156-.62-.035-.426-.531-.594-.293-.203-.05.101-.098-.093-.551-.586-1.2-.102-.831-.922-1.325.035.684 2.418-2.281 1.227.543 1.531-2.559.063-1.02.351-.206 1.125h-.477l-1.418-.25-.05-.43-.055-.343-.317-.473-1.234-.36-2.235-1.194-.898-1.583-1.36-.394-2.117-1.188-3.199-.765-.922-.207-.761-.09-1.172.598-.977.683-.789.88-1.34.081-2.199.492-.688 1.332-.718-.129-.508 2.458.285 2.085.758 1.27-.68 1.172-.504.476-.57-.515-1.785-1.196-.836-.746-.219-.476-.031.015-.824.625-1.36-.914-.925.118-.594.011-.649-.152-.566-1.848-.055-.449-.531-1.75-.95-.547-.23.035-.117.078-.176.067-.007-.02-.438-.57-1.64.113.042.082-.125.09-.046.008.105.094-.055.011-.105.301-.067.149.016.015.027.043-.082.032.008.02.067.085-.106.02-.11.214-.05.082-.047-.035-.094.035-.007-.078-.196-.304-.16-.082-.203-.16-.336-.188.07-.031-.031-.09-.117-.145.008-.133-2.391-.14.031.066.54 1.016-1.61.262-.809-.079-2.433-1.3-.414-.301-5.301-4.371-2.402-6.36-1.141-2.945-.574-1.2-.45-.573-.718-2.606-.38-1.762-.386-1.046-2.558-.184.39 2.34-1.25 3.953-.097.523-1.985 1.11-1.133-.23-.222.613-.934-.348-.031-.098-.434.106-.07.304-.082-.023-1.11-.047-.074.469-1.097.043.007.558.293 2.047.309.75-.098.008-2.27.082.009-.035.132-.379-.043-.242.032.004.11-.055.081-.148.012-.43.191-.047.145-.117.043-.211-.059-.453-.219-.461.059-.754.211-.617.059-.371.523-1.203.23-.075.235-.054.594-.281.59-.184.246-.524.566-.246.227-.422.207-.656.05-.324.035-.262 1.262-1.765-.187-.48-.72-.634-.358-.425-.239-.762.102-.996.047-.856-.461-.882-1.074-1.583.433-.375-.023-.199-.157-.312.133-.235.114-.168-.059-.918-.027-.238-.082-.125.023-.472.098-.305.054-.13.414-.108.18-.09-.027-.235.011-.336.06-.242.073-.586.461-.5-.183-.566-.41-.817-.075-.398.114-.379.046-.207-.234-.695-.25-.602-.426-.597-.18-.653-.101.18-.164.066-.45-.172-.116-.007-.016.039-.078.527-.215.363-.066-.062-.141-.055-.121.156.097.528h-.023l-.816-.782-.114-.515-.16-.485-.398-.527-.39-.168-.477-.418-.344-.68-.445-.816-.332-.27-.497.09-1.093.352-.555-.242-.422-.262-.875-.734-.848-.985-.023-.148.07-.781-.261-.52-.243-.266-.48-.21-.016.023-.406.656-.406.18.629 1.984.215.371-.106.086-.246.094.05.332-.112-.059-.176.067.035.05.144.2.004.164-.066.184-.055.015-.14-.105.082.16-.02.129h-.058l-.09.008-.004.011-.051.426-.113.11-.278.242-.058.222-.11.368-.074.308-.2.496-.16.008-.394-.2-.476.024-.16-.031-.34.617.101.559.121.367-.09-.035-.18-.063-.144-.043-.02.032-.171.171.027.274-.05-.004-.126-.023-.214.242-.286-.024v.063l.016.394-.09.16-.078-.101-.176-.188-.242.168-.043.22-.066-.106-.13-.137-.32-1.016-.343-.773-.125-.207-.047-.14-.5-.24-.98-.269-.282.59-.293-.027.008.133-.133.062-.32-.125-.192-.031-.328-.461-.05.059-.118-.02-.113-.09-.047.051-.242.047-.035.133h-.04l-.054-.035.012.125-.133-.016-.133.035-.207.297-.754.7-.02.097-.038-.016-.27-.125-.226.016-.375.465-.184-.043-.113.238-.098.09-.098.207-.41.016-.218.718-.07.114-.009.214h-.02l-.089-.101-.035-.637-.129-.348-.215-.183-.172-.078-.195-.114-.035.137-.043.008-.028-.027-.343-.36-.633-1.113-.149-.203-.32-.13-.265-.015-.086.192-.02-.008-.223-.086-.02.074-.12.106-.293.039-.692.218-.207-.078-.312.157-.297-.047-.094.11.008.187-.031.004-.078.113-.032.605-.3.27-.153.383-.422.55-.46.11-.567-.239-.535-.21-.316-.25-.043-.282-.036-.14-.234-.383-.156-.188-.36-.289-.011.145-.106.426-.09.242-.156.789-.05-.047-.266.008-.176.133-.207.086-.18-.262-.344-.461-.406-.293-.3.039-.41-.055-.009.016-.093.441-.266.188.05.394h-.085l-.453-.316-.332-.164-.508-.043-.082.254-.043.387-.102-.094-.617-.555-.535-.687-.473.308-.64.031-.078.11-.047-.04-.153-.48-.445-.539-.23-.726.066-.157-.156-.09-.23-.195-.239-.433-.5-.309-.062-.031-.301-.508-.137-.871-.152-.262-.04-.738-1.437-.61-.61-.117-.05-.218.129-.235.133-.222.18-.915.128-.238.188-.61.012-.327.058-.016.121.05.02-.038.144-.086-.004-.219.102-.3.086-.34-.23-1.075-.083.055-.59-.004-.25.383-.011-.016-.32-.777-.075-.18-.101-.23-.067-.047-.023.101-.254.082-.324-.015.008.031-.008.164-.332.215-.082-.04-.028.04-.007.203-.086-.062.004.265-.028.145h-.058l-.215-.11-.094-.046-.172-.13-.184.07-.03-.054-.13.047-.109.055-.195-.281-.012-.157.09-.113-.133.031-.2.024-.386-.301-.035-.313.176-.671-.102-.106.145-.27.422.305-.02-.113.09-.117.113-.258.113-.254-.125-.297.125-.12.149-.747.203-.11-.012-.113-.394-1.207-.09-.742-.188-.238-.144-.281-.375-.125-.196-.02-.554.203-.102.43-.093-.043-.223.07-.875-.125-.14.094-.29-.027.012-.059-.11-.52-.593-.867-.094.051-.004.25-.133.082-.027-.039-.371-.723h-.29l-.218-.199-.098-.418-.09-.262-.152-.308-.562-.164-.285.078-.176-.258-.145-.148.016-.02.062-.05-.054-.044-.102-.058.035-.07-.246-.301-.097-.133-.13-.07-.167-.137-.282-.211-.234-.098-.035-.035v.082l-.063-.008-.297-.207-.042-.172-.047-.046.109-.184-.191-.168-.098-.176-.293-.86.086-.35-.11-.18-.023.054-.215.102-.281-.012-.281-.039-.301.102-.32-.008-.157-.012-.27-.074-.32-.05-1.624-.81-.278-.117-1.27-.922-.804-.296-.125-.118-.04.028-.077.043-.028-.008-1.011-.227-.324-.246-.028.11-.14.07-.54-.055-.105.082-.754-.062-.152-.102-.125.14.023.028.086.27.035.226.004.352-.144.18-.117.12-.004.548.109.261-.137.285-.035.907-.133.359.157.492-.02.086-.281.305-.438-.317-.418-.058-.37-.235-.415-.078-.281.067-.848-.325-1.086.11-.187.004-.313.035-.449-.106-.168.067-.457-.442-.152.086-.157.02-1.035-.445-.258.027-.335-.14-.461.038-.391.188-.316.05-.606.41-.152.438-.254.114-.11.191-.378.422-.184.25-.285.297-.113.312-.13.063-.734-.48-.808-.891-.16-.09-1.043-.785-.352.043-.555-.305-.261-.156-1.102-.496-.02.05-.035-.004-.02-.03-.245-.352-.797-.305-.29.027-.073-.082-.082-.23-.196-.36-.246-.093-.406.09-.258-.356-.844-.89-.093-.055-.254-.383-.5-.09h-.149l-.594-.656.07-.297-.273-.508-.004-.46v.007l.313.524 2.223 1.464.933.903.543.28.844-.046.75.645.203.062.535.246.18.121.355.692.399.18.117-.157-.055-.336-.402-.988.176-.402.902.082.258-.051.172-.117.16-.192.082-1.082.031.008.293.16.527.29.258-.122.102-.351-.152-1.207.207-.395.558-.41.38-.211.155-.309-.02-.36-.034-.394.011-.175-.109-.496.176-.25 1.105-.399 1.371-1.351.305.027 1.121-.098.2-.066.308.086.289-.016.293-.039.379.086.527-.113.117-.309.203-.73.16-.29.153-.57-.11-.898-.34-1.5-.066-.11.036-.027.453-.496-.114-.547-.199-.289.07-.027.028-.188-.195-.207-.098-.187.078-.414.05-.215-.155-.313.18-.332.112-.62.102.073.11.114.023-.051-.09-.242-.598-.317-.136.028-.653-.262-.234-.152-.379-.688-.121-.453-.516-.89-.277-.231-.34-.32-.68-.512-.101-.434-.05.145-.165.137-.121-.125-.106-.399.028-.11-.004-.12.055-.008.148.05.156.055-.015-.136-.028-.375.266-.172-.14-.082-.055-.121.011-.008.047-.059-.004-.047-.047-.394v-.063l.094.04.031-.016.012-.48-.27-1.192.07-.188.099-.226.058-.14-.14-.028-.2.039-.125.012-.222-.25-.118-.32-.394-.11-1.078-.168-.16.266-.395.527-1.058-.082-.305-.149-.211-.058-.55-.254-.54-.578.234-.11.258.02.008-.035.156-.11.442.059.586.023.004-.02.3-1.07.032-.351.082-.082-.047-.504.136-.129-.035-.043-.164-.027.106-.086.02-.04-.071-.023-.164-.105.07-.102.012-.207-.102-.199.137.063.106.004-.06-.102-.058-.504.145-.465.008-.594.11.067.226.371.39.074.168.008.2-.02.585.395.114.102.136-.079.168-.261.07.047.364.093-.012-.113-.02-.406.094-.278.274-.043v-.03l-.074-.106-.383-.309.086-.191.082-.328-.059-.535.078-.211.114-.016.004-.027.101-.809.082-.402-.012-.196.059.004.074.016-.015-.094-.079-.312.22-.16.116-.2.047-.058 1.051.55.04.215.394.422.492.149.383-.016.879.937.351 1.141.152.274.758.398.168-.047.262-.234.062.004-.027-.079-.012-.347.704-1.18.128-.133-.011-.02.058-.14.828-.148.41-.078.223-.043.426-.5.04-.414.042-.317.676-.402.234-.102.594-.754.422.032.402.054.89-.11.708-.647.422-.16.297-1.102.332-.23.03-.173.017-.296.128-.008.157-.055.054-.59.133-.199-.015-.39.242-.184.52-.008-.071-.176-.16.016-.188-.035.028-.145.226-.516.176.075.328.328.469-.082.187-.254.336-.094.149.207.117.102 1.02.066.226-.082.16-.273.07-.625.098-.196.305-.125.449.196.461-.203.074-.274.512.238.3-.011.11-.246-.27-.782.075-.398.238-.055.176-.035.187-.133.223-.035.008-.2-.004-.667.121-.18.789-.285.297-.547.437.113.301.016.07-.723.762-.09.074-.32-.27-.41-.257-.2.04-.198.136-.23-.195-.536.207-.473-.27-.37-.309-.141-.23-.575.352-.23.476.047-.082-.313-.004-.136.254-.328.207-.387.129-.211-.172-.371-.324-.239-.027-.601-.07-.117-.45-.45.027-.222.082-.387-.273-.597-.371-.47.012-.175-.23-.492.148-.196-.586-1.023-.618.18-.785 1.515-.61.067-1.39.144-.742-.164-.281-.031-1.016-.266-.867-.18-.672.216-.332-.145-.562-.09-.364.117-.382.047-.633.094-.164.07-.989-1.457-.125-.261-.191-1.196-.148-.203-.301-.16-.38-.457-.26-.293-1.052-.742-.851-.82-.524-.301-.367-.653-.344-.418-.437-.12-.133-.126-.207-.422-1.5-.898-.223-.211-1.214-1.82-.278-.008-.02.078-.05-.02-.738-.136-.13.12-.226.493-1.32-.082-.59-.64-.14-.133-.192-.22-.316-.495.043-.028.226-.55.059-.559-.164-.238-1.453-1.153-.293-.847-.473-.578-1.73-2.332-.145.05-.45-.082-.117.184-.226-.05-.2-.063-.933-.844-.594-.8-.23-.15-.258-.683-.05-.14-.192-.118-.379-.547-.93-.707-.797.164-.394.079-.29-.098-.62.105-1.477-1.011-.156-.157-.024.04-.265.078-.176-.192.047-.035.035-.375-.254-1.25.324-.77.188-.242.191-.203-.027-.379-.281-.457.093-.71.485-1.102.265-.082.422-.114.313-.707.105-.207.211-.402.242.023.211-.152.403-.086.07-.16.426-.262.144-.43-.03-.566.042-.32.156-.14.246-.274.395-.528.125-.402.445-.105.559-.13.219-.116 1.109-.297.332-.043.695-.11.317.117.304-.148.52.04.707.366.004-.074.101-.55.196-.005.168-.25.011-.746.055-.492-.05-.43.07-.152-.051-.644.293-.184.05-.258-.003-.457.375.156.21-.183.305-.172.168-.066-.074-.938-.152-.34.133-.14.332-.149.129-1.187-.051-.325-.278-.52.02-.644-.16-.508-.043-.628-.23-.438.042-.707.227-.215.316-.61.078-.245-.105-.813.047-.258-.067-.382.016-.758-.133-.453-.004-.563.137-.48.09-.387-.152-.508.683-.535.02-.129-.711-.805-.227-.293-.394-.953-.149-1.187-.18-.535-.03-1.184-.477-.851-.016-.235-.402-.222-.375-.102-.457-.156-1.043-.407-.246-.027-.329-.64.067-.31.066-.382-.148-1.23.023-.805-.093-.895-.028-.507-.047-1.293-.82-1.86-.008-.55.008-.669-.68-1.503.024-.207.07-.329-.309-.992-.937-1.879-.273-.539-.41-.281-.485-.262-.566-.675-.301-.196-.418.094-.55.098-.548-1.02-.324-.695-.238-.274.035-.11-.356-.343-.375-1.062.48-.407-.132-.386-.723-.91-.078-.168-.031-.141.023-.77-.3-1.359.156-.121.055-.3-.157-.86-.039-.543-.136-.219.144-.277.246-.211.14-.219.079-.156.062-.164-.207-.598.043-.273-.222-1.692.191-.277.235-.031.886-.082.059-.278.23-.273.055-.168.102-.84.105-.102.219-.375.023-.234-.09-.16-.476-.453-.207-.203-.133-.153-.027-.312.043-.399.191-.226.027-.352-.101-.746-.723-1.156.031-.543.301-.3.07-.098.348.148.313-.27.203.172L9.87.711l.246.383 1.278.383.195.304.504.938-.133.215-.188.195.918 1.414.602.309.36-.067.413-.07.493.14.812.34-.004-.047.227-.285 1.12-.414.31-.68-.067-1.07-.027-.332.023-.328.168-.254.672-.472.43-.06.863-.714 1.484.137.235.18.355-.012.168-.121.149-.094.285.121.5.168.39.23 1.235.184.613.477.14.058.38.727.28.894.212.258.578.422.726.258.301.43-.312.324-.344.363v.809l.11.875-.118.289-.156.066.082.438.262.324.187.261.305.48.496.349.363.101.38-.12.726-.196.101.011.828.84.203.575.485.246.219.234.293.305.183.066 1.004-.5.363.203.25.2.41.12.157-.058.527.004 1.129.539.555-.152.054-.145h.012l.258-.059.137-.105.27-.082.042-.18-.082-.496.285-.324.262.035.254.047.469.105.386.098.325.203.382.371.051.239.09.699.418.394.55.461.38.438.832.578.136.129.832.258.372.07.773.21.262.106.355.157.207.156.715.144.344.606.36.203.359.45.703 1.94.418.13 1.23.496.711.05.973.149.285.062.469.239.421.218.407.137.5-.445.16-.18 1.07.125.313.04.258-.095.425-.394.164.234.368.371.433.309.309.008.207.011.375.024.16-.11.351.051 1.239 1.688.37.457.391.66.204.133.199-.008.945.316 1.434 1.055.039.313.066.605.348.668.383.332.574.938.223.21.148.11.105.586.247.289.726.336.848.246.367.5 1.23 3.32.633.727.703.23.465.524.067-.145.332-.14.261-.083.598.032 2.293 1.625 1.91.312.219-.129 1.164.2.55-.22.15.09.148.063.152-.078.414-.086.586-.121.387.098.14.015.25.336h.032l.007-.043.34-1.422.145-.632-.016-.223.223-.3.36-.196.339-.031.098-.102.425-.707.223-.168.168.055.184.101.187-.133.477.22 1.32.484.219.027.32-.078 1.246.261.164.016.52 1.184 1.21.77.216.144.48-.074.156-.004.156-.07.266-.005.246-.125.496-.093.496.136.137-.043.09-.254.336.235.187.113.454-.027.261-.223.102-.648.133-.285.12-.114.29-.879.386-.109.223-.063.387-.253.344-.008.144.035 1.074-.676.309-.426.398-.12.145-.169.137-.324.043.078.16.184.597.242.391.836.328.2.399.57-.063.445-.195.12-.406-.007-.29-.008-.328.07-.78.223-.31.293.028.246 1.332.235.887.218 1.73.782.805.18 1.02-.872.538-.629.168-.187.149-.485.234-.09.082-.187.649-.496.015.07.239.23.183-.023.137-.093.25-.04.18-.124.449.027.215-.113 1.652.343.203-.086.613.188.16.039.176-.25.598-1.203.066-.293-.027-.348.008-.668.898-.12 1.008.612.32-.074.266.028 1.242 1.773.367.86.34.55.528 1.992.203-.007.132-.122.25-.062.551.14 1.274 1.153.058-.129-.058-.543.14-.379.48-.308.368-.028.188-.215.12-.183-.206-.903.168-.14.187-.098.637.028.347.05.305-.152 1.379-.05.277.148.16.644-.347.817.254.53.015.208.563 1.21.324-.097.23.012.165-.13.066-.222.043.02.223.047.3-.102.133-.172.406-.027.829.05.117-.03.64.16.235-.11 1.262.551.453.23.101-.066.715-.883-.113-.242-.313-.629.34-1.45.047-.44.176-.07.558.081.153-.16.105-1.629.211-.726.106-.59.304-.192.254-.203.078-.16.215-.086-.101-.098-.13-.222-.05-.528-.41-.687.328-2.758.473-.23.09-.188.456-.387.266-.242.043-.246-.043-.433.086-.192.184-.375.277-.23.242.015.137-.023.242.277.246-.011.09-.204-.129-1.132-.16-.336-.266-.348v-.605l.086-1.497.168.098.578.192.551.269.371.227.137-.235.3-.031.321.031.117.16.438 1.059.097.223-.039.535-.18.351.07.114.485.375.242.308.133.32.403.524.27.547.16.078.023-.04.488-.339.324-.086 1.227.559.637-.137.535-.168.214-.363.313-.114h.21l.278-.085.149.054.164.09.308-.02.524-.136.66.137.703.695.79.105.769.114.527.68 1.145 1.343.796.316.489.176.363.184.105.11.032-.098.16-.2.223-.11.52-.667.155-.363.364-.11 1.132.012.454.207v-.098l.109-.48.043-.246.016-.188.175-.109.446.09.48.23.324.313.407.137 1.007.43.313.573.414.399.652.105.45-.797.308-.097.234-.164.598.25.16.238.239.25.253.559.63 1.746.695.488.968-.05.532-.223.195-.45.344-.765.297-.348.687.082.41.344.094.125.055-.063h.363l.941.606.403.285.625.203.324.188.473.382.566.387.21.215.536.355.488.047.356.309.21-.082.481.062.23.453.36.708.309.308.105.613-.168.075-.367.101-.164.438-.008.422-.137.421-1.078.723.301.313 1.086.777.543 1.21.617.524.219.176.355.629-.023.27-.05.222-.36.469-.082.281-.153.348-.261.148.011.02.16.508.141.39.168.324-.012.309-.054.203-.207.496.242.617.266.559-.024.152h-.035l-.191.196-.243.332-.851.226-.297-.043.023.094-.015.293-.047.25.242 1.34.309.894-.067.192-.02.512-.128.55.12.684.372.539.066.152.461.606-.015.16-.243.894.11 1.391.047.828-.61.996-.32.399-.113.097-.172.23-.316.72.261.847.012 1.035.2.176.073.078-.132 1.22.093.952-.707 1.008-.203.184-.754.699-.344 1.176v1.746l.57.758-.034.101-.114.461-.425.383-.192.097.063.254.164.957-.176.153-.094.11-.207.636.145.82.36.25.26.047.286.402-.05.004-.27-.011-.22.234-.058.52.028.511.496.614-.04.03-.175.102-.055.317-.07.343-.43.188-.082.129-.05-.02-.133.203-.036.602.61 1.922-.012.195.754.774.176.09.293.292.406.336.121.176.93.754.16.188-.027.18-.051.195-.012.086.285.328.164.199.32.297.2.308-.055.04-.113.48.047.285.648.523.735.504.05.356-.078.008-.554.035-.165.023-.226.043-.816.871-.125.055-.118.355-.082.832.024.2-.168.215.265.48-.007.371v.524l.054.441.09.297.156.637.098.41-.027.508.12.707.321.359.258.281.644.77.336.078.45.453.925 1.465.153.27.277.48-.102.047-.183.297-.238.66-.395.418-.043.453-.02.34.075.476-.074.317-.247 1.168.102.168.504.882-.242.258-.324-.008-.118.2-.066.117-.059.191-.132.172.078.211.199.508.3 1.562.133.36-.039.183.098.215.09.395.254.976-.164.004-.098.156-.066.672.062.317.13.425-.138-.082-.265.098-.051.29.281 1.398-.082.16-.05-.02-.036.121-.035.774.41.715-.14.671.41.415.125.25.117.89.039.207.5 1.637.602.637-.102.066-.273.43-.137.007-.012.016.031.356.094.632-.027.274.101.379.07.797.063.46-.031.012-.211.07.023.176-.085-.023-.215.144.007.832-.496.547.008.579-.047.175.063.29-.074.117.101.074.067.172.128.273.387.79.07.32.297.222.29.125.695-.023.316.234.223.211.074.187.48.43.239.477.312.363.207.047.223.062.047-.03.02.112-.024 1.09-.04.258.216.445.34.329.152.117.672 1.207.144.293.352.699.297.273.195.29.86 1.136.117.106.379-.008.238-.074.285.222.73.293.426.211.207.192.531-.211.348-.157.164-.23.371-.106.676.75.223.625.176.305.625.996.164.64.586.462.613.16.742.762.176.152.289.316.043.078.457.317.566.316.64-.03.462.05.289.078.121.07.07.305-.293.613-.156.524-.129.894.278 1.246.035.29.207.667 1.254 1.356.254.18 1.253 1.492.364.39.062.168-.07.211.098.696-.063.23v.273l-.05.301-.02.285.086.227-.012.074-.05.008-.102.191.097.235.219.117.617.73.285.239.77.511.43.028.347.394.348.328.234.387.254.461.149.145.086.105.246.133.246.055.199.812.086.234.164.024.031.129.016.148.187.633-.195.113-.305.196.035.129.247.32.156.191-.004.95.316.128.383.301.016.223-.074.406.214.414.86 1.121.617 2.215.207.254.336.7.5.976.031.05" style="fill:none;stroke-width:.25;stroke-linecap:butt;stroke-linejoin:miter;stroke:#fff;stroke-opacity:1;stroke-miterlimit:10"/></g></svg>