<svg viewBox="0 0 203.849 217.44" xmlns="http://www.w3.org/2000/svg"><defs><clipPath id="a"><path d="M0 .441h204v217H0Zm0 0"/></clipPath></defs><path d="m169.16 123.996.633.195.285.22.73-.306.52.137.324.078.45-.246.148-.21.281.027.727.23.394-.105.383.316.223.211.074.187.48.43.239.477.312.363.207.047.223.062.047-.03.02.112-.024 1.09-.04.258.216.445.34.329.152.117.672 1.207.144.293.352.699.297.273.195.29.86 1.136.117.106.379-.008.238-.074.285.222.73.293.426.211.207.192.531-.211.348-.157.164-.23.371-.106.676.75.223.625.176.305.625.996.164.64.586.462.613.16.742.762.176.152.289.316.043.078.457.317.566.316.64-.03.462.05.289.078.121.07.07.305-.293.613-.156.524-.129.894.278 1.246.035.29.207.667 1.254 1.356.254.18 1.253 1.492.364.39.062.168-.07.211.098.696-.063.23v.273l-.05.301-.02.285.086.227-.012.074-.05.008-.102.191.097.235.219.117.617.73.285.239.77.511.43.028.347.394.348.328.234.387.254.461.149.145.086.105.246.133.246.055.199.812.086.234.164.024.031.129.016.148.187.633-.195.113-.305.196.035.129.247.32.156.191-.004.95.316.128.383.301.016.223-.074.406.214.414.86 1.121.617 2.215.207.254.336.7.277 1.003-.453.063-.39-.188.003.031.082.309-.117-.031-.629-.446-.054-.027-.004.098-.024.047-.062-.067-.516-.5-.176-.273.036-.266-.098-.293-.512-.621-.164-.184-.539-.562-.113.078.023.055.676 1.37-.14.599-.04.183.098.492.043 1.797-.04.031-.034-.117-.094-.043-.016.008-.523.5-.024-.039-.804-1.504.012.11.003.007.215.75-.133.301-.113.102-.062.375.132.554-.05.375-.344.446-.086.738-.016-.004-.238-.14.043.109-.144.273-.004-.004-.239-.152-.343-.074-.223-.184-.227-.375-.14-.133-.153-.152-.796-1.73-.02-.231-.238-.453-.075-.106.231-.195-.04-.043-.183-.137-.16-.168-.164-.535-.105-.199-.164.004.003-.094.02-.172v-.172l-.195-.18.082-.034.035-.082-.047-.04-.035-.105.18-.418-.192-.332-.402-.367-.2.266.09.398-.086-.035-.097.238-.137.54-.21.398-.177.441-.113-.168-.473-.559-.597-.316.015.07.09.313-.047.547.02.238-.012.305.098 2.718-.043.29-.074.144-.532.66.079.453-.067-.09-.187-.378-.059-.184-.074-.2-.774-.89-.214-.105-.13-.059.028-.039-.05-.172-.391-.254-.243-.05-.078.109-.05-.074-.157-.172-.082-.196.047-.199-.258-.547-.219-.574-.054.066.031.32h.012l.113.114-.004.008-.394.105-.067.086-.027.36-.274.043-.746.226-.484-.797-.137-.765.008.62-.215.15.043.866.13.461.089 1.278-.227-.075-.3-.277-.235.406-.027-.02-.184-.105-.433-.039-.422-.82.07-.184-.144-.261-.137-.18-.137-.297-.191-.168-.031-.097.03-.02-.07-.14-.023-.325.098.004-.028-.531h-.254l-.14.035-.145.61-.05-.028-.583-.398-.28-.215-.048-.29-.074-1.077-.121-.083-.04.079-.19.324-.06.637.263 1.699-.04-.012-.128-.07-.043.05-.098.043v.024l.004.125-.117-.125-.016.223-.097-.067-.317-.113.137.121.203.36.523.402.325.765.324.496-.453 1.293.242.403.191.976-.511.024-.211-.043-.38.203-.195.078-.285.57-.023.36.05.324-.074-.02-.039.016.008.094.098.394.719.473.128.36.067.187-.024.16.293.219-.074.086-.008.086.254.332-.066.02-.153.023.008.035.11.195.191.262-.059.16-.011.254-.113-.078-.16-.242-.329-.395-.703-.3-.426.202-.09.153-.023.125-.074-.012-.79.063-.226.078-.066.136-.531-.03-.176.089-.336.398-.23.024-.266-.188-.188.09-.258.371-.976-.683-.262-.23-.383.167-.007.211.003.227.317.34.094.082-.012.023.137.598.507.84-.16.054-.129-.168-.035-.152-.058.066-.274-.023-1.035-.266-.535.117-.293-.187-.488-.61-.13-.183-.34-.297-.304-.336-.922-.426-.758-.246-.12-.047-.118.028-.246.172-.16.074-.367.433-.418.54-.082.187-.223.332-.02.437-.019.223.188.621.093.375-1.164.145-.633-.125-.765-.043-.446-.332-.335-.414-1.934-.899-.848-.75-.765-.394-.555-.403-.461-.242-.29-.105-.378-.258v.101l.059.227-.106-.082-.39-.574-.137-.442-.047-.996-.824-1.558-.586-1.211-.164-.004-.551-.723-.977-1.254.059-.152.184-.215-.204-.465-.203.012-.27-.106-.007.032-.027.383-.078.14-.07-.039-.403.04-.176.066-.258-.204-.07-.27-.25-.132-.805-.441.207-.258.07-.2.098-.515.145-.203.11-.133.124-1.137.063-.09-.012-.035-.356-.523-.628-.5-.176-.098-.192.035-.18-.085-.085-.008-.16-.188-.282-.066-.316-.367-.36-.473.008-.258.059-.152v-.098l.066.004.063-.137.035-.355-.203-.285-.024-.563-.046.008-.18-.168-.445-.254-.157.016-.175-.18-.375-.8-.188-.313-.273-.25-.032.031-.105.086-.606-.355.016-.028-.082-.101-.426-.399-.14-.277-.172-.13-.219.145-.195-.074-.243-.14-1.46-1.098.058-.05-.062-.106-.446-.246-.386-.168-.18-.149-.688-.715-.035-.09.07-.003.563-.063.324.086.235-.176.257.047.184-.012.863.141.133-.086.696.2.171.038.383-.234.285-.613.153-.028.738-.199.793-.465.324-.039.258-.34.062-.105.688-.262.246-.129.145-.152-.391-2.762.09-.105.18-.653.062-.214-.297-.582-.305-.426-.132-.352.07-.324.437-.23.11-.079.293-.16-.047-.031-1.531-1.164-.559-.395-.539-.464-.328-.157-.238-.398-.192-.211.07-.043.176-.59.078-1.316.137-.832.188-.164.527-.11.285-.308.145-.426-.07-.406.21-.293.242-.809.106-.226.184-.375-.028-.043.078-.036.594-.316.363-.375.094-.094.027-.57.11-.781.027-.207.13-.028.35-.18.442.11.469.004 1.039.84.21.043.419-.117h.164l.242.039.36-.016.171-.234.27-.278.129-.082.402-.578.465-.633.266-.113.523-.113.469-.356.285-.152.101-.352.422-.582.114-.117.324-.09.199-.175.324-.239.164-.379.055-.265.09-.27.12-.297.438-.722.465.117.254-.13.164-.495.035-.113.477-.282.363-.832.223-.117-.016-.21-.062-.333.449-.281.379-.211.074-.367.055-.075.078-.367.406.02.082.137.031-.07.309-.208.813-.07.136-.426v-.242l.098.086.043-.113 1.008-.223.328.113.328.082.02-.058.023-.094.066.078.09.152.5-.113.02-.418.468-.281.192.16.07.04" style="fill-rule:nonzero;fill:#1a1523;fill-opacity:1;stroke-width:.25;stroke-linecap:butt;stroke-linejoin:miter;stroke:#fff;stroke-opacity:1;stroke-miterlimit:10"/><g clip-path="url(#a)"><path d="m197.418 161.059.285.34.164.183.192.121.84 1.633.316.254.004-.035.004-.098.086.07.222.2.492.234.028-.137-.113-.203.195.117.547.04.355-.008.48 1.054.231.692.617 2.93.203.8.047 3.293-.175.23-.137.223-.14.781-.044.278.09.387.402 1.605-.164.516.426 1.394.238 1.313.102.593.14.973-.156.176-.054.133.074.273.258.324-.028.008-.168.066-.078.586-.137.13-.683.132-.117.184.011.105-.148.23.078.817.176.602.02.414.046.472-.277.047-.383.567.274.41.175.59-.039.71.102.47.016.394.214.262.176.601-.11.113-.027-.023-.601-.555.02.149.238.23-.13.227-.062.012-.133-.286-.132-.148-.207.246.296.691h-.042l-.438-.273-.184-.277-.03.047-.028.39.117.227.027.175.012.13.031.007.106-.078.043-.168.082.059-.028.175-.191.415.293.445-.227.117-.203-.133-.226-.316-.145-.047.328 1.262.203.023.543.66-.738.66-.2.141-.03.254.164.23.16-.039.191-.172.028.067.054.516.157.261.16.207.094 1.203-.512.118-.133.203.203.277.09.336-.195.148-.235.243.121.218.286.145.218-.094.203-.05.016.03.363.95.078.312.278.301.12.145.118.164.188.074.015.238-.191.363-.059.223.121.473.399.164.273.2.063.312-.106.183-.27.078-.41-.129.075.141.515.34.133.258-.125.199-.414.039-.394.105.011.23.824 1.415.153 1.664-.633.879-.336 1.367-.504.899.23.355.075.117-.098.016-.258-.102-.097-.117-.024.09-.168.101-.066-.16-.078-.16-.063.024-.46.382.046.024.047.09-.023.027-.133.086.097.086.012.21.028.224v.07l-.067.015-.238-.02.023.134-.027.09-.074-.133-.18-.074-.101.03-.012-.015-.086-.074-.05.086-.099.066v.02l.118.113.058.16-.074-.004-.129.075.027.062.079-.023.027.086-.09-.004-.32.078.066.039.121.086-.219-.024-.125.254.02.078-.063.028-.046.144-.106-.097-.113-.102.074.238.012.25-.078-.02-.09.036.008.074.054.637-.058-.11-.121.008-.055.246.21.27.142-.012.074.215-.008.172-.082-.074-.078-.051.16.344-.094.511.14.172.266.38-.101.093-1.922.445-.828-.66-.215.14-.426-.355.004-.148-.308-.457-.743-2.426-2.449-.547-1.55-1.14-2.391-1.446-.317.004-.144-.277-.29-.946-.241-.168-.649-.12-.148-.196.027-.351.211-.215.371-.442-.059-.32-.359-.527-2.336-.239.723-1.113-1.52-2.434-1.406-1.14.098 1.262-1.774 1.117.047.343-.16.118-.246.05.012.051.578 1.133.16.156-.008.012-.055.273.09.157-.851.449.07 1.086-2.016-.45-.183-1.25-.735-.43-.007-.077-1.32-.926-1.985-.871-.035.105-.008.196-.04.008-.066-.125-.18-.23-.198.144.039.148.355.27-.027.03-.16-.019-.149-.14-.008.113.133.258.211.09-.035.175-.234.243-.055.312-.059.3-.152.04-.207-.043-.012.059.137.148.082.164-.043.012-.426.02.04.1.41.61-.02.25h.18l-.075.094-.16.254.043.293.004.238.164.004.137-.176.058.043.059.254-.023.59-.047-.02-.172-.168-.059.122.07.199.227.094.047-.016.004.105-.125.028-.336-.125.16.21.41.286-.027.035-.106.32.07.106.036-.043.086-.184.031-.047-.168.371-.113-.109-.121-.191-.07.105-.07.625.038.168-.027.008-.117.2.191.202-.148.063-.047.066-.934.266-.96-1.196-.716.102-.18 1.14-1.156-.62-.035-.426-.531-.594-.293-.203-.05.101-.098-.093-.551-.586-1.2-.102-.831-.922-1.325.035.684 2.418-2.281 1.227.543 1.531-2.559.063-1.02.351-.206 1.125h-.477l-1.418-.25-.05-.43-.055-.343-.317-.473-1.234-.36-2.235-1.194-.898-1.583-1.36-.394-2.117-1.188-3.199-.765-.922-.207-.761-.09-1.172.598-.977.683-.789.88-1.34.081-2.199.492-.688 1.332-.718-.129-.508 2.458.285 2.085.758 1.27-.68 1.172-.504.476-.57-.515-1.785-1.196-.836-.746-.219-.476-.031.015-.824.625-1.36-.914-.925.118-.594.011-.649-.152-.566-1.848-.055-.449-.531-1.75-.95-.547-.23.035-.117.078-.176.067-.007-.02-.438-.57-1.64.113.042.082-.125.09-.046.008.105.094-.055.011-.105.301-.067.149.016.015.027.043-.082.032.008.02.067.085-.106.02-.11.214-.05.082-.047-.035-.094.035-.007-.078-.196-.304-.16-.082-.203-.16-.336-.188.07-.031-.031-.09-.117-.145.008-.133-2.391-.14.031.066.54 1.016-1.61.262-.809-.079-2.433-1.3-.414-.301-5.301-4.371-2.402-6.36-1.141-2.945-.574-1.2-.45-.573-.718-2.606-.38-1.762-.386-1.046-2.558-.184.39 2.34-1.25 3.953-.097.523-1.985 1.11-1.133-.23-.222.613-.934-.348-.031-.098-.434.106-.07.304-.082-.023-1.11-.047-.074.469-1.097.043.007.558.293 2.047.309.75-.098.008-2.27.082.009-.035.132-.379-.043-.242.032.004.11-.055.081-.148.012-.43.191-.047.145-.117.043-.211-.059-.453-.219-.461.059-.754.211-.617.059-.371.523-1.203.23-.075.235-.054.594-.281.59-.184.246-.524.566-.246.227-.422.207-.656.05-.324.035-.262 1.262-1.765-.187-.48-.72-.634-.358-.425-.239-.762.102-.996.047-.856-.461-.882-1.074-1.583.433-.375-.023-.199-.157-.312.133-.235.114-.168-.059-.918-.027-.238-.082-.125.023-.472.098-.305.054-.13.414-.108.18-.09-.027-.235.011-.336.06-.242.073-.586.461-.5-.183-.566-.41-.817-.075-.398.114-.379.046-.207-.234-.695-.25-.602-.426-.597-.18-.653-.101.18-.164.066-.45-.172-.116-.007-.016.039-.078.527-.215.363-.066-.062-.141-.055-.121.156.097.528h-.023l-.816-.782-.114-.515-.16-.485-.398-.527-.39-.168-.477-.418-.344-.68-.445-.816-.332-.27-.497.09-1.093.352-.555-.242-.422-.262-.875-.734-.848-.985-.023-.148.07-.781-.261-.52-.243-.266-.48-.21-.016.023-.406.656-.406.18.629 1.984.215.371-.106.086-.246.094.05.332-.112-.059-.176.067.035.05.144.2.004.164-.066.184-.055.015-.14-.105.082.16-.02.129h-.058l-.09.008-.004.011-.051.426-.113.11-.278.242-.058.222-.11.368-.074.308-.2.496-.16.008-.394-.2-.476.024-.16-.031-.34.617.101.559.121.367-.09-.035-.18-.063-.144-.043-.02.032-.171.171.027.274-.05-.004-.126-.023-.214.242-.286-.024v.063l.016.394-.09.16-.078-.101-.176-.188-.242.168-.043.22-.066-.106-.13-.137-.32-1.016-.343-.773-.125-.207-.047-.14-.5-.24-.98-.269-.282.59-.293-.027.008.133-.133.062-.32-.125-.192-.031-.328-.461-.05.059-.118-.02-.113-.09-.047.051-.242.047-.035.133h-.04l-.054-.035.012.125-.133-.016-.133.035-.207.297-.754.7-.02.097-.038-.016-.27-.125-.226.016-.375.465-.184-.043-.113.238-.098.09-.098.207-.41.016-.218.718-.07.114-.009.214h-.02l-.089-.101-.035-.637-.129-.348-.215-.183-.172-.078-.195-.114-.035.137-.043.008-.028-.027-.343-.36-.633-1.113-.149-.203-.32-.13-.265-.015-.086.192-.02-.008-.223-.086-.02.074-.12.106-.293.039-.692.218-.207-.078-.312.157-.297-.047-.094.11.008.187-.031.004-.078.113-.032.605-.3.27-.153.383-.422.55-.46.11-.567-.239-.535-.21-.316-.25-.043-.282-.036-.14-.234-.383-.156-.188-.36-.289-.011.145-.106.426-.09.242-.156.789-.05-.047-.266.008-.176.133-.207.086-.18-.262-.344-.461-.406-.293-.3.039-.41-.055-.009.016-.093.441-.266.188.05.394h-.085l-.453-.316-.332-.164-.508-.043-.082.254-.043.387-.102-.094-.617-.555-.535-.687-.473.308-.64.031-.078.11-.047-.04-.153-.48-.445-.539-.23-.726.066-.157-.156-.09-.23-.195-.239-.433-.5-.309-.062-.031-.301-.508-.137-.871-.152-.262-.04-.738-1.437-.61-.61-.117-.05-.218.129-.235.133-.222.18-.915.128-.238.188-.61.012-.327.058-.016.121.05.02-.038.144-.086-.004-.219.102-.3.086-.34-.23-1.075-.083.055-.59-.004-.25.383-.011-.016-.32-.777-.075-.18-.101-.23-.067-.047-.023.101-.254.082-.324-.015.008.031-.008.164-.332.215-.082-.04-.028.04-.007.203-.086-.062.004.265-.028.145h-.058l-.215-.11-.094-.046-.172-.13-.184.07-.03-.054-.13.047-.109.055-.195-.281-.012-.157.09-.113-.133.031-.2.024-.386-.301-.035-.313.176-.671-.102-.106.145-.27.422.305-.02-.113.09-.117.113-.258.113-.254-.125-.297.125-.12.149-.747.203-.11-.012-.113-.394-1.207-.09-.742-.188-.238-.144-.281-.375-.125-.196-.02-.554.203-.102.43-.093-.043-.223.07-.875-.125-.14.094-.29-.027.012-.059-.11-.52-.593-.867-.094.051-.004.25-.133.082-.027-.039-.371-.723h-.29l-.218-.199-.098-.418-.09-.262-.152-.308-.562-.164-.285.078-.176-.258-.145-.148.016-.02.062-.05-.054-.044-.102-.058.035-.07-.246-.301-.097-.133-.13-.07-.167-.137-.282-.211-.234-.098-.035-.035v.082l-.063-.008-.297-.207-.042-.172-.047-.046.109-.184-.191-.168-.098-.176-.293-.86.086-.35-.11-.18-.023.054-.215.102-.281-.012-.281-.039-.301.102-.32-.008-.157-.012-.27-.074-.32-.05-1.624-.81-.278-.117-1.27-.922-.804-.296-.125-.118-.04.028-.077.043-.028-.008-1.011-.227-.324-.246-.028.11-.14.07-.54-.055-.105.082-.754-.062-.152-.102-.125.14.023.028.086.27.035.226.004.352-.144.18-.117.12-.004.548.109.261-.137.285-.035.907-.133.359.157.492-.02.086-.281.305-.438-.317-.418-.058-.37-.235-.415-.078-.281.067-.848-.325-1.086.11-.187.004-.313.035-.449-.106-.168.067-.457-.442-.152.086-.157.02-1.035-.445-.258.027-.335-.14-.461.038-.391.188-.316.05-.606.41-.152.438-.254.114-.11.191-.378.422-.184.25-.285.297-.113.312-.13.063-.734-.48-.808-.891-.16-.09-1.043-.785-.352.043-.555-.305-.261-.156-1.102-.496-.02.05-.035-.004-.02-.03-.245-.352-.797-.305-.29.027-.073-.082-.082-.23-.196-.36-.246-.093-.406.09-.258-.356-.844-.89-.093-.055-.254-.383-.5-.09h-.149l-.594-.656.07-.297-.273-.508-.004-.46v.007l.313.524 2.223 1.464.933.903.543.28.844-.046.75.645.203.062.535.246.18.121.355.692.399.18.117-.157-.055-.336-.402-.988.176-.402.902.082.258-.051.172-.117.16-.192.082-1.082.031.008.293.16.527.29.258-.122.102-.351-.152-1.207.207-.395.558-.41.38-.211.155-.309-.02-.36-.034-.394.011-.175-.109-.496.176-.25 1.105-.399 1.371-1.351.305.027 1.121-.098.2-.066.308.086.289-.016.293-.039.379.086.527-.113.117-.309.203-.73.16-.29.153-.57-.11-.898-.34-1.5-.066-.11.036-.027.453-.496-.114-.547-.199-.289.07-.027.028-.188-.195-.207-.098-.187.078-.414.05-.215-.155-.313.18-.332.112-.62.102.073.11.114.023-.051-.09-.242-.598-.317-.136.028-.653-.262-.234-.152-.379-.688-.121-.453-.516-.89-.277-.231-.34-.32-.68-.512-.101-.434-.05.145-.165.137-.121-.125-.106-.399.028-.11-.004-.12.055-.008.148.05.156.055-.015-.136-.028-.375.266-.172-.14-.082-.055-.121.011-.008.047-.059-.004-.047-.047-.394v-.063l.094.04.031-.016.012-.48-.27-1.192.07-.188.099-.226.058-.14-.14-.028-.2.039-.125.012-.222-.25-.118-.32-.394-.11-1.078-.168-.16.266-.395.527-1.058-.082-.305-.149-.211-.058-.55-.254-.54-.578.234-.11.258.02.008-.035.156-.11.442.059.586.023.004-.02.3-1.07.032-.351.082-.082-.047-.504.136-.129-.035-.043-.164-.027.106-.086.02-.04-.071-.023-.164-.105.07-.102.012-.207-.102-.199.137.063.106.004-.06-.102-.058-.504.145-.465.008-.594.11.067.226.371.39.074.168.008.2-.02.585.395.114.102.136-.079.168-.261.07.047.364.093-.012-.113-.02-.406.094-.278.274-.043v-.03l-.074-.106-.383-.309.086-.191.082-.328-.059-.535.078-.211.114-.016.004-.027.101-.809.082-.402-.012-.196.059.004.074.016-.015-.094-.079-.312.22-.16.116-.2.008-.066-.043-.016-.422-.148-.382-.516-.715-1.027-.309-.008-.285.156-.29-.074-.757-.676-.43-.344-.308.016-.528.031-.625-.312-.53-.992-.071-.5.094-.485-.243-.535-.464-.7-.305-.089-.598-.012-.265.043-1.684-.367-.187-.234-.247-.266-.796-.094-.352-.12-.937-.887-.282-.012-.273.008-.328-.34-.297-.25-.973-.434-.164-.765-.144-.04-.114.27-.175.16-.305-.105-.09.226.063.27-.118.25-.082.133-.05.132-.231.192-.172.078-.37.172-.08.363-.046.332-1 .383-.809-.398-1.277-.778-.492-.355.078-.008.059-.008-.02-.066-.07-.832.203-.285.102-.153.019-.59.035-.199-.054-.164.16.121.113-.066.293-.621.113-.145-.008-.347.07.015.169-.035.203-.43.14-.203.09-.347.282-.223.171-.238-.234-.172-.227-.301-.285-.688.04-.586-.43-.43-.133-.152-.461-.812-.16-.047-.106-.293-.129-.305-.964-.359.042-.219.098-.34-.27-.074-.222-.039-.3-.656.066-.508-.13-.2.024-.151-.156-.196-.164-1.636.023-.606-.27-.238.216-1.102-.579-1.39.141-.012.11-.227-.098-.422.023-.007.055-.204-.184-.386.016-.356.031-.37.145-.11.117-.375.21-.258-.171-.27-.113-.152.011-.016.207-.222-.02-.5.102-.242.032-.32.226-.122.27.067.012-.028-.008-.324-.09-.336.21-.433-.058-.704.192-.222-.055-.29-.145-.452.274-1.766.187-.211.098-.172.246-.168.067-.137.058.016.133-.066.172-.223.375-.07.105-.188.172-.015.512-.508-.086-.778.101-.105.06-.207.187-.055.503-.32.075-.098.125-.437.133-.188.007-.133.153-.144.027-.18.176-.097.191-.778.41-.133.098-.8.016-.153.101-.23.172-.227-.027-.488.215-.535.175-.137.051-.086.563-.176.597-.254.012-.835-.04-.22.005-.152-.14-.507.109-.407.171-.316.168-.266.262-.46-.035-.2-.281-.457.093-.71.485-1.102.265-.082.422-.114.313-.707.105-.207.211-.402.242.023.211-.152.403-.086.07-.16.426-.262.144-.43-.03-.566.042-.32.156-.14.246-.274.395-.528.125-.402.445-.105.559-.13.219-.116 1.109-.297.332-.043.695-.11.317.117.304-.148.52.04.707.366.004-.074.101-.55.196-.005.168-.25.011-.746.055-.492-.05-.43.07-.152-.051-.644.293-.184.05-.258-.003-.457.375.156.21-.183.305-.172.168-.066-.074-.938-.152-.34.133-.14.332-.149.129-1.187-.051-.325-.278-.52.02-.644-.16-.508-.043-.628-.23-.438.042-.707.227-.215.316-.61.078-.245-.105-.813.047-.258-.067-.382.016-.758-.133-.453-.004-.563.137-.48.09-.387-.152-.508.683-.535.02-.129-.711-.805-.227-.293-.394-.953-.149-1.187-.18-.535-.03-1.184-.477-.851-.016-.235-.402-.222-.375-.102-.457-.156-1.043-.407-.246-.027-.329-.64.067-.31.066-.382-.148-1.23.023-.805-.093-.895-.028-.507-.047-1.293-.82-1.86-.008-.55.008-.669-.68-1.503.024-.207.07-.329-.309-.992-.937-1.879-.273-.539-.41-.281-.485-.262-.566-.675-.301-.196-.418.094-.55.098-.548-1.02-.324-.695-.238-.274.035-.11-.356-.343-.375-1.062.48-.407-.132-.386-.723-.91-.078-.168-.031-.141.023-.77-.3-1.359.156-.121.055-.3-.157-.86-.039-.543-.136-.219.144-.277.246-.211.14-.219.079-.156.062-.164-.207-.598.043-.273-.222-1.692.191-.277.235-.031.886-.082.059-.278.23-.273.055-.168.102-.84.105-.102.219-.375.023-.234-.09-.16-.476-.453-.207-.203-.133-.153-.027-.312.043-.399.191-.226.027-.352-.101-.746-.723-1.156.031-.543.301-.3.07-.098.348.148.313-.27.203.172L9.87.711l.246.383 1.278.383.195.304.504.938-.133.215-.188.195.918 1.414.602.309.36-.067.413-.07.493.14.812.34-.004-.047.227-.285 1.12-.414.31-.68-.067-1.07-.027-.332.023-.328.168-.254.672-.472.43-.06.863-.714 1.484.137.235.18.355-.012.168-.121.149-.094.285.121.5.168.39.23 1.235.184.613.477.14.058.38.727.28.894.212.258.578.422.726.258.301.43-.312.324-.344.363v.809l.11.875-.118.289-.156.066.082.438.262.324.187.261.305.48.496.349.363.101.38-.12.726-.196.101.011.828.84.203.575.485.246.219.234.293.305.183.066 1.004-.5.363.203.25.2.41.12.157-.058.527.004 1.129.539.555-.152.054-.145h.012l.258-.059.137-.105.27-.082.042-.18-.082-.496.285-.324.262.035.254.047.469.105.386.098.325.203.382.371.051.239.09.699.418.394.55.461.38.438.832.578.136.129.832.258.372.07.773.21.262.106.355.157.207.156.715.144.344.606.36.203.359.45.703 1.94.418.13 1.23.496.711.05.973.149.285.062.469.239.421.218.407.137.5-.445.16-.18 1.07.125.313.04.258-.095.425-.394.164.234.368.371.433.309.309.008.207.011.375.024.16-.11.351.051 1.239 1.688.37.457.391.66.204.133.199-.008.945.316 1.434 1.055.039.313.066.605.348.668.383.332.574.938.223.21.148.11.105.586.247.289.726.336.848.246.367.5 1.23 3.32.633.727.703.23.465.524.067-.145.332-.14.261-.083.598.032 2.293 1.625 1.91.312.219-.129 1.164.2.55-.22.15.09.148.063.152-.078.414-.086.586-.121.387.098.14.015.25.336h.032l.007-.043.34-1.422.145-.632-.016-.223.223-.3.36-.196.339-.031.098-.102.425-.707.223-.168.168.055.184.101.187-.133.477.22 1.32.484.219.027.32-.078 1.246.261.164.016.52 1.184 1.21.77.216.144.48-.074.156-.004.156-.07.266-.005.246-.125.496-.093.496.136.137-.043.09-.254.336.235.187.113.454-.027.261-.223.102-.648.133-.285.12-.114.29-.879.386-.109.223-.063.387-.253.344-.008.144.035 1.074-.676.309-.426.398-.12.145-.169.137-.324.043.078.16.184.597.242.391.836.328.2.399.57-.063.445-.195.12-.406-.007-.29-.008-.328.07-.78.223-.31.293.028.246 1.332.235.887.218 1.73.782.805.18 1.02-.872.538-.629.168-.187.149-.485.234-.09.082-.187.649-.496.015.07.239.23.183-.023.137-.093.25-.04.18-.124.449.027.215-.113 1.652.343.203-.086.613.188.16.039.176-.25.598-1.203.066-.293-.027-.348.008-.668.898-.12 1.008.612.32-.074.266.028 1.242 1.773.367.86.34.55.528 1.992.203-.007.132-.122.25-.062.551.14 1.274 1.153.058-.129-.058-.543.14-.379.48-.308.368-.028.188-.215.12-.183-.206-.903.168-.14.187-.098.637.028.347.05.305-.152 1.379-.05.277.148.16.644-.347.817.254.53.015.208.563 1.21.324-.097.23.012.165-.13.066-.222.043.02.223.047.3-.102.133-.172.406-.027.829.05.117-.03.64.16.235-.11 1.262.551.453.23.101-.066.715-.883-.113-.242-.313-.629.34-1.45.047-.44.176-.07.558.081.153-.16.105-1.629.211-.726.106-.59.304-.192.254-.203.078-.16.215-.086-.101-.098-.13-.222-.05-.528-.41-.687.328-2.758.473-.23.09-.188.456-.387.266-.242.043-.246-.043-.433.086-.192.184-.375.277-.23.242.015.137-.023.242.277.246-.011.09-.204-.129-1.132-.16-.336-.266-.348v-.605l.086-1.497.168.098.578.192.551.269.371.227.137-.235.3-.031.321.031.117.16.438 1.059.097.223-.039.535-.18.351.07.114.485.375.242.308.133.32.403.524.27.547.16.078.023-.04.488-.339.324-.086 1.227.559.637-.137.535-.168.214-.363.313-.114h.21l.278-.085.149.054.164.09.308-.02.524-.136.66.137.703.695.79.105.769.114.527.68 1.145 1.343.796.316.489.176.363.184.105.11.032-.098.16-.2.223-.11.52-.667.155-.363.364-.11 1.132.012.454.207v-.098l.109-.48.043-.246.016-.188.175-.109.446.09.48.23.324.313.407.137 1.007.43.313.573.414.399.652.105.45-.797.308-.097.234-.164.598.25.16.238.239.25.253.559.63 1.746.695.488.968-.05.532-.223.195-.45.344-.765.297-.348.687.082.41.344.094.125.055-.063h.363l.941.606.403.285.625.203.324.188.473.382.566.387.21.215.536.355.488.047.356.309.21-.082.481.062.23.453.36.708.309.308.105.613-.168.075-.367.101-.164.438-.008.422-.137.421-1.078.723.301.313 1.086.777.543 1.21.617.524.219.176.355.629-.023.27-.05.222-.36.469-.082.281-.153.348-.261.148.011.02.16.508.141.39.168.324-.012.309-.054.203-.207.496.242.617.266.559-.024.152h-.035l-.191.196-.243.332-.851.226-.297-.043.023.094-.015.293-.047.25.242 1.34.309.894-.067.192-.02.512-.128.55.12.684.372.539.066.152.461.606-.015.16-.243.894.11 1.391.047.828-.61.996-.32.399-.113.097-.172.23-.316.72.261.847.012 1.035.2.176.073.078-.132 1.22.093.952-.707 1.008-.203.184-.754.699-.344 1.176v1.746l.57.758-.034.101-.114.461-.425.383-.192.097.063.254.164.957-.176.153-.094.11-.207.636.145.82.36.25.26.047.286.402-.05.004-.27-.011-.22.234-.058.52.028.511.496.614-.04.03-.175.102-.055.317-.07.343-.43.188-.082.129-.05-.02-.133.203-.036.602.61 1.922-.012.195.754.774.176.09.293.292.406.336.121.176.93.754.16.188-.027.18-.051.195-.012.086.285.328.164.199.32.297.2.308-.055.04-.113.48.047.285.648.523.735.504.05.356-.078.008-.554.035-.165.023-.226.043-.816.871-.125.055-.118.355-.082.832.024.2-.168.215.265.48-.007.371v.524l.054.441.09.297.156.637.098.41-.027.508.12.707.321.359.258.281.644.77.336.078.45.453.925 1.465.153.27.277.48-.102.047-.183.297-.238.66-.395.418-.043.453-.02.34.075.476-.074.317-.247 1.168.102.168.504.882-.242.258-.324-.008-.118.2-.066.117-.059.191-.132.172.078.211.199.508.3 1.562.133.36-.039.183.098.215.09.395.254.976-.164.004-.098.156-.066.672.062.317.13.425-.138-.082-.265.098-.051.29.281 1.398-.082.16-.05-.02-.036.121-.035.774.41.715-.14.671.41.415.125.25.117.89.039.207.5 1.637.602.637-.102.066-.273.43-.137.007-.012.016.031.356.094.632-.027.274.101.379.07.797.063.46-.031.012-.211.07.023.176-.085-.023-.215.144.007.832-.496.547.008.579-.047.175.063.29-.074.117.101.074.067.172.128.273.387.79.07.32.094.117-.094-.02-.28.04-.173.276-.425.133-.836-.148-.54.203-.277-.023-.25-.247-.656-.261-.168-.04-.46.36v.383l-.099.066-.226-.008-.172-.046-.121-.18-.024.094-.136.078-.45-.137-.28-.125-.216.008-.64.289-.012.098-.09-.098-.031.05-.016.286-.125.336-.28.035-.173.05-.207-.023-.308.047-.149.235-.039-.079-.16-.066-.383.191-.062.27-.16.547-.63.2-.117.14.106.484-.477.39-.02.423-.585.437-.18.59-.254.129-.597-.074-.426.976-.09.27-.234.742-1.168.71-.465.88-.446.164-.234.23-.73.258-.254.25-.582.91-.57.594-.098.137-.543-.176-.219.094-.477.043-1.168-.883-.644-.04-.356-.046-.421.555-.063.765.04.348-.513.57-.007.078-.082-.043-.227.164-.477.391-.09.2-.062.35-.242.677-.2.312.071.543-.32.379-.352.281-.36.043-.109.137-.152 1.031-.055.934-.047.644-.199.149.008.007.418.477.066.18.547.23.637.602 1.75 1.363-.023.016-.832.422-.028.187.067.383.629 1.183-.114.325-.113.148-.012.356-.043.152-.007.27-.012.464.293 2.032-.156.039-.118.07-.105.129-.672.238-.133.29-.344.179-.156.031-.156.152-.36.133-1.261.614-.106.238-.183.238-.328.125-.586-.25-.621.024-.746-.067-.114.063-.027-.036-.262-.101-.289.187-.375-.054-.375.074.05.105.665.676.324.227.695.539.196.148.25.219.887.57.195.13.226.12.301-.015.133-.059.031.043.7.899.058.078.195.168.09.074.082-.067.23.11.16-.14.333.464.164.188.086.238.281.64.27-.015.125.105.14.145.39.222-.015.579.067.214.172.079.03.168-.077.222-.223.352.02.199.359.473.445.5.246-.024.203.137.168.125.118-.035.14-.016 1.067 1.18-.137.867-.05.328-.11.133-.106.055-.297 1.234.176.11.836.492.102.195.242.144.32-.234.238.16.008-.004.07-.136.051-.426.028.008.351.129.133.011.07.563-.164.226 1.961 2.551.106.254.476.883.496.96.157.454.02.965.534.761.032.016-.008-.078-.051-.25.07.059.598.304.145.035 1.867 1.192 1.27.933.566.239.89.422.649.648.316.082.863-.023.426.125.305-.036.617-.336-.312-.945.414-1.18.328-.37.304-.165.055-.027-.008-.047.07-.25.54-.238.066.043.027-.02h.168l.704.246.226.055.5.324.305.254.304.348.247.262.218.37.11.079.195.183.18.059.199.144.277-.109.223-.031.242.043.242.008.766.18.043-.024.027.07.082.235.203-.04-.035-.085-.492-.915-.25-.562-.055.008-.004-.031-.218-.465.066-.309.191-.047.176-.074.2.184.316.273.832.387.016-.04.168-.335.207-.02.406.16.222-.086.446-.382.297-.008.129-.047.14-.145.219-.078.3-.078.227.07.242-.023.09-.223.215-.16.344-.101.746.52.426.554-.008-.113-.031-.504-.2-.285.055-.04.168-.039-.012-.035-.226-.383.082-.152-.024-.023-.32-.168.055-.09-.067-.188-.136-.183-.082-.328-.715-.567-.008-.258h.027l.078.012-.042-.09-.055-.441.402-.79.754-.136.23.078.196-.082-.008-.375-.059-.277-.156-.582-.101-.348.062-.36.356-.827-.137-.23-.14-.184-.087-.106-.168-.402-.402-.64-.45-.411-.128-.137.18.051.129.078.097.067.04-.098.187-.191.129-.028.097.051.016-.043-.012-.207-.281-1.668.156-.61.172-.187.191.18-.054.047.015.457-.043.105.047.356.035.351.208.106.84.418.007-.07.059-.563.152.086.234.031-.058.113.016.371-.079-.02.07.134-.003.355.043.082.332.301.02.23.25.485-.071.101.531.953.395-.14.21.11.2-.368.273.274.258.035.055-.278-.094-.535-.238-1.797.234-.457-.086-.195.043-.074h.043l.024.222.406 1.176.348.172.144-.129.754-.2-.031-.198.008-.188.039-.008.398-.113-.125-.113-.05-.14.132-.25.008.007.09.258.215.738.105.207.035.309.336.113.13.027.226.04.164.163.297.383.168.13.468.523.254.28.035.196.102.254.023.133.258.312.008-.109-.012-.523.067-.118-.028-.105.016-.004.195-.094.266-.363.078-.45-.063-.679.098-.32-.074-.348-.106-.164.004-1.527-.047-.106.098-.465-.082-.363.121.043.403.242.421.36.211.402.024-.023.508-1.215.03-.293.114-.336.008-.238.176-.133.36.36.148.503-.082.598.128.234-.043.2.028.128.086-.035.148.082.125.563.227.257.117.051.008.238-.156.118.054.058.145.211.12.512.079.14.074.31.012.116.426.801.218.336.602.754.41.172.23.043.11.086.043-.043.078-.211-.043-.11.129.067.262.023.015-.101-.066-.582.172-.211.222-.61-.105-.476-.016-.297.293-.59-.226-.836.219.36.464.898.176.293.035-.031.203-.145.332-.344.012.02.074.14.04-.097v-1.238l-.122-1.165.086-.3.055-.274-.066-.422-.028-.109-.617-.984.016-.008.23.062.133.157" style="fill-rule:nonzero;fill:#908e96;fill-opacity:1;stroke-width:.25;stroke-linecap:butt;stroke-linejoin:miter;stroke:#fff;stroke-opacity:1;stroke-miterlimit:10"/></g></svg>