<svg viewBox="0 0 139.476 217.44" xmlns="http://www.w3.org/2000/svg"><defs><clipPath id="a"><path d="M0 .441h139v217H0Zm0 0"/></clipPath></defs><path d="m55.152 22.504.317.117.57.469.297.246.664.422.57.914.387.137.313.035.203.277.203.258.222.375.563.808 1.078.352.227-.035.379.07.347.348.188.164h.207l.89.102.387-.032.16-.113.41-.25.72.098.437.265.277-.742.11-.352.113-.273.062.027.582.133.313-.015.312.226.63.645.116.105.543.7 1.11-.047.136-.094.121-.215.27-.207.285-.04.395-.023.14-.308.23-.5-.046-.164-.399-.492-.738-.426-.55-.278-.079-.074.086-.031.899-.797.586-.07.402-.102.203-.394.29-.106.136-.07.422.137.129.003.367.09.195.383.438.344.46.246.61.145 1.008.261.097-.156.43.016.055.043.71.808h.274l.188.098.558.055.578.257 1.782 1.075.496.3h.593l.18-.086.344.122.312.019.227.379.484-.191-.02-.688.555-.367.395-.063.223-.097-.016-.035.023-.473.118.187.293.184.8.242.942.707.437.223.535.215.274-.035.574.16.465.433.555.047.558.145.805.918.246 1.125.762.824.218.207.032.312-.024.305.157 1.121-.91 1.063.18.336.624.867-.098.719.473.351.246.496.168.48.203.383-.058.313.261.754-.144.512.02.472.113.242 1 .887.761.336.391-.152.207-.067.363.153.328.215.551.175.012-.054.187-.297.309-.098.313-.273.066-.11.059.024.125.11.699.726.285.082 1.047.078.844.437 1.421 1.313.75.902.301.27.305.59.793.75.187 1.757.13.582.077.72.145.425.09.453.031.848-.258.41-.14.285-.157.176.102.758.43.574 1.078 1.797.226.16.223.414-.125.574-.149.274.079 1.02-.184.183-.207.144-.137.203-.496.168-.422-.25-1.968-.43-.094.45.23 1.332.356.543.133.332.898 1.168.594.898.281.32-.305.665-.261.437.097.297.52.856-.16.378.34.973-.169.137-.23.14-.86.801-.148.18-.949.601-.188.215-.453.176-.207.152-.656.149-.719.594-.168.328-.422.254-.46-.227-.54.54-.43.03-.034.215-.043.414-.27.64.238.595-.136.27.152.5.156.323.086.368.051.39.219.676.183 1.379-.238.434-.297.289-.46.761v1.239l.152.28.492.657v.621l-.055.203-.43.114-.433.046-.11.25-.332.098-.308.168-.563.172-.168.36-.199.89-.398.652-.23.282-.126.05-.047.368-.054 1.18-.285.964-.04.719-.12.176-.067.148-.203.238-.48.442-.419.074-.101.223-.203.09.02.144.46.762-.172.168-.195-.051-.016.031-.035.363-.336.094-.426.14-.41.032-.437.352.191.336.356.28.207.013.496.292.332.434.289.496-.211.469.039.008.059.18.015.167-.11-.015-.085.004-.816.562-.047.063-.078.27-.196-.024-.312.191-.09.102.043.43-.203.074-.528.097-.609.305-.371.875-.18.453-.097.082.468.824-.086.172-.777-.039-.508-.031-.457.375-.347-.098-.168.024-.368.527-.09.125-.554.285-.324.602-.23.297-.02-.008-.207-.242-.23-.141-.571-.246-.262.398-.215-.07-.152-.293.008-.27-.184-.34-.43-.288-.398-.184-.543-.168-.066-.008.02.074-.079 1.813-.137.152-.199-.097-.183-.059-.34.012-.48.156-.231.059-.067.312-.054-.027-.66-.778-.063-.23-1.082-.531-.137.453.051.238-.29.27-.19.015-1.18-.703-.3-.316-1.298-.324-.344.039-.34-.114-.261-.242-.024.07-.246.375-.93-.02-.327.118-.235-.14-.222-.067-.887-.555-.25-.152-.352.2-.875-.071-.379-.266-.515-.535-.227-.332-.289.059-.406.011-.13-.003-.335.117-.148.14-.395.664-.156.172-.117.067-.415.367-.12.121-.47.363-.44.078-.028.086-.34.18-.3.121-.946-.012-.52-.09-.242.13-.347-.012-.496.258-.653-.758-.558-1.106v-.351l-.227-.332-.281-.172-.086-.09-.555-.719-.773-.469-.809-1.625-.008.055-.133.05-.113.161.082.238-.043-.004-1.176-.246-.515.13-.399.019-.14-.117-.07-.465-1.024-1.524-.348-.527-.285-.152-.156-.063-.41.055-.16.066-.516-.277-.3-.297-.68-1.203-.22-.152-1.062-1.055-1.941-1.281-.078-.536-.098-.414-.578-.394-.258-.305-.02.043-.187.184-.347.07-.211-.059-.235-.152-.394.36-.094.34-.207.257-.164.055-.524-.133-.55-1-.293-.45-.145-.37-3.133-1.008-.156-.277-.27-.672-.199-.946-.047-.246.008-.37.43-.235.164-.149.41.11.328.066.637.238.102.133.015-.05.094-.563.016-.215.09-.164-.094-.297-.16-.535.039-.207.167-.184-.128-.226-.375-.524-.04-.543-.09-.359-.046-.426-.008-.086.176-.113.086-1.465-.23-1.133-.11-.234-.332-.488-.3-.742-.106-.239-.399-.773.09-.121.191-.13.028-.124.242-.66-.29-.207-.253-.063-.168-.078-.945.348-1-.754.03-.367-.366-1.247.289-.449.242-.289.383.059.316.324.004-.188-.195-.863-.059-.39.149-.282.324.149.219.117.066-.121.29.105-.02-.054-.024-.48.102-.118-.059-.543.2.043.312.09.344.086.664.27.191-.176.137-.176.617.082.168-.04.144-.429.094-.125 1.067.48.257-.703.75-.285.32-.086.216-.41.015-.23-.023-.504.37-.067.141-.058.5-.563.243-.054.129-.098.632-.168.118-.106.183-.136.05-.36.099-.074.23-.09.574-.402.801.02.207-.024.637-.484.285-.16.227-.375.265-.211.785.23.399.3.304.106.77.57 1.285.38-.066-.149.031-.32.426-1.156.16-.641.762-.125.152.004.242.144.246.051.16-.289.121-.293.11-.05.715.003.082-.277.043.023.265.332.641.246.031-.007.196.109.285-.926-.02-.293.492-.058.243-.063.285-.195.43-.375.105-.317.062-.203-.074-.75-.258-.394.207-.313-.52-2.218.231-.172-.004-.016-.09-.387-.195-1.449-.144-.488-.008-.246-.418-1.215-.059.058-.207.067-.523-.09-1.547-1.047-.34-.265-.195-.047-.274-.305-.449-1.48-.004-.594-.449-.45-.086-.539-.031-.18-.156-.64-.008-.418-.043-.414-1.293-1.57-.41-1.059-.617-.543-1.133-.797-.66-.55-.63-.559-.156-.375-.074-.625-.004-.281.246-.492.118-.254.042-.301.25-.543.094-.754.09-.32-.281-.344-.27-.598-.008-.789-.59-.613.012-.219.196-.144.285-.192.586-2.875-.203-.703.043-.008.16-.156.136-.144.133-.25.157-.262.367-.188.097-.16.055-.473.219-.476.2-.328.093-.492.265-.594.16-.004.348-.066.125-.18.13-.18.073-.144.125-.297.418-.172" style="fill-rule:nonzero;fill:#1a1523;fill-opacity:1;stroke-width:.25;stroke-linecap:butt;stroke-linejoin:miter;stroke:#fff;stroke-opacity:1;stroke-miterlimit:10"/><g clip-path="url(#a)"><path d="m80.91 153.395 1.38.87.706.32.7.169.874.59.47.258 1.32 1.785 1.331 1.847.825.645.796.945.442.188.285-.121.203-.223.25-.133.352.086.199.219.043.394-.016.403.196.386.195.13.855.062.485.074.36.543.343.438 1.035 1.117.68-.586.511-.11.649-.125.02-.273-.2-.703-.05-.285.167-.555.407-.61.41-.097.234.11.153.413.406 1.114.683 1.074.454.332.343.379-.027.414.031 1.2.36.21.101-.121.254-.383.418-.285.594.04.281.39.52.625.59.332 1.91.668.05-.383-.066-.313-.465-.53-.898-.56-.043-.695-.004-.86-.215-.917-.266-.73.078-.301.133-.102.324.113.309.352.047.367-.106.371.172.356.766.8.512.196.257.11.622.472.175.25.754.613-.043.113-.191.196.035.351.39 1 .508.223.567.254.078.297-.07.726-.512.254-.234.121-.192.309.145.39.492.649.523.39 1.29.614.585 1.336v.23l.035.758 1.082 1.016.325.27.242.593-.055.777-.047.43.145.473.41.093.758.004.308.18.22.492.163.86-.16 1.402.274.156.335.191.356.239.336.16.297.355 1.097 2.84.864 2.828-.168.707-.164.364-.489.726-.066.293.191 1.051-.086.367-.582.637-.296 1.547-.157.543-1.3 2.554-.422.586-1.118 1.137-1.363 2.457-.582 1.262-.133.336.07.14-.074.407-.132.57.16 1.004-.086.437-.301-.058-.305-.024-.265.282-.196.39.059-.02.14-.074-.046.137-.832.942-.465.918-.953 1.175-.035.184.054.687-.187.204-1.051.136-.14.028-.204.308.067.715.047.32.015.668-.027.61-.903 1-.367.797-.035.543.07 1.296.688.637.273.625.024.156-.02-.015-2.695-1.946-.742-.273.015.098.211 1.629-1.898-2.008 1.07-1.543-.633-1.145-.007.012-.7.797-.039-.043-.718-.797-.008-1.512-1.64-.277-.556 1.457-1.03-.102.359.961-1.332-.406.097-.601-.344-.215 1.008-1.242-1.187-.208-.047.883-1.02.235-.257-.95-.633.086-1.168-.453.914-.886-.309-.262-.734.633.008.64-1.227-.265.063-.457-.575-.477v.035l.414 1.164-.117-.09-1.008-.87-.988-2.368.367-.52-.093-.863-.903-.382-.453-.567-1.137-.234-.78-.25-1.095.66.801 1.719-1.14-.887-.915.191-.253-.543-1.325-1.183-.48-.383-1.27-.86-1.406-.054-1.05-.383-.544-.578-.02-1.684-.675-.382-1.266-.356-.617-1.863-2.879-1.012.285.98-.054-.027-1.52-.992-.62.785-1.415-1.37-1.324-1.009-.078-1.816-1.602-.145-.351-1.906-1.024-1.023-.629-1.45-.039.036-1.246.828-1.066-1.028-.04.063-.554.633-1.98-.313-.825-1.453-1.101.457-.219.086.445-.969-1.703-.625.34-2.172-2.137-.949-.246-.07-1.715-.348-.707.082-2.375 2.313.008.844 2.32 5.445.336.738 1.594 4.078.54.356.25-.13.007.02.133.438-.145 2.137-.27-.165-.003.016-.09.274-.023-.008-.137-.203-.317-.524-1.226-1.32-.668-.34-.762-.691-1.367-.871-.625.324-.234-.098.043-.082.03-.004.138-.055-.317-.933-.398-.64-.922-1.75-.188-.09.028-.18.117-.008.16.082.004-.055-.234-.27-.278-.093.117-.04.04-.07-.29-.394-.46-.324-.481-.442-.344-.011-.406.047-.34-.34-.304-.465-.735-.27-.973-.101-.261-.082-.242.043-1.079.593-2.039.602-.16-.164-.242.055-.395-.621-.234-.055-.45-.024-.452-.566-.028-.293.051-.375-.566-.297-.297-.347-2.102-1.403-.656-.484-.2-.528-.624-1.253-.07-.52-.41-.93-.512-.625-1.078-.582-.38-.101-.366-.168-.356-.367-.418-.121-1.406.054-.653-.726-.94-.899-.645-.523.003-.004.352-.328.125-.446-.086-.73-.234-.512-.52-.582-.82-.629-.305-.117-.535.195-.508-.109-.215-.176-.18-.086-.495.188-1.024.21-5.637-3.995-.953-.926-2.484-2.305-1.832-1.34-3.574.508-1.368-1.719-2.902-9.144 1.516-7.379.011-.824 1.711.558.032-2.863.738-.144-.129-.313-1.023-.367-.059-2.078-.352-.117-.043-3.223-.68-.227.329-5.152.238-.27.297-.46.535-.688.078-.367-.007-.664.32-.137.277.02.227-.211.058-.594.149-.41.16-.012.664.46.668.33.422.085.191.164.426.574.402.2.598.093.856.2.449.093.285-.07.273-.484.102-.215.258-.254.175-.051.157-.414.047-.68.293-.3.359-.06.398-.038.356-.102.144-.277-.183-.371L10 126.59l-.11-.55.079-.333-.184-.547-.683-1.281-1.786-1.59.016-.316.047-.653.016-.312.082-.293-.059-.563.258-.058.328.11.316.386.532 1.137.203.144.433-.008.719-.074.441.363 1.079 1.051.27-.11.167-.323.05-.856-.23-.312-.261-.45-.059-.496-.086-.625-.75-1.12.063-.177.132-.367.184-.336.14-.27-.05-.366-.348-1.188-.152-.379-.156-.52.105-.246.02-.078-.079-1.117-.152-.613-.18-.652.094-.504.196-.059.09-.082.078-.242.214-1.297-.41-1.055-.137-.324-.683-.648-.41-.239-.957-.12-.758-.985-.133-.48-.59-.419-.422-.46-.37-.563-.387-1.3-.598-.278-.211-.246-.191-.836-.067-.262.274-.414.207-.207-.282-.285-.37-.41-.141-.325-.008-.605-.38-.266-.483-.14-.473-.309L.875 97.72l.195-.59-.355-.809-.098-1.453-.172-.258L0 94.004l.043-.254.277-.11.61-.1.086-.173.07-.305.215.079.523.261.203-.023.168-.188.414.094.008-.055-.152-.265-.473-.36.375-.289.211-.054.23.058.087.215-.02.332.297.293.41-.078.297.125.473-.355.14.199.16.117.125-.074.184-.285-.2-.317-.41-.308-.421-.516-1.063-1.336.004-.324.203-.031.219-.051.125-.461.008-.285-.121-.414.226-.266.106.012.52.554.773.121-.028-.44-.226-.626-.184-.508.133-.222 1.102-.938v-.57l.261.039.567.32.062-.039.281-.68.137-.449-.215-.594.516-.535-.012-.398-.328-.285-.191-.067-.274-.28-.36-.294-.116-.004-.242.102-.165-.11-.046-.308.164-.567-.118-.187-.265-.367.328-.2.281-.039.656-.035.188-.07.293-.066-.04-.192-.265-.66.13-.016.503.137.305.05.46.145.067-.035-.27-.93.004-.277.575.024.203-.118.062-1.175.278-.371.152-.227.246-.223.238-.68-.113-.667-.152-.551-.168-.418-.211-.246-.102-.23.11-.329-.137-.61.176-.519.593-.285-.07-.488-.152-.246-.246-.656-.418-.325-.14-.328-.071-.793-.254-.195-.02.023-.28.028-.126-.242-.203-.239-.293-.258-.18.09-.355.075-.121-.137-.078-.375-.512-.094-.219-.11-.191-.449-.094-.359-.598-.457-.203-.605-.054-.582-.532-.446-.375-1.293-.07-.117-.336-.297-.629-1.16-.129-.273.184-.38-.192-.218-.304-.016-.29-.086-.28-.472-.055-.633.09-.379-.606-.77.04-1.117.597.184.77-.113.183-.055-.133-.258-.21-.64.327-.208.215.059.418.176.094-.156-.188-.344-.09-.297.063-.688.027-.48.184-.492-.113-.403.168-.226-.317-1.164.156.074.458.246.039-.203.035-.184.218-.113.586-.094.395-.34.07-.28.051-.169.113-.28.258.151.559.579.242.093.422-.058.484-.352.996.145 1.39.652.24-.074.843.097.027-.238-.148-.297-.14-.226.066-.008.113-.11.016-.265.238-.453-.047-.024-.277-.218.105-.25.473-1.196 1.074-.406.121-.305.02-.375h.02l.194-.078.325-.574.187-.027.063-1.02.086.04h.394l.414-.329.156-.086-.046-.344-.254-.351.23-.77.274-.476-.032-.02-.449-.383.328-.613.203-.535.04-1.508-.032-.39-.312-.715-.157-.43-.171-.434-.055-.484v-.328l.512-3.047.261-.855.735-1.008.664-.117.273-.118.129-.125.2-.156.296-.07.16-.004.293-.121.336.043.68.402.254.227.262.152.417.238.457.067 1.282-.215h.27l.218.012.34-.325.098-.191.117-.254.015-.445.188-.34.023-.211.301-.523.422-.34.105-.121.102-.426.223-.29.117-.085.094-.219.187-.152.398-1.164 1.625.058.618-1.058v-.23l.054-.692.055-.567.098-.328-.278-.62-.152-.31-.129-.53-.066-.36.175-.379-.07-.309.047-.285.035-.133.246-.203.11-.093.804-.278.184-.273.23-.735.149-.566.02-.305-.044-.207.118-.093.117-.188.082-.344.312-.453.22-.844.151-.164.27-.168.121-.129.117-.07.032-.355.343-.18.074-.203.391-.027.426.335.746-.168.422-.496-.223-.55-.355-.457.265-.657.586-.265.024-.11.05.004.696-.226.55-.457.223-.098.153-.137.015-.199-.261-.691-.106-.23-.926-1.716-.265-.933-.102-.164-.605-.606-.227-.082-.078-.285.406-.672.113-.02.004-.023.125-.144.137-.211.348-.395.133-.394.046-.38-.191-.386-.016-.344.121-.328.243-.805.074-.27.062-.558.2-.148.207-.137.203-.699.176-.293.507-.27.344-.945.356-.23.191-.012.156-.02.313.125 3.511-.464.262-.614.156-.097.16-.188.446.067 1.281.468.543.215 1.258.582.414.082.156.371-.008.512.461.398-.015.266.14.203 1.121.582.622.938-.215.3-.274.13-.258.09-.007.171.136.328-.074.078.11.032.39.218.297.094.102.11.535 1.457.218.12.23.028.411.23.281.297.243.305.265.383.547.57.281.606.258.18 1.145.402.203.32.39.46.028.259.086.308.218.68.04.207.027 1.254.765.867.29 1.07-.008.223-.055.54.125.148.441.082.36-.106.554-.031.329.226.207.336.492.61.304.324.086.504.07.586.055.027-.14.055-.328.316.133.778-.028.515-.164.578-.016.22-.355.284-.207.149-.18.277-.136.242-.07.14-.126.18-.449.055-.129.098-.164.383-.547 1.433-.054.196-.293.562-.262.203-.262.364-.066.093-.117.188-.09.031.027.074.2.746-.145.606-.383 1.98-.582.524-.047.086.336.46.379.47.125 1.019.234.414.207.277-.008.012-.136.074-.114.485-.023.53-.098.22-.18.254-.136.445-.203.394.004.403.054.394.118.5.52.5.148.11.757.66.551.347.348.246.875.805.289.89.578.743.805 1.043-.047.543.375 1.55.351.438.25 1.54.391.679 1.473.953.175.262 1.223.258.09-.094.234.746.063.184.129.53-.008.266.191.422.051.414.098.543-.07.832-.18.317.566 1.68.02.398-.137.266.316.585v.465l-.105.25-.332.543-.16.102-.45.254-.25.09-.242-.016h-.097v.047l-.067.441-.215.723-.191-.106-.578-.16-.211-.234-.16-.207-.051.105-.07.223-.887.129-.11.367-.163.086-.723-.148-.613.082-.094.254-.242 1.148-.254.703.066.149-.086-.008-1.289-.399-.445-.289-.313-.332-.441-.156-.516-.398-.668.16-.207.226-.144.278-.79.484-.12.113-1.106.016-.34.289-.468.496-.004.164-.282.172-.07.137-.039-.008-.617.058-.13.149-.148-.016-.55.594-.457.195-.086.887-.297.223-.66.191-.325.262-.32.57-.488-.262-.317-.152-.148-.074-.012.012-.05.171-.067.278-.316.086-.594-.016-.32.332-.79-.36-.687-.136-.027.273.062.344-.191.188.137.336.011.066-.32-.086-.086.094-.539-.207-.094.219.098.566.152.875-.11-.086-.308-.285-.426.047-.417.746.222.555.094.312.187.902 1.028.543.289-.05.12-.168.54-.063.617.379-.02.082-.32.535-.086.164-.199.145.156.262 1.082 2.476.133.676.125.324-.136 1.379-.133.184.043.398.09.36.14.257-.101.301.113.234.39.5-.167.184-.079.34.293.738-.214.953-.102-.133-.211-.093-.426-.145-.215-.082h-.183l-.45-.055-.277.29-.207.054-.008.371.184.801-.02.14.43 1.126.39.285.259.047.5.191.144-.016.516.184.36.121.136.117.71.094.317.2.68 1.265.5.531.375-.039.207-.258.34-.543.246-.144.695.129.188-.184.093-.016.38.41.382.262.09.344.172.758.664.39 1.793 1.141.2.36.972 1.187.152.39.184.27.746.38.582-.114.558.43.61 1.132.297.403.316.52.152.35.262.016 1.215-.207.473.246.183.047-.039-.078.012-.281.238-.11.153.294.082.308.703 1.16.648.325.422.558.258.242.293.266.16.293.137.703.199.234.488.891.36.313.023.035.05-.082.184-.11.47-.148.245.027.328-.097.305.09.945.011.301-.121.14-.117.966-.348.21-.336.415-.246.199-.215.164-.183.176-.39.695-.52.14.011.45-.027.25-.043.125.152.543.657.543.359.574.047.547-.219.117.023.664.493.543.226.332.176.598-.258.476.13.184-.009.222-.41.133.14.508.204 1.035.055.215.14.637.418.222.262.813.32.285.137.34-.3.094-.692.168-.024.34.098.761.96.32.333.286.183.031-.046.055-.32.504-.071.64-.066.274.125.152-.258.078-.68.024-.633-.086-.46.066.011.273.043 1.207.707.075.23.16.579.27.007.32-.398.187.078.824.488.02-.027.324-.527.34-.418.402-.184.04-.328.538-.223.305.063.352-.254.215-.164 1.183.113.145-.41-.52-.629.082-.039.102-.129.23-.77.364-.503.597-.301.61-.113.035-.52.586-.437.316-.282.203-.148.524-.352v-.445l.156-.441-.664-.7-.086-.222-.41-.07-.254.011-.086-.047-.434-.668.196-.18 1.097-.269.137-.12.219.003.093-.387.207.035.07-.203-.433-.695-.02-.145.286-.242.094-.144.59-.14.324-.466.18-.222.12-.176.07-.406.016-.555.41-1.531-.117-.371.102-.438.203.02.172-.395.348-.684.175-.746.168-.359 1.91-.75.27-.133.02-.25v-.25l.02-.45-.126-.241-.238-.121-.27-.414.137-1.63.25-.269.668-1.02-.078-.449-.727-2.554-.078-.309-.004-.293.156-.168-.203-.39-.078-.23.336-.81.016-.37.3-.044.301-.074.125-.117.137-.176.168-.136.66.109 1.278-1.274.425.043.422-.207 1.375-.937.106.012.16-.243.394-.32.157-.164.058-.152.531-.39-.293-.868-.027-.242.164-.317-.625-1.203.14-.195.345-.516-.008-.375-.852-1.164-.98-1.445-.211-.383-.305-.477-.027-.374.11-1.122.44.13h.551l1.52.624.316-.21.344-.348.184-.184.03-.137-.116-.675.226-.782.055-.273-.02-.191-.75-.895-1.168-2.016.051-.789.113-.215.184-.375.168-.265-.305-1.367-.086-.703-.117-.692-.09-.297-.218-1.863-.477-.234-.441-.567-.282-.422-.316-.328-.656-.797-.719-.722-.469-.328-.445-.31-1.422-.335-.328-.016-.395-.27-.605-.644.254-.601.234-.324.192-.235-.118-.242-.707-1.203.243-.715.082.031.476-.097.285-.07.2-.13.343-.289.102.032.336.066.273-.031.79.406.429-.402.316.09.133-.227.207-.375.203-.078.149-.176.222-.105.18.05.258-.023.394-.258.18-.05.27.241.441.48 1.117-.14.043-.125.02-.672.312-.539.051.051.692.485.015-.043.117-.055.543.09.23-.14.325-.106.105-.32.059-.192.582-.348.332.207.5.414.195-.015.204-.035.87.285.215.027.168-.035.793-.703.48-.203 1.216 1.117.07.379.02.383.12.183.907.387.266.164.683 1.617.524.246.523-.191.223-.028.52.297.245.23.875-.046.239-.04h.203l.257-.03.313-.016.445-.395.262.168.465.153.328-.086.145-.11.433.083.234.21.149-.035.11-.16.452.211.368.32.472.332.242.32.047.337.004.101h-.039l-.363.043.11.211.296.578.43 1.2.11.41.015.164.203.949.047.52.066.21-.023.852.312.445-.105.274-.117.18-.188.304-.465.36.028.03.484 1.036.215.93.016 1.066.18.305.027.53-.075.192-.125.664-.14.028-.387-.184-.566-.039-.192.27-.328.144-.305-.2-.87.868.077.266.016 1.004.031.394-.164.637-.097.101.03.336.509 1.473-.125 1.012.18.472.077.176-.007.45.07.124.098.133-.086.465-.243.2-.132.011-.305.871.137.992-.059.332.016.149.09.234-.024.316.035.32.047.329-.07.27-.063.777.008.312-.207.543.016.516.386.836.184.601.77 1.954-.063.222.379.328-.074.07-.192.102-.011.145.34.105.105.219-.043.168.05.066.653.48.176.34.27.508.265.165.219.32.199.16.234-.09.114.258.062.254.36.2.367.01.976.946.41.082 1.137.07.383-.015.336.027.266-.082h.238l.254-.031.492.34.285.36.617.339.317.039.316.074.203.332.145.614 1.097 1.472.23.918.38 1.469.023.578-.172.559.051 1.023.399.629.027.246-.113.078-.434.086-.176.426-.078.629-.137.242.133.297.422.66-.262.11-.433-.04-.317-.093-.464.468.101.07.266.118.289.012.738.148.41.066.227-.035.406.309.043.234.617.75 1.64 2.13.86 1.948-.09.328-.023.29.023.59.086.347.246.664-.136.844-.024.203.117.336.407 2.113.043.145-.059.297-.191 1.418.082.324-.301.02-1.63-.344-.073.242.097.469-.074-.004-.367-.125-.102.125-.078 1.3-.039-.027-.168 1.313.207.476.13.145-.024.14.09.13.027.304.207.273-.117.41-.117.25.07.594-.094.371-.45.395-.503-.113-.219-.028-1.46.531-.75.012-.266.137-.414.586-.082.453-.883.012-.258-.118-.586.54-.41-.168-.316-.16h-.579l-.351-.227-.442.023-.066-.11-.125-.14-.031-.277-.68-.922-.09-.371-.261-1.543-.102-.184-.094-.457-.16-.101-.246.078-.059-.07-.203-.614-.527-.363-.567-.176-.257-.32h-.262l-.508-.207-.516.05-.175.344-.403.032-.3.16-.63-.055-.316.078-.086-.015-.578.125-.176.215-.207-.02-.207.242.11.41.031.57-.031.317-.242.223-.051-.114-.043-.043-.574-.3-.137-.223-.145-.234-.125-.27-.445.984.004 1.454-.547.636-.27.266-.363.64v.419l-.219.64-.167-.062-.13.101-.113.043-.113.262-.383-.078-.336-.219-.03.082.026 1.254-.246.914-.656 1.016-.23.914-.118.082-.207.18-.261.16-.29.277-.156.137.016-.008.738.586.301.289.066.058.051-.054.336.047.344.101.168.024.738.59.156.394-.07.277.406.871.551.75-.094-.046-.613 1.394.117.672.14.598.134.629.148 1.437.195.328.254.473.664.789.067.523-.11.399-.02.152.298.531.394.246.282.157.832 1.836.132.074 1.09-.016-.004-.035.075-.121.28-.035.235.05.23.008.227.024.715.523.297.395.375.91 1.61.922.534.156.793.133.122.086-.106.043-.793.547-.277.367-.055.3-.773 1.063-.516.09-.234.066-.309.149-.32.922-.176.152-.238.465-.45.004-.386-.055-.223.25-.121.063-.293.101-.402.254-.371.34-.97.594.067.3-.035.286.16.445-.039.2-.312.234-.274.043-.996 1.285.043.527.063.356-.172.843-.446.223-.027 1.09-.14.578-.56.058-.077.364-.07.328.12.496.352.531.246.422-.176.621-.164.098-.218.09.093.168.504.289.16.289.454.418.445.687.195.168.125.305.164 1.27.254.14.223.133.633.875.398.05.184-.245.191-.157.027.016.239.351.246.708.297 1.25.68.238.519.754.144.129.985.293 1.027 1.433.8.836.575.914.852.828.785.508.687.016.22.027 1.023 1.8.378.25.395.306.738 1.093.309.309.312.363.762 1.285.148.383.22.563.616.632.32.56 1.087 1.667.101.348.184.297.285.476.473.711.925.672.504.484.57.446.528.652.113.293.016.309.402 1.562-.183.34-1.145.219-.96.422-1.13.164-1.129-.028-.394.016-.196-.2.11-.206.898-.993-.066-.21-.156-.297-.934-1.235-.508-.12-.441-.184-.27-.547-.125-.57-.035-.383v-.575l.028-.093.207-.149.062-.262-.21-.453-.653-.46-.594-.215-1.652-1.731-1.262-2.137-.473-.07-.207-.023-1.16-.872-.738-.285-.106-.277.153-.883-.965-1.93.058-.39.09-.223-.07-.668-.29-.437-.265-.137-.492-.105-.207-.114-1.2-.355-.405-.258-.567-.723-.32-.308-.188.047-.312.125-.73-.243-.247-.238-.191-.101-.34.261-.644.313-.29.031-.347.121-.43 1.043-.238.133-.95.762-1.695.172-.332-.075-.953-.879-.285-.757-.18-.317-.445-.191-.203.09-.203.046-.254-.082-.363-.558-.27-.336-.617-.48-.356.003-.406-.316-.516-.344-.269.047-.262.152-.578.137-.191.05-.18.259-.195.285-.344.402-.11 1.055-.39.344-.242-.012-.551-.484-.633-.739-.191-.125-.656-.12-.168.16-.059.273-.055.62-.27.013-1.527-.07-.765-.126-.547-.11-.242-.214-.38-.426-.491-.261-.774.136-1.844-1.062-1.425-1.238-.625-.344-.477-.574-.324-.395-.953-.43-.317-.379-.52-.675-.757-.618-1.059-.277-.351.094-.2.168-.464-.121-.883-.332h-.52l-1.32-.301-.219-.024-.988-.523-.535-.402-.152.039.004.05-.383.965-.903.774-.062.57-.383.66-.137-.004-1.238-.605-.41.16-.176.258-.305.734-.707.996.051.118" style="fill-rule:nonzero;fill:#908e96;fill-opacity:1;stroke-width:.25;stroke-linecap:butt;stroke-linejoin:miter;stroke:#fff;stroke-opacity:1;stroke-miterlimit:10"/></g></svg>