<svg viewBox="0 0 139.476 217.44" xmlns="http://www.w3.org/2000/svg"><defs><clipPath id="a"><path d="M0 .441h139v217H0Zm0 0"/></clipPath></defs><path d="m39.992 96.516.84.285.531.105.524.524.492-.051.324-.43.078.106.532 1.027.777.395 1.219.472 1.43.25.757-.094.133.07-.012.016-.031.586-.156.356.293.75.738.394.5.172.41.258.254.313.258.144.293.55.09.368-.082.004-.594.191-.297.028-.223.84-.195-.04-.223-.332-.16-.332-.187.047.02.418.12.38.223.554-.047.305-.047-.004-.199-.012.066.45.211.237.297.32.215.677-.156.316.683.848.563.273.191.371.153.168.449.356-.133.07-.09.039-.078.277.348 1.172-.078-.02-.387-.093-.063.066-.05-.023-.328-.403-.97-.308-.105.066-.23.602-.383.02-.465.058.012.32-.063-.004-.14.079.02.03.179.153-.063.024-.074.472.114.156.304.141.18-.078.031.059.192.277.48.297.176.336-.016.304-.047.262.168.348.434.039.789.566.09.266-.028.015-.12.075.003.043.012.332-.133.398-.238.7-.215.288-.129.043-.004.215-.191.008-.125.125-.02.16.032.012.128-.012.133.012.047.183-.082-.023-.098-.05-.023.034-.137.207-.117.114-.332.383-.113.125-.11.152-.28.215-.227-.098-.754.32-.09.461.129.715-.149.531.082.34.344.262.203.496.258 1.297.059.547-.012.226-.024-.007-.402-.313-.008.16-.125.63-.379-.075-1.257-.34-.239.219-.058.27-.016.296-.043.004-.058.102-.168.117-.262-.047-1.305.402-.379.2-.445-.016-.414.074-.23.078-.274.075-.629-.2-.434-.316-.257.223-.348.52-.16.151-.23.36-.391-.051-.125.117-.164.64-.117.173.167.738.239.34-.192.7-.254.019-.93.09-.136.132-.578.11-.027.3.14.72.047.097.648.34.114.37-.13 1.18-.144.059-.23.02-.094.117-.144.105-.254.028-.477.398-.125.102-.52.453-.167.074-.551.133-.375.035-.05.035v.074l.183.36.238.433.18.293.113.223.328.558.246.122.766.585 1.148.583.637.296.137.207.191.297.066.676-.128 1.047-.305.394-.082.22-.176.14-.012-.004-.164.035.063.188.418.953-.168.496-.02-.008-.191-.023-.063.144-.312.82.082.254.34.895.101.324-.05.25-.208.133-.238.27-.164.093-.45.75.102.461-.527.297-.383-.008-.336.113-.238.262-.484-.117-.41-.074-.348-.172-.223-.211-.254.18-.164.332-.43-.188-.25-.195.012-.02.008-.324-.148-.476.156-.098-.024-.414-.132-.192-.11-1.039-.355-.015-.25.074-.137-.16-.043-.305-.11-.223-.011-.285-.277-.394-.48-.051-.177-.277-.214-.508-.204-.028-.343.239-.047.004-.32.136-.13-.07-.328.05-.898.743-.184.055-.296.086-.598-.032-.379-.367-.184-.312-.343.082-.328-.293-.403-.235-.347.016-.739-.453-.203-.297-.262-.367-.257-.168-.313.008-.379.457-.484-.13-1.184-.39-.23.223-.063.18-.039-.008-.176-.227-.152-.433-.59-.457-.941.062-.106.152-.765-.043-.157.149-.656-.352-.402-.144-.238-.317-.051.036-.055.195-.039-.008-.383-.148-.347-.008-.239-.047-.43.11-.105.015-.39.27-.235.05-.18.332.055.336-.113-.097-.145-.043-.218.05-.2.246-.109.16-.05-.113-.286-.258-.715-.246-.074.012-.707-.172-.438.098-.386.215-.215.039-.059.082-.59.308-.296.118-.254-.18-.528-.79.024-.003.074-.094-.016-.027-.285-.27-.472-.007-.274-.055-.18-.02-.492-1.258-.656-.636-.078-.164-.453-.348-.301-.195-.23-.29-.207-.187-.375-.312-.407-.16-.554-2.04-.098-.28.023-.22.063-.43-.188-.37-.101-.344-.801-2.14.086.011.664.46.668.33.422.085.191.164.426.574.402.2.598.093.856.2.449.093.285-.07.273-.484.102-.215.258-.254.175-.051.157-.414.047-.68.293-.3.359-.06.398-.038.356-.102.144-.277-.183-.371L10 126.59l-.11-.55.079-.333-.184-.547-.683-1.281-1.786-1.59.016-.316.047-.653.016-.312.082-.293-.059-.563.258-.058.328.11.316.386.532 1.137.203.144.433-.008.719-.074.441.363 1.079 1.051.27-.11.167-.323.05-.856-.23-.312-.261-.45-.059-.496-.086-.625-.75-1.12.063-.177.132-.367.184-.336.14-.27-.05-.366-.348-1.188-.152-.379-.156-.52.105-.246.02-.078-.079-1.117-.152-.613-.18-.652.094-.504.196-.059.09-.082.078-.242.214-1.297-.41-1.055-.015-.054.058.02.63.448.296.098.633-.605-.145-.32-.222-.313.128-.133.278-.27.18-.12.085-.106.008-.313.59-.113-.078-.219-.031-.332.234-.18.422.544.36.289.171.011-.004-.164-.191-.324.094-.254.148.02.121.066.02-.078.008-.234.203-.063.007-.348-.078.004-.496-.25-.09-.941.043-.129.059.031.156.106.27.144-.02-.234.016-.106.05.016.337.137.164-.567.168.196.296.41.11-.031-.031-.29-.246-.398.203-.172.316-.133.055-.086.59.036.062-.293.16.023.09.242-.086.192.18.082.437-.38.051-.066.192.055.261.406.035-.02.11-.71-.2-.61.04-.253-.329-.262.032-.106-.09-.136.047-.008.176-.035-.008-.032-.098-.218.117-.336.086.101.172-.03.094-.212-.09-.574.312-.61.012-.285.262-.07.11-.07.253.226.406.696.04-.075.05-.289.043.008.145.07.008-.039.015-.648.176.039.293.191.21-.101.259-.242 2.23 1.12.2-.296.445-.754.398-.266.285-.062.325-.059.675.41.106.028.605.23.356-.031.144.023.242.043.579.012.543-.387.21-.394.434-.008-.031-.074-.172-.555-.219-.992.02-.664h.023l.856.25.28.098.302-.055 1.066.512.223.441.258.387.546.957.079-.051 2-.016.675.055.262.004.656.535.149.227.468.183.254.059.446.234.246-.16.636.102.524.421.055-.085.21-.563.196-.539.023.008.258-.055.195-.484.457-.262.262.016.153-.016.011-.035-.136-.781-.567-.907-.223-.171-.18-.137-.234-.262.282-.129.73-.578.664.309" style="fill-rule:nonzero;fill:#1a1523;fill-opacity:1;stroke-width:.25;stroke-linecap:butt;stroke-linejoin:miter;stroke:#fff;stroke-opacity:1;stroke-miterlimit:10"/><g clip-path="url(#a)"><path d="m80.898 153.379.457.351.356.227.418.23 1.027.395.426.09 1.703 1.25.543.723.399.378.566 1.047.898 1.164.825.645.796.945.442.188.285-.121.203-.223.25-.133.352.086.199.219.043.394-.016.403.196.386.195.13.855.062.485.074.36.543.343.438 1.035 1.117.68-.586.511-.11.649-.125.02-.273-.2-.703-.05-.285.167-.555.407-.61.41-.097.234.11.153.413.406 1.114.683 1.074.454.332.343.379-.027.414.031 1.2.36.21.101-.121.254-.383.418-.285.594.04.281.39.52.625.59.332 1.91.668.05-.383-.066-.313-.465-.53-.898-.56-.043-.695-.004-.86-.215-.917-.266-.73.078-.301.133-.102.324.113.309.352.047.367-.106.371.172.356.766.8.512.196.257.11.622.472.175.25.754.613-.043.113-.191.196.035.351.39 1 .508.223.567.254.078.297-.07.726-.512.254-.234.121-.192.309.145.39.492.649.523.39 1.29.614.585 1.336v.23l.035.758 1.082 1.016.325.27.242.593-.055.777-.047.43.145.473.41.093.758.004.308.18.22.492.163.86-.16 1.402.274.156.335.191.356.239.336.16.297.355 1.097 2.84.864 2.828-.168.707-.164.364-.489.726-.066.293.191 1.051-.086.367-.582.637-.296 1.547-.157.543-1.3 2.554-.422.586-1.118 1.137-1.363 2.457-.582 1.262-.133.336.07.14-.074.407-.132.57.16 1.004-.086.437-.301-.058-.305-.024-.265.282-.196.39.059-.02.14-.074-.046.137-.832.942-.465.918-.953 1.175-.035.184.054.687-.187.204-1.051.136-.14.028-.204.308.067.715.047.32.015.668-.027.61-.903 1-.367.797-.035.543.07 1.296.688.637.273.625.024.156-.02-.015-2.695-1.946-.742-.273.015.098.211 1.629-1.898-2.008 1.07-1.543-.633-1.145-.007.012-.7.797-.039-.043-.718-.797-.008-1.512-1.64-.277-.556 1.457-1.03-.102.359.961-1.332-.406.097-.601-.344-.215 1.008-1.242-1.187-.208-.047.883-1.02.235-.257-.95-.633.086-1.168-.453.914-.886-.309-.262-.734.633.008.64-1.227-.265.063-.457-.575-.477v.035l.414 1.164-.117-.09-1.008-.87-.988-2.368.367-.52-.093-.863-.903-.382-.453-.567-1.137-.234-.78-.25-1.095.66.801 1.719-1.14-.887-.915.191-.253-.543-1.325-1.183-.48-.383-1.27-.86-1.406-.054-1.05-.383-.544-.578-.02-1.684-.675-.382-1.266-.356-.617-1.863-2.879-1.012.285.98-.054-.027-1.52-.992-.62.785-1.415-1.37-1.324-1.009-.078-1.816-1.602-.145-.351-1.906-1.024-1.023-.629-1.45-.039.036-1.246.828-1.066-1.028-.04.063-.554.633-1.98-.313-.825-1.453-1.101.457-.219.086.445-.969-1.703-.625.34-2.172-2.137-.949-.246-.07-1.715-.348-.707.082-2.375 2.313.008.844 2.32 5.445.336.738 1.594 4.078.54.356.25-.13.007.02.133.438-.145 2.137-.27-.165-.003.016-.09.274-.023-.008-.137-.203-.317-.524-1.226-1.32-.668-.34-.762-.691-1.367-.871-.625.324-.234-.098.043-.082.03-.004.138-.055-.317-.933-.398-.64-.922-1.75-.188-.09.028-.18.117-.008.16.082.004-.055-.234-.27-.278-.093.117-.04.04-.07-.29-.394-.46-.324-.481-.442-.344-.011-.406.047-.34-.34-.304-.465-.735-.27-.973-.101-.261-.082-.242.043-1.079.593-2.039.602-.16-.164-.242.055-.395-.621-.234-.055-.45-.024-.452-.566-.028-.293.051-.375-.566-.297-.297-.347-2.102-1.403-.656-.484-.2-.528-.624-1.253-.07-.52-.41-.93-.512-.625-1.078-.582-.38-.101-.366-.168-.356-.367-.418-.121-1.406.054-.653-.726-.94-.899-.645-.523.003-.004.352-.328.125-.446-.086-.73-.234-.512-.52-.582-.82-.629-.305-.117-.535.195-.508-.109-.215-.176-.18-.086-.495.188-1.024.21-5.637-3.995-.953-.926-2.484-2.305-1.832-1.34-3.574.508-1.368-1.719-2.902-9.144 1.516-7.379.011-.824 1.711.558.032-2.863.738-.144-.129-.313-1.023-.367-.059-2.078-.352-.117-.043-3.223-.68-.227.329-5.152.238-.27.297-.46.535-.688.078-.367-.007-.664.32-.137.277.02.227-.211.058-.594.149-.41.117.074.258.469.25.773.066.379.504 1.227-.094.593.075.461.14.469.504 1.477.469.093 1.144 1.106.211.09.512.64.469.492.363 1.06.332-.009.277.106.305-.063.254.34-.086.293.305.324.656.352.875-.5.258-.043.43-.266.609.024.402.136.2-.12.187.109.355.277.157.09.175.27.032-.048.133-.12.41-.305.187.148-.012-.11-.027-.382.324-.234.285-.067.286-.21.894-.036.504.129.07-.063.102-.156.074.067.25.343.668.2.313.203.03-.055.364-.195.492.14.551-.234.348.043.246.027.273.168.332.34.145.512.144.039-.003-.063.261-.324.145.055.523.137 1.137.242.305-.403.324.059.293.305.82.77.434.202.39.02.586.496.395-.031.238.375.379.293.434-.04.234-.023.168-.117.234-.094.403-.41.156.07.016-.062.168-.246.328-.05.21.073.344-.125.192-.054.191-.223.149.09.523.808.414.086.191.477.075.3.097.16.004.286.184.039.523-.055.149.145-.016.43-.027.343.062.258.14.219-.1.3-.11.118.355.93.586.164.114-.356.257-.117.528.387.46.004.114.015.457.137.133-.297.191-.043.696-.074.34-.344-.09-.191-.051-.36.039.008.11-.07.062-.149.918-.933-.145-.485-.215-.304-.117-.27-.027-.176.027-.148-.086-.297.004-.215.152-.219.164-.398v-.07l.07.008.114-.04.129.055-.008-.094.18-.191-.024-.035-.183-.649-.102-.18-.21-.37.046-.164.309-.11.23-.55.184-.16.074-.262.035-.418-.015-.567-.215-.64-.594-.461-1.477-.743-.859-.625-.176-.105-.367-.77-.164-.105.04-.043-.04-.148-.36-.805.09-.008.633-.098.149-.054.289-.125.101-.153.094-.062.09-.133.313-.133.253-.27.11-.077.351-.121.153-.051.238-.223.254-.016.047-.312.093-1.016-.343-.441-.219-.086-.254-.09.043-.242-.031-.195-.168-.371.101-.297.575-.086.082-.227.058-.027.52.043.77-.074.003-.395.012-.184-.035-.226-.262-.379-.094-.445.024-.203.125-.207.07-.376.352-.242.394-.027.117-.383.215-.2.563-.616.043.058.433.368.707.078 1.075-.192.218-.031.426-.227.324-.12.528-.2.71-.066.415-.89.433.019.89.355.216.047.23-.098.063-.722.12.132.262.2.012-.14-.078-.704-.055-.379-.441-1.371-.402-.32.054-.52.14-.644-.167-.606.492-.422.469-.07.215.012.277-.22.238-.296.118-.043.156-.324.183-.13.067-.148.058.051.094.031.012-.039-.13-.18-.245.009-.012-.036.055-.109.36-.219-.036-.144.098-.016.207-.207.129-.191.074.035v-.11l.047-.41.199-1.246-.637-.5-.726-.363.011-.328.04-.278-.266-.523-.227-.176-.18.016-.19-.277-.114-.079-.008.008-.223.063-.285-.27-.008-.25.106-.336-.055-.02-.101-.1.015-.032.219-.121-.02-.047.024-.277.105.074.211.055.235-.043.191-.02.133-.102.258-.601.422-.027.964.757.047-.082.172-.015.27.148.011-.012-.003-.113-.278-1.324.211-.2-.035-.038-.543-.364-.277-.48-1.032-.758-.082-.453.133-.293-.336-.645-.488-.695.063-.246.203.05.02-.366-.216-.48-.14-.798.082-.09.047.036.129.062.507.649.149-.118-.043-.445.133-.152.02-.184.038-.008.57-.078.329-.078-.008-.02-.414-.94-.27-.122-.07-.04-.285-.41-1.297-.534-.367-.332-.067-.395-.027-.36.14-.261-.105-.563-.285.032-.473.062-1.668-.344-1.925-.921-.204-.454-.238-.53-.133.202-.308.305-.414-.027-.121-.035-.391-.516-.29-.063-.562-.132-.906-.375-.5-.063-.3.309-.204.238-.234.098.008.125.203.16.21.207.192.101.254.207.512 1.29-.227.242-.215-.032-.52.297-.163.305-.09.23h-.012l-.328.036-.273 1.043-.13.058-.523-.43-.68-.043-.25.106-1.195-.672-.144-.226-.512-.31-.207-.019-.566.036-.286-.086-.453.004-.5-.02-.386.082-.77-.137-.281-.61-.797-1.202-.606-.246-.433-.067-.313.004-.453-.207-.52-.113.016.098.168 1.515.207.684-.109-.028-.367.098-.375.578-.594.153-2.012-.36-.566-.453-.395.203-.125.016-.601.515-.192.48-.25.313-.214-.168-.239-.16-1.808-.886-.051.148-.18.176-.316.039-.278-.176-.156.133-.023.164.125.394-.028.012-.238-.047-.008.035-.004.286-.066.004-.066-.157-.188-.379-.238-.336-.176-.043-.168.114-.195.12-.031.317v.098l.03.008v.133l-.198.152-.079.2.09.374-.023.254-.246.055-.086-.094-.035.082.015.539-.035-.004-.168.043.016.04.054.179.028.07.383.332-.125.153.195.82-.137.48-.074-.05-.379-.41-.285.35v.017l-.023-.004h-.36v-.145l.102-.086-.106-.203-.195-.012-.05.063-.063.27-.29-.075-.269.074-.238.125-.207.079-.055.265.242.262.016.262-.11.03-.156-.136-.308-.469-.188.063-.015.535-.243-.133-.117-.047-.015.059.007.3-.11-.011-.35-.293-.044.129.282 1.117.457.164-.016.05-.066.204-.086.078-.176.024v.039l.031.234-.062-.012-.207-.074-.094.254.168.527-.39-.25-.509-.421-.039-.211-.191.132-.047.211.027.496-.527.172.02.207-.375.305-.258.355.336.57-.074.141-.653.446-.89-.578-.122-.27-.683-.648-.41-.239-.957-.12-.758-.985-.133-.48-.59-.419-.422-.46-.37-.563-.387-1.3-.598-.278-.211-.246-.191-.836-.067-.262.274-.414.207-.207-.282-.285-.37-.41-.141-.325-.008-.605-.38-.266-.483-.14-.473-.309L.875 97.72l.195-.59-.355-.809-.098-1.453-.172-.258L0 94.004l.043-.254.277-.11.61-.1.086-.173.07-.305.215.079.523.261.203-.023.168-.188.414.094.008-.055-.152-.265-.473-.36.375-.289.211-.054.23.058.087.215-.02.332.297.293.41-.078.297.125.473-.355.14.199.16.117.125-.074.184-.285-.2-.317-.41-.308-.421-.516-1.063-1.336.004-.324.203-.031.219-.051.125-.461.008-.285-.121-.414.226-.266.106.012.52.554.773.121-.028-.44-.226-.626-.184-.508.133-.222 1.102-.938v-.57l.261.039.567.32.062-.039.281-.68.137-.449-.215-.594.516-.535-.012-.398-.328-.285-.191-.067-.274-.28-.36-.294-.116-.004-.242.102-.165-.11-.046-.308.164-.567-.118-.187-.265-.367.328-.2.281-.039.656-.035.188-.07.293-.066-.04-.192-.265-.66.13-.016.503.137.305.05.46.145.067-.035-.27-.93.004-.277.575.024.203-.118.062-1.175.278-.371.152-.227.246-.223.238-.68-.113-.667-.152-.551-.168-.418-.211-.246-.102-.23.11-.329-.137-.61.176-.519.593-.285-.07-.488-.152-.246-.246-.656-.418-.325-.14-.328-.071-.793-.254-.195-.02.023-.28.028-.126-.242-.203-.239-.293-.258-.18.09-.355.075-.121-.137-.078-.375-.512-.094-.219-.11-.191-.449-.094-.359-.598-.457-.203-.605-.054-.582-.532-.446-.375-1.293-.07-.117-.336-.297-.629-1.16-.129-.273.184-.38-.192-.218-.304-.016-.29-.086-.28-.472-.055-.633.09-.379-.606-.77.04-1.117.597.184.77-.113.183-.055-.133-.258-.21-.64.327-.208.215.059.418.176.094-.156-.188-.344-.09-.297.063-.688.027-.48.184-.492-.113-.403.168-.226-.317-1.164.156.074.458.246.039-.203.035-.184.218-.113.586-.094.395-.34.07-.28.051-.169.113-.28.258.151.559.579.242.093.422-.058.484-.352.996.145 1.39.652.24-.074.843.097.027-.238-.148-.297-.14-.226.066-.008.113-.11.016-.265.238-.453-.047-.024-.277-.218.105-.25.473-1.196 1.074-.406.121-.305.02-.375h.02l.194-.078.325-.574.187-.027.063-1.02.086.04h.394l.414-.329.156-.086-.046-.344-.254-.351.23-.77.274-.476-.032-.02-.449-.383.328-.613.203-.535.04-1.508-.032-.39-.312-.715-.157-.43-.171-.434-.055-.484v-.328l.512-3.047.261-.855.735-1.008.664-.117.273-.118.129-.125.2-.156.296-.07.16-.004.293-.121.336.043.68.402.254.227.262.152.417.238.457.067 1.282-.215h.27l.218.012.34-.325.098-.191.117-.254.015-.445.188-.34.023-.211.301-.523.422-.34.105-.121.102-.426.223-.29.117-.085.094-.219.187-.152.398-1.164 1.625.058.618-1.058v-.23l.054-.692.055-.567.098-.328-.278-.62-.152-.31-.129-.53-.066-.36.175-.379-.07-.309.047-.285.035-.133.246-.203.11-.093.804-.278.184-.273.23-.735.149-.566.02-.305-.044-.207.118-.093.117-.188.082-.344.312-.453.22-.844.151-.164.27-.168.121-.129.117-.07.032-.355.343-.18.074-.203.391-.027.426.335.746-.168.422-.496-.223-.55-.355-.457.265-.657.586-.265.024-.11.05.004.696-.226.55-.457.223-.098.153-.137.015-.199-.261-.691-.106-.23-.926-1.716-.265-.933-.102-.164-.605-.606-.227-.082-.078-.285.406-.672.113-.02.004-.023.125-.144.137-.211.348-.395.133-.394.046-.38-.191-.386-.016-.344.121-.328.243-.805.074-.27.062-.558.2-.148.207-.137.203-.699.176-.293.507-.27.344-.945.356-.23.191-.012.156-.02.313.125 3.511-.464.262-.614.156-.097.16-.188.446.067 1.281.468.543.215 1.258.582.414.082.156.371-.008.512.461.398-.015.266.14.203 1.121.582.622.938-.215.3-.274.13-.258.09-.007.171.136.328-.074.078.11.032.39.218.297.094.102.11.535 1.457.218.12.23.028.411.23.281.297.243.305.265.383.547.57.281.606.258.18 1.145.402.203.32.39.46.028.259.086.308.218.68.04.207.027 1.254.765.867.29 1.07-.008.223-.055.54.125.148.441.082.36-.106.554-.031.329.226.207.336.492.61.304.324.086.504.07.586.055.027-.14.055-.328.316.133.778-.028.515-.164.578-.016.22-.128.296.035.004 1.84 1.437.359.57.36.298.609.246.304.379.11.226.523.863.801.434.254.004.7-.023.25.226.448.313.61-.043.37.136.36-.03.27-.25.324-.122.664.062.445.329.012-.012.086-.219.27-.828.07-.164.09-.172.039.02.574.144.433.024.336.328.38.445.37.355.426.504 1.11-.047.136-.093.121-.215.27-.207.285-.04.395-.023.14-.308.23-.5-.046-.164-.399-.492-.738-.426-.55-.278-.079-.074.086-.031.899-.797.586-.07.402-.102.203-.394.29-.106.136-.07.422.137.129.003.367.09.195.383.438.344.46.246.61.145 1.008.261.097-.156.43.016.055.043.71.808h.274l.188.098.558.055.578.257 1.782 1.075.496.3h.593l.18-.086.344.122.312.019.227.379.484-.191-.02-.688.555-.367.395-.063.223-.097-.016-.035.023-.473.118.187.293.184.8.242.942.707.437.223.535.215.274-.035.574.16.465.433.555.047.558.145.805.918.246 1.125.762.824.218.207.032.312-.024.305.157 1.121-.91 1.063.18.336.624.867-.098.719.473.351.246.496.168.48.203.383-.058.313.261.754-.144.512.02.472.113.242 1 .887.761.336.391-.152.207-.067.363.153.328.215.551.175.012-.054.187-.297.309-.098.313-.273.32-.711.234-.324.192-.235-.118-.242-.707-1.203.243-.715.082.031.476-.097.285-.07.2-.13.343-.289.102.032.336.066.273-.031.79.406.429-.402.316.09.133-.227.207-.375.203-.078.149-.176.222-.105.18.05.258-.023.394-.258.18-.05.27.241.441.48 1.117-.14.043-.125.02-.672.312-.539.051.051.692.485.015-.043.117-.055.543.09.23-.14.325-.106.105-.32.059-.192.582-.348.332.207.5.414.195-.015.204-.035.87.285.215.027.168-.035.793-.703.48-.203 1.216 1.117.07.379.02.383.12.183.907.387.266.164.683 1.617.524.246.523-.191.223-.028.52.297.245.23.875-.046.239-.04h.203l.257-.03.313-.016.445-.395.262.168.465.153.328-.086.145-.11.433.083.234.21.149-.035.11-.16.452.211.368.32.472.332.242.32.047.337.004.101h-.039l-.363.043.11.211.296.578.43 1.2.11.41.015.164.203.949.047.52.066.21-.023.852.312.445-.105.274-.117.18-.188.304-.465.36.028.03.484 1.036.215.93.016 1.066.18.305.027.53-.075.192-.125.664-.14.028-.387-.184-.566-.039-.192.27-.328.144-.305-.2-.87.868.077.266.016 1.004.031.394-.164.637-.097.101.03.336.509 1.473-.125 1.012.18.472.077.176-.007.45.07.124.098.133-.086.465-.243.2-.132.011-.305.871.137.992-.059.332.016.149.09.234-.024.316.035.32.047.329-.07.27-.063.777.008.312-.207.543.016.516.386.836.184.601.77 1.954-.063.222.379.328-.074.07-.192.102-.011.145.34.105.105.219-.043.168.05.066.653.48.176.34.27.508.265.165.219.32.199.16.234-.09.114.258.062.254.36.2.367.01.976.946.41.082 1.137.07.383-.015.336.027.266-.082h.238l.254-.031.492.34.285.36.617.339.317.039.316.074.203.332.145.614 1.097 1.472.23.918.38 1.469.023.578-.172.559.051 1.023.399.629.027.246-.113.078-.434.086-.176.426-.078.629-.137.242.133.297.422.66-.262.11-.433-.04-.317-.093-.464.468.101.07.266.118.289.012.738.148.41.066.227-.035.406.309.043.234.617.75 1.64 2.13.86 1.948-.09.328-.023.29.023.59.086.347.246.664-.136.844-.024.203.117.336.407 2.113.043.145-.059.297-.191 1.418.082.324-.301.02-1.63-.344-.073.242.097.469-.074-.004-.367-.125-.102.125-.078 1.3-.039-.027-.168 1.313.207.476.13.145-.024.14.09.13.027.304.207.273-.117.41-.117.25.07.594-.094.371-.45.395-.503-.113-.219-.028-1.46.531-.75.012-.266.137-.414.586-.082.453-.883.012-.258-.118-.586.54-.41-.168-.316-.16h-.579l-.351-.227-.442.023-.066-.11-.125-.14-.031-.277-.68-.922-.09-.371-.261-1.543-.102-.184-.094-.457-.16-.101-.246.078-.059-.07-.203-.614-.527-.363-.567-.176-.257-.32h-.262l-.508-.207-.516.05-.175.344-.403.032-.3.16-.63-.055-.316.078-.086-.015-.578.125-.176.215-.207-.02-.207.242.11.41.031.57-.031.317-.242.223-.051-.114-.043-.043-.574-.3-.137-.223-.145-.234-.125-.27-.445.984.004 1.454-.547.636-.27.266-.363.64v.419l-.219.64-.167-.062-.13.101-.113.043-.113.262-.383-.078-.336-.219-.03.082.026 1.254-.246.914-.656 1.016-.23.914-.118.082-.207.18-.261.16-.29.277-.156.137.016-.008.738.586.301.289.066.058.051-.054.336.047.344.101.168.024.738.59.156.394-.07.277.406.871.551.75-.094-.046-.613 1.394.117.672.14.598.134.629.148 1.437.195.328.254.473.664.789.067.523-.11.399-.02.152.298.531.394.246.282.157.832 1.836.132.074 1.09-.016-.004-.035.075-.121.28-.035.235.05.23.008.227.024.715.523.297.395.375.91 1.61.922.534.156.793.133.122.086-.106.043-.793.547-.277.367-.055.3-.773 1.063-.516.09-.234.066-.309.149-.32.922-.176.152-.238.465-.45.004-.386-.055-.223.25-.121.063-.293.101-.402.254-.371.34-.97.594.067.3-.035.286.16.445-.039.2-.312.234-.274.043-.996 1.285.043.527.063.356-.172.843-.446.223-.027 1.09-.14.578-.56.058-.077.364-.07.328.12.496.352.531.246.422-.176.621-.164.098-.218.09.093.168.504.289.16.289.454.418.445.687.195.168.125.305.164 1.27.254.14.223.133.633.875.398.05.184-.245.191-.157.027.016.239.351.246.708.297 1.25.68.238.519.754.144.129.985.293 1.027 1.433.8.836.575.914.852.828.785.508.687.016.22.027 1.023 1.8.378.25.395.306.738 1.093.309.309.312.363.762 1.285.148.383.22.563.616.632.32.56 1.087 1.667.101.348.184.297.285.476.473.711.925.672.504.484.57.446.528.652.113.293.016.309.402 1.562-.183.34-1.145.219-.96.422-1.13.164-1.129-.028-.394.016-.196-.2.11-.206.898-.993-.066-.21-.156-.297-.934-1.235-.508-.12-.441-.184-.27-.547-.125-.57-.035-.383v-.575l.028-.093.207-.149.062-.262-.21-.453-.653-.46-.594-.215-1.652-1.731-1.262-2.137-.473-.07-.207-.023-1.16-.872-.738-.285-.106-.277.153-.883-.965-1.93.058-.39.09-.223-.07-.668-.29-.437-.265-.137-.492-.105-.207-.114-1.2-.355-.405-.258-.567-.723-.32-.308-.188.047-.312.125-.73-.243-.247-.238-.191-.101-.34.261-.644.313-.29.031-.347.121-.43 1.043-.238.133-.95.762-1.695.172-.332-.075-.953-.879-.285-.757-.18-.317-.445-.191-.203.09-.203.046-.254-.082-.363-.558-.27-.336-.617-.48-.356.003-.406-.316-.516-.344-.269.047-.262.152-.578.137-.191.05-.18.259-.195.285-.344.402-.11 1.055-.39.344-.242-.012-.551-.484-.633-.739-.191-.125-.656-.12-.168.16-.059.273-.055.62-.27.013-1.527-.07-.765-.126-.547-.11-.242-.214-.38-.426-.491-.261-.774.136-1.844-1.062-1.425-1.238-.625-.344-.477-.574-.324-.395-.953-.43-.317-.379-.52-.675-.757-.618-1.059-.277-.351.094-.2.168-.464-.121-.883-.332h-.52l-1.32-.301-.219-.024-.988-.523-.535-.402-.152.039.004.05-.383.965-.903.774-.062.57-.383.66-.137-.004-1.238-.605-.41.16-.176.258-.305.734-.707.996.04.102" style="fill-rule:nonzero;fill:#908e96;fill-opacity:1;stroke-width:.25;stroke-linecap:butt;stroke-linejoin:miter;stroke:#fff;stroke-opacity:1;stroke-miterlimit:10"/></g></svg>