<svg viewBox="0 0 139.476 217.44" xmlns="http://www.w3.org/2000/svg"><defs><clipPath id="a"><path d="M0 .441h139v217H0Zm0 0"/></clipPath></defs><path d="m61.176 96.695.293.266.16.293.137.703.199.234.488.891.36.313.023.035.05-.082.184-.11.47-.148.245.027.328-.097.305.09.945.011.301-.121.14-.117.966-.348.21-.336.415-.246.199-.215.164-.183.176-.39.695-.52.14.011.45-.027.25-.043.125.152.543.657.543.359.574.047.547-.219.117.023.664.493.543.226.332.176.598-.258.476.13.184-.009.222-.41.133.14.508.204 1.035.055.215.14.637.418.222.262.813.32.285.137.34-.3.094-.692.168-.024.34.098.761.96.32.333.286.183.031-.046.055-.32.504-.071.64-.066.274.125.152-.258.078-.68.024-.633-.086-.46.066.011.273.043 1.207.707.075.23.16.579.078.043-.059.066-1.035.992-.066.274-.2.148-.835.133-.14.46.12.24-.031.171.05.277.09.188.126.629.039.332.183.238-.156.055-.297.347.094 2.41.074.528.016 1.215.074.52.262 1.41.117.28-.836.442-.254.117-.113.313.09.426-.036.25-.316.835.11.325.054.261-.375 1.165-.04 1.273.106.422-.058.285.015.3-.054.016.07.032v.027l.133.285.746.32.46.25.68.989.028.465.066.285-.445.914-.14.332-.083.191-.28.067-.665-.032-.07.371-.219.364-.188.105-.156.02-.386.16-.098.168v.176l-.129.187-.047-.043-.031-.004-.04.075-.21.21-.418.157-.102-.098-.066.059-.238.007-.985.028-.086-.016-.156-.039-.176-.066-.015.03-.082.02-.032-.043-.199-.007-.277.101-.203.176-.332.191-.09.02.027.062.188.239-.114.023.075.356.25.254.277.132.14-.113.141-.25.016.004.238.105.559.364.12.05.141.196-.027.363.336.813.336.254.152.398.07.437.25.274.633.101.317.922-.227.16.16.336.2.086.238.078.308.13.172.07.254.343.047.477.024.402.23.063.39.086.036.23.097.25.633.59.32.219.387.43.278.195.863 1.008.71.547.263.34.359.226.402.168.141.168.258 1.168.187.27.16-.028.32-.012.384.141.66.086.222.312-.105.618-.156.086-.184.023-.113.21.535 1.052.207.129.762.46.14.56.168.276.383.372.512 1.023.293.152.41.387.215.742.379 1.461.488.848.277.32-.011 1.16-.11.684-.195.11-.399.046-.046.258-.125.734-.325.121-.754.625-1.113-.41.008.098.14.5-.144.414.156.547-.289.082-.68-.3-.32-.169-.992-.058-.965-.243-.297-.004-.988-.523-.535-.402-.152.039.004.05-.383.965-.903.774-.062.57-.383.66-.137-.004-1.238-.605-.41.16-.176.258-.305.734-.707.996v.051l-.105-.016-.613-.101-.676-.117-.895.59-.488-.164-1.894-.762-.61.164-.25.351-.031.41-.121.462-.223.101-.125-.098-.219-.43-.593-.597-.043.11-.028.359-.047-.004-.238-.223-.3-.488-.051.078.234.426.098.41-.176.047-.238-.094-.207-.281-.274-.277-.719-.227-.203-.52.028-.777-.29-1.254-.542-.531-.684-.16h-.637l-.531-.735-.527-.218-.215.07-.239.398-.242 1.211-.023.387-.281.406-.028.157.36.843-.102.164-.086.094-.05.93-.012.2-.18.05.023.066.028.18-.29.262-.613.007-.164-.082-.07-.332-.156-.418-.117-.097-.239.086-.078.07-.058-.066-.239-.536-.422-.253.094-1.07-.187-.31-.493-.507-.011-.695-1.059-1.184-.441-.195-.473-.137-.266-.129-.308-.375-.25-.102-1.133-.05-.61-.278-.214-.261-.149-.551.004-.305.067-.355-.23-.258-.262-.063-.641-.004-1.125-.761-.41-.106-.75.016-.469.074-.086.328-.031-.011-.18-.208-.277-.144-1.442-.094-.558-.234-.285-.207-.91-.086-.18.008-.27-.051-.093-.266-.106-.191-.285-.07-.168.261-.02-.015-.207-.13-.558-.179-.395-.18-.218.008-.356-.215-.512-.246-1.824-1.715-.379-.418-.238-.23-.285-.262-.196-.297-.293-.336-.402-.421-.223-.176-.312.172-.05.484.077.152-.277.465-.79-.008-.597-.77-.035.087-.137.152-.207-.168-.078-.164-.16-.101-.324-.332-.34.144-.133-.2-.023-.112-.293-.02-.156-.098-.208-.316-.34.191-.093.082-.035-.027-.59-.86-.203-.452-.594-.461-1.477-.743-.859-.625-.176-.105-.367-.77-.164-.105.04-.043-.04-.148-.36-.805.09-.008.633-.098.149-.054.289-.125.101-.153.094-.062.09-.133.313-.133.253-.27.11-.077.351-.121.153-.051.238-.223.254-.016.047-.312.093-1.016-.343-.441-.219-.086-.254-.09.043-.242-.031-.195-.168-.371.101-.297.575-.086.082-.227.058-.027.52.043.77-.074.003-.395.012-.184-.035-.226-.262-.379-.094-.445.024-.203.125-.207.07-.376.352-.242.394-.027.117-.383.215-.2.563-.616.043.058.433.368.707.078 1.075-.192.218-.031.426-.227.324-.12.528-.2.71-.066.415-.89.433.019.89.355.216.047.23-.098.063-.722.12.132.262.2.012-.14-.078-.704-.055-.379-.441-1.371-.402-.32.054-.52.14-.644-.167-.606.492-.422.469-.07.215.012.277-.22.238-.296.118-.043.156-.324.183-.13.067-.148.058.051.094.031.012-.039-.13-.18-.245.009-.012-.036.055-.109.36-.219-.036-.144.098-.016.207-.207.129-.191.074.035v-.11l.047-.41.199-1.246-.637-.5-.726-.363.011-.328.04-.278-.266-.523-.227-.176-.18.016-.19-.277-.114-.079-.008.008-.223.063-.285-.27-.008-.25.106-.336-.055-.02-.101-.1.015-.032.219-.121-.02-.047.024-.277.105.074.211.055.235-.043.191-.02.133-.102.258-.601.422-.027.964.757.047-.082.172-.015.27.148.011-.012-.003-.113-.278-1.324.211-.2-.035-.038-.543-.364-.277-.48-1.032-.758-.082-.453.133-.293-.336-.645-.488-.695.063-.246.203.05.02-.366-.216-.48-.14-.798.082-.09.047.036.129.062.507.649.149-.118-.043-.445.133-.152.02-.184.038-.008.57-.078.594-.031.403.094.418-.02.746-.11.355.044.348.136.238-.164.203-.43.508-.23.063-.215.398-.89.176.094.437.421.582.145.262-.129.152-.23.133-1.579-.254-.843-.886-.977.078-.078.648-.32-.043-.399.117.035.57.309.473-.078.149-.246.105-.38.313-.507.195-.168.355-.156.188-.719.105-.184.153-.109.039-.125.047-.34.437-.222-.043-.282-.07-.32.281-.148.153.293.082.308.703 1.16.648.325.422.558.258.242" style="fill-rule:nonzero;fill:#1a1523;fill-opacity:1;stroke-width:.25;stroke-linecap:butt;stroke-linejoin:miter;stroke:#fff;stroke-opacity:1;stroke-miterlimit:10"/><g clip-path="url(#a)"><path d="m40.441 138.8.235-.257.316.137.106.27.39.195.16.164.133.054.137-.136.113-.082.172.21.3.235.044.058.023.192.274.02.14-.18.02.011.113.188.414.582.407.027.16-.117.035.043.16.035.145-.09.132-.375.075-.672.386-.046.344.43.418.421.809.883.363.477.5.625 2.21 1.43.192-.028.735.305.48.117.094-.235.222.094.122.203.07.235.152.093.418.106.2.047.831.058.305.243.527.16.336.05.95-.054.28.203.2.14.055-.097.066-.309.278-.004.511.024.64.02 1.075.69.297.22.184-.004.437-.075.313.18.109.23.008.766.027.274.125.261.516.274.468.168 1.012.004.344.363.281.2.664.214.52.36.761.859.086.25.012.363.14.477.532.539-.016.87-.043.266.192.125.273.078.223.555.066-.066.258-.082.145.183.129.43.097.305.52.066.5-.328.129-.297.039-.137-.098-.492.266-.668.105-.316-.086-.203-.308-.57.171-.215.145-.407.07-.64.297-1.047.274-.168.46.16.337.273.464.614.422-.086.43.078.797.543.246.48.055.305-.016.23.234 1.602.223.18.594.105.746.586.086-.172-.211-.37-.13-.407.118.062.172.336.2.266.198-.004.102-.45.031.009.274.285.375.637.117.222.207-.047.121-.27.176-.796.281-.277.613-.09.645.191 1.164.594.59.11.46-.321.454-.313.308.106.52.144.715.286 1.39.882.278.098 1.136.438.668.406.391.219 1.32 1.785 1.332 1.847.825.645.796.945.442.188.285-.121.203-.223.25-.133.352.086.199.219.043.394-.016.403.196.386.195.13.855.062.485.074.36.543.343.438 1.035 1.117.68-.586.511-.11.649-.125.02-.273-.2-.703-.05-.285.167-.555.407-.61.41-.097.234.11.153.413.406 1.114.683 1.074.454.332.343.379-.027.414.031 1.2.36.21.101-.121.254-.383.418-.285.594.04.281.39.52.625.59.332 1.91.668.05-.383-.066-.313-.465-.53-.898-.56-.043-.695-.004-.86-.215-.917-.266-.73.078-.301.133-.102.324.113.309.352.047.367-.106.371.172.356.766.8.512.196.257.11.622.472.175.25.754.613-.043.113-.191.196.035.351.39 1 .508.223.567.254.078.297-.07.726-.512.254-.234.121-.192.309.145.39.492.649.523.39 1.29.614.585 1.336v.23l.035.758 1.082 1.016.325.27.242.593-.055.777-.047.43.145.473.41.093.758.004.308.18.22.492.163.86-.16 1.402.274.156.335.191.356.239.336.16.297.355 1.097 2.84.864 2.828-.168.707-.164.364-.489.726-.066.293.191 1.051-.086.367-.582.637-.296 1.547-.157.543-1.3 2.554-.422.586-1.118 1.137-1.363 2.457-.582 1.262-.133.336.07.14-.074.407-.132.57.16 1.004-.086.437-.301-.058-.305-.024-.265.282-.196.39.059-.02.14-.074-.046.137-.832.942-.465.918-.953 1.175-.035.184.054.687-.187.204-1.051.136-.14.028-.204.308.067.715.047.32.015.668-.027.61-.903 1-.367.797-.035.543.07 1.296.688.637.273.625.024.156-.02-.015-2.695-1.946-.742-.273.015.098.211 1.629-1.898-2.008 1.07-1.543-.633-1.145-.007.012-.7.797-.039-.043-.718-.797-.008-1.512-1.64-.277-.556 1.457-1.03-.102.359.961-1.332-.406.097-.601-.344-.215 1.008-1.242-1.187-.208-.047.883-1.02.235-.257-.95-.633.086-1.168-.453.914-.886-.309-.262-.734.633.008.64-1.227-.265.063-.457-.575-.477v.035l.414 1.164-.117-.09-1.008-.87-.988-2.368.367-.52-.093-.863-.903-.382-.453-.567-1.137-.234-.78-.25-1.095.66.801 1.719-1.14-.887-.915.191-.253-.543-1.325-1.183-.48-.383-1.27-.86-1.406-.054-1.05-.383-.544-.578-.02-1.684-.675-.382-1.266-.356-.617-1.863-2.879-1.012.285.98-.054-.027-1.52-.992-.62.785-1.415-1.37-1.324-1.009-.078-1.816-1.602-.145-.351-1.906-1.024-1.023-.629-1.45-.039.036-1.246.828-1.066-1.028-.04.063-.554.633-1.98-.313-.825-1.453-1.101.457-.219.086.445-.969-1.703-.625.34-2.172-2.137-.949-.246-.07-1.715-.348-.707.082-2.375 2.313.008.844 2.32 5.445.336.738 1.594 4.078.54.356.25-.13.007.02.133.438-.145 2.137-.27-.165-.003.016-.09.274-.023-.008-.137-.203-.317-.524-1.226-1.32-.668-.34-.762-.691-1.367-.871-.625.324-.234-.098.043-.082.03-.004.138-.055-.317-.933-.398-.64-.922-1.75-.188-.09.028-.18.117-.008.16.082.004-.055-.234-.27-.278-.093.117-.04.04-.07-.29-.394-.46-.324-.481-.442-.344-.011-.406.047-.34-.34-.304-.465-.735-.27-.973-.101-.261-.082-.242.043-1.079.593-2.039.602-.16-.164-.242.055-.395-.621-.234-.055-.45-.024-.452-.566-.028-.293.051-.375-.566-.297-.297-.347-2.102-1.403-.656-.484-.2-.528-.624-1.253-.07-.52-.41-.93-.512-.625-1.078-.582-.38-.101-.366-.168-.356-.367-.418-.121-1.406.054-.653-.726-.94-.899-.645-.523.003-.004.352-.328.125-.446-.086-.73-.234-.512-.52-.582-.82-.629-.305-.117-.535.195-.508-.109-.215-.176-.18-.086-.495.188-1.024.21-5.637-3.995-.953-.926-2.484-2.305-1.832-1.34-3.574.508-1.368-1.719-2.902-9.144 1.516-7.379.011-.824 1.711.558.032-2.863.738-.144-.129-.313-1.023-.367-.059-2.078-.352-.117-.043-3.223-.68-.227.329-5.152.238-.27.297-.46.535-.688.078-.367-.007-.664.32-.137.277.02.227-.211.058-.594.149-.41.16-.012.664.46.668.33.422.085.191.164.426.574.402.2.598.093.856.2.449.093.285-.07.273-.484.102-.215.258-.254.175-.051.157-.414.047-.68.293-.3.359-.06.398-.038.356-.102.144-.277-.183-.371L10 126.59l-.11-.55.079-.333-.184-.547-.683-1.281-1.786-1.59.016-.316.047-.653.016-.312.082-.293-.059-.563.258-.058.328.11.316.386.532 1.137.203.144.433-.008.719-.074.441.363 1.079 1.051.27-.11.167-.323.05-.856-.23-.312-.261-.45-.059-.496-.086-.625-.75-1.12.063-.177.132-.367.184-.336.14-.27-.05-.366-.348-1.188-.152-.379-.156-.52.105-.246.02-.078-.079-1.117-.152-.613-.18-.652.094-.504.196-.059.09-.082.078-.242.214-1.297-.41-1.055-.137-.324-.683-.648-.41-.239-.957-.12-.758-.985-.133-.48-.59-.419-.422-.46-.37-.563-.387-1.3-.598-.278-.211-.246-.191-.836-.067-.262.274-.414.207-.207-.282-.285-.37-.41-.141-.325-.008-.605-.38-.266-.483-.14-.473-.309L.875 97.72l.195-.59-.355-.809-.098-1.453-.172-.258L0 94.004l.043-.254.277-.11.61-.1.086-.173.07-.305.215.079.523.261.203-.023.168-.188.414.094.008-.055-.152-.265-.473-.36.375-.289.211-.054.23.058.087.215-.02.332.297.293.41-.078.297.125.473-.355.14.199.16.117.125-.074.184-.285-.2-.317-.41-.308-.421-.516-1.063-1.336.004-.324.203-.031.219-.051.125-.461.008-.285-.121-.414.226-.266.106.012.52.554.773.121-.028-.44-.226-.626-.184-.508.133-.222 1.102-.938v-.57l.261.039.567.32.062-.039.281-.68.137-.449-.215-.594.516-.535-.012-.398-.328-.285-.191-.067-.274-.28-.36-.294-.116-.004-.242.102-.165-.11-.046-.308.164-.567-.118-.187-.265-.367.328-.2.281-.039.656-.035.188-.07.293-.066-.04-.192-.265-.66.13-.016.503.137.305.05.46.145.067-.035-.27-.93.004-.277.575.024.203-.118.062-1.175.278-.371.152-.227.246-.223.238-.68-.113-.667-.152-.551-.168-.418-.211-.246-.102-.23.11-.329-.137-.61.176-.519.593-.285-.07-.488-.152-.246-.246-.656-.418-.325-.14-.328-.071-.793-.254-.195-.02.023-.28.028-.126-.242-.203-.239-.293-.258-.18.09-.355.075-.121-.137-.078-.375-.512-.094-.219-.11-.191-.449-.094-.359-.598-.457-.203-.605-.054-.582-.532-.446-.375-1.293-.07-.117-.336-.297-.629-1.16-.129-.273.184-.38-.192-.218-.304-.016-.29-.086-.28-.472-.055-.633.09-.379-.606-.77.04-1.117.597.184.77-.113.183-.055-.133-.258-.21-.64.327-.208.215.059.418.176.094-.156-.188-.344-.09-.297.063-.688.027-.48.184-.492-.113-.403.168-.226-.317-1.164.156.074.458.246.039-.203.035-.184.218-.113.586-.094.395-.34.07-.28.051-.169.113-.28.258.151.559.579.242.093.422-.058.484-.352.996.145 1.39.652.24-.074.843.097.027-.238-.148-.297-.14-.226.066-.008.113-.11.016-.265.238-.453-.047-.024-.277-.218.105-.25.473-1.196 1.074-.406.121-.305.02-.375h.02l.194-.078.325-.574.187-.027.063-1.02.086.04h.394l.414-.329.156-.086-.046-.344-.254-.351.23-.77.274-.476-.032-.02-.449-.383.328-.613.203-.535.04-1.508-.032-.39-.312-.715-.157-.43-.171-.434-.055-.484v-.328l.512-3.047.261-.855.735-1.008.664-.117.273-.118.129-.125.2-.156.296-.07.16-.004.293-.121.336.043.68.402.254.227.262.152.417.238.457.067 1.282-.215h.27l.218.012.34-.325.098-.191.117-.254.015-.445.188-.34.023-.211.301-.523.422-.34.105-.121.102-.426.223-.29.117-.085.094-.219.187-.152.398-1.164 1.625.058.618-1.058v-.23l.054-.692.055-.567.098-.328-.278-.62-.152-.31-.129-.53-.066-.36.175-.379-.07-.309.047-.285.035-.133.246-.203.11-.093.804-.278.184-.273.23-.735.149-.566.02-.305-.044-.207.118-.093.117-.188.082-.344.312-.453.22-.844.151-.164.27-.168.121-.129.117-.07.032-.355.343-.18.074-.203.391-.027.426.335.746-.168.422-.496-.223-.55-.355-.457.265-.657.586-.265.024-.11.05.004.696-.226.55-.457.223-.098.153-.137.015-.199-.261-.691-.106-.23-.926-1.716-.265-.933-.102-.164-.605-.606-.227-.082-.078-.285.406-.672.113-.02.004-.023.125-.144.137-.211.348-.395.133-.394.046-.38-.191-.386-.016-.344.121-.328.243-.805.074-.27.062-.558.2-.148.207-.137.203-.699.176-.293.507-.27.344-.945.356-.23.191-.012.156-.02.313.125 3.511-.464.262-.614.156-.097.16-.188.446.067 1.281.468.543.215 1.258.582.414.082.156.371-.008.512.461.398-.015.266.14.203 1.121.582.622.938-.215.3-.274.13-.258.09-.007.171.136.328-.074.078.11.032.39.218.297.094.102.11.535 1.457.218.12.23.028.411.23.281.297.243.305.265.383.547.57.281.606.258.18 1.145.402.203.32.39.46.028.259.086.308.218.68.04.207.027 1.254.765.867.29 1.07-.008.223-.055.54.125.148.441.082.36-.106.554-.031.329.226.207.336.492.61.304.324.086.504.07.586.055.027-.14.055-.328.316.133.778-.028.515-.164.578-.016.22-.128.296.035.004 1.84 1.437.359.57.36.298.609.246.304.379.11.226.523.863.801.434.254.004.7-.023.25.226.448.313.61-.043.37.136.36-.03.27-.25.324-.122.664.062.445.329.012-.012.086-.219.27-.828.07-.164.09-.172.039.02.574.144.433.024.336.328.38.445.37.355.426.504 1.11-.047.136-.093.121-.215.27-.207.285-.04.395-.023.14-.308.23-.5-.046-.164-.399-.492-.738-.426-.55-.278-.079-.074.086-.031.899-.797.586-.07.402-.102.203-.394.29-.106.136-.07.422.137.129.003.367.09.195.383.438.344.46.246.61.145 1.008.261.097-.156.43.016.055.043.71.808h.274l.188.098.558.055.578.257 1.782 1.075.496.3h.593l.18-.086.344.122.312.019.227.379.484-.191-.02-.688.555-.367.395-.063.223-.097-.016-.035.023-.473.118.187.293.184.8.242.942.707.437.223.535.215.274-.035.574.16.465.433.555.047.558.145.805.918.246 1.125.762.824.218.207.032.312-.024.305.157 1.121-.91 1.063.18.336.624.867-.098.719.473.351.246.496.168.48.203.383-.058.313.261.754-.144.512.02.472.113.242 1 .887.761.336.391-.152.207-.067.363.153.328.215.551.175.012-.054.187-.297.309-.098.313-.273.32-.711.234-.324.192-.235-.118-.242-.707-1.203.243-.715.082.031.476-.097.285-.07.2-.13.343-.289.102.032.336.066.273-.031.79.406.429-.402.316.09.133-.227.207-.375.203-.078.149-.176.222-.105.18.05.258-.023.394-.258.18-.05.27.241.441.48 1.117-.14.043-.125.02-.672.312-.539.051.051.692.485.015-.043.117-.055.543.09.23-.14.325-.106.105-.32.059-.192.582-.348.332.207.5.414.195-.015.204-.035.87.285.215.027.168-.035.793-.703.48-.203 1.216 1.117.07.379.02.383.12.183.907.387.266.164.683 1.617.524.246.523-.191.223-.028.52.297.245.23.875-.046.239-.04h.203l.257-.03.313-.016.445-.395.262.168.465.153.328-.086.145-.11.433.083.234.21.149-.035.11-.16.452.211.368.32.472.332.242.32.047.337.004.101h-.039l-.363.043.11.211.296.578.43 1.2.11.41.015.164.203.949.047.52.066.21-.023.852.312.445-.105.274-.117.18-.188.304-.465.36.028.03.484 1.036.215.93.016 1.066.18.305.027.53-.075.192-.125.664-.14.028-.387-.184-.566-.039-.192.27-.328.144-.305-.2-.87.868.077.266.016 1.004.031.394-.164.637-.097.101.03.336.509 1.473-.125 1.012.18.472.077.176-.007.45.07.124.098.133-.086.465-.243.2-.132.011-.305.871.137.992-.059.332.016.149.09.234-.024.316.035.32.047.329-.07.27-.063.777.008.312-.207.543.016.516.386.836.184.601.77 1.954-.063.222.379.328-.074.07-.192.102-.011.145.34.105.105.219-.043.168.05.066.653.48.176.34.27.508.265.165.219.32.199.16.234-.09.114.258.062.254.36.2.367.01.976.946.41.082 1.137.07.383-.015.336.027.266-.082h.238l.254-.031.492.34.285.36.617.339.317.039.316.074.203.332.145.614 1.097 1.472.23.918.38 1.469.023.578-.172.559.051 1.023.399.629.027.246-.113.078-.434.086-.176.426-.078.629-.137.242.133.297.422.66-.262.11-.433-.04-.317-.093-.464.468.101.07.266.118.289.012.738.148.41.066.227-.035.406.309.043.234.617.75 1.64 2.13.86 1.948-.09.328-.023.29.023.59.086.347.246.664-.136.844-.024.203.117.336.407 2.113.043.145-.059.297-.191 1.418.082.324-.301.02-1.63-.344-.073.242.097.469-.074-.004-.367-.125-.102.125-.078 1.3-.039-.027-.168 1.313.207.476.13.145-.024.14.09.13.027.304.207.273-.117.41-.117.25.07.594-.094.371-.45.395-.503-.113-.219-.028-1.46.531-.75.012-.266.137-.414.586-.082.453-.883.012-.258-.118-.586.54-.41-.168-.316-.16h-.579l-.351-.227-.442.023-.066-.11-.125-.14-.031-.277-.68-.922-.09-.371-.261-1.543-.102-.184-.094-.457-.16-.101-.246.078-.059-.07-.203-.614-.527-.363-.567-.176-.257-.32h-.262l-.508-.207-.516.05-.175.344-.403.032-.3.16-.63-.055-.316.078-.086-.015-.578.125-.176.215-.207-.02-.207.242.11.41.031.57-.031.317-.242.223-.051-.114-.043-.043-.574-.3-.137-.223-.145-.234-.125-.27-.445.984.004 1.454-.547.636-.27.266-.363.64v.419l-.219.64-.167-.062-.13.101-.113.043-.113.262-.383-.078-.336-.219-.03.082.026 1.254-.246.914-.656 1.016-.23.914-.118.082-.207.18-.261.16-.29.277-.156.137.016-.008.738.586.301.289.066.058.051-.054.336.047.344.101.168.024.738.59.156.394-.07.277.406.871.551.75-.094-.046-.613 1.394.117.672.14.598.134.629.148 1.437.195.328.254.473.664.789.067.523-.11.399-.02.152.298.531.394.246.282.157.832 1.836.132.074 1.09-.016-.004-.035.075-.121.28-.035.235.05.23.008.227.024.715.523.297.395.375.91 1.61.922.534.156.793.133.122.086-.106.043-.793.547-.277.367-.055.3-.773 1.063-.516.09-.234.066-.309.149-.32.922-.176.152-.238.465-.45.004-.386-.055-.223.25-.121.063-.293.101-.402.254-.371.34-.97.594.067.3-.035.286.16.445-.039.2-.312.234-.274.043-.996 1.285.043.527.063.356-.172.843-.446.223-.027 1.09-.14.578-.56.058-.077.364-.07.328.12.496.352.531.246.422-.176.621-.164.098-.218.09.093.168.504.289.16.289.454.418.445.687.195.168.125.305.164 1.27.254.14.223.133.633.875.398.05.184-.245.191-.157.027.016.239.351.246.708.297 1.25.68.238.519.754.144.129.985.293 1.027 1.433.8.836.575.914.852.828.785.508.687.016.22.027 1.023 1.8.378.25.395.306.738 1.093.309.309.312.363.762 1.285.148.383.22.563.616.632.32.56 1.087 1.667.101.348.184.297.285.476.473.711.925.672.504.484.57.446.528.652.113.293.016.309.402 1.562-.183.34-1.145.219-.96.422-1.13.164-1.129-.028-.394.016-.196-.2.11-.206.898-.993-.066-.21-.156-.297-.934-1.235-.508-.12-.441-.184-.27-.547-.125-.57-.035-.383v-.575l.028-.093.207-.149.062-.262-.21-.453-.653-.46-.594-.215-1.652-1.731-1.262-2.137-.473-.07-.207-.023-1.16-.872-.738-.285-.106-.277.153-.883-.965-1.93.058-.39.09-.223-.07-.668-.29-.437-.265-.137-.492-.105-.207-.114-1.2-.355-.405-.258-.567-.723-.32-.308-.188.047-.312.125-.73-.243-.247-.238-.191-.101-.34.261-.644.313-.29.031-.347.121-.43 1.043-.238.133-.95.762-1.695.172-.332-.075-.953-.879-.285-.757-.18-.317-.445-.191-.203.09-.203.046-.254-.082-.363-.558-.27-.336-.617-.48-.356.003-.406-.316-.516-.344-.269.047-.262.152-.578.137-.191.05-.18.259-.195.285-.344.402-.11 1.055-.39.344-.242-.012-.551-.484-.633-.739-.191-.125-.656-.12-.168.16-.059.273-.055.62-.27.013-1.527-.07-.765-.126-.547-.11-.242-.214-.38-.426-.491-.261-.774.136-1.844-1.062-1.425-1.238-.625-.344-.477-.574-.324-.395-.953-.43-.317-.379-.52-.675-.757-.618-1.059-.277-.34.004-.292-.5.109-.184.121-.199-.11-.316-.054-.196.227.004.878.414.192.02.246-.305.488-.441.227-.086-.008-.035.273-.969.426-.078.086-.438-.031-.597-.04-.48.06-.43-.618-.864-.367-.96-.055-.442-.355-1.129-.328-.262-.344-.214-.266-.43-.254-.633-.503-.566-.395-.805-.703-.324-.188-.32-.234-.942.352-.227.054-.617-.28-.222-.778-.102-.438-.102-.265.004-.157-.297-.324-1.238-1.074-.765-.309-.336-.441-.246-.973-1.098-.351-.258-.368-.414-.476-.281-.371-.606-.059-.25-.183-.07-.336-.012-.157-.199.032-.652-.215-.364-.246-.12-.34-.165-.547-.433.078-.149.168-.117-.285-.742-.23-.238h-.375l-.16-.016-.215-.285-.032-.383-.175-.422-.598-.516-.035-.476-.004-.367-.043-.184-.309-.11-.136-.046-.508-.406-.086-.02-.117.25-.082.117-.028-.008-.215-.039-.398-.523-.012-.191.035-.004.07-.004-.07-.098-.14-.219.093-.004.207.012.735-.48.281.007.516.223.008-.039.168-.05.312-.036.813.004.113.004v-.004l.097-.09.29-.164.082-.18.082.055.093-.125.149-.426.824-.437.184-.434.015-.144.66.043.25-.063.102-.238.172-.32.152-.184.242-.742-.433-1.38-.918-.589-.664-.32-.168-.317.054-.02.024-2.48.273-1.222-.101-.348.191-.566.13-.559-.044-.48.195-.278.91-.426.047-.125-.457-2.05.024-.305-.012-1.016-.039-.226-.082-.426-.05-.477-.024-.425.058-1.133-.02-.152.044-.188.176-.187.25-.141-.082-.063-.125-.14-.43-2.13.324-.226.242-.062.485-.024.222-.238.172-.402h.008l.074-.067-.02-.035.055-.133.024-.004.176-.039.406-.347.203-.203.008-.024-.102-.035-.152-.293.008-.27-.184-.34-.43-.288-.398-.184-.543-.168-.066-.008.02.074-.079 1.813-.137.152-.199-.097-.183-.059-.34.012-.48.156-.231.059-.067.312-.054-.027-.66-.778-.063-.23-1.082-.531-.137.453.051.238-.29.27-.19.015-1.18-.703-.3-.316-1.298-.324-.344.039-.34-.114-.261-.242-.024.07-.246.375-.93-.02-.327.118-.235-.14-.222-.067-.887-.555-.25-.152-.352.2-.875-.071-.379-.266-.515-.535-.227-.332-.289.059-.406.011-.13-.003-.335.117-.148.14-.395.664-.156.172-.117.067-.415.367-.12.121-.47.363-.44.078-.028.086-.34.18-.3.121-.946-.012-.52-.09-.242.13-.347-.012-.496.258-.653-.758-.558-1.106v-.351l-.227-.332-.281-.172-.086-.09-.555-.719-.773-.469-.809-1.625-.008.055-.133.05-.113.161.094.574-.152.09-.32.184-.06.414-.218.238-.188.719-.171.133-.266.062-.48.719-.294.601-.574-.027-.527-.289-.008.066.086.325-.324.242-.399.215.145.265.922 1.043.082.586.008.531-.18.973-.281.274-.297.039-.695-.403-.31-.27-.093.028-.18.402-.273.778-.504.207-.148.383-.27.109-.37-.137-.274-.02-.746.11-.27-.027-.3.043-.598-.133-.594.191-.297.028-.223.84-.195-.04-.223-.332-.16-.332-.187.047.02.418.12.38.223.554-.047.305-.047-.004-.199-.012.066.45.211.237.297.32.215.677-.156.316.683.848.563.273.191.371.153.168.449.356-.133.07-.09.039-.078.277.348 1.172-.078-.02-.387-.093-.063.066-.05-.023-.328-.403-.97-.308-.105.066-.23.602-.383.02-.465.058.012.32-.063-.004-.14.079.02.03.179.153-.063.024-.074.472.114.156.304.141.18-.078.031.059.192.277.48.297.176.336-.016.304-.047.262.168.348.434.039.789.566.09.266-.028.015-.12.075.003.043.012.332-.133.398-.238.7-.215.288-.129.043-.004.215-.191.008-.125.125-.02.16.032.012.128-.012.133.012.047.183-.082-.023-.098-.05-.023.034-.137.207-.117.114-.332.383-.113.125-.11.152-.28.215-.227-.098-.754.32-.09.461.129.715-.149.531.082.34.344.262.203.496.258 1.297.059.547-.012.226-.024-.007-.402-.313-.008.16-.125.63-.379-.075-1.257-.34-.239.219-.058.27-.016.296-.043.004-.058.102-.168.117-.262-.047-1.305.402-.379.2-.445-.016-.414.074-.23.078-.274.075-.629-.2-.434-.316-.257.223-.348.52-.16.151-.23.36-.391-.051-.125.117-.164.64-.117.173.167.738.239.34-.192.7-.254.019-.93.09-.136.132-.578.11-.027.3.14.72.047.097.648.34.114.37-.13 1.18-.144.059-.23.02-.094.117-.144.105-.254.028-.477.398-.125.102-.52.453-.167.074-.551.133-.375.035-.05.035v.074l.183.36.238.433.18.293.113.223.328.558.246.122.766.585 1.148.583.637.296.137.207.191.297.25.578.293.329.176.167.015-.011" style="fill-rule:nonzero;fill:#908e96;fill-opacity:1;stroke-width:.25;stroke-linecap:butt;stroke-linejoin:miter;stroke:#fff;stroke-opacity:1;stroke-miterlimit:10"/></g></svg>