<?xml version="1.0" encoding="utf-8"?>
<!-- Generator: Adobe Illustrator 26.0.3, SVG Export Plug-In . SVG Version: 6.00 Build 0)  -->
<svg version="1.1" id="Lager_1" xmlns="http://www.w3.org/2000/svg" xmlns:xlink="http://www.w3.org/1999/xlink" x="0px" y="0px"
	 width="266px" height="123px" viewBox="0 0 266 123" style="enable-background:new 0 0 266 123;" xml:space="preserve">
<rect x="76.127655" y="44.4480019" style="fill:#0061B3;" width="66.4725952" height="34.2989998"/>
<rect x="38.0819626" y="0.2662" style="fill:#0061B3;" width="66.4724884" height="34.446701"/>
<rect x="38.0819626" y="88.319603" style="fill:#0061B3;" width="66.4724884" height="34.4469986"/>
<path style="fill:#E34648;" d="M114.4482498,0.2334h13.8935013c6.6934052,0,10.5469055,2.9413998,10.5469055,9.2792997
	c0,3.4482002-1.4706879,5.8817997-3.9043121,7.2510004c3.9551086,1.0135994,6.2364044,3.7518997,6.2364044,8.3661995
	c0,6.0331993-3.9042969,9.5829983-10.9013977,9.5829983h-15.8711014V0.2334z M123.16996,13.6190996h3.5995865
	c2.3838043,0,3.3467102-1.2674999,3.3467102-3.2948999c0-2.0282993-0.9629059-3.1444998-3.2452087-3.1444998h-3.701088V13.6190996z
	 M123.16996,27.7665997h5.577095c2.4346008,0,3.3974915-1.3183994,3.3974915-3.3974991
	c0-2.1806011-1.0644989-3.5498009-3.6503906-3.5498009H123.16996V27.7665997z"/>
<path style="fill:#E34648;" d="M155.0146484,20.1093998c0,4.8681011,1.5214996,7.1494007,5.222702,7.1494007
	c3.7528992,0,5.3242035-2.3828011,5.3242035-7.1991997V0.2334h8.7216949v20.4345989
	c0,8.2646008-4.2597961,14.6025009-14.0458984,14.6025009c-9.6846008,0-13.9433899-5.6786995-13.9433899-14.6025009V0.2334
	h8.7206879V20.1093998z"/>
<path style="fill:#E34648;" d="M181.2822418,0.2334h8.7217255v34.4794998h-8.7217255V0.2334z"/>
<path style="fill:#E34648;" d="M197.3564453,34.7128983V0.2334h8.7217102v26.924799h13.8925934v7.5546989H197.3564453z"/>
<path style="fill:#E34648;" d="M224.3837433,0.2334h13.842804c8.6708984,0,15.1611023,6.1357002,15.1611023,17.289999
	c0,11.1044998-6.4902039,17.1894989-15.1611023,17.1894989h-13.842804V0.2334z M237.0605469,27.1581993
	c4.8164215,0,7.5039062-3.4482002,7.5039062-9.6348c0-6.2870989-2.6874847-9.7353001-7.4531097-9.7353001h-4.0058899v19.3701
	H237.0605469z"/>
<path style="fill:#E34648;" d="M160.3369598,64.1093979c0,4.868103,1.5213928,7.1493988,5.2225952,7.1493988
	c3.7528992,0,5.3241882-2.3827972,5.3241882-7.1991959V44.2333984h8.7217102v20.4346008
	c0,8.2646027-4.2597046,14.6025009-14.0458984,14.6025009c-9.6845856,0-13.9432983-5.6787033-13.9432983-14.6025009V44.2333984
	h8.7207031V64.1093979z"/>
<path style="fill:#E34648;" d="M185.5908508,44.2333984h15.3134003c5.881897,0,11.0029907,4.0566025,11.0029907,12.7773018
	c0,7.9101982-5.1210938,12.6260033-11.0029907,12.6260033h-6.5917969v9.0761948h-8.7216034V44.2333984z M194.3124542,51.7881012
	v10.2938995h4.6651001c2.281189,0,4.1064148-2.0283012,4.1064148-5.1211014c0-3.1953011-1.8252258-5.1727982-4.1064148-5.1727982
	H194.3124542z"/>
<path style="fill:#E34648;" d="M123.1191483,102.8877029v19.8251953h-8.6708984V88.2333984h7.5048981l12.8788986,19.8759995
	V88.2333984h8.7714996v34.4794998h-7.6054993L123.1191483,102.8877029z"/>
<path style="fill:#E34648;" d="M150.9580536,122.7128983V88.2333984h24.0849152v7.6054993h-15.769516v5.7304001h12.6259918
	v7.1993027h-12.6259918v6.3896027h15.769516v7.5546951H150.9580536z"/>
<path style="fill:#E34648;" d="M181.0283508,88.2333984h15.3134003c5.881897,0,11.0029907,4.0566025,11.0029907,12.777298
	c0,7.910202-5.1210938,12.6260071-11.0029907,12.6260071h-6.5917816v9.0761948h-8.7216187V88.2333984z M189.7499695,95.7881012
	v10.2938995h4.6650848c2.281189,0,4.1063995-2.0282974,4.1063995-5.1211014c0-3.1952972-1.8252106-5.1727982-4.1063995-5.1727982
	H189.7499695z"/>
<path style="fill:#E34648;" d="M218.4013519,88.2333984h10.1406097l10.8007812,34.4794998h-8.6708984l-1.6737976-6.2362976
	H217.84375l-1.7246094,6.2362976h-8.6191711L218.4013519,88.2333984z M219.972641,110.0371017h6.9473267l-3.4483185-13.1836014
	L219.972641,110.0371017z"/>
<path style="fill:#E34648;" d="M243.3496399,122.7128983V88.2333984h8.7216034v26.9248047h13.8925934v7.5546951H243.3496399z"/>
<rect x="0.0361534" y="44.4480019" style="fill:#0061B3;" width="66.4725952" height="34.2989998"/>
</svg>
