<svg width="15" height="15" viewBox="0 0 15 15" fill="none" xmlns="http://www.w3.org/2000/svg">
<path fill-rule="evenodd" clip-rule="evenodd" d="M5.15863 5.15863L2.98161 4.89057L4.3006 6.63569L2.27947 7.49782L4.30196 8.35239L2.98161 10.0993L5.15848 9.83126L4.89027 12.0135L6.63607 10.6941L7.49782 12.7183L8.35182 10.6932L10.1096 12.0196L9.84122 9.84016L12.0166 10.1121L10.698 8.36758L12.7205 7.51301L10.6994 6.65087L12.0202 4.90335L9.84152 5.16755L10.1094 2.99174L8.36355 4.3113L7.50126 2.28166L6.64818 4.3006L4.89012 2.97798L5.15863 5.15863ZM7.5 1L8.57321 3.52609L10.75 1.88084L10.4159 4.59424L13.1293 4.26519L11.484 6.44198L14 7.51519L11.484 8.57827L13.1293 10.7551L10.4159 10.4159L10.75 13.1293L8.56308 11.479L7.5 14L6.42679 11.479L4.25 13.1242L4.58411 10.4058L1.87072 10.7399L3.51597 8.56308L1 7.5L3.51597 6.42679L1.87072 4.25L4.58411 4.58411L4.25 1.87072L6.43692 3.51597L7.5 1Z" fill="black"/>
</svg>
